<svg enable-background="new 0 0 120 120" viewBox="0 0 120 120" xmlns="http://www.w3.org/2000/svg"><path d="m0 0h120v120h-120z" fill="#1880b6"/><g stroke="#324249" stroke-linecap="round" stroke-linejoin="round" stroke-width="2" transform="translate(1 3)"><path d="m86 44h-42c-2.2 0-4 1.8-4 4v26c0 2.2 1.8 4 4 4h8v8l12-8h22c2.2 0 4-1.8 4-4v-26c0-2.2-1.8-4-4-4z" fill="#ff6673"/><g fill="#daecf2"><path d="m32 28h42c2.2 0 4 1.8 4 4v26c0 2.2-1.8 4-4 4h-8v8l-12-8h-22c-2.2 0-4-1.8-4-4v-26c0-2.2 1.8-4 4-4z"/><circle cx="63" cy="45" r="3"/><circle cx="53" cy="45" r="2"/><circle cx="43" cy="45" r="1"/></g></g></svg>