<svg enable-background="new 0 0 120 120" viewBox="0 0 120 120" xmlns="http://www.w3.org/2000/svg"><path d="m0 0h120v120h-120z" fill="#1880b6"/><g transform="translate(4 4)"><g stroke="#324249" stroke-linecap="round" stroke-linejoin="round" stroke-width="2"><path d="m58 58h26v26h-26z" fill="#ff6673"/><path d="m28 58h26v26h-26z" fill="#daecf2"/><path d="m33 79c1-3 3.3-5 8-5s7 2 8 5" fill="none"/><circle cx="41" cy="67" fill="none" r="4"/><path d="m58 28h26v26h-26z" fill="#daecf2"/><path d="m28 28h26v26h-26z" fill="#ff6673"/><path d="m34 46h12m-12-5h14m-14-5h10" fill="#324249"/><path d="m65 38h13l-2 8h-9l-4-12" fill="none"/></g><g fill="#324249"><circle cx="68.5" cy="48.5" r="1.5"/><circle cx="74.5" cy="48.5" r="1.5"/><path d="m64 71h14m-7-7v14" stroke="#324249" stroke-linecap="round" stroke-linejoin="round" stroke-width="2"/></g></g></svg>