<?xml version="1.0" encoding="UTF-8" standalone="no"?> <svg xmlns="http://www.w3.org/2000/svg" xmlns:xlink="http://www.w3.org/1999/xlink" xmlns:serif="http://www.serif.com/" width="100%" height="100%" viewBox="0 0 348 302" xml:space="preserve" style="fill-rule:evenodd;clip-rule:evenodd;stroke-linejoin:round;stroke-miterlimit:2;"><rect id="Plan-de-travail1" serif:id="Plan de travail1" x="0" y="0" width="347.738" height="301.249" style="fill:none;"></rect><g><path d="M84.726,154.356c-6.665,0 -11.742,-1.853 -15.232,-5.56c-3.491,-3.707 -5.236,-8.972 -5.236,-15.794c0,-3.392 0.533,-6.419 1.598,-9.081c1.064,-2.662 2.524,-4.91 4.377,-6.743c1.854,-1.834 4.062,-3.224 6.625,-4.171c2.564,-0.946 5.344,-1.419 8.341,-1.419c1.735,0 3.313,0.128 4.732,0.384c1.42,0.256 2.662,0.552 3.727,0.887c1.065,0.336 1.952,0.681 2.662,1.036c0.71,0.355 1.223,0.631 1.538,0.828l-2.662,7.453c-1.262,-0.67 -2.731,-1.242 -4.407,-1.715c-1.676,-0.473 -3.579,-0.71 -5.708,-0.71c-1.42,0 -2.81,0.237 -4.171,0.71c-1.36,0.473 -2.563,1.232 -3.608,2.277c-1.045,1.045 -1.883,2.396 -2.514,4.052c-0.631,1.657 -0.947,3.668 -0.947,6.034c0,1.893 0.207,3.658 0.622,5.294c0.414,1.637 1.084,3.047 2.011,4.23c0.927,1.183 2.139,2.12 3.638,2.81c1.498,0.69 3.312,1.035 5.442,1.035c1.341,0 2.544,-0.079 3.608,-0.237c1.065,-0.157 2.012,-0.345 2.84,-0.562c0.828,-0.217 1.558,-0.463 2.189,-0.739c0.631,-0.276 1.202,-0.532 1.715,-0.769l2.544,7.394c-1.302,0.789 -3.135,1.499 -5.502,2.13c-2.366,0.631 -5.107,0.946 -8.222,0.946Z" style="fill:#fff;fill-rule:nonzero;"></path><path d="M116.255,147.376c0.868,0 1.696,-0.02 2.485,-0.059c0.788,-0.04 1.419,-0.099 1.893,-0.178l0,-6.684c-0.355,-0.079 -0.888,-0.158 -1.597,-0.237c-0.71,-0.079 -1.361,-0.118 -1.953,-0.118c-0.828,0 -1.607,0.049 -2.336,0.148c-0.73,0.099 -1.371,0.286 -1.923,0.562c-0.552,0.276 -0.986,0.651 -1.301,1.124c-0.316,0.473 -0.473,1.065 -0.473,1.774c0,1.381 0.463,2.337 1.39,2.869c0.927,0.533 2.198,0.799 3.815,0.799Zm-0.71,-25.791c2.603,0 4.772,0.295 6.507,0.887c1.736,0.592 3.126,1.439 4.171,2.544c1.045,1.104 1.784,2.445 2.218,4.022c0.434,1.578 0.651,3.333 0.651,5.265l0,18.338c-1.262,0.276 -3.017,0.601 -5.265,0.976c-2.248,0.375 -4.969,0.562 -8.163,0.562c-2.012,0 -3.835,-0.178 -5.472,-0.533c-1.637,-0.354 -3.047,-0.936 -4.23,-1.745c-1.183,-0.808 -2.09,-1.863 -2.721,-3.164c-0.631,-1.302 -0.946,-2.899 -0.946,-4.792c0,-1.814 0.365,-3.352 1.094,-4.614c0.73,-1.262 1.706,-2.268 2.928,-3.017c1.223,-0.749 2.623,-1.291 4.2,-1.627c1.578,-0.335 3.214,-0.502 4.91,-0.502c1.144,0 2.159,0.049 3.047,0.147c0.887,0.099 1.607,0.227 2.159,0.385l0,-0.828c0,-1.499 -0.454,-2.702 -1.361,-3.609c-0.907,-0.907 -2.484,-1.36 -4.732,-1.36c-1.499,0 -2.978,0.108 -4.437,0.325c-1.459,0.217 -2.721,0.523 -3.786,0.917l-1.124,-7.098c0.513,-0.158 1.154,-0.326 1.923,-0.503c0.769,-0.178 1.607,-0.335 2.514,-0.473c0.907,-0.139 1.863,-0.257 2.869,-0.355c1.006,-0.099 2.021,-0.148 3.046,-0.148Z" style="fill:#fff;fill-rule:nonzero;"></path><path d="M154.173,137.024c0,-2.839 -0.365,-4.851 -1.094,-6.034c-0.73,-1.183 -1.982,-1.774 -3.756,-1.774c-0.552,0 -1.124,0.029 -1.716,0.088c-0.591,0.06 -1.163,0.129 -1.715,0.207l0,24.017l-8.814,0l0,-30.05c0.749,-0.198 1.626,-0.405 2.632,-0.621c1.006,-0.217 2.07,-0.415 3.194,-0.592c1.124,-0.177 2.278,-0.316 3.461,-0.414c1.183,-0.099 2.346,-0.148 3.49,-0.148c2.248,0 4.072,0.286 5.472,0.858c1.4,0.572 2.553,1.252 3.46,2.041c1.262,-0.907 2.712,-1.617 4.348,-2.13c1.637,-0.513 3.145,-0.769 4.526,-0.769c2.484,0 4.525,0.345 6.122,1.035c1.597,0.69 2.869,1.666 3.815,2.928c0.947,1.262 1.598,2.761 1.953,4.496c0.354,1.735 0.532,3.668 0.532,5.797l0,17.569l-8.814,0l0,-16.504c0,-2.839 -0.365,-4.851 -1.094,-6.034c-0.73,-1.183 -1.982,-1.774 -3.757,-1.774c-0.473,0 -1.134,0.118 -1.981,0.355c-0.848,0.236 -1.548,0.532 -2.1,0.887c0.276,0.907 0.453,1.863 0.532,2.869c0.079,1.005 0.118,2.08 0.118,3.224l0,16.977l-8.814,0l0,-16.504Z" style="fill:#fff;fill-rule:nonzero;"></path><path d="M208.004,138.207c0,-2.721 -0.611,-4.9 -1.834,-6.536c-1.222,-1.637 -3.037,-2.455 -5.442,-2.455c-0.789,0 -1.518,0.029 -2.189,0.088c-0.67,0.06 -1.222,0.129 -1.656,0.207l0,15.913c0.552,0.355 1.272,0.651 2.159,0.887c0.887,0.237 1.784,0.355 2.692,0.355c4.18,0 6.27,-2.819 6.27,-8.459Zm8.991,-0.236c0,2.405 -0.295,4.594 -0.887,6.566c-0.591,1.971 -1.459,3.667 -2.603,5.087c-1.143,1.42 -2.563,2.524 -4.259,3.313c-1.696,0.788 -3.648,1.183 -5.856,1.183c-1.223,0 -2.366,-0.119 -3.431,-0.355c-1.065,-0.237 -2.09,-0.572 -3.076,-1.006l0,11.713l-8.814,0l0,-40.994c0.789,-0.237 1.696,-0.464 2.721,-0.681c1.025,-0.217 2.1,-0.404 3.224,-0.562c1.124,-0.157 2.267,-0.286 3.431,-0.384c1.163,-0.099 2.277,-0.148 3.342,-0.148c2.563,0 4.851,0.385 6.862,1.154c2.011,0.769 3.707,1.853 5.087,3.253c1.381,1.4 2.435,3.106 3.165,5.117c0.73,2.011 1.094,4.259 1.094,6.744Z" style="fill:#fff;fill-rule:nonzero;"></path><path d="M250.359,152.463c-1.499,0.434 -3.431,0.838 -5.798,1.213c-2.366,0.375 -4.85,0.562 -7.453,0.562c-2.642,0 -4.841,-0.355 -6.596,-1.065c-1.755,-0.71 -3.145,-1.705 -4.17,-2.987c-1.026,-1.282 -1.755,-2.81 -2.189,-4.585c-0.434,-1.774 -0.651,-3.726 -0.651,-5.856l0,-17.332l8.814,0l0,16.267c0,2.84 0.375,4.89 1.124,6.152c0.75,1.262 2.15,1.893 4.2,1.893c0.631,0 1.302,-0.029 2.012,-0.088c0.709,-0.06 1.34,-0.129 1.892,-0.207l0,-24.017l8.815,0l0,30.05Z" style="fill:#fff;fill-rule:nonzero;"></path><path d="M267.572,147.199c1.617,0 2.761,-0.158 3.431,-0.474c0.671,-0.315 1.006,-0.926 1.006,-1.833c0,-0.71 -0.434,-1.331 -1.301,-1.864c-0.868,-0.532 -2.189,-1.134 -3.964,-1.804c-1.38,-0.513 -2.632,-1.045 -3.756,-1.597c-1.124,-0.552 -2.08,-1.213 -2.869,-1.982c-0.789,-0.769 -1.4,-1.686 -1.834,-2.751c-0.434,-1.064 -0.65,-2.346 -0.65,-3.845c0,-2.918 1.084,-5.225 3.253,-6.921c2.169,-1.695 5.146,-2.543 8.932,-2.543c1.893,0 3.707,0.167 5.443,0.503c1.735,0.335 3.115,0.7 4.14,1.094l-1.538,6.862c-1.025,-0.355 -2.139,-0.671 -3.342,-0.947c-1.203,-0.276 -2.553,-0.414 -4.052,-0.414c-2.761,0 -4.141,0.769 -4.141,2.307c0,0.355 0.059,0.671 0.178,0.947c0.118,0.276 0.355,0.542 0.71,0.798c0.354,0.257 0.838,0.534 1.449,0.832c0.611,0.298 1.39,0.626 2.336,0.984c1.933,0.716 3.53,1.421 4.792,2.117c1.262,0.696 2.258,1.447 2.987,2.254c0.73,0.806 1.242,1.701 1.538,2.685c0.296,0.984 0.444,2.125 0.444,3.423c0,3.069 -1.154,5.391 -3.461,6.965c-2.307,1.574 -5.57,2.361 -9.79,2.361c-2.76,0 -5.057,-0.236 -6.891,-0.71c-1.834,-0.473 -3.106,-0.867 -3.816,-1.183l1.479,-7.157c1.499,0.591 3.037,1.055 4.614,1.39c1.578,0.335 3.135,0.503 4.673,0.503Z" style="fill:#fff;fill-rule:nonzero;"></path></g><g><path d="M148.088,176.762c-0.669,1.937 -1.307,3.728 -1.914,5.373c-0.607,1.646 -1.201,3.208 -1.782,4.687c-0.581,1.479 -1.158,2.891 -1.73,4.238c-0.572,1.346 -1.157,2.68 -1.755,4l-2.403,0c-0.599,-1.32 -1.184,-2.654 -1.756,-4c-0.572,-1.347 -1.153,-2.759 -1.743,-4.238c-0.589,-1.479 -1.192,-3.041 -1.808,-4.687c-0.616,-1.645 -1.25,-3.436 -1.901,-5.373l2.825,0c0.95,2.782 1.883,5.457 2.799,8.027c0.915,2.57 1.857,4.981 2.825,7.235c0.968,-2.236 1.91,-4.643 2.825,-7.222c0.915,-2.579 1.839,-5.258 2.772,-8.04l2.746,0Z" style="fill:#fff;fill-rule:nonzero;"></path><path d="M154.451,193.291c0.581,0 1.096,-0.013 1.545,-0.04c0.449,-0.026 0.823,-0.075 1.122,-0.145l0,-4.092c-0.176,-0.088 -0.462,-0.163 -0.858,-0.225c-0.396,-0.061 -0.876,-0.092 -1.439,-0.092c-0.37,0 -0.761,0.026 -1.175,0.079c-0.414,0.053 -0.792,0.163 -1.135,0.33c-0.343,0.167 -0.629,0.396 -0.858,0.686c-0.229,0.291 -0.344,0.674 -0.344,1.149c0,0.88 0.282,1.492 0.845,1.835c0.564,0.343 1.329,0.515 2.297,0.515Zm-0.211,-12.304c0.986,0 1.818,0.128 2.495,0.383c0.678,0.255 1.224,0.616 1.637,1.082c0.414,0.467 0.709,1.021 0.885,1.664c0.176,0.642 0.264,1.351 0.264,2.125l0,8.581c-0.211,0.035 -0.506,0.084 -0.885,0.146c-0.378,0.061 -0.805,0.118 -1.28,0.171c-0.475,0.053 -0.99,0.101 -1.545,0.145c-0.554,0.044 -1.104,0.066 -1.65,0.066c-0.774,0 -1.487,-0.079 -2.139,-0.237c-0.651,-0.159 -1.214,-0.41 -1.689,-0.753c-0.476,-0.343 -0.845,-0.796 -1.109,-1.36c-0.264,-0.563 -0.396,-1.241 -0.396,-2.033c0,-0.757 0.154,-1.408 0.462,-1.953c0.308,-0.546 0.726,-0.986 1.254,-1.321c0.528,-0.334 1.144,-0.58 1.848,-0.739c0.704,-0.158 1.443,-0.238 2.218,-0.238c0.246,0 0.502,0.014 0.766,0.04c0.264,0.026 0.514,0.062 0.752,0.106c0.238,0.044 0.445,0.083 0.621,0.118c0.176,0.036 0.299,0.062 0.369,0.08l0,-0.687c0,-0.405 -0.044,-0.805 -0.132,-1.201c-0.088,-0.396 -0.246,-0.748 -0.475,-1.056c-0.229,-0.308 -0.541,-0.555 -0.937,-0.74c-0.396,-0.184 -0.911,-0.277 -1.545,-0.277c-0.81,0 -1.518,0.057 -2.125,0.172c-0.608,0.114 -1.061,0.233 -1.36,0.356l-0.291,-2.033c0.317,-0.141 0.845,-0.277 1.585,-0.409c0.739,-0.132 1.54,-0.198 2.402,-0.198Z" style="fill:#fff;fill-rule:nonzero;"></path><path d="M167.706,195.324c-1.514,-0.035 -2.588,-0.361 -3.221,-0.977c-0.634,-0.616 -0.951,-1.575 -0.951,-2.878l0,-16.476l2.456,-0.422l0,16.502c0,0.405 0.035,0.739 0.105,1.003c0.071,0.264 0.185,0.476 0.344,0.634c0.158,0.158 0.369,0.277 0.633,0.356c0.264,0.08 0.59,0.146 0.977,0.198l-0.343,2.06Z" style="fill:#fff;fill-rule:nonzero;"></path><path d="M170.029,188.221c0,-1.214 0.176,-2.275 0.528,-3.181c0.353,-0.907 0.819,-1.659 1.4,-2.258c0.581,-0.598 1.25,-1.047 2.007,-1.346c0.756,-0.299 1.531,-0.449 2.323,-0.449c1.848,0 3.265,0.576 4.251,1.729c0.986,1.153 1.479,2.909 1.479,5.268l0,0.409c0,0.167 -0.009,0.321 -0.027,0.462l-9.399,0c0.105,1.426 0.519,2.508 1.241,3.248c0.721,0.739 1.848,1.109 3.379,1.109c0.863,0 1.589,-0.075 2.178,-0.225c0.59,-0.149 1.035,-0.295 1.334,-0.435l0.343,2.059c-0.299,0.158 -0.823,0.326 -1.571,0.502c-0.748,0.176 -1.597,0.264 -2.548,0.264c-1.197,0 -2.231,-0.181 -3.102,-0.542c-0.872,-0.36 -1.589,-0.858 -2.152,-1.491c-0.563,-0.634 -0.981,-1.386 -1.254,-2.258c-0.273,-0.871 -0.41,-1.826 -0.41,-2.865Zm9.426,-1.346c0.018,-1.109 -0.259,-2.02 -0.831,-2.733c-0.572,-0.713 -1.36,-1.069 -2.363,-1.069c-0.564,0 -1.061,0.11 -1.492,0.33c-0.431,0.22 -0.797,0.506 -1.096,0.858c-0.299,0.352 -0.532,0.757 -0.7,1.214c-0.167,0.458 -0.277,0.925 -0.33,1.4l6.812,0Z" style="fill:#fff;fill-rule:nonzero;"></path><path d="M185.555,181.726c0.563,-0.141 1.311,-0.29 2.244,-0.449c0.933,-0.158 2.007,-0.237 3.221,-0.237c1.091,0 1.998,0.154 2.72,0.462c0.721,0.308 1.298,0.739 1.729,1.294c0.431,0.554 0.735,1.219 0.911,1.993c0.176,0.775 0.264,1.628 0.264,2.561l0,7.71l-2.456,0l0,-7.182c0,-0.845 -0.057,-1.566 -0.171,-2.165c-0.115,-0.598 -0.304,-1.082 -0.568,-1.452c-0.264,-0.37 -0.616,-0.638 -1.056,-0.805c-0.44,-0.168 -0.986,-0.251 -1.637,-0.251c-0.264,0 -0.537,0.009 -0.818,0.026c-0.282,0.018 -0.551,0.04 -0.806,0.066c-0.255,0.027 -0.484,0.057 -0.686,0.093c-0.203,0.035 -0.348,0.061 -0.436,0.079l0,11.591l-2.455,0l0,-13.334Z" style="fill:#fff;fill-rule:nonzero;"></path><path d="M206.677,195.377c-1.109,0 -2.081,-0.176 -2.917,-0.528c-0.836,-0.352 -1.54,-0.845 -2.113,-1.479c-0.572,-0.634 -0.998,-1.386 -1.28,-2.257c-0.282,-0.872 -0.423,-1.835 -0.423,-2.892c0,-1.056 0.154,-2.024 0.462,-2.904c0.309,-0.88 0.744,-1.641 1.307,-2.284c0.564,-0.642 1.255,-1.144 2.073,-1.505c0.819,-0.361 1.73,-0.541 2.733,-0.541c0.616,0 1.232,0.053 1.848,0.158c0.616,0.106 1.206,0.273 1.769,0.502l-0.554,2.086c-0.37,-0.176 -0.797,-0.317 -1.281,-0.423c-0.484,-0.105 -0.999,-0.158 -1.545,-0.158c-1.372,0 -2.424,0.431 -3.155,1.294c-0.73,0.862 -1.095,2.121 -1.095,3.775c0,0.74 0.083,1.417 0.25,2.034c0.168,0.616 0.432,1.144 0.792,1.584c0.361,0.44 0.823,0.779 1.387,1.016c0.563,0.238 1.249,0.357 2.059,0.357c0.651,0 1.241,-0.062 1.769,-0.185c0.528,-0.123 0.942,-0.255 1.241,-0.396l0.343,2.059c-0.14,0.088 -0.343,0.172 -0.607,0.251c-0.264,0.079 -0.563,0.15 -0.898,0.211c-0.334,0.062 -0.691,0.115 -1.069,0.159c-0.378,0.044 -0.744,0.066 -1.096,0.066Z" style="fill:#fff;fill-rule:nonzero;"></path><path d="M212.222,188.221c0,-1.214 0.176,-2.275 0.528,-3.181c0.352,-0.907 0.819,-1.659 1.399,-2.258c0.581,-0.598 1.25,-1.047 2.007,-1.346c0.757,-0.299 1.531,-0.449 2.324,-0.449c1.848,0 3.265,0.576 4.251,1.729c0.985,1.153 1.478,2.909 1.478,5.268l0,0.409c0,0.167 -0.009,0.321 -0.026,0.462l-9.4,0c0.106,1.426 0.519,2.508 1.241,3.248c0.722,0.739 1.848,1.109 3.38,1.109c0.862,0 1.588,-0.075 2.178,-0.225c0.59,-0.149 1.034,-0.295 1.333,-0.435l0.344,2.059c-0.3,0.158 -0.823,0.326 -1.571,0.502c-0.749,0.176 -1.598,0.264 -2.548,0.264c-1.197,0 -2.231,-0.181 -3.103,-0.542c-0.871,-0.36 -1.588,-0.858 -2.152,-1.491c-0.563,-0.634 -0.981,-1.386 -1.254,-2.258c-0.273,-0.871 -0.409,-1.826 -0.409,-2.865Zm9.426,-1.346c0.018,-1.109 -0.26,-2.02 -0.832,-2.733c-0.572,-0.713 -1.359,-1.069 -2.363,-1.069c-0.563,0 -1.06,0.11 -1.492,0.33c-0.431,0.22 -0.796,0.506 -1.095,0.858c-0.3,0.352 -0.533,0.757 -0.7,1.214c-0.167,0.458 -0.277,0.925 -0.33,1.4l6.812,0Z" style="fill:#fff;fill-rule:nonzero;"></path><path d="M135.283,212.46l2.561,0l0,8.554c-0.211,0.071 -0.515,0.15 -0.911,0.238c-0.396,0.088 -0.854,0.176 -1.373,0.264c-0.519,0.088 -1.087,0.163 -1.703,0.225c-0.616,0.061 -1.241,0.092 -1.875,0.092c-1.285,0 -2.455,-0.211 -3.511,-0.634c-1.057,-0.422 -1.963,-1.038 -2.72,-1.848c-0.757,-0.81 -1.342,-1.804 -1.756,-2.984c-0.413,-1.179 -0.62,-2.534 -0.62,-4.066c0,-1.531 0.233,-2.891 0.699,-4.079c0.467,-1.188 1.096,-2.187 1.888,-2.997c0.792,-0.809 1.721,-1.426 2.786,-1.848c1.065,-0.422 2.204,-0.634 3.419,-0.634c0.827,0 1.562,0.053 2.205,0.159c0.642,0.105 1.192,0.229 1.65,0.369c0.458,0.141 0.832,0.282 1.122,0.423c0.29,0.141 0.489,0.246 0.594,0.317l-0.818,2.138c-0.511,-0.334 -1.189,-0.611 -2.033,-0.831c-0.845,-0.22 -1.708,-0.33 -2.588,-0.33c-0.933,0 -1.782,0.167 -2.548,0.501c-0.766,0.335 -1.417,0.819 -1.954,1.452c-0.537,0.634 -0.955,1.404 -1.254,2.311c-0.299,0.906 -0.449,1.923 -0.449,3.049c0,1.092 0.128,2.086 0.383,2.984c0.255,0.898 0.643,1.668 1.162,2.31c0.519,0.643 1.162,1.14 1.927,1.492c0.766,0.352 1.668,0.528 2.707,0.528c0.739,0 1.368,-0.04 1.887,-0.119c0.52,-0.079 0.894,-0.154 1.123,-0.224l0,-6.812Z" style="fill:#fff;fill-rule:nonzero;"></path><path d="M146.768,207.443c0.211,0 0.453,0.013 0.726,0.04c0.273,0.026 0.541,0.061 0.805,0.105c0.264,0.044 0.507,0.088 0.727,0.132c0.22,0.044 0.382,0.084 0.488,0.119l-0.422,2.139c-0.194,-0.071 -0.515,-0.154 -0.964,-0.251c-0.449,-0.097 -1.025,-0.145 -1.73,-0.145c-0.457,0 -0.911,0.048 -1.359,0.145c-0.449,0.097 -0.744,0.163 -0.885,0.198l0,11.538l-2.455,0l0,-13.149c0.58,-0.211 1.302,-0.409 2.165,-0.594c0.862,-0.185 1.83,-0.277 2.904,-0.277Z" style="fill:#fff;fill-rule:nonzero;"></path><path d="M151.125,214.625c0,-1.215 0.176,-2.275 0.528,-3.182c0.352,-0.906 0.818,-1.659 1.399,-2.257c0.581,-0.599 1.25,-1.048 2.007,-1.347c0.757,-0.299 1.531,-0.449 2.323,-0.449c1.848,0 3.265,0.577 4.251,1.73c0.986,1.153 1.479,2.908 1.479,5.267l0,0.409c0,0.168 -0.009,0.322 -0.027,0.462l-9.399,0c0.105,1.426 0.519,2.509 1.241,3.248c0.721,0.739 1.848,1.109 3.379,1.109c0.863,0 1.589,-0.075 2.179,-0.224c0.589,-0.15 1.034,-0.295 1.333,-0.436l0.343,2.059c-0.299,0.159 -0.823,0.326 -1.571,0.502c-0.748,0.176 -1.597,0.264 -2.548,0.264c-1.197,0 -2.231,-0.18 -3.102,-0.541c-0.871,-0.361 -1.589,-0.858 -2.152,-1.492c-0.563,-0.634 -0.981,-1.386 -1.254,-2.257c-0.273,-0.872 -0.409,-1.827 -0.409,-2.865Zm9.426,-1.347c0.017,-1.109 -0.26,-2.02 -0.832,-2.733c-0.572,-0.712 -1.36,-1.069 -2.363,-1.069c-0.563,0 -1.061,0.11 -1.492,0.33c-0.431,0.22 -0.796,0.506 -1.096,0.858c-0.299,0.352 -0.532,0.757 -0.699,1.215c-0.168,0.458 -0.278,0.924 -0.33,1.399l6.812,0Z" style="fill:#fff;fill-rule:nonzero;"></path><path d="M166.65,208.13c0.563,-0.141 1.311,-0.291 2.244,-0.449c0.933,-0.159 2.007,-0.238 3.221,-0.238c1.092,0 1.998,0.154 2.72,0.462c0.722,0.308 1.298,0.739 1.729,1.294c0.432,0.554 0.735,1.219 0.911,1.993c0.176,0.775 0.264,1.629 0.264,2.561l0,7.71l-2.455,0l0,-7.181c0,-0.845 -0.058,-1.567 -0.172,-2.166c-0.114,-0.598 -0.304,-1.082 -0.568,-1.452c-0.264,-0.369 -0.616,-0.638 -1.056,-0.805c-0.44,-0.167 -0.985,-0.251 -1.637,-0.251c-0.264,0 -0.537,0.009 -0.818,0.027c-0.282,0.017 -0.55,0.039 -0.806,0.066c-0.255,0.026 -0.484,0.057 -0.686,0.092c-0.202,0.035 -0.348,0.062 -0.436,0.079l0,11.591l-2.455,0l0,-13.333Z" style="fill:#fff;fill-rule:nonzero;"></path><path d="M193.924,214.598c0,1.092 -0.158,2.077 -0.475,2.958c-0.317,0.88 -0.761,1.637 -1.333,2.27c-0.572,0.634 -1.254,1.122 -2.046,1.466c-0.793,0.343 -1.655,0.515 -2.588,0.515c-0.933,0 -1.795,-0.172 -2.587,-0.515c-0.793,-0.344 -1.475,-0.832 -2.047,-1.466c-0.572,-0.633 -1.016,-1.39 -1.333,-2.27c-0.317,-0.881 -0.475,-1.866 -0.475,-2.958c0,-1.073 0.158,-2.055 0.475,-2.944c0.317,-0.888 0.761,-1.65 1.333,-2.283c0.572,-0.634 1.254,-1.123 2.047,-1.466c0.792,-0.343 1.654,-0.515 2.587,-0.515c0.933,0 1.795,0.172 2.588,0.515c0.792,0.343 1.474,0.832 2.046,1.466c0.572,0.633 1.016,1.395 1.333,2.283c0.317,0.889 0.475,1.871 0.475,2.944Zm-2.561,0c0,-1.549 -0.347,-2.776 -1.043,-3.683c-0.695,-0.906 -1.641,-1.36 -2.838,-1.36c-1.197,0 -2.143,0.454 -2.838,1.36c-0.696,0.907 -1.043,2.134 -1.043,3.683c0,1.549 0.347,2.777 1.043,3.684c0.695,0.906 1.641,1.359 2.838,1.359c1.197,0 2.143,-0.453 2.838,-1.359c0.696,-0.907 1.043,-2.135 1.043,-3.684Z" style="fill:#fff;fill-rule:nonzero;"></path><path d="M199.839,208.341c0.299,-0.194 0.752,-0.396 1.36,-0.607c0.607,-0.212 1.307,-0.317 2.099,-0.317c0.985,0 1.861,0.176 2.627,0.528c0.765,0.352 1.412,0.845 1.94,1.478c0.529,0.634 0.929,1.391 1.202,2.271c0.273,0.88 0.409,1.848 0.409,2.904c0,1.109 -0.163,2.108 -0.488,2.997c-0.326,0.889 -0.788,1.642 -1.387,2.258c-0.598,0.616 -1.32,1.091 -2.165,1.425c-0.845,0.335 -1.795,0.502 -2.851,0.502c-1.144,0 -2.157,-0.079 -3.037,-0.238c-0.88,-0.158 -1.601,-0.316 -2.165,-0.475l0,-19.67l2.456,-0.423l0,7.367Zm0,10.984c0.246,0.07 0.594,0.136 1.043,0.198c0.449,0.061 1.007,0.092 1.676,0.092c1.321,0 2.377,-0.436 3.169,-1.307c0.792,-0.871 1.188,-2.108 1.188,-3.71c0,-0.704 -0.07,-1.364 -0.211,-1.98c-0.141,-0.616 -0.37,-1.148 -0.687,-1.597c-0.317,-0.449 -0.726,-0.801 -1.228,-1.056c-0.501,-0.256 -1.104,-0.383 -1.808,-0.383c-0.669,0 -1.285,0.114 -1.848,0.343c-0.564,0.229 -0.995,0.466 -1.294,0.713l0,8.687Z" style="fill:#fff;fill-rule:nonzero;"></path><path d="M217.054,221.727c-1.514,-0.035 -2.588,-0.361 -3.221,-0.977c-0.634,-0.616 -0.951,-1.575 -0.951,-2.878l0,-16.475l2.456,-0.423l0,16.502c0,0.405 0.035,0.74 0.105,1.004c0.071,0.264 0.185,0.475 0.343,0.633c0.159,0.159 0.37,0.278 0.634,0.357c0.264,0.079 0.59,0.145 0.977,0.198l-0.343,2.059Z" style="fill:#fff;fill-rule:nonzero;"></path><path d="M219.377,214.625c0,-1.215 0.176,-2.275 0.528,-3.182c0.352,-0.906 0.819,-1.659 1.4,-2.257c0.581,-0.599 1.25,-1.048 2.006,-1.347c0.757,-0.299 1.532,-0.449 2.324,-0.449c1.848,0 3.265,0.577 4.251,1.73c0.986,1.153 1.478,2.908 1.478,5.267l0,0.409c0,0.168 -0.008,0.322 -0.026,0.462l-9.4,0c0.106,1.426 0.52,2.509 1.241,3.248c0.722,0.739 1.849,1.109 3.38,1.109c0.863,0 1.589,-0.075 2.178,-0.224c0.59,-0.15 1.034,-0.295 1.334,-0.436l0.343,2.059c-0.299,0.159 -0.823,0.326 -1.571,0.502c-0.748,0.176 -1.597,0.264 -2.548,0.264c-1.197,0 -2.231,-0.18 -3.102,-0.541c-0.872,-0.361 -1.589,-0.858 -2.152,-1.492c-0.564,-0.634 -0.982,-1.386 -1.254,-2.257c-0.273,-0.872 -0.41,-1.827 -0.41,-2.865Zm9.426,-1.347c0.018,-1.109 -0.259,-2.02 -0.831,-2.733c-0.572,-0.712 -1.36,-1.069 -2.364,-1.069c-0.563,0 -1.06,0.11 -1.491,0.33c-0.432,0.22 -0.797,0.506 -1.096,0.858c-0.299,0.352 -0.533,0.757 -0.7,1.215c-0.167,0.458 -0.277,0.924 -0.33,1.399l6.812,0Z" style="fill:#fff;fill-rule:nonzero;"></path><path d="M126.385,248.263c-1.285,0 -2.456,-0.212 -3.512,-0.634c-1.056,-0.422 -1.963,-1.039 -2.72,-1.848c-0.756,-0.81 -1.342,-1.809 -1.755,-2.997c-0.414,-1.188 -0.621,-2.548 -0.621,-4.079c0,-1.532 0.233,-2.892 0.7,-4.08c0.466,-1.188 1.096,-2.187 1.888,-2.996c0.792,-0.81 1.716,-1.426 2.772,-1.849c1.056,-0.422 2.183,-0.633 3.38,-0.633c0.757,0 1.439,0.052 2.046,0.158c0.607,0.106 1.135,0.229 1.584,0.37c0.449,0.141 0.814,0.281 1.096,0.422c0.282,0.141 0.475,0.247 0.581,0.317l-0.74,2.112c-0.158,-0.105 -0.387,-0.22 -0.686,-0.343c-0.299,-0.123 -0.638,-0.246 -1.017,-0.37c-0.378,-0.123 -0.792,-0.224 -1.241,-0.303c-0.448,-0.079 -0.902,-0.119 -1.359,-0.119c-0.968,0 -1.84,0.167 -2.614,0.502c-0.775,0.334 -1.435,0.818 -1.98,1.452c-0.546,0.633 -0.964,1.404 -1.255,2.31c-0.29,0.907 -0.435,1.923 -0.435,3.05c0,1.091 0.127,2.086 0.383,2.983c0.255,0.898 0.638,1.668 1.148,2.311c0.511,0.642 1.149,1.139 1.914,1.491c0.766,0.352 1.659,0.528 2.68,0.528c1.18,0 2.157,-0.123 2.931,-0.369c0.775,-0.247 1.355,-0.467 1.743,-0.66l0.66,2.112c-0.123,0.088 -0.343,0.198 -0.66,0.33c-0.317,0.132 -0.713,0.26 -1.188,0.383c-0.476,0.123 -1.03,0.229 -1.664,0.317c-0.634,0.088 -1.32,0.132 -2.059,0.132Z" style="fill:#fff;fill-rule:nonzero;"></path><path d="M134.728,247.867l0,-20.067l2.456,-0.422l0,7.023c0.457,-0.176 0.946,-0.313 1.465,-0.409c0.519,-0.097 1.034,-0.146 1.545,-0.146c1.091,0 1.997,0.154 2.719,0.463c0.722,0.308 1.298,0.739 1.73,1.293c0.431,0.555 0.734,1.219 0.911,1.994c0.176,0.774 0.264,1.628 0.264,2.561l0,7.71l-2.456,0l0,-7.182c0,-0.845 -0.057,-1.567 -0.172,-2.165c-0.114,-0.599 -0.303,-1.083 -0.567,-1.452c-0.264,-0.37 -0.616,-0.638 -1.056,-0.806c-0.44,-0.167 -0.986,-0.25 -1.637,-0.25c-0.264,0 -0.537,0.017 -0.819,0.052c-0.282,0.036 -0.55,0.075 -0.805,0.119c-0.255,0.044 -0.484,0.093 -0.687,0.145c-0.202,0.053 -0.347,0.097 -0.435,0.132l0,11.407l-2.456,0Z" style="fill:#fff;fill-rule:nonzero;"></path><path d="M154.451,246.098c0.581,0 1.096,-0.014 1.545,-0.04c0.449,-0.026 0.823,-0.075 1.122,-0.145l0,-4.093c-0.176,-0.088 -0.462,-0.163 -0.858,-0.224c-0.396,-0.062 -0.876,-0.093 -1.439,-0.093c-0.37,0 -0.761,0.027 -1.175,0.08c-0.414,0.052 -0.792,0.162 -1.135,0.33c-0.343,0.167 -0.629,0.396 -0.858,0.686c-0.229,0.291 -0.344,0.673 -0.344,1.149c0,0.88 0.282,1.491 0.845,1.835c0.564,0.343 1.329,0.515 2.297,0.515Zm-0.211,-12.304c0.986,0 1.818,0.127 2.495,0.382c0.678,0.256 1.224,0.617 1.637,1.083c0.414,0.466 0.709,1.021 0.885,1.663c0.176,0.643 0.264,1.351 0.264,2.126l0,8.581c-0.211,0.035 -0.506,0.084 -0.885,0.145c-0.378,0.062 -0.805,0.119 -1.28,0.172c-0.475,0.053 -0.99,0.101 -1.545,0.145c-0.554,0.044 -1.104,0.066 -1.65,0.066c-0.774,0 -1.487,-0.079 -2.139,-0.238c-0.651,-0.158 -1.214,-0.409 -1.689,-0.752c-0.476,-0.343 -0.845,-0.797 -1.109,-1.36c-0.264,-0.563 -0.396,-1.241 -0.396,-2.033c0,-0.757 0.154,-1.408 0.462,-1.954c0.308,-0.545 0.726,-0.985 1.254,-1.32c0.528,-0.334 1.144,-0.581 1.848,-0.739c0.704,-0.159 1.443,-0.238 2.218,-0.238c0.246,0 0.502,0.013 0.766,0.04c0.264,0.026 0.514,0.061 0.752,0.105c0.238,0.044 0.445,0.084 0.621,0.119c0.176,0.035 0.299,0.062 0.369,0.079l0,-0.686c0,-0.405 -0.044,-0.805 -0.132,-1.201c-0.088,-0.396 -0.246,-0.749 -0.475,-1.057c-0.229,-0.308 -0.541,-0.554 -0.937,-0.739c-0.396,-0.185 -0.911,-0.277 -1.545,-0.277c-0.81,0 -1.518,0.057 -2.125,0.172c-0.608,0.114 -1.061,0.233 -1.36,0.356l-0.291,-2.033c0.317,-0.141 0.845,-0.277 1.585,-0.409c0.739,-0.132 1.54,-0.198 2.402,-0.198Z" style="fill:#fff;fill-rule:nonzero;"></path><path d="M163.587,234.533c0.563,-0.141 1.307,-0.291 2.231,-0.449c0.924,-0.158 1.994,-0.238 3.208,-0.238c0.88,0 1.62,0.119 2.218,0.357c0.598,0.238 1.1,0.585 1.505,1.043c0.123,-0.088 0.317,-0.211 0.581,-0.37c0.264,-0.158 0.59,-0.312 0.977,-0.462c0.387,-0.15 0.818,-0.282 1.294,-0.396c0.475,-0.114 0.985,-0.172 1.531,-0.172c1.056,0 1.919,0.154 2.587,0.463c0.669,0.308 1.193,0.743 1.571,1.306c0.379,0.564 0.634,1.233 0.766,2.007c0.132,0.775 0.198,1.62 0.198,2.535l0,7.71l-2.455,0l0,-7.182c0,-0.81 -0.04,-1.505 -0.119,-2.086c-0.079,-0.581 -0.229,-1.065 -0.449,-1.452c-0.22,-0.387 -0.519,-0.673 -0.898,-0.858c-0.378,-0.185 -0.867,-0.277 -1.465,-0.277c-0.827,0 -1.509,0.11 -2.046,0.33c-0.537,0.22 -0.902,0.418 -1.096,0.594c0.141,0.457 0.246,0.959 0.317,1.505c0.07,0.545 0.105,1.117 0.105,1.716l0,7.71l-2.455,0l0,-7.182c0,-0.81 -0.044,-1.505 -0.132,-2.086c-0.088,-0.581 -0.242,-1.065 -0.462,-1.452c-0.22,-0.387 -0.52,-0.673 -0.898,-0.858c-0.378,-0.185 -0.858,-0.277 -1.439,-0.277c-0.246,0 -0.51,0.008 -0.792,0.026c-0.282,0.018 -0.55,0.04 -0.805,0.066c-0.256,0.026 -0.489,0.057 -0.7,0.092c-0.211,0.036 -0.352,0.062 -0.422,0.08l0,11.591l-2.456,0l0,-13.334Z" style="fill:#fff;fill-rule:nonzero;"></path><path d="M188.776,234.744c0.299,-0.193 0.752,-0.396 1.36,-0.607c0.607,-0.211 1.307,-0.317 2.099,-0.317c0.985,0 1.861,0.176 2.627,0.528c0.765,0.352 1.412,0.845 1.94,1.479c0.528,0.633 0.929,1.39 1.202,2.27c0.273,0.88 0.409,1.849 0.409,2.905c0,1.109 -0.163,2.108 -0.488,2.997c-0.326,0.888 -0.788,1.641 -1.387,2.257c-0.598,0.616 -1.32,1.091 -2.165,1.426c-0.845,0.334 -1.795,0.501 -2.851,0.501c-1.144,0 -2.157,-0.079 -3.037,-0.237c-0.88,-0.159 -1.601,-0.317 -2.165,-0.475l0,-19.671l2.456,-0.422l0,7.366Zm0,10.984c0.246,0.07 0.594,0.136 1.043,0.198c0.449,0.062 1.007,0.092 1.676,0.092c1.321,0 2.377,-0.435 3.169,-1.307c0.792,-0.871 1.188,-2.107 1.188,-3.709c0,-0.704 -0.071,-1.364 -0.211,-1.98c-0.141,-0.617 -0.37,-1.149 -0.687,-1.598c-0.317,-0.449 -0.726,-0.801 -1.228,-1.056c-0.501,-0.255 -1.104,-0.383 -1.808,-0.383c-0.669,0 -1.285,0.115 -1.848,0.343c-0.564,0.229 -0.995,0.467 -1.294,0.713l0,8.687Z" style="fill:#fff;fill-rule:nonzero;"></path><path d="M201.106,241.028c0,-1.214 0.176,-2.275 0.528,-3.181c0.352,-0.907 0.819,-1.659 1.4,-2.258c0.58,-0.598 1.249,-1.047 2.006,-1.347c0.757,-0.299 1.532,-0.448 2.324,-0.448c1.848,0 3.265,0.576 4.251,1.729c0.985,1.153 1.478,2.909 1.478,5.268l0,0.409c0,0.167 -0.009,0.321 -0.026,0.462l-9.4,0c0.106,1.426 0.52,2.508 1.241,3.247c0.722,0.74 1.848,1.109 3.38,1.109c0.862,0 1.588,-0.074 2.178,-0.224c0.59,-0.15 1.034,-0.295 1.334,-0.436l0.343,2.06c-0.299,0.158 -0.823,0.325 -1.571,0.501c-0.748,0.176 -1.598,0.264 -2.548,0.264c-1.197,0 -2.231,-0.18 -3.103,-0.541c-0.871,-0.361 -1.588,-0.858 -2.151,-1.492c-0.564,-0.633 -0.982,-1.386 -1.255,-2.257c-0.272,-0.871 -0.409,-1.826 -0.409,-2.865Zm9.426,-1.346c0.018,-1.109 -0.259,-2.02 -0.832,-2.733c-0.572,-0.713 -1.359,-1.069 -2.363,-1.069c-0.563,0 -1.06,0.11 -1.491,0.33c-0.432,0.22 -0.797,0.506 -1.096,0.858c-0.299,0.352 -0.533,0.757 -0.7,1.214c-0.167,0.458 -0.277,0.924 -0.33,1.4l6.812,0Zm-0.026,-10.747l-3.723,3.618l-1.241,-1.109l3.38,-4.066l1.584,1.557Z" style="fill:#fff;fill-rule:nonzero;"></path><path d="M221.701,233.846c0.211,0 0.453,0.014 0.726,0.04c0.273,0.026 0.541,0.062 0.805,0.106c0.264,0.044 0.506,0.088 0.726,0.132c0.22,0.044 0.383,0.083 0.489,0.118l-0.423,2.139c-0.193,-0.07 -0.515,-0.154 -0.963,-0.251c-0.449,-0.096 -1.026,-0.145 -1.73,-0.145c-0.458,0 -0.911,0.049 -1.36,0.145c-0.448,0.097 -0.743,0.163 -0.884,0.198l0,11.539l-2.456,0l0,-13.149c0.581,-0.211 1.303,-0.409 2.165,-0.594c0.863,-0.185 1.831,-0.278 2.905,-0.278Z" style="fill:#fff;fill-rule:nonzero;"></path><path d="M225.767,250.428c0.194,0.088 0.444,0.171 0.752,0.251c0.308,0.079 0.612,0.118 0.911,0.118c0.968,0 1.725,-0.215 2.271,-0.646c0.546,-0.432 1.039,-1.131 1.479,-2.1c-1.109,-2.112 -2.143,-4.352 -3.103,-6.719c-0.959,-2.368 -1.756,-4.766 -2.389,-7.195l2.64,0c0.194,0.792 0.427,1.646 0.7,2.561c0.273,0.915 0.576,1.857 0.911,2.825c0.334,0.968 0.695,1.936 1.082,2.905c0.387,0.968 0.792,1.901 1.215,2.798c0.669,-1.848 1.249,-3.679 1.742,-5.492c0.493,-1.813 0.96,-3.678 1.4,-5.597l2.534,0c-0.633,2.587 -1.337,5.074 -2.112,7.459c-0.774,2.385 -1.61,4.616 -2.508,6.693c-0.352,0.792 -0.717,1.474 -1.096,2.046c-0.378,0.572 -0.796,1.043 -1.254,1.413c-0.458,0.37 -0.973,0.642 -1.545,0.818c-0.572,0.176 -1.219,0.264 -1.94,0.264c-0.194,0 -0.396,-0.013 -0.608,-0.039c-0.211,-0.027 -0.418,-0.062 -0.62,-0.106c-0.202,-0.044 -0.387,-0.092 -0.554,-0.145c-0.168,-0.053 -0.287,-0.097 -0.357,-0.132l0.449,-1.98Z" style="fill:#fff;fill-rule:nonzero;"></path><path d="M147.679,274.27c-0.299,-0.792 -0.581,-1.571 -0.845,-2.337c-0.264,-0.765 -0.537,-1.544 -0.818,-2.336l-8.291,0l-1.663,4.673l-2.667,0c0.704,-1.936 1.364,-3.727 1.98,-5.373c0.616,-1.646 1.219,-3.208 1.809,-4.687c0.589,-1.478 1.175,-2.891 1.755,-4.237c0.581,-1.347 1.189,-2.68 1.822,-4.001l2.35,0c0.634,1.321 1.241,2.654 1.822,4.001c0.581,1.346 1.166,2.759 1.756,4.237c0.59,1.479 1.192,3.041 1.808,4.687c0.617,1.646 1.277,3.437 1.981,5.373l-2.799,0Zm-2.403,-6.786c-0.563,-1.531 -1.122,-3.014 -1.676,-4.449c-0.555,-1.434 -1.131,-2.812 -1.73,-4.132c-0.616,1.32 -1.201,2.698 -1.756,4.132c-0.554,1.435 -1.104,2.918 -1.65,4.449l6.812,0Z" style="fill:#fff;fill-rule:nonzero;"></path><path d="M152.801,260.936c0.564,-0.141 1.312,-0.29 2.245,-0.449c0.932,-0.158 2.006,-0.237 3.221,-0.237c1.091,0 1.998,0.154 2.719,0.462c0.722,0.308 1.298,0.739 1.73,1.294c0.431,0.554 0.735,1.219 0.911,1.993c0.176,0.775 0.264,1.628 0.264,2.561l0,7.71l-2.456,0l0,-7.182c0,-0.845 -0.057,-1.566 -0.171,-2.165c-0.115,-0.598 -0.304,-1.082 -0.568,-1.452c-0.264,-0.37 -0.616,-0.638 -1.056,-0.805c-0.44,-0.168 -0.986,-0.251 -1.637,-0.251c-0.264,0 -0.537,0.009 -0.819,0.026c-0.281,0.018 -0.55,0.04 -0.805,0.066c-0.255,0.027 -0.484,0.057 -0.687,0.093c-0.202,0.035 -0.347,0.061 -0.435,0.079l0,11.591l-2.456,0l0,-13.334Z" style="fill:#fff;fill-rule:nonzero;"></path><path d="M167.957,260.936c0.563,-0.141 1.311,-0.29 2.244,-0.449c0.933,-0.158 2.007,-0.237 3.221,-0.237c1.092,0 1.998,0.154 2.72,0.462c0.721,0.308 1.298,0.739 1.729,1.294c0.431,0.554 0.735,1.219 0.911,1.993c0.176,0.775 0.264,1.628 0.264,2.561l0,7.71l-2.455,0l0,-7.182c0,-0.845 -0.058,-1.566 -0.172,-2.165c-0.114,-0.598 -0.304,-1.082 -0.568,-1.452c-0.264,-0.37 -0.616,-0.638 -1.056,-0.805c-0.44,-0.168 -0.985,-0.251 -1.637,-0.251c-0.264,0 -0.537,0.009 -0.818,0.026c-0.282,0.018 -0.55,0.04 -0.806,0.066c-0.255,0.027 -0.484,0.057 -0.686,0.093c-0.202,0.035 -0.348,0.061 -0.436,0.079l0,11.591l-2.455,0l0,-13.334Z" style="fill:#fff;fill-rule:nonzero;"></path><path d="M182.347,267.432c0,-1.215 0.176,-2.276 0.528,-3.182c0.352,-0.907 0.818,-1.659 1.399,-2.258c0.581,-0.598 1.25,-1.047 2.007,-1.346c0.757,-0.299 1.531,-0.449 2.323,-0.449c1.848,0 3.265,0.576 4.251,1.729c0.986,1.153 1.479,2.909 1.479,5.268l0,0.409c0,0.167 -0.009,0.321 -0.027,0.462l-9.399,0c0.105,1.426 0.519,2.509 1.241,3.248c0.721,0.739 1.848,1.109 3.379,1.109c0.863,0 1.589,-0.075 2.179,-0.225c0.589,-0.149 1.034,-0.295 1.333,-0.435l0.343,2.059c-0.299,0.159 -0.823,0.326 -1.571,0.502c-0.748,0.176 -1.597,0.264 -2.548,0.264c-1.197,0 -2.231,-0.181 -3.102,-0.541c-0.871,-0.361 -1.589,-0.859 -2.152,-1.492c-0.563,-0.634 -0.981,-1.386 -1.254,-2.258c-0.273,-0.871 -0.409,-1.826 -0.409,-2.864Zm9.426,-1.347c0.017,-1.109 -0.26,-2.02 -0.832,-2.733c-0.572,-0.713 -1.36,-1.069 -2.363,-1.069c-0.563,0 -1.061,0.11 -1.492,0.33c-0.431,0.22 -0.797,0.506 -1.096,0.858c-0.299,0.352 -0.532,0.757 -0.699,1.215c-0.168,0.457 -0.278,0.924 -0.33,1.399l6.812,0Z" style="fill:#fff;fill-rule:nonzero;"></path><path d="M203.839,274.587c-1.109,0 -2.082,-0.176 -2.918,-0.528c-0.836,-0.352 -1.54,-0.845 -2.112,-1.479c-0.572,-0.634 -0.999,-1.386 -1.28,-2.257c-0.282,-0.872 -0.423,-1.835 -0.423,-2.891c0,-1.057 0.154,-2.025 0.462,-2.905c0.308,-0.88 0.744,-1.641 1.307,-2.284c0.563,-0.642 1.254,-1.144 2.073,-1.505c0.818,-0.361 1.729,-0.541 2.733,-0.541c0.616,0 1.232,0.053 1.848,0.158c0.616,0.106 1.205,0.273 1.769,0.502l-0.555,2.086c-0.369,-0.176 -0.796,-0.317 -1.28,-0.423c-0.484,-0.105 -0.999,-0.158 -1.545,-0.158c-1.373,0 -2.425,0.431 -3.155,1.294c-0.731,0.862 -1.096,2.121 -1.096,3.776c0,0.739 0.084,1.416 0.251,2.033c0.167,0.616 0.431,1.144 0.792,1.584c0.361,0.44 0.823,0.779 1.386,1.016c0.564,0.238 1.25,0.357 2.06,0.357c0.651,0 1.241,-0.062 1.769,-0.185c0.528,-0.123 0.942,-0.255 1.241,-0.396l0.343,2.059c-0.141,0.088 -0.343,0.172 -0.607,0.251c-0.264,0.079 -0.564,0.15 -0.898,0.211c-0.334,0.062 -0.691,0.115 -1.069,0.159c-0.379,0.044 -0.744,0.066 -1.096,0.066Z" style="fill:#fff;fill-rule:nonzero;"></path><path d="M208.829,276.831c0.194,0.088 0.445,0.172 0.753,0.251c0.308,0.079 0.611,0.119 0.911,0.119c0.968,0 1.725,-0.216 2.27,-0.647c0.546,-0.431 1.039,-1.131 1.479,-2.099c-1.109,-2.112 -2.143,-4.352 -3.103,-6.72c-0.959,-2.367 -1.755,-4.766 -2.389,-7.195l2.64,0c0.194,0.792 0.427,1.646 0.7,2.561c0.273,0.916 0.576,1.857 0.911,2.826c0.334,0.968 0.695,1.936 1.082,2.904c0.388,0.968 0.793,1.901 1.215,2.799c0.669,-1.849 1.25,-3.679 1.743,-5.492c0.492,-1.813 0.959,-3.679 1.399,-5.598l2.535,0c-0.634,2.588 -1.338,5.074 -2.113,7.459c-0.774,2.385 -1.61,4.616 -2.508,6.693c-0.352,0.793 -0.717,1.475 -1.096,2.047c-0.378,0.572 -0.796,1.043 -1.254,1.412c-0.457,0.37 -0.972,0.643 -1.544,0.819c-0.572,0.176 -1.219,0.264 -1.941,0.264c-0.194,0 -0.396,-0.013 -0.607,-0.04c-0.212,-0.026 -0.418,-0.061 -0.621,-0.105c-0.202,-0.044 -0.387,-0.093 -0.554,-0.146c-0.167,-0.052 -0.286,-0.096 -0.357,-0.132l0.449,-1.98Z" style="fill:#fff;fill-rule:nonzero;"></path></g><path d="M171.388,53.431c-2.496,3.264 -5.152,6.816 -7.968,10.656c-2.816,3.84 -5.184,7.776 -7.104,11.808l15.072,0l0,-22.464Zm14.016,-17.472l0,39.936l7.104,0l0,11.712l-7.104,0l0,14.88l-14.016,0l0,-14.88l-28.704,0l0,-10.464c1.408,-2.816 3.168,-6 5.28,-9.552c2.112,-3.552 4.464,-7.2 7.056,-10.944c2.592,-3.744 5.328,-7.408 8.208,-10.992c2.88,-3.584 5.76,-6.816 8.64,-9.696l13.536,0Z" style="fill:#fff;fill-rule:nonzero;"></path></svg> 