<svg clip-rule="evenodd" fill-rule="evenodd" stroke-linejoin="round" stroke-miterlimit="2" viewBox="0 0 348 302" xmlns="http://www.w3.org/2000/svg"><path d="m0 0h347.738v301.249h-347.738z" fill="none"/><g fill="#fff" fill-rule="nonzero"><path d="m84.726 154.356c-6.665 0-11.742-1.853-15.232-5.56-3.491-3.707-5.236-8.972-5.236-15.794 0-3.392.533-6.419 1.598-9.081 1.064-2.662 2.524-4.91 4.377-6.743 1.854-1.834 4.062-3.224 6.625-4.171 2.564-.946 5.344-1.419 8.341-1.419 1.735 0 3.313.128 4.732.384 1.42.256 2.662.552 3.727.887 1.065.336 1.952.681 2.662 1.036s1.223.631 1.538.828l-2.662 7.453c-1.262-.67-2.731-1.242-4.407-1.715s-3.579-.71-5.708-.71c-1.42 0-2.81.237-4.171.71-1.36.473-2.563 1.232-3.608 2.277s-1.883 2.396-2.514 4.052c-.631 1.657-.947 3.668-.947 6.034 0 1.893.207 3.658.622 5.294.414 1.637 1.084 3.047 2.011 4.23s2.139 2.12 3.638 2.81c1.498.69 3.312 1.035 5.442 1.035 1.341 0 2.544-.079 3.608-.237 1.065-.157 2.012-.345 2.84-.562s1.558-.463 2.189-.739 1.202-.532 1.715-.769l2.544 7.394c-1.302.789-3.135 1.499-5.502 2.13-2.366.631-5.107.946-8.222.946z"/><path d="m116.255 147.376c.868 0 1.696-.02 2.485-.059.788-.04 1.419-.099 1.893-.178v-6.684c-.355-.079-.888-.158-1.597-.237-.71-.079-1.361-.118-1.953-.118-.828 0-1.607.049-2.336.148-.73.099-1.371.286-1.923.562s-.986.651-1.301 1.124c-.316.473-.473 1.065-.473 1.774 0 1.381.463 2.337 1.39 2.869.927.533 2.198.799 3.815.799zm-.71-25.791c2.603 0 4.772.295 6.507.887 1.736.592 3.126 1.439 4.171 2.544 1.045 1.104 1.784 2.445 2.218 4.022.434 1.578.651 3.333.651 5.265v18.338c-1.262.276-3.017.601-5.265.976s-4.969.562-8.163.562c-2.012 0-3.835-.178-5.472-.533-1.637-.354-3.047-.936-4.23-1.745-1.183-.808-2.09-1.863-2.721-3.164-.631-1.302-.946-2.899-.946-4.792 0-1.814.365-3.352 1.094-4.614.73-1.262 1.706-2.268 2.928-3.017 1.223-.749 2.623-1.291 4.2-1.627 1.578-.335 3.214-.502 4.91-.502 1.144 0 2.159.049 3.047.147.887.099 1.607.227 2.159.385v-.828c0-1.499-.454-2.702-1.361-3.609s-2.484-1.36-4.732-1.36c-1.499 0-2.978.108-4.437.325s-2.721.523-3.786.917l-1.124-7.098c.513-.158 1.154-.326 1.923-.503.769-.178 1.607-.335 2.514-.473.907-.139 1.863-.257 2.869-.355 1.006-.099 2.021-.148 3.046-.148z"/><path d="m154.173 137.024c0-2.839-.365-4.851-1.094-6.034-.73-1.183-1.982-1.774-3.756-1.774-.552 0-1.124.029-1.716.088-.591.06-1.163.129-1.715.207v24.017h-8.814v-30.05c.749-.198 1.626-.405 2.632-.621 1.006-.217 2.07-.415 3.194-.592s2.278-.316 3.461-.414c1.183-.099 2.346-.148 3.49-.148 2.248 0 4.072.286 5.472.858s2.553 1.252 3.46 2.041c1.262-.907 2.712-1.617 4.348-2.13 1.637-.513 3.145-.769 4.526-.769 2.484 0 4.525.345 6.122 1.035s2.869 1.666 3.815 2.928c.947 1.262 1.598 2.761 1.953 4.496.354 1.735.532 3.668.532 5.797v17.569h-8.814v-16.504c0-2.839-.365-4.851-1.094-6.034-.73-1.183-1.982-1.774-3.757-1.774-.473 0-1.134.118-1.981.355-.848.236-1.548.532-2.1.887.276.907.453 1.863.532 2.869.079 1.005.118 2.08.118 3.224v16.977h-8.814z"/><path d="m208.004 138.207c0-2.721-.611-4.9-1.834-6.536-1.222-1.637-3.037-2.455-5.442-2.455-.789 0-1.518.029-2.189.088-.67.06-1.222.129-1.656.207v15.913c.552.355 1.272.651 2.159.887.887.237 1.784.355 2.692.355 4.18 0 6.27-2.819 6.27-8.459zm8.991-.236c0 2.405-.295 4.594-.887 6.566-.591 1.971-1.459 3.667-2.603 5.087-1.143 1.42-2.563 2.524-4.259 3.313-1.696.788-3.648 1.183-5.856 1.183-1.223 0-2.366-.119-3.431-.355-1.065-.237-2.09-.572-3.076-1.006v11.713h-8.814v-40.994c.789-.237 1.696-.464 2.721-.681s2.1-.404 3.224-.562c1.124-.157 2.267-.286 3.431-.384 1.163-.099 2.277-.148 3.342-.148 2.563 0 4.851.385 6.862 1.154s3.707 1.853 5.087 3.253c1.381 1.4 2.435 3.106 3.165 5.117s1.094 4.259 1.094 6.744z"/><path d="m250.359 152.463c-1.499.434-3.431.838-5.798 1.213-2.366.375-4.85.562-7.453.562-2.642 0-4.841-.355-6.596-1.065s-3.145-1.705-4.17-2.987c-1.026-1.282-1.755-2.81-2.189-4.585-.434-1.774-.651-3.726-.651-5.856v-17.332h8.814v16.267c0 2.84.375 4.89 1.124 6.152.75 1.262 2.15 1.893 4.2 1.893.631 0 1.302-.029 2.012-.088.709-.06 1.34-.129 1.892-.207v-24.017h8.815z"/><path d="m267.572 147.199c1.617 0 2.761-.158 3.431-.474.671-.315 1.006-.926 1.006-1.833 0-.71-.434-1.331-1.301-1.864-.868-.532-2.189-1.134-3.964-1.804-1.38-.513-2.632-1.045-3.756-1.597s-2.08-1.213-2.869-1.982-1.4-1.686-1.834-2.751c-.434-1.064-.65-2.346-.65-3.845 0-2.918 1.084-5.225 3.253-6.921 2.169-1.695 5.146-2.543 8.932-2.543 1.893 0 3.707.167 5.443.503 1.735.335 3.115.7 4.14 1.094l-1.538 6.862c-1.025-.355-2.139-.671-3.342-.947s-2.553-.414-4.052-.414c-2.761 0-4.141.769-4.141 2.307 0 .355.059.671.178.947.118.276.355.542.71.798.354.257.838.534 1.449.832s1.39.626 2.336.984c1.933.716 3.53 1.421 4.792 2.117s2.258 1.447 2.987 2.254c.73.806 1.242 1.701 1.538 2.685s.444 2.125.444 3.423c0 3.069-1.154 5.391-3.461 6.965s-5.57 2.361-9.79 2.361c-2.76 0-5.057-.236-6.891-.71-1.834-.473-3.106-.867-3.816-1.183l1.479-7.157c1.499.591 3.037 1.055 4.614 1.39 1.578.335 3.135.503 4.673.503z"/><path d="m148.088 176.762c-.669 1.937-1.307 3.728-1.914 5.373-.607 1.646-1.201 3.208-1.782 4.687s-1.158 2.891-1.73 4.238c-.572 1.346-1.157 2.68-1.755 4h-2.403c-.599-1.32-1.184-2.654-1.756-4-.572-1.347-1.153-2.759-1.743-4.238-.589-1.479-1.192-3.041-1.808-4.687-.616-1.645-1.25-3.436-1.901-5.373h2.825c.95 2.782 1.883 5.457 2.799 8.027.915 2.57 1.857 4.981 2.825 7.235.968-2.236 1.91-4.643 2.825-7.222s1.839-5.258 2.772-8.04z"/><path d="m154.451 193.291c.581 0 1.096-.013 1.545-.04.449-.026.823-.075 1.122-.145v-4.092c-.176-.088-.462-.163-.858-.225-.396-.061-.876-.092-1.439-.092-.37 0-.761.026-1.175.079s-.792.163-1.135.33-.629.396-.858.686c-.229.291-.344.674-.344 1.149 0 .88.282 1.492.845 1.835.564.343 1.329.515 2.297.515zm-.211-12.304c.986 0 1.818.128 2.495.383.678.255 1.224.616 1.637 1.082.414.467.709 1.021.885 1.664.176.642.264 1.351.264 2.125v8.581c-.211.035-.506.084-.885.146-.378.061-.805.118-1.28.171s-.99.101-1.545.145c-.554.044-1.104.066-1.65.066-.774 0-1.487-.079-2.139-.237-.651-.159-1.214-.41-1.689-.753-.476-.343-.845-.796-1.109-1.36-.264-.563-.396-1.241-.396-2.033 0-.757.154-1.408.462-1.953.308-.546.726-.986 1.254-1.321.528-.334 1.144-.58 1.848-.739.704-.158 1.443-.238 2.218-.238.246 0 .502.014.766.04s.514.062.752.106.445.083.621.118c.176.036.299.062.369.08v-.687c0-.405-.044-.805-.132-1.201s-.246-.748-.475-1.056-.541-.555-.937-.74c-.396-.184-.911-.277-1.545-.277-.81 0-1.518.057-2.125.172-.608.114-1.061.233-1.36.356l-.291-2.033c.317-.141.845-.277 1.585-.409.739-.132 1.54-.198 2.402-.198z"/><path d="m167.706 195.324c-1.514-.035-2.588-.361-3.221-.977-.634-.616-.951-1.575-.951-2.878v-16.476l2.456-.422v16.502c0 .405.035.739.105 1.003.071.264.185.476.344.634.158.158.369.277.633.356.264.08.59.146.977.198z"/><path d="m170.029 188.221c0-1.214.176-2.275.528-3.181.353-.907.819-1.659 1.4-2.258.581-.598 1.25-1.047 2.007-1.346.756-.299 1.531-.449 2.323-.449 1.848 0 3.265.576 4.251 1.729s1.479 2.909 1.479 5.268v.409c0 .167-.009.321-.027.462h-9.399c.105 1.426.519 2.508 1.241 3.248.721.739 1.848 1.109 3.379 1.109.863 0 1.589-.075 2.178-.225.59-.149 1.035-.295 1.334-.435l.343 2.059c-.299.158-.823.326-1.571.502s-1.597.264-2.548.264c-1.197 0-2.231-.181-3.102-.542-.872-.36-1.589-.858-2.152-1.491-.563-.634-.981-1.386-1.254-2.258-.273-.871-.41-1.826-.41-2.865zm9.426-1.346c.018-1.109-.259-2.02-.831-2.733s-1.36-1.069-2.363-1.069c-.564 0-1.061.11-1.492.33s-.797.506-1.096.858-.532.757-.7 1.214c-.167.458-.277.925-.33 1.4z"/><path d="m185.555 181.726c.563-.141 1.311-.29 2.244-.449.933-.158 2.007-.237 3.221-.237 1.091 0 1.998.154 2.72.462.721.308 1.298.739 1.729 1.294.431.554.735 1.219.911 1.993.176.775.264 1.628.264 2.561v7.71h-2.456v-7.182c0-.845-.057-1.566-.171-2.165-.115-.598-.304-1.082-.568-1.452s-.616-.638-1.056-.805c-.44-.168-.986-.251-1.637-.251-.264 0-.537.009-.818.026-.282.018-.551.04-.806.066-.255.027-.484.057-.686.093-.203.035-.348.061-.436.079v11.591h-2.455z"/><path d="m206.677 195.377c-1.109 0-2.081-.176-2.917-.528s-1.54-.845-2.113-1.479c-.572-.634-.998-1.386-1.28-2.257-.282-.872-.423-1.835-.423-2.892 0-1.056.154-2.024.462-2.904.309-.88.744-1.641 1.307-2.284.564-.642 1.255-1.144 2.073-1.505.819-.361 1.73-.541 2.733-.541.616 0 1.232.053 1.848.158.616.106 1.206.273 1.769.502l-.554 2.086c-.37-.176-.797-.317-1.281-.423-.484-.105-.999-.158-1.545-.158-1.372 0-2.424.431-3.155 1.294-.73.862-1.095 2.121-1.095 3.775 0 .74.083 1.417.25 2.034.168.616.432 1.144.792 1.584.361.44.823.779 1.387 1.016.563.238 1.249.357 2.059.357.651 0 1.241-.062 1.769-.185s.942-.255 1.241-.396l.343 2.059c-.14.088-.343.172-.607.251s-.563.15-.898.211c-.334.062-.691.115-1.069.159s-.744.066-1.096.066z"/><path d="m212.222 188.221c0-1.214.176-2.275.528-3.181.352-.907.819-1.659 1.399-2.258.581-.598 1.25-1.047 2.007-1.346s1.531-.449 2.324-.449c1.848 0 3.265.576 4.251 1.729.985 1.153 1.478 2.909 1.478 5.268v.409c0 .167-.009.321-.026.462h-9.4c.106 1.426.519 2.508 1.241 3.248.722.739 1.848 1.109 3.38 1.109.862 0 1.588-.075 2.178-.225.59-.149 1.034-.295 1.333-.435l.344 2.059c-.3.158-.823.326-1.571.502-.749.176-1.598.264-2.548.264-1.197 0-2.231-.181-3.103-.542-.871-.36-1.588-.858-2.152-1.491-.563-.634-.981-1.386-1.254-2.258-.273-.871-.409-1.826-.409-2.865zm9.426-1.346c.018-1.109-.26-2.02-.832-2.733s-1.359-1.069-2.363-1.069c-.563 0-1.06.11-1.492.33-.431.22-.796.506-1.095.858-.3.352-.533.757-.7 1.214-.167.458-.277.925-.33 1.4z"/><path d="m135.283 212.46h2.561v8.554c-.211.071-.515.15-.911.238s-.854.176-1.373.264-1.087.163-1.703.225c-.616.061-1.241.092-1.875.092-1.285 0-2.455-.211-3.511-.634-1.057-.422-1.963-1.038-2.72-1.848s-1.342-1.804-1.756-2.984c-.413-1.179-.62-2.534-.62-4.066 0-1.531.233-2.891.699-4.079.467-1.188 1.096-2.187 1.888-2.997.792-.809 1.721-1.426 2.786-1.848s2.204-.634 3.419-.634c.827 0 1.562.053 2.205.159.642.105 1.192.229 1.65.369.458.141.832.282 1.122.423s.489.246.594.317l-.818 2.138c-.511-.334-1.189-.611-2.033-.831-.845-.22-1.708-.33-2.588-.33-.933 0-1.782.167-2.548.501-.766.335-1.417.819-1.954 1.452-.537.634-.955 1.404-1.254 2.311-.299.906-.449 1.923-.449 3.049 0 1.092.128 2.086.383 2.984s.643 1.668 1.162 2.31c.519.643 1.162 1.14 1.927 1.492.766.352 1.668.528 2.707.528.739 0 1.368-.04 1.887-.119.52-.079.894-.154 1.123-.224z"/><path d="m146.768 207.443c.211 0 .453.013.726.04.273.026.541.061.805.105s.507.088.727.132.382.084.488.119l-.422 2.139c-.194-.071-.515-.154-.964-.251s-1.025-.145-1.73-.145c-.457 0-.911.048-1.359.145-.449.097-.744.163-.885.198v11.538h-2.455v-13.149c.58-.211 1.302-.409 2.165-.594.862-.185 1.83-.277 2.904-.277z"/><path d="m151.125 214.625c0-1.215.176-2.275.528-3.182.352-.906.818-1.659 1.399-2.257.581-.599 1.25-1.048 2.007-1.347s1.531-.449 2.323-.449c1.848 0 3.265.577 4.251 1.73s1.479 2.908 1.479 5.267v.409c0 .168-.009.322-.027.462h-9.399c.105 1.426.519 2.509 1.241 3.248.721.739 1.848 1.109 3.379 1.109.863 0 1.589-.075 2.179-.224.589-.15 1.034-.295 1.333-.436l.343 2.059c-.299.159-.823.326-1.571.502s-1.597.264-2.548.264c-1.197 0-2.231-.18-3.102-.541s-1.589-.858-2.152-1.492-.981-1.386-1.254-2.257c-.273-.872-.409-1.827-.409-2.865zm9.426-1.347c.017-1.109-.26-2.02-.832-2.733-.572-.712-1.36-1.069-2.363-1.069-.563 0-1.061.11-1.492.33s-.796.506-1.096.858c-.299.352-.532.757-.699 1.215-.168.458-.278.924-.33 1.399z"/><path d="m166.65 208.13c.563-.141 1.311-.291 2.244-.449.933-.159 2.007-.238 3.221-.238 1.092 0 1.998.154 2.72.462s1.298.739 1.729 1.294c.432.554.735 1.219.911 1.993.176.775.264 1.629.264 2.561v7.71h-2.455v-7.181c0-.845-.058-1.567-.172-2.166-.114-.598-.304-1.082-.568-1.452-.264-.369-.616-.638-1.056-.805s-.985-.251-1.637-.251c-.264 0-.537.009-.818.027-.282.017-.55.039-.806.066-.255.026-.484.057-.686.092s-.348.062-.436.079v11.591h-2.455z"/><path d="m193.924 214.598c0 1.092-.158 2.077-.475 2.958-.317.88-.761 1.637-1.333 2.27-.572.634-1.254 1.122-2.046 1.466-.793.343-1.655.515-2.588.515s-1.795-.172-2.587-.515c-.793-.344-1.475-.832-2.047-1.466-.572-.633-1.016-1.39-1.333-2.27-.317-.881-.475-1.866-.475-2.958 0-1.073.158-2.055.475-2.944.317-.888.761-1.65 1.333-2.283.572-.634 1.254-1.123 2.047-1.466.792-.343 1.654-.515 2.587-.515s1.795.172 2.588.515c.792.343 1.474.832 2.046 1.466.572.633 1.016 1.395 1.333 2.283.317.889.475 1.871.475 2.944zm-2.561 0c0-1.549-.347-2.776-1.043-3.683-.695-.906-1.641-1.36-2.838-1.36s-2.143.454-2.838 1.36c-.696.907-1.043 2.134-1.043 3.683s.347 2.777 1.043 3.684c.695.906 1.641 1.359 2.838 1.359s2.143-.453 2.838-1.359c.696-.907 1.043-2.135 1.043-3.684z"/><path d="m199.839 208.341c.299-.194.752-.396 1.36-.607.607-.212 1.307-.317 2.099-.317.985 0 1.861.176 2.627.528.765.352 1.412.845 1.94 1.478.529.634.929 1.391 1.202 2.271s.409 1.848.409 2.904c0 1.109-.163 2.108-.488 2.997-.326.889-.788 1.642-1.387 2.258-.598.616-1.32 1.091-2.165 1.425-.845.335-1.795.502-2.851.502-1.144 0-2.157-.079-3.037-.238-.88-.158-1.601-.316-2.165-.475v-19.67l2.456-.423zm0 10.984c.246.07.594.136 1.043.198.449.061 1.007.092 1.676.092 1.321 0 2.377-.436 3.169-1.307s1.188-2.108 1.188-3.71c0-.704-.07-1.364-.211-1.98s-.37-1.148-.687-1.597-.726-.801-1.228-1.056c-.501-.256-1.104-.383-1.808-.383-.669 0-1.285.114-1.848.343-.564.229-.995.466-1.294.713z"/><path d="m217.054 221.727c-1.514-.035-2.588-.361-3.221-.977-.634-.616-.951-1.575-.951-2.878v-16.475l2.456-.423v16.502c0 .405.035.74.105 1.004.071.264.185.475.343.633.159.159.37.278.634.357s.59.145.977.198z"/><path d="m219.377 214.625c0-1.215.176-2.275.528-3.182.352-.906.819-1.659 1.4-2.257.581-.599 1.25-1.048 2.006-1.347.757-.299 1.532-.449 2.324-.449 1.848 0 3.265.577 4.251 1.73s1.478 2.908 1.478 5.267v.409c0 .168-.008.322-.026.462h-9.4c.106 1.426.52 2.509 1.241 3.248.722.739 1.849 1.109 3.38 1.109.863 0 1.589-.075 2.178-.224.59-.15 1.034-.295 1.334-.436l.343 2.059c-.299.159-.823.326-1.571.502s-1.597.264-2.548.264c-1.197 0-2.231-.18-3.102-.541-.872-.361-1.589-.858-2.152-1.492-.564-.634-.982-1.386-1.254-2.257-.273-.872-.41-1.827-.41-2.865zm9.426-1.347c.018-1.109-.259-2.02-.831-2.733-.572-.712-1.36-1.069-2.364-1.069-.563 0-1.06.11-1.491.33-.432.22-.797.506-1.096.858s-.533.757-.7 1.215-.277.924-.33 1.399z"/><path d="m126.385 248.263c-1.285 0-2.456-.212-3.512-.634s-1.963-1.039-2.72-1.848c-.756-.81-1.342-1.809-1.755-2.997-.414-1.188-.621-2.548-.621-4.079 0-1.532.233-2.892.7-4.08.466-1.188 1.096-2.187 1.888-2.996.792-.81 1.716-1.426 2.772-1.849 1.056-.422 2.183-.633 3.38-.633.757 0 1.439.052 2.046.158s1.135.229 1.584.37.814.281 1.096.422.475.247.581.317l-.74 2.112c-.158-.105-.387-.22-.686-.343s-.638-.246-1.017-.37c-.378-.123-.792-.224-1.241-.303-.448-.079-.902-.119-1.359-.119-.968 0-1.84.167-2.614.502-.775.334-1.435.818-1.98 1.452-.546.633-.964 1.404-1.255 2.31-.29.907-.435 1.923-.435 3.05 0 1.091.127 2.086.383 2.983.255.898.638 1.668 1.148 2.311.511.642 1.149 1.139 1.914 1.491.766.352 1.659.528 2.68.528 1.18 0 2.157-.123 2.931-.369.775-.247 1.355-.467 1.743-.66l.66 2.112c-.123.088-.343.198-.66.33s-.713.26-1.188.383c-.476.123-1.03.229-1.664.317s-1.32.132-2.059.132z"/><path d="m134.728 247.867v-20.067l2.456-.422v7.023c.457-.176.946-.313 1.465-.409.519-.097 1.034-.146 1.545-.146 1.091 0 1.997.154 2.719.463.722.308 1.298.739 1.73 1.293.431.555.734 1.219.911 1.994.176.774.264 1.628.264 2.561v7.71h-2.456v-7.182c0-.845-.057-1.567-.172-2.165-.114-.599-.303-1.083-.567-1.452-.264-.37-.616-.638-1.056-.806-.44-.167-.986-.25-1.637-.25-.264 0-.537.017-.819.052-.282.036-.55.075-.805.119s-.484.093-.687.145c-.202.053-.347.097-.435.132v11.407z"/><path d="m154.451 246.098c.581 0 1.096-.014 1.545-.04s.823-.075 1.122-.145v-4.093c-.176-.088-.462-.163-.858-.224-.396-.062-.876-.093-1.439-.093-.37 0-.761.027-1.175.08-.414.052-.792.162-1.135.33-.343.167-.629.396-.858.686-.229.291-.344.673-.344 1.149 0 .88.282 1.491.845 1.835.564.343 1.329.515 2.297.515zm-.211-12.304c.986 0 1.818.127 2.495.382.678.256 1.224.617 1.637 1.083.414.466.709 1.021.885 1.663.176.643.264 1.351.264 2.126v8.581c-.211.035-.506.084-.885.145-.378.062-.805.119-1.28.172s-.99.101-1.545.145c-.554.044-1.104.066-1.65.066-.774 0-1.487-.079-2.139-.238-.651-.158-1.214-.409-1.689-.752-.476-.343-.845-.797-1.109-1.36s-.396-1.241-.396-2.033c0-.757.154-1.408.462-1.954.308-.545.726-.985 1.254-1.32.528-.334 1.144-.581 1.848-.739.704-.159 1.443-.238 2.218-.238.246 0 .502.013.766.04.264.026.514.061.752.105s.445.084.621.119.299.062.369.079v-.686c0-.405-.044-.805-.132-1.201s-.246-.749-.475-1.057-.541-.554-.937-.739-.911-.277-1.545-.277c-.81 0-1.518.057-2.125.172-.608.114-1.061.233-1.36.356l-.291-2.033c.317-.141.845-.277 1.585-.409.739-.132 1.54-.198 2.402-.198z"/><path d="m163.587 234.533c.563-.141 1.307-.291 2.231-.449s1.994-.238 3.208-.238c.88 0 1.62.119 2.218.357s1.1.585 1.505 1.043c.123-.088.317-.211.581-.37.264-.158.59-.312.977-.462s.818-.282 1.294-.396c.475-.114.985-.172 1.531-.172 1.056 0 1.919.154 2.587.463.669.308 1.193.743 1.571 1.306.379.564.634 1.233.766 2.007.132.775.198 1.62.198 2.535v7.71h-2.455v-7.182c0-.81-.04-1.505-.119-2.086s-.229-1.065-.449-1.452-.519-.673-.898-.858c-.378-.185-.867-.277-1.465-.277-.827 0-1.509.11-2.046.33s-.902.418-1.096.594c.141.457.246.959.317 1.505.07.545.105 1.117.105 1.716v7.71h-2.455v-7.182c0-.81-.044-1.505-.132-2.086s-.242-1.065-.462-1.452-.52-.673-.898-.858-.858-.277-1.439-.277c-.246 0-.51.008-.792.026s-.55.04-.805.066c-.256.026-.489.057-.7.092-.211.036-.352.062-.422.08v11.591h-2.456z"/><path d="m188.776 234.744c.299-.193.752-.396 1.36-.607.607-.211 1.307-.317 2.099-.317.985 0 1.861.176 2.627.528.765.352 1.412.845 1.94 1.479.528.633.929 1.39 1.202 2.27s.409 1.849.409 2.905c0 1.109-.163 2.108-.488 2.997-.326.888-.788 1.641-1.387 2.257-.598.616-1.32 1.091-2.165 1.426-.845.334-1.795.501-2.851.501-1.144 0-2.157-.079-3.037-.237-.88-.159-1.601-.317-2.165-.475v-19.671l2.456-.422zm0 10.984c.246.07.594.136 1.043.198s1.007.092 1.676.092c1.321 0 2.377-.435 3.169-1.307.792-.871 1.188-2.107 1.188-3.709 0-.704-.071-1.364-.211-1.98-.141-.617-.37-1.149-.687-1.598s-.726-.801-1.228-1.056c-.501-.255-1.104-.383-1.808-.383-.669 0-1.285.115-1.848.343-.564.229-.995.467-1.294.713z"/><path d="m201.106 241.028c0-1.214.176-2.275.528-3.181.352-.907.819-1.659 1.4-2.258.58-.598 1.249-1.047 2.006-1.347.757-.299 1.532-.448 2.324-.448 1.848 0 3.265.576 4.251 1.729.985 1.153 1.478 2.909 1.478 5.268v.409c0 .167-.009.321-.026.462h-9.4c.106 1.426.52 2.508 1.241 3.247.722.74 1.848 1.109 3.38 1.109.862 0 1.588-.074 2.178-.224s1.034-.295 1.334-.436l.343 2.06c-.299.158-.823.325-1.571.501s-1.598.264-2.548.264c-1.197 0-2.231-.18-3.103-.541-.871-.361-1.588-.858-2.151-1.492-.564-.633-.982-1.386-1.255-2.257-.272-.871-.409-1.826-.409-2.865zm9.426-1.346c.018-1.109-.259-2.02-.832-2.733-.572-.713-1.359-1.069-2.363-1.069-.563 0-1.06.11-1.491.33-.432.22-.797.506-1.096.858s-.533.757-.7 1.214c-.167.458-.277.924-.33 1.4zm-.026-10.747-3.723 3.618-1.241-1.109 3.38-4.066z"/><path d="m221.701 233.846c.211 0 .453.014.726.04s.541.062.805.106.506.088.726.132.383.083.489.118l-.423 2.139c-.193-.07-.515-.154-.963-.251-.449-.096-1.026-.145-1.73-.145-.458 0-.911.049-1.36.145-.448.097-.743.163-.884.198v11.539h-2.456v-13.149c.581-.211 1.303-.409 2.165-.594.863-.185 1.831-.278 2.905-.278z"/><path d="m225.767 250.428c.194.088.444.171.752.251.308.079.612.118.911.118.968 0 1.725-.215 2.271-.646.546-.432 1.039-1.131 1.479-2.1-1.109-2.112-2.143-4.352-3.103-6.719-.959-2.368-1.756-4.766-2.389-7.195h2.64c.194.792.427 1.646.7 2.561s.576 1.857.911 2.825c.334.968.695 1.936 1.082 2.905.387.968.792 1.901 1.215 2.798.669-1.848 1.249-3.679 1.742-5.492s.96-3.678 1.4-5.597h2.534c-.633 2.587-1.337 5.074-2.112 7.459-.774 2.385-1.61 4.616-2.508 6.693-.352.792-.717 1.474-1.096 2.046-.378.572-.796 1.043-1.254 1.413s-.973.642-1.545.818-1.219.264-1.94.264c-.194 0-.396-.013-.608-.039-.211-.027-.418-.062-.62-.106s-.387-.092-.554-.145c-.168-.053-.287-.097-.357-.132z"/><path d="m147.679 274.27c-.299-.792-.581-1.571-.845-2.337-.264-.765-.537-1.544-.818-2.336h-8.291l-1.663 4.673h-2.667c.704-1.936 1.364-3.727 1.98-5.373s1.219-3.208 1.809-4.687c.589-1.478 1.175-2.891 1.755-4.237.581-1.347 1.189-2.68 1.822-4.001h2.35c.634 1.321 1.241 2.654 1.822 4.001.581 1.346 1.166 2.759 1.756 4.237.59 1.479 1.192 3.041 1.808 4.687.617 1.646 1.277 3.437 1.981 5.373zm-2.403-6.786c-.563-1.531-1.122-3.014-1.676-4.449-.555-1.434-1.131-2.812-1.73-4.132-.616 1.32-1.201 2.698-1.756 4.132-.554 1.435-1.104 2.918-1.65 4.449z"/><path d="m152.801 260.936c.564-.141 1.312-.29 2.245-.449.932-.158 2.006-.237 3.221-.237 1.091 0 1.998.154 2.719.462.722.308 1.298.739 1.73 1.294.431.554.735 1.219.911 1.993.176.775.264 1.628.264 2.561v7.71h-2.456v-7.182c0-.845-.057-1.566-.171-2.165-.115-.598-.304-1.082-.568-1.452s-.616-.638-1.056-.805c-.44-.168-.986-.251-1.637-.251-.264 0-.537.009-.819.026-.281.018-.55.04-.805.066-.255.027-.484.057-.687.093-.202.035-.347.061-.435.079v11.591h-2.456z"/><path d="m167.957 260.936c.563-.141 1.311-.29 2.244-.449.933-.158 2.007-.237 3.221-.237 1.092 0 1.998.154 2.72.462.721.308 1.298.739 1.729 1.294.431.554.735 1.219.911 1.993.176.775.264 1.628.264 2.561v7.71h-2.455v-7.182c0-.845-.058-1.566-.172-2.165-.114-.598-.304-1.082-.568-1.452s-.616-.638-1.056-.805c-.44-.168-.985-.251-1.637-.251-.264 0-.537.009-.818.026-.282.018-.55.04-.806.066-.255.027-.484.057-.686.093-.202.035-.348.061-.436.079v11.591h-2.455z"/><path d="m182.347 267.432c0-1.215.176-2.276.528-3.182.352-.907.818-1.659 1.399-2.258.581-.598 1.25-1.047 2.007-1.346s1.531-.449 2.323-.449c1.848 0 3.265.576 4.251 1.729s1.479 2.909 1.479 5.268v.409c0 .167-.009.321-.027.462h-9.399c.105 1.426.519 2.509 1.241 3.248.721.739 1.848 1.109 3.379 1.109.863 0 1.589-.075 2.179-.225.589-.149 1.034-.295 1.333-.435l.343 2.059c-.299.159-.823.326-1.571.502s-1.597.264-2.548.264c-1.197 0-2.231-.181-3.102-.541-.871-.361-1.589-.859-2.152-1.492-.563-.634-.981-1.386-1.254-2.258-.273-.871-.409-1.826-.409-2.864zm9.426-1.347c.017-1.109-.26-2.02-.832-2.733s-1.36-1.069-2.363-1.069c-.563 0-1.061.11-1.492.33s-.797.506-1.096.858-.532.757-.699 1.215c-.168.457-.278.924-.33 1.399z"/><path d="m203.839 274.587c-1.109 0-2.082-.176-2.918-.528s-1.54-.845-2.112-1.479-.999-1.386-1.28-2.257c-.282-.872-.423-1.835-.423-2.891 0-1.057.154-2.025.462-2.905s.744-1.641 1.307-2.284c.563-.642 1.254-1.144 2.073-1.505.818-.361 1.729-.541 2.733-.541.616 0 1.232.053 1.848.158.616.106 1.205.273 1.769.502l-.555 2.086c-.369-.176-.796-.317-1.28-.423-.484-.105-.999-.158-1.545-.158-1.373 0-2.425.431-3.155 1.294-.731.862-1.096 2.121-1.096 3.776 0 .739.084 1.416.251 2.033.167.616.431 1.144.792 1.584s.823.779 1.386 1.016c.564.238 1.25.357 2.06.357.651 0 1.241-.062 1.769-.185s.942-.255 1.241-.396l.343 2.059c-.141.088-.343.172-.607.251s-.564.15-.898.211c-.334.062-.691.115-1.069.159-.379.044-.744.066-1.096.066z"/><path d="m208.829 276.831c.194.088.445.172.753.251s.611.119.911.119c.968 0 1.725-.216 2.27-.647.546-.431 1.039-1.131 1.479-2.099-1.109-2.112-2.143-4.352-3.103-6.72-.959-2.367-1.755-4.766-2.389-7.195h2.64c.194.792.427 1.646.7 2.561.273.916.576 1.857.911 2.826.334.968.695 1.936 1.082 2.904.388.968.793 1.901 1.215 2.799.669-1.849 1.25-3.679 1.743-5.492.492-1.813.959-3.679 1.399-5.598h2.535c-.634 2.588-1.338 5.074-2.113 7.459-.774 2.385-1.61 4.616-2.508 6.693-.352.793-.717 1.475-1.096 2.047-.378.572-.796 1.043-1.254 1.412-.457.37-.972.643-1.544.819s-1.219.264-1.941.264c-.194 0-.396-.013-.607-.04-.212-.026-.418-.061-.621-.105-.202-.044-.387-.093-.554-.146-.167-.052-.286-.096-.357-.132z"/><path d="m171.388 53.431c-2.496 3.264-5.152 6.816-7.968 10.656s-5.184 7.776-7.104 11.808h15.072zm14.016-17.472v39.936h7.104v11.712h-7.104v14.88h-14.016v-14.88h-28.704v-10.464c1.408-2.816 3.168-6 5.28-9.552s4.464-7.2 7.056-10.944 5.328-7.408 8.208-10.992 5.76-6.816 8.64-9.696z"/></g></svg>