<svg clip-rule="evenodd" fill-rule="evenodd" stroke-linejoin="round" stroke-miterlimit="2" viewBox="0 0 348 302" xmlns="http://www.w3.org/2000/svg"><path d="m0 0h347.738v301.249h-347.738z" fill="none"/><g fill="#fff" fill-rule="nonzero"><path d="m53.395 142.322v-33.264h22.272v6.288h-14.784v6.96h13.152v6.288h-13.152v13.728z"/><path d="m103.603 129.65c0 1.984-.288 3.8-.864 5.448s-1.408 3.056-2.496 4.224-2.392 2.072-3.912 2.712-3.224.96-5.112.96c-1.856 0-3.544-.32-5.064-.96s-2.824-1.544-3.912-2.712-1.936-2.576-2.544-4.224-.912-3.464-.912-5.448.312-3.792.936-5.424 1.488-3.024 2.592-4.176 2.416-2.048 3.936-2.688 3.176-.96 4.968-.96c1.824 0 3.496.32 5.016.96s2.824 1.536 3.912 2.688 1.936 2.544 2.544 4.176.912 3.44.912 5.424zm-7.296 0c0-2.208-.44-3.944-1.32-5.208s-2.136-1.896-3.768-1.896-2.896.632-3.792 1.896-1.344 3-1.344 5.208.448 3.96 1.344 5.256 2.16 1.944 3.792 1.944 2.888-.648 3.768-1.944 1.32-3.048 1.32-5.256z"/><path d="m124.339 123.41c-.64-.16-1.392-.328-2.256-.504s-1.792-.264-2.784-.264c-.448 0-.984.04-1.608.12s-1.096.168-1.416.264v19.296h-7.152v-23.904c1.28-.448 2.792-.872 4.536-1.272s3.688-.6 5.832-.6c.384 0 .848.024 1.392.072s1.088.112 1.632.192 1.088.176 1.632.288 1.008.248 1.392.408z"/><path d="m143.251 128.93c0-2.304-.296-3.936-.888-4.896s-1.608-1.44-3.048-1.44c-.448 0-.912.024-1.392.072s-.944.104-1.392.168v19.488h-7.152v-24.384c.608-.16 1.32-.328 2.136-.504s1.68-.336 2.592-.48 1.848-.256 2.808-.336 1.904-.12 2.832-.12c1.824 0 3.304.232 4.44.696s2.072 1.016 2.808 1.656c1.024-.736 2.2-1.312 3.528-1.728s2.552-.624 3.672-.624c2.016 0 3.672.28 4.968.84s2.328 1.352 3.096 2.376 1.296 2.24 1.584 3.648.432 2.976.432 4.704v14.256h-7.152v-13.392c0-2.304-.296-3.936-.888-4.896s-1.608-1.44-3.048-1.44c-.384 0-.92.096-1.608.288s-1.256.432-1.704.72c.224.736.368 1.512.432 2.328s.096 1.688.096 2.616v13.776h-7.152z"/><path d="m180.403 137.33c.704 0 1.376-.016 2.016-.048s1.152-.08 1.536-.144v-5.424c-.288-.064-.72-.128-1.296-.192s-1.104-.096-1.584-.096c-.672 0-1.304.04-1.896.12s-1.112.232-1.56.456-.8.528-1.056.912-.384.864-.384 1.44c0 1.12.376 1.896 1.128 2.328s1.784.648 3.096.648zm-.576-20.928c2.112 0 3.872.24 5.28.72s2.536 1.168 3.384 2.064 1.448 1.984 1.8 3.264.528 2.704.528 4.272v14.88c-1.024.224-2.448.488-4.272.792s-4.032.456-6.624.456c-1.632 0-3.112-.144-4.44-.432s-2.472-.76-3.432-1.416-1.696-1.512-2.208-2.568-.768-2.352-.768-3.888c0-1.472.296-2.72.888-3.744s1.384-1.84 2.376-2.448 2.128-1.048 3.408-1.32 2.608-.408 3.984-.408c.928 0 1.752.04 2.472.12s1.304.184 1.752.312v-.672c0-1.216-.368-2.192-1.104-2.928s-2.016-1.104-3.84-1.104c-1.216 0-2.416.088-3.6.264s-2.208.424-3.072.744l-.912-5.76c.416-.128.936-.264 1.56-.408s1.304-.272 2.04-.384 1.512-.208 2.328-.288 1.64-.12 2.472-.12z"/><path d="m197.059 110.786 7.152-1.152v7.44h8.592v5.952h-8.592v8.88c0 1.504.264 2.704.792 3.6s1.592 1.344 3.192 1.344c.768 0 1.56-.072 2.376-.216s1.56-.344 2.232-.6l1.008 5.568c-.864.352-1.824.656-2.88.912s-2.352.384-3.888.384c-1.952 0-3.568-.264-4.848-.792s-2.304-1.264-3.072-2.208-1.304-2.088-1.608-3.432-.456-2.832-.456-4.464z"/><path d="m225.763 142.322h-7.152v-25.248h7.152zm.672-32.544c0 1.312-.424 2.344-1.272 3.096s-1.848 1.128-3 1.128-2.152-.376-3-1.128-1.272-1.784-1.272-3.096.424-2.344 1.272-3.096 1.848-1.128 3-1.128 2.152.376 3 1.128 1.272 1.784 1.272 3.096z"/><path d="m256.099 129.65c0 1.984-.288 3.8-.864 5.448s-1.408 3.056-2.496 4.224-2.392 2.072-3.912 2.712-3.224.96-5.112.96c-1.856 0-3.544-.32-5.064-.96s-2.824-1.544-3.912-2.712-1.936-2.576-2.544-4.224-.912-3.464-.912-5.448.312-3.792.936-5.424 1.488-3.024 2.592-4.176 2.416-2.048 3.936-2.688 3.176-.96 4.968-.96c1.824 0 3.496.32 5.016.96s2.824 1.536 3.912 2.688 1.936 2.544 2.544 4.176.912 3.44.912 5.424zm-7.296 0c0-2.208-.44-3.944-1.32-5.208s-2.136-1.896-3.768-1.896-2.896.632-3.792 1.896-1.344 3-1.344 5.208.448 3.96 1.344 5.256 2.16 1.944 3.792 1.944 2.888-.648 3.768-1.944 1.32-3.048 1.32-5.256z"/><path d="m261.619 117.938c1.216-.352 2.784-.68 4.704-.984s3.936-.456 6.048-.456c2.144 0 3.928.28 5.352.84s2.552 1.352 3.384 2.376 1.424 2.24 1.776 3.648.528 2.976.528 4.704v14.256h-7.152v-13.392c0-2.304-.304-3.936-.912-4.896s-1.744-1.44-3.408-1.44c-.512 0-1.056.024-1.632.072s-1.088.104-1.536.168v19.488h-7.152z"/><path d="m297.139 137.186c1.312 0 2.24-.128 2.784-.384s.816-.752.816-1.488c0-.576-.352-1.08-1.056-1.512s-1.776-.92-3.216-1.464c-1.12-.416-2.136-.848-3.048-1.296s-1.688-.984-2.328-1.608-1.136-1.368-1.488-2.232-.528-1.904-.528-3.12c0-2.368.88-4.24 2.64-5.616s4.176-2.064 7.248-2.064c1.536 0 3.008.136 4.416.408s2.528.568 3.36.888l-1.248 5.568c-.832-.288-1.736-.544-2.712-.768s-2.072-.336-3.288-.336c-2.24 0-3.36.624-3.36 1.872 0 .288.048.544.144.768s.288.44.576.648.68.433 1.176.675 1.128.508 1.896.798c1.568.581 2.864 1.154 3.888 1.719 1.024.564 1.832 1.174 2.424 1.828.592.655 1.008 1.381 1.248 2.179s.36 1.724.36 2.778c0 2.49-.936 4.374-2.808 5.651-1.872 1.278-4.52 1.916-7.944 1.916-2.24 0-4.104-.192-5.592-.576s-2.52-.704-3.096-.96l1.2-5.808c1.216.48 2.464.856 3.744 1.128s2.544.408 3.792.408z"/><path d="m52.963 171.794c0-1.856.288-3.592.864-5.208s1.4-3.016 2.472-4.2 2.376-2.112 3.912-2.784 3.264-1.008 5.184-1.008c2.368 0 4.608.432 6.72 1.296l-1.248 4.752c-.672-.288-1.432-.528-2.28-.72s-1.752-.288-2.712-.288c-2.272 0-4 .712-5.184 2.136s-1.776 3.432-1.776 6.024c0 2.496.56 4.472 1.68 5.928s3.008 2.184 5.664 2.184c.992 0 1.968-.096 2.928-.288s1.792-.432 2.496-.72l.816 4.8c-.64.32-1.608.608-2.904.864s-2.632.384-4.008.384c-2.144 0-4.008-.328-5.592-.984s-2.896-1.568-3.936-2.736-1.816-2.56-2.328-4.176-.768-3.368-.768-5.256z"/><path d="m75.619 171.89c0-2.208.328-4.144.984-5.808s1.528-3.048 2.616-4.152 2.336-1.936 3.744-2.496 2.848-.84 4.32-.84c3.456 0 6.152 1.072 8.088 3.216s2.904 5.344 2.904 9.6c0 .32-.008.68-.024 1.08s-.04.76-.072 1.08h-16.56c.16 2.016.872 3.576 2.136 4.68s3.096 1.656 5.496 1.656c1.408 0 2.696-.128 3.864-.384s2.088-.528 2.76-.816l.768 4.752c-.32.16-.76.328-1.32.504s-1.2.336-1.92.48-1.496.264-2.328.36-1.68.144-2.544.144c-2.208 0-4.128-.328-5.76-.984s-2.976-1.568-4.032-2.736-1.84-2.544-2.352-4.128-.768-3.32-.768-5.208zm16.848-2.592c0-.8-.112-1.56-.336-2.28s-.552-1.344-.984-1.872-.96-.944-1.584-1.248-1.368-.456-2.232-.456c-.896 0-1.68.168-2.352.504s-1.24.776-1.704 1.32-.824 1.168-1.08 1.872-.432 1.424-.528 2.16z"/><path d="m118.723 164.45c-.48-.16-1.144-.328-1.992-.504s-1.832-.264-2.952-.264c-.64 0-1.32.064-2.04.192s-1.224.24-1.512.336v20.112h-5.808v-23.904c1.12-.416 2.52-.808 4.2-1.176s3.544-.552 5.592-.552c.384 0 .832.024 1.344.072s1.024.112 1.536.192 1.008.176 1.488.288.864.216 1.152.312z"/><path d="m123.475 152.594 5.808-.96v7.584h8.928v4.848h-8.928v10.224c0 2.016.32 3.456.96 4.32s1.728 1.296 3.264 1.296c1.056 0 1.992-.112 2.808-.336s1.464-.432 1.944-.624l.96 4.608c-.672.288-1.552.584-2.64.888s-2.368.456-3.84.456c-1.792 0-3.288-.24-4.488-.72s-2.152-1.176-2.856-2.088-1.2-2.016-1.488-3.312-.432-2.776-.432-4.44z"/><path d="m149.683 184.322h-5.808v-25.104h5.808zm.624-32.448c0 1.088-.352 1.952-1.056 2.592s-1.536.96-2.496.96c-.992 0-1.84-.32-2.544-.96s-1.056-1.504-1.056-2.592c0-1.12.352-2 1.056-2.64s1.552-.96 2.544-.96c.96 0 1.792.32 2.496.96s1.056 1.52 1.056 2.64z"/><path d="m182.275 184.322h-5.808v-25.104h5.808zm.672-32.448c0 1.088-.352 1.952-1.056 2.592s-1.536.96-2.496.96c-.992 0-1.84-.32-2.544-.96s-1.056-1.504-1.056-2.592c0-1.12.352-2 1.056-2.64s1.552-.96 2.544-.96c.96 0 1.792.32 2.496.96s1.056 1.52 1.056 2.64zm-15.552-4.8c1.216 0 2.248.096 3.096.288s1.512.384 1.992.576l-.912 4.704c-.448-.16-.984-.304-1.608-.432s-1.304-.192-2.04-.192c-1.92 0-3.24.512-3.96 1.536s-1.08 2.352-1.08 3.984v1.68h9.216v4.848h-9.216v20.256h-5.808v-26.88c0-3.264.848-5.808 2.544-7.632s4.288-2.736 7.776-2.736z"/><path d="m198.547 180.242c1.792 0 3.152-.096 4.08-.288v-6.432c-.32-.096-.784-.192-1.392-.288s-1.28-.144-2.016-.144c-.64 0-1.288.048-1.944.144s-1.248.272-1.776.528-.952.616-1.272 1.08-.48 1.048-.48 1.752c0 1.376.432 2.328 1.296 2.856s2.032.792 3.504.792zm-.48-21.648c1.92 0 3.536.24 4.848.72s2.36 1.152 3.144 2.016 1.344 1.912 1.68 3.144.504 2.584.504 4.056v15.216c-.896.192-2.248.424-4.056.696s-3.848.408-6.12.408c-1.504 0-2.88-.144-4.128-.432s-2.312-.752-3.192-1.392-1.568-1.472-2.064-2.496-.744-2.288-.744-3.792c0-1.44.28-2.656.84-3.648s1.32-1.8 2.28-2.424 2.072-1.072 3.336-1.344 2.584-.408 3.96-.408c.64 0 1.312.04 2.016.12s1.456.216 2.256.408v-.96c0-.672-.08-1.312-.24-1.92s-.44-1.144-.84-1.608-.928-.824-1.584-1.08-1.48-.384-2.472-.384c-1.344 0-2.576.096-3.696.288s-2.032.416-2.736.672l-.72-4.704c.736-.256 1.808-.512 3.216-.768s2.912-.384 4.512-.384z"/><path d="m215.347 160.034c1.12-.32 2.576-.624 4.368-.912s3.776-.432 5.952-.432c2.048 0 3.76.28 5.136.84s2.472 1.344 3.288 2.352 1.392 2.224 1.728 3.648.504 2.984.504 4.68v14.112h-5.808v-13.2c0-1.344-.088-2.488-.264-3.432s-.464-1.712-.864-2.304-.944-1.024-1.632-1.296-1.528-.408-2.52-.408c-.736 0-1.504.048-2.304.144s-1.392.176-1.776.24v20.256h-5.808z"/><path d="m243.139 152.594 5.808-.96v7.584h8.928v4.848h-8.928v10.224c0 2.016.32 3.456.96 4.32s1.728 1.296 3.264 1.296c1.056 0 1.992-.112 2.808-.336s1.464-.432 1.944-.624l.96 4.608c-.672.288-1.552.584-2.64.888s-2.368.456-3.84.456c-1.792 0-3.288-.24-4.488-.72s-2.152-1.176-2.856-2.088-1.2-2.016-1.488-3.312-.432-2.776-.432-4.44z"/><path d="m261.667 171.89c0-2.208.328-4.144.984-5.808s1.528-3.048 2.616-4.152 2.336-1.936 3.744-2.496 2.848-.84 4.32-.84c3.456 0 6.152 1.072 8.088 3.216s2.904 5.344 2.904 9.6c0 .32-.008.68-.024 1.08s-.04.76-.072 1.08h-16.56c.16 2.016.872 3.576 2.136 4.68s3.096 1.656 5.496 1.656c1.408 0 2.696-.128 3.864-.384s2.088-.528 2.76-.816l.768 4.752c-.32.16-.76.328-1.32.504s-1.2.336-1.92.48-1.496.264-2.328.36-1.68.144-2.544.144c-2.208 0-4.128-.328-5.76-.984s-2.976-1.568-4.032-2.736-1.84-2.544-2.352-4.128-.768-3.32-.768-5.208zm16.848-2.592c0-.8-.112-1.56-.336-2.28s-.552-1.344-.984-1.872-.96-.944-1.584-1.248-1.368-.456-2.232-.456c-.896 0-1.68.168-2.352.504s-1.24.776-1.704 1.32-.824 1.168-1.08 1.872-.432 1.424-.528 2.16z"/><path d="m296.755 180.146c1.536 0 2.656-.184 3.36-.552s1.056-1 1.056-1.896c0-.832-.376-1.52-1.128-2.064s-1.992-1.136-3.72-1.776c-1.056-.384-2.024-.792-2.904-1.224s-1.64-.936-2.28-1.512-1.144-1.272-1.512-2.088-.552-1.816-.552-3c0-2.304.848-4.12 2.544-5.448s4-1.992 6.912-1.992c1.472 0 2.88.136 4.224.408s2.352.536 3.024.792l-1.056 4.704c-.64-.288-1.456-.552-2.448-.792s-2.144-.36-3.456-.36c-1.184 0-2.144.2-2.88.6s-1.104 1.016-1.104 1.848c0 .416.072.784.216 1.104s.392.616.744.888.816.544 1.392.816 1.28.552 2.112.84c1.376.512 2.544 1.016 3.504 1.512s1.752 1.056 2.376 1.68 1.08 1.336 1.368 2.136.432 1.76.432 2.88c0 2.4-.888 4.216-2.664 5.448s-4.312 1.848-7.608 1.848c-2.208 0-3.984-.184-5.328-.552s-2.288-.664-2.832-.888l1.008-4.848c.864.352 1.896.688 3.096 1.008s2.568.48 4.104.48z"/><path d="m83.537 198.556v1.68h-4.36v12.18h-1.94v-12.18h-4.36v-1.68z"/><path d="m83.777 207.236c0-.92.133-1.723.4-2.41.266-.687.62-1.257 1.06-1.71s.946-.793 1.52-1.02c.573-.227 1.16-.34 1.76-.34 1.4 0 2.473.437 3.22 1.31.746.873 1.12 2.203 1.12 3.99v.31c0 .127-.007.243-.02.35h-7.12c.08 1.08.393 1.9.94 2.46.546.56 1.4.84 2.56.84.653 0 1.203-.057 1.65-.17.446-.113.783-.223 1.01-.33l.26 1.56c-.227.12-.624.247-1.19.38-.567.133-1.21.2-1.93.2-.907 0-1.69-.137-2.35-.41s-1.204-.65-1.63-1.13c-.427-.48-.744-1.05-.95-1.71-.207-.66-.31-1.383-.31-2.17zm7.14-1.02c.013-.84-.197-1.53-.63-2.07-.434-.54-1.03-.81-1.79-.81-.427 0-.804.083-1.13.25-.327.167-.604.383-.83.65-.227.267-.404.573-.53.92-.127.347-.21.7-.25 1.06z"/><path d="m100.057 212.656c-.84 0-1.577-.133-2.21-.4-.634-.267-1.167-.64-1.6-1.12-.434-.48-.757-1.05-.97-1.71-.214-.66-.32-1.39-.32-2.19s.116-1.533.35-2.2c.233-.667.563-1.243.99-1.73.426-.487.95-.867 1.57-1.14s1.31-.41 2.07-.41c.466 0 .933.04 1.4.12.466.08.913.207 1.34.38l-.42 1.58c-.28-.133-.604-.24-.97-.32-.367-.08-.757-.12-1.17-.12-1.04 0-1.837.327-2.39.98-.554.653-.83 1.607-.83 2.86 0 .56.063 1.073.19 1.54.126.467.326.867.6 1.2.273.333.623.59 1.05.77.426.18.946.27 1.56.27.493 0 .94-.047 1.34-.14s.713-.193.94-.3l.26 1.56c-.107.067-.26.13-.46.19s-.427.113-.68.16c-.254.047-.524.087-.81.12-.287.033-.564.05-.83.05z"/><path d="m104.837 212.416v-15.2l1.86-.32v5.32c.346-.133.716-.237 1.11-.31.393-.073.783-.11 1.17-.11.826 0 1.513.117 2.06.35.546.233.983.56 1.31.98.326.42.556.923.69 1.51.133.587.2 1.233.2 1.94v5.84h-1.86v-5.44c0-.64-.044-1.187-.13-1.64-.087-.453-.23-.82-.43-1.1s-.467-.483-.8-.61c-.334-.127-.747-.19-1.24-.19-.2 0-.407.013-.62.04-.214.027-.417.057-.61.09-.194.033-.367.07-.52.11-.154.04-.264.073-.33.1v8.64z"/><path d="m116.257 202.316c.426-.107.993-.22 1.7-.34.706-.12 1.52-.18 2.44-.18.826 0 1.513.117 2.06.35.546.233.983.56 1.31.98.326.42.556.923.69 1.51.133.587.2 1.233.2 1.94v5.84h-1.86v-5.44c0-.64-.044-1.187-.13-1.64-.087-.453-.23-.82-.43-1.1s-.467-.483-.8-.61c-.334-.127-.747-.19-1.24-.19-.2 0-.407.007-.62.02-.214.013-.417.03-.61.05-.194.02-.367.043-.52.07-.154.027-.264.047-.33.06v8.78h-1.86z"/><path d="m129.597 212.416h-1.86v-10.4h1.86zm-.94-12.28c-.334 0-.617-.11-.85-.33-.234-.22-.35-.517-.35-.89s.116-.67.35-.89c.233-.22.516-.33.85-.33.333 0 .616.11.85.33.233.22.35.517.35.89s-.117.67-.35.89c-.234.22-.517.33-.85.33z"/><path d="m137.317 212.656c-.84 0-1.577-.133-2.21-.4-.634-.267-1.167-.64-1.6-1.12-.434-.48-.757-1.05-.97-1.71-.214-.66-.32-1.39-.32-2.19s.116-1.533.35-2.2c.233-.667.563-1.243.99-1.73.426-.487.95-.867 1.57-1.14s1.31-.41 2.07-.41c.466 0 .933.04 1.4.12.466.08.913.207 1.34.38l-.42 1.58c-.28-.133-.604-.24-.97-.32-.367-.08-.757-.12-1.17-.12-1.04 0-1.837.327-2.39.98-.554.653-.83 1.607-.83 2.86 0 .56.063 1.073.19 1.54.126.467.326.867.6 1.2.273.333.623.59 1.05.77.426.18.946.27 1.56.27.493 0 .94-.047 1.34-.14s.713-.193.94-.3l.26 1.56c-.107.067-.26.13-.46.19s-.427.113-.68.16c-.254.047-.524.087-.81.12-.287.033-.564.05-.83.05z"/><path d="m143.957 212.416h-1.86v-10.4h1.86zm-.94-12.28c-.334 0-.617-.11-.85-.33-.234-.22-.35-.517-.35-.89s.116-.67.35-.89c.233-.22.516-.33.85-.33.333 0 .616.11.85.33.233.22.35.517.35.89s-.117.67-.35.89c-.234.22-.517.33-.85.33z"/><path d="m146.577 207.236c0-.92.133-1.723.4-2.41.266-.687.62-1.257 1.06-1.71s.946-.793 1.52-1.02c.573-.227 1.16-.34 1.76-.34 1.4 0 2.473.437 3.22 1.31.746.873 1.12 2.203 1.12 3.99v.31c0 .127-.007.243-.02.35h-7.12c.08 1.08.393 1.9.94 2.46.546.56 1.4.84 2.56.84.653 0 1.203-.057 1.65-.17.446-.113.783-.223 1.01-.33l.26 1.56c-.227.12-.624.247-1.19.38-.567.133-1.21.2-1.93.2-.907 0-1.69-.137-2.35-.41s-1.204-.65-1.63-1.13c-.427-.48-.744-1.05-.95-1.71-.207-.66-.31-1.383-.31-2.17zm7.14-1.02c.013-.84-.197-1.53-.63-2.07-.434-.54-1.03-.81-1.79-.81-.427 0-.804.083-1.13.25-.327.167-.604.383-.83.65-.227.267-.404.573-.53.92-.127.347-.21.7-.25 1.06z"/><path d="m158.337 202.316c.426-.107.993-.22 1.7-.34.706-.12 1.52-.18 2.44-.18.826 0 1.513.117 2.06.35.546.233.983.56 1.31.98.326.42.556.923.69 1.51.133.587.2 1.233.2 1.94v5.84h-1.86v-5.44c0-.64-.044-1.187-.13-1.64-.087-.453-.23-.82-.43-1.1s-.467-.483-.8-.61c-.334-.127-.747-.19-1.24-.19-.2 0-.407.007-.62.02-.214.013-.417.03-.61.05-.194.02-.367.043-.52.07-.154.027-.264.047-.33.06v8.78h-1.86z"/><path d="m181.157 204.216c-.227-.187-.554-.367-.98-.54-.427-.173-.894-.26-1.4-.26-.534 0-.99.097-1.37.29s-.69.46-.93.8-.414.743-.52 1.21c-.107.467-.16.967-.16 1.5 0 1.213.3 2.15.9 2.81s1.4.99 2.4.99c.506 0 .93-.023 1.27-.07s.603-.097.79-.15zm0-7 1.86-.32v15.22c-.427.12-.974.24-1.64.36-.667.12-1.434.18-2.3.18-.8 0-1.52-.127-2.16-.38s-1.187-.613-1.64-1.08c-.454-.467-.804-1.037-1.05-1.71-.247-.673-.37-1.43-.37-2.27 0-.8.103-1.533.31-2.2.206-.667.51-1.24.91-1.72s.89-.853 1.47-1.12 1.243-.4 1.99-.4c.6 0 1.13.08 1.59.24s.803.313 1.03.46z"/><path d="m185.637 207.236c0-.92.133-1.723.4-2.41.266-.687.62-1.257 1.06-1.71s.946-.793 1.52-1.02c.573-.227 1.16-.34 1.76-.34 1.4 0 2.473.437 3.22 1.31.746.873 1.12 2.203 1.12 3.99v.31c0 .127-.007.243-.02.35h-7.12c.08 1.08.393 1.9.94 2.46.546.56 1.4.84 2.56.84.653 0 1.203-.057 1.65-.17.446-.113.783-.223 1.01-.33l.26 1.56c-.227.12-.624.247-1.19.38-.567.133-1.21.2-1.93.2-.907 0-1.69-.137-2.35-.41s-1.204-.65-1.63-1.13c-.427-.48-.744-1.05-.95-1.71-.207-.66-.31-1.383-.31-2.17zm7.14-1.02c.013-.84-.197-1.53-.63-2.07-.434-.54-1.03-.81-1.79-.81-.427 0-.804.083-1.13.25-.327.167-.604.383-.83.65-.227.267-.404.573-.53.92-.127.347-.21.7-.25 1.06zm-.02-8.14-2.82 2.74-.94-.84 2.56-3.08z"/><path d="m205.517 202.016c-.52 1.947-1.13 3.813-1.83 5.6s-1.377 3.387-2.03 4.8h-1.68c-.654-1.413-1.33-3.013-2.03-4.8s-1.31-3.653-1.83-5.6h2c.16.653.35 1.35.57 2.09s.453 1.473.7 2.2c.246.727.496 1.43.75 2.11.253.68.493 1.287.72 1.82.226-.533.466-1.14.72-1.82.253-.68.503-1.383.75-2.11.246-.727.48-1.46.7-2.2s.41-1.437.57-2.09z"/><path d="m206.577 207.236c0-.92.133-1.723.4-2.41.266-.687.62-1.257 1.06-1.71s.946-.793 1.52-1.02c.573-.227 1.16-.34 1.76-.34 1.4 0 2.473.437 3.22 1.31.746.873 1.12 2.203 1.12 3.99v.31c0 .127-.007.243-.02.35h-7.12c.08 1.08.393 1.9.94 2.46.546.56 1.4.84 2.56.84.653 0 1.203-.057 1.65-.17.446-.113.783-.223 1.01-.33l.26 1.56c-.227.12-.624.247-1.19.38-.567.133-1.21.2-1.93.2-.907 0-1.69-.137-2.35-.41s-1.204-.65-1.63-1.13c-.427-.48-.744-1.05-.95-1.71-.207-.66-.31-1.383-.31-2.17zm7.14-1.02c.013-.84-.197-1.53-.63-2.07-.434-.54-1.03-.81-1.79-.81-.427 0-.804.083-1.13.25-.327.167-.604.383-.83.65-.227.267-.404.573-.53.92-.127.347-.21.7-.25 1.06z"/><path d="m221.457 212.616c-1.147-.027-1.96-.273-2.44-.74s-.72-1.193-.72-2.18v-12.48l1.86-.32v12.5c0 .307.026.56.08.76.053.2.14.36.26.48s.28.21.48.27.446.11.74.15z"/><path d="m232.977 207.216c0 .827-.12 1.573-.36 2.24s-.577 1.24-1.01 1.72c-.434.48-.95.85-1.55 1.11s-1.254.39-1.96.39c-.707 0-1.36-.13-1.96-.39s-1.117-.63-1.55-1.11c-.434-.48-.77-1.053-1.01-1.72s-.36-1.413-.36-2.24c0-.813.12-1.557.36-2.23s.576-1.25 1.01-1.73c.433-.48.95-.85 1.55-1.11s1.253-.39 1.96-.39c.706 0 1.36.13 1.96.39s1.116.63 1.55 1.11c.433.48.77 1.057 1.01 1.73s.36 1.417.36 2.23zm-1.94 0c0-1.173-.264-2.103-.79-2.79-.527-.687-1.244-1.03-2.15-1.03-.907 0-1.624.343-2.15 1.03-.527.687-.79 1.617-.79 2.79s.263 2.103.79 2.79c.526.687 1.243 1.03 2.15 1.03.906 0 1.623-.343 2.15-1.03.526-.687.79-1.617.79-2.79z"/><path d="m242.817 207.236c0-1.213-.3-2.147-.9-2.8s-1.4-.98-2.4-.98c-.56 0-.997.02-1.31.06-.314.04-.564.087-.75.14v6.56c.226.187.553.367.98.54.426.173.893.26 1.4.26.533 0 .99-.097 1.37-.29s.69-.46.93-.8.413-.74.52-1.2c.106-.46.16-.957.16-1.49zm1.94 0c0 .787-.104 1.513-.31 2.18-.207.667-.51 1.24-.91 1.72s-.89.853-1.47 1.12-1.244.4-1.99.4c-.6 0-1.13-.08-1.59-.24s-.804-.313-1.03-.46v4.16h-1.86v-13.78c.44-.107.99-.223 1.65-.35s1.423-.19 2.29-.19c.8 0 1.52.127 2.16.38s1.186.613 1.64 1.08c.453.467.803 1.037 1.05 1.71.246.673.37 1.43.37 2.27z"/><path d="m254.597 207.236c0-1.213-.3-2.147-.9-2.8s-1.4-.98-2.4-.98c-.56 0-.997.02-1.31.06-.314.04-.564.087-.75.14v6.56c.226.187.553.367.98.54.426.173.893.26 1.4.26.533 0 .99-.097 1.37-.29s.69-.46.93-.8.413-.74.52-1.2c.106-.46.16-.957.16-1.49zm1.94 0c0 .787-.104 1.513-.31 2.18-.207.667-.51 1.24-.91 1.72s-.89.853-1.47 1.12-1.244.4-1.99.4c-.6 0-1.13-.08-1.59-.24s-.804-.313-1.03-.46v4.16h-1.86v-13.78c.44-.107.99-.223 1.65-.35s1.423-.19 2.29-.19c.8 0 1.52.127 2.16.38s1.186.613 1.64 1.08c.453.467.803 1.037 1.05 1.71.246.673.37 1.43.37 2.27z"/><path d="m258.577 207.236c0-.92.133-1.723.4-2.41.266-.687.62-1.257 1.06-1.71s.946-.793 1.52-1.02c.573-.227 1.16-.34 1.76-.34 1.4 0 2.473.437 3.22 1.31.746.873 1.12 2.203 1.12 3.99v.31c0 .127-.007.243-.02.35h-7.12c.08 1.08.393 1.9.94 2.46.546.56 1.4.84 2.56.84.653 0 1.203-.057 1.65-.17.446-.113.783-.223 1.01-.33l.26 1.56c-.227.12-.624.247-1.19.38-.567.133-1.21.2-1.93.2-.907 0-1.69-.137-2.35-.41s-1.204-.65-1.63-1.13c-.427-.48-.744-1.05-.95-1.71-.207-.66-.31-1.383-.31-2.17zm7.14-1.02c.013-.84-.197-1.53-.63-2.07-.434-.54-1.03-.81-1.79-.81-.427 0-.804.083-1.13.25-.327.167-.604.383-.83.65-.227.267-.404.573-.53.92-.127.347-.21.7-.25 1.06z"/><path d="m278.617 212.116c-.427.107-.99.22-1.69.34s-1.51.18-2.43.18c-.8 0-1.474-.117-2.02-.35-.547-.233-.987-.563-1.32-.99-.334-.427-.574-.93-.72-1.51-.147-.58-.22-1.223-.22-1.93v-5.84h1.86v5.44c0 1.267.2 2.173.6 2.72s1.073.82 2.02.82c.2 0 .406-.007.62-.02.213-.013.413-.03.6-.05.186-.02.356-.04.51-.06.153-.02.263-.043.33-.07v-8.78h1.86z"/><path d="m285.657 201.796c.16 0 .343.01.55.03.206.02.41.047.61.08s.383.067.55.1c.166.033.29.063.37.09l-.32 1.62c-.147-.053-.39-.117-.73-.19s-.777-.11-1.31-.11c-.347 0-.69.037-1.03.11s-.564.123-.67.15v8.74h-1.86v-9.96c.44-.16.986-.31 1.64-.45.653-.14 1.386-.21 2.2-.21z"/><path d="m104.577 222.416c1.946 0 3.443.37 4.49 1.11 1.046.74 1.57 1.843 1.57 3.31 0 .8-.144 1.483-.43 2.05-.287.567-.7 1.027-1.24 1.38s-1.197.61-1.97.77c-.774.16-1.647.24-2.62.24h-1.54v5.14h-1.94v-13.66c.546-.133 1.156-.223 1.83-.27.673-.047 1.29-.07 1.85-.07zm.16 1.7c-.827 0-1.46.02-1.9.06v5.44h1.46c.666 0 1.266-.043 1.8-.13.533-.087.983-.233 1.35-.44.366-.207.65-.49.85-.85s.3-.82.3-1.38c0-.533-.104-.973-.31-1.32-.207-.347-.487-.623-.84-.83-.354-.207-.764-.35-1.23-.43-.467-.08-.96-.12-1.48-.12z"/><path d="m116.077 235.076c.44 0 .83-.01 1.17-.03s.623-.057.85-.11v-3.1c-.134-.067-.35-.123-.65-.17s-.664-.07-1.09-.07c-.28 0-.577.02-.89.06-.314.04-.6.123-.86.25s-.477.3-.65.52c-.174.22-.26.51-.26.87 0 .667.213 1.13.64 1.39.426.26 1.006.39 1.74.39zm-.16-9.32c.746 0 1.376.097 1.89.29.513.193.926.467 1.24.82.313.353.536.773.67 1.26.133.487.2 1.023.2 1.61v6.5c-.16.027-.384.063-.67.11-.287.047-.61.09-.97.13s-.75.077-1.17.11-.837.05-1.25.05c-.587 0-1.127-.06-1.62-.18-.494-.12-.92-.31-1.28-.57s-.64-.603-.84-1.03-.3-.94-.3-1.54c0-.573.116-1.067.35-1.48.233-.413.55-.747.95-1s.866-.44 1.4-.56c.533-.12 1.093-.18 1.68-.18.186 0 .38.01.58.03s.39.047.57.08.336.063.47.09c.133.027.226.047.28.06v-.52c0-.307-.034-.61-.1-.91-.067-.3-.187-.567-.36-.8-.174-.233-.41-.42-.71-.56s-.69-.21-1.17-.21c-.614 0-1.15.043-1.61.13s-.804.177-1.03.27l-.22-1.54c.24-.107.64-.21 1.2-.31s1.166-.15 1.82-.15z"/><path d="m125.417 235.076c.76 0 1.323-.1 1.69-.3.366-.2.55-.52.55-.96 0-.453-.18-.813-.54-1.08s-.954-.567-1.78-.9c-.4-.16-.784-.323-1.15-.49-.367-.167-.684-.363-.95-.59-.267-.227-.48-.5-.64-.82s-.24-.713-.24-1.18c0-.92.34-1.65 1.02-2.19s1.606-.81 2.78-.81c.293 0 .586.017.88.05.293.033.566.073.82.12.253.047.476.097.67.15.193.053.343.1.45.14l-.34 1.6c-.2-.107-.514-.217-.94-.33-.427-.113-.94-.17-1.54-.17-.52 0-.974.103-1.36.31-.387.207-.58.53-.58.97 0 .227.043.427.13.6.086.173.22.33.4.47s.403.27.67.39c.266.12.586.247.96.38.493.187.933.37 1.32.55.386.18.716.39.99.63.273.24.483.53.63.87.146.34.22.757.22 1.25 0 .96-.357 1.687-1.07 2.18-.714.493-1.73.74-3.05.74-.92 0-1.64-.077-2.16-.23s-.874-.27-1.06-.35l.34-1.6c.213.08.553.2 1.02.36.466.16 1.086.24 1.86.24z"/><path d="m134.337 235.076c.76 0 1.323-.1 1.69-.3.366-.2.55-.52.55-.96 0-.453-.18-.813-.54-1.08s-.954-.567-1.78-.9c-.4-.16-.784-.323-1.15-.49-.367-.167-.684-.363-.95-.59-.267-.227-.48-.5-.64-.82s-.24-.713-.24-1.18c0-.92.34-1.65 1.02-2.19s1.606-.81 2.78-.81c.293 0 .586.017.88.05.293.033.566.073.82.12.253.047.476.097.67.15.193.053.343.1.45.14l-.34 1.6c-.2-.107-.514-.217-.94-.33-.427-.113-.94-.17-1.54-.17-.52 0-.974.103-1.36.31-.387.207-.58.53-.58.97 0 .227.043.427.13.6.086.173.22.33.4.47s.403.27.67.39c.266.12.586.247.96.38.493.187.933.37 1.32.55.386.18.716.39.99.63.273.24.483.53.63.87.146.34.22.757.22 1.25 0 .96-.357 1.687-1.07 2.18-.714.493-1.73.74-3.05.74-.92 0-1.64-.077-2.16-.23s-.874-.27-1.06-.35l.34-1.6c.213.08.553.2 1.02.36.466.16 1.086.24 1.86.24z"/><path d="m140.257 231.236c0-.92.133-1.723.4-2.41.266-.687.62-1.257 1.06-1.71s.946-.793 1.52-1.02c.573-.227 1.16-.34 1.76-.34 1.4 0 2.473.437 3.22 1.31.746.873 1.12 2.203 1.12 3.99v.31c0 .127-.007.243-.02.35h-7.12c.08 1.08.393 1.9.94 2.46.546.56 1.4.84 2.56.84.653 0 1.203-.057 1.65-.17.446-.113.783-.223 1.01-.33l.26 1.56c-.227.12-.624.247-1.19.38-.567.133-1.21.2-1.93.2-.907 0-1.69-.137-2.35-.41s-1.204-.65-1.63-1.13c-.427-.48-.744-1.05-.95-1.71-.207-.66-.31-1.383-.31-2.17zm7.14-1.02c.013-.84-.197-1.53-.63-2.07-.434-.54-1.03-.81-1.79-.81-.427 0-.804.083-1.13.25-.327.167-.604.383-.83.65-.227.267-.404.573-.53.92-.127.347-.21.7-.25 1.06z"/><path d="m166.257 236.416c-.294-.493-.63-1.047-1.01-1.66s-.79-1.25-1.23-1.91-.897-1.33-1.37-2.01c-.474-.68-.944-1.337-1.41-1.97-.467-.633-.92-1.23-1.36-1.79s-.847-1.053-1.22-1.48v10.82h-1.9v-13.86h1.54c.626.667 1.296 1.443 2.01 2.33.713.887 1.42 1.8 2.12 2.74s1.36 1.863 1.98 2.77 1.143 1.713 1.57 2.42v-10.26h1.9v13.86z"/><path d="m179.477 236.116c-.427.107-.99.22-1.69.34s-1.51.18-2.43.18c-.8 0-1.474-.117-2.02-.35-.547-.233-.987-.563-1.32-.99-.334-.427-.574-.93-.72-1.51-.147-.58-.22-1.223-.22-1.93v-5.84h1.86v5.44c0 1.267.2 2.173.6 2.72s1.073.82 2.02.82c.2 0 .406-.007.62-.02.213-.013.413-.03.6-.05.186-.02.356-.04.51-.06.153-.02.263-.043.33-.07v-8.78h1.86z"/><path d="m182.677 226.316c.426-.107.99-.22 1.69-.34s1.51-.18 2.43-.18c.666 0 1.226.09 1.68.27.453.18.833.443 1.14.79.093-.067.24-.16.44-.28s.446-.237.74-.35c.293-.113.62-.213.98-.3s.746-.13 1.16-.13c.8 0 1.453.117 1.96.35.506.233.903.563 1.19.99.286.427.48.933.58 1.52s.15 1.227.15 1.92v5.84h-1.86v-5.44c0-.613-.03-1.14-.09-1.58s-.174-.807-.34-1.1c-.167-.293-.394-.51-.68-.65-.287-.14-.657-.21-1.11-.21-.627 0-1.144.083-1.55.25-.407.167-.684.317-.83.45.106.347.186.727.24 1.14.053.413.08.847.08 1.3v5.84h-1.86v-5.44c0-.613-.034-1.14-.1-1.58-.067-.44-.184-.807-.35-1.1-.167-.293-.394-.51-.68-.65-.287-.14-.65-.21-1.09-.21-.187 0-.387.007-.6.02-.214.013-.417.03-.61.05-.194.02-.37.043-.53.07s-.267.047-.32.06v8.78h-1.86z"/><path d="m199.317 231.236c0-.92.133-1.723.4-2.41.266-.687.62-1.257 1.06-1.71s.946-.793 1.52-1.02c.573-.227 1.16-.34 1.76-.34 1.4 0 2.473.437 3.22 1.31.746.873 1.12 2.203 1.12 3.99v.31c0 .127-.007.243-.02.35h-7.12c.08 1.08.393 1.9.94 2.46.546.56 1.4.84 2.56.84.653 0 1.203-.057 1.65-.17.446-.113.783-.223 1.01-.33l.26 1.56c-.227.12-.624.247-1.19.38-.567.133-1.21.2-1.93.2-.907 0-1.69-.137-2.35-.41s-1.204-.65-1.63-1.13c-.427-.48-.744-1.05-.95-1.71-.207-.66-.31-1.383-.31-2.17zm7.14-1.02c.013-.84-.197-1.53-.63-2.07-.434-.54-1.03-.81-1.79-.81-.427 0-.804.083-1.13.25-.327.167-.604.383-.83.65-.227.267-.404.573-.53.92-.127.347-.21.7-.25 1.06zm-.02-8.14-2.82 2.74-.94-.84 2.56-3.08z"/><path d="m214.917 225.796c.16 0 .343.01.55.03.206.02.41.047.61.08s.383.067.55.1c.166.033.29.063.37.09l-.32 1.62c-.147-.053-.39-.117-.73-.19s-.777-.11-1.31-.11c-.347 0-.69.037-1.03.11s-.564.123-.67.15v8.74h-1.86v-9.96c.44-.16.986-.31 1.64-.45.653-.14 1.386-.21 2.2-.21z"/><path d="m220.657 236.416h-1.86v-10.4h1.86zm-.94-12.28c-.334 0-.617-.11-.85-.33-.234-.22-.35-.517-.35-.89s.116-.67.35-.89c.233-.22.516-.33.85-.33.333 0 .616.11.85.33.233.22.35.517.35.89s-.117.67-.35.89c-.234.22-.517.33-.85.33z"/><path d="m225.217 231.236c0 .533.053 1.03.16 1.49.106.46.28.86.52 1.2s.55.607.93.8.836.29 1.37.29c.506 0 .973-.087 1.4-.26.426-.173.753-.353.98-.54v-6.56c-.187-.053-.437-.1-.75-.14-.314-.04-.75-.06-1.31-.06-1 0-1.8.327-2.4.98s-.9 1.587-.9 2.8zm-1.94 0c0-.84.123-1.597.37-2.27.246-.673.596-1.243 1.05-1.71.453-.467 1-.827 1.64-1.08s1.36-.38 2.16-.38c.866 0 1.63.063 2.29.19s1.21.243 1.65.35v13.78h-1.86v-4.16c-.227.147-.57.3-1.03.46s-.99.24-1.59.24c-.747 0-1.41-.133-1.99-.4s-1.07-.64-1.47-1.12-.704-1.053-.91-1.72c-.207-.667-.31-1.393-.31-2.18z"/><path d="m243.917 236.116c-.427.107-.99.22-1.69.34s-1.51.18-2.43.18c-.8 0-1.474-.117-2.02-.35-.547-.233-.987-.563-1.32-.99-.334-.427-.574-.93-.72-1.51-.147-.58-.22-1.223-.22-1.93v-5.84h1.86v5.44c0 1.267.2 2.173.6 2.72s1.073.82 2.02.82c.2 0 .406-.007.62-.02.213-.013.413-.03.6-.05.186-.02.356-.04.51-.06.153-.02.263-.043.33-.07v-8.78h1.86z"/><path d="m246.537 231.236c0-.92.133-1.723.4-2.41.266-.687.62-1.257 1.06-1.71s.946-.793 1.52-1.02c.573-.227 1.16-.34 1.76-.34 1.4 0 2.473.437 3.22 1.31.746.873 1.12 2.203 1.12 3.99v.31c0 .127-.007.243-.02.35h-7.12c.08 1.08.393 1.9.94 2.46.546.56 1.4.84 2.56.84.653 0 1.203-.057 1.65-.17.446-.113.783-.223 1.01-.33l.26 1.56c-.227.12-.624.247-1.19.38-.567.133-1.21.2-1.93.2-.907 0-1.69-.137-2.35-.41s-1.204-.65-1.63-1.13c-.427-.48-.744-1.05-.95-1.71-.207-.66-.31-1.383-.31-2.17zm7.14-1.02c.013-.84-.197-1.53-.63-2.07-.434-.54-1.03-.81-1.79-.81-.427 0-.804.083-1.13.25-.327.167-.604.383-.83.65-.227.267-.404.573-.53.92-.127.347-.21.7-.25 1.06z"/><path d="m128.417 253.476c0 1.2-.187 2.243-.56 3.13-.374.887-.9 1.62-1.58 2.2s-1.494 1.013-2.44 1.3c-.947.287-1.987.43-3.12.43-.56 0-1.177-.023-1.85-.07-.674-.047-1.284-.137-1.83-.27v-13.44c.546-.133 1.156-.223 1.83-.27.673-.047 1.29-.07 1.85-.07 1.133 0 2.173.143 3.12.43.946.287 1.76.72 2.44 1.3s1.206 1.313 1.58 2.2c.373.887.56 1.93.56 3.13zm-7.54 5.36c1.84 0 3.213-.47 4.12-1.41.906-.94 1.36-2.257 1.36-3.95s-.454-3.01-1.36-3.95c-.907-.94-2.28-1.41-4.12-1.41-.547 0-.97.007-1.27.02s-.51.027-.63.04v10.6c.12.013.33.027.63.04s.723.02 1.27.02z"/><path d="m134.417 259.076c.44 0 .83-.01 1.17-.03s.623-.057.85-.11v-3.1c-.134-.067-.35-.123-.65-.17s-.664-.07-1.09-.07c-.28 0-.577.02-.89.06-.314.04-.6.123-.86.25s-.477.3-.65.52c-.174.22-.26.51-.26.87 0 .667.213 1.13.64 1.39.426.26 1.006.39 1.74.39zm-.16-9.32c.746 0 1.376.097 1.89.29.513.193.926.467 1.24.82.313.353.536.773.67 1.26.133.487.2 1.023.2 1.61v6.5c-.16.027-.384.063-.67.11-.287.047-.61.09-.97.13s-.75.077-1.17.11-.837.05-1.25.05c-.587 0-1.127-.06-1.62-.18-.494-.12-.92-.31-1.28-.57s-.64-.603-.84-1.03-.3-.94-.3-1.54c0-.573.116-1.067.35-1.48.233-.413.55-.747.95-1s.866-.44 1.4-.56c.533-.12 1.093-.18 1.68-.18.186 0 .38.01.58.03s.39.047.57.08.336.063.47.09c.133.027.226.047.28.06v-.52c0-.307-.034-.61-.1-.91-.067-.3-.187-.567-.36-.8-.174-.233-.41-.42-.71-.56s-.69-.21-1.17-.21c-.614 0-1.15.043-1.61.13s-.804.177-1.03.27l-.22-1.54c.24-.107.64-.21 1.2-.31s1.166-.15 1.82-.15z"/><path d="m143.077 250.016h3.94v1.56h-3.94v4.8c0 .52.04.95.12 1.29s.2.607.36.8.36.33.6.41.52.12.84.12c.56 0 1.01-.063 1.35-.19s.576-.217.71-.27l.36 1.54c-.187.093-.514.21-.98.35-.467.14-1 .21-1.6.21-.707 0-1.29-.09-1.75-.27s-.83-.45-1.11-.81-.477-.803-.59-1.33c-.114-.527-.17-1.137-.17-1.83v-9.28l1.86-.32v3.22z"/><path d="m152.897 259.076c.44 0 .83-.01 1.17-.03s.623-.057.85-.11v-3.1c-.134-.067-.35-.123-.65-.17s-.664-.07-1.09-.07c-.28 0-.577.02-.89.06-.314.04-.6.123-.86.25s-.477.3-.65.52c-.174.22-.26.51-.26.87 0 .667.213 1.13.64 1.39.426.26 1.006.39 1.74.39zm-.16-9.32c.746 0 1.376.097 1.89.29.513.193.926.467 1.24.82.313.353.536.773.67 1.26.133.487.2 1.023.2 1.61v6.5c-.16.027-.384.063-.67.11-.287.047-.61.09-.97.13s-.75.077-1.17.11-.837.05-1.25.05c-.587 0-1.127-.06-1.62-.18-.494-.12-.92-.31-1.28-.57s-.64-.603-.84-1.03-.3-.94-.3-1.54c0-.573.116-1.067.35-1.48.233-.413.55-.747.95-1s.866-.44 1.4-.56c.533-.12 1.093-.18 1.68-.18.186 0 .38.01.58.03s.39.047.57.08.336.063.47.09c.133.027.226.047.28.06v-.52c0-.307-.034-.61-.1-.91-.067-.3-.187-.567-.36-.8-.174-.233-.41-.42-.71-.56s-.69-.21-1.17-.21c-.614 0-1.15.043-1.61.13s-.804.177-1.03.27l-.22-1.54c.24-.107.64-.21 1.2-.31s1.166-.15 1.82-.15z"/><path d="m167.777 259.036c2.026 0 3.04-.693 3.04-2.08 0-.427-.09-.79-.27-1.09s-.424-.56-.73-.78c-.307-.22-.657-.41-1.05-.57-.394-.16-.81-.32-1.25-.48-.507-.173-.987-.37-1.44-.59-.454-.22-.847-.48-1.18-.78-.334-.3-.597-.657-.79-1.07-.194-.413-.29-.913-.29-1.5 0-1.213.413-2.16 1.24-2.84.826-.68 1.966-1.02 3.42-1.02.84 0 1.603.09 2.29.27.686.18 1.19.377 1.51.59l-.62 1.58c-.28-.173-.697-.343-1.25-.51-.554-.167-1.197-.25-1.93-.25-.374 0-.72.04-1.04.12s-.6.2-.84.36-.43.363-.57.61-.21.537-.21.87c0 .373.073.687.22.94.146.253.353.477.62.67.266.193.576.37.93.53.353.16.743.32 1.17.48.6.24 1.15.48 1.65.72s.933.527 1.3.86c.366.333.65.73.85 1.19s.3 1.017.3 1.67c0 1.213-.444 2.147-1.33 2.8-.887.653-2.137.98-3.75.98-.547 0-1.05-.037-1.51-.11s-.87-.16-1.23-.26-.67-.207-.93-.32-.464-.21-.61-.29l.58-1.6c.306.173.773.367 1.4.58.626.213 1.393.32 2.3.32z"/><path d="m179.597 260.656c-.84 0-1.577-.133-2.21-.4-.634-.267-1.167-.64-1.6-1.12-.434-.48-.757-1.05-.97-1.71-.214-.66-.32-1.39-.32-2.19s.116-1.533.35-2.2c.233-.667.563-1.243.99-1.73.426-.487.95-.867 1.57-1.14s1.31-.41 2.07-.41c.466 0 .933.04 1.4.12.466.08.913.207 1.34.38l-.42 1.58c-.28-.133-.604-.24-.97-.32-.367-.08-.757-.12-1.17-.12-1.04 0-1.837.327-2.39.98-.554.653-.83 1.607-.83 2.86 0 .56.063 1.073.19 1.54.126.467.326.867.6 1.2.273.333.623.59 1.05.77.426.18.946.27 1.56.27.493 0 .94-.047 1.34-.14s.713-.193.94-.3l.26 1.56c-.107.067-.26.13-.46.19s-.427.113-.68.16c-.254.047-.524.087-.81.12-.287.033-.564.05-.83.05z"/><path d="m186.237 260.416h-1.86v-10.4h1.86zm-.94-12.28c-.334 0-.617-.11-.85-.33-.234-.22-.35-.517-.35-.89s.116-.67.35-.89c.233-.22.516-.33.85-.33.333 0 .616.11.85.33.233.22.35.517.35.89s-.117.67-.35.89c-.234.22-.517.33-.85.33z"/><path d="m188.857 255.236c0-.92.133-1.723.4-2.41.266-.687.62-1.257 1.06-1.71s.946-.793 1.52-1.02c.573-.227 1.16-.34 1.76-.34 1.4 0 2.473.437 3.22 1.31.746.873 1.12 2.203 1.12 3.99v.31c0 .127-.007.243-.02.35h-7.12c.08 1.08.393 1.9.94 2.46.546.56 1.4.84 2.56.84.653 0 1.203-.057 1.65-.17.446-.113.783-.223 1.01-.33l.26 1.56c-.227.12-.624.247-1.19.38-.567.133-1.21.2-1.93.2-.907 0-1.69-.137-2.35-.41s-1.204-.65-1.63-1.13c-.427-.48-.744-1.05-.95-1.71-.207-.66-.31-1.383-.31-2.17zm7.14-1.02c.013-.84-.197-1.53-.63-2.07-.434-.54-1.03-.81-1.79-.81-.427 0-.804.083-1.13.25-.327.167-.604.383-.83.65-.227.267-.404.573-.53.92-.127.347-.21.7-.25 1.06z"/><path d="m200.617 250.316c.426-.107.993-.22 1.7-.34.706-.12 1.52-.18 2.44-.18.826 0 1.513.117 2.06.35.546.233.983.56 1.31.98.326.42.556.923.69 1.51.133.587.2 1.233.2 1.94v5.84h-1.86v-5.44c0-.64-.044-1.187-.13-1.64-.087-.453-.23-.82-.43-1.1s-.467-.483-.8-.61c-.334-.127-.747-.19-1.24-.19-.2 0-.407.007-.62.02-.214.013-.417.03-.61.05-.194.02-.367.043-.52.07-.154.027-.264.047-.33.06v8.78h-1.86z"/><path d="m213.837 250.016h3.94v1.56h-3.94v4.8c0 .52.04.95.12 1.29s.2.607.36.8.36.33.6.41.52.12.84.12c.56 0 1.01-.063 1.35-.19s.576-.217.71-.27l.36 1.54c-.187.093-.514.21-.98.35-.467.14-1 .21-1.6.21-.707 0-1.29-.09-1.75-.27s-.83-.45-1.11-.81-.477-.803-.59-1.33c-.114-.527-.17-1.137-.17-1.83v-9.28l1.86-.32v3.22z"/><path d="m221.997 260.416h-1.86v-10.4h1.86zm-.94-12.28c-.334 0-.617-.11-.85-.33-.234-.22-.35-.517-.35-.89s.116-.67.35-.89c.233-.22.516-.33.85-.33.333 0 .616.11.85.33.233.22.35.517.35.89s-.117.67-.35.89c-.234.22-.517.33-.85.33z"/><path d="m227.617 259.076c.76 0 1.323-.1 1.69-.3.366-.2.55-.52.55-.96 0-.453-.18-.813-.54-1.08s-.954-.567-1.78-.9c-.4-.16-.784-.323-1.15-.49-.367-.167-.684-.363-.95-.59-.267-.227-.48-.5-.64-.82s-.24-.713-.24-1.18c0-.92.34-1.65 1.02-2.19s1.606-.81 2.78-.81c.293 0 .586.017.88.05.293.033.566.073.82.12.253.047.476.097.67.15.193.053.343.1.45.14l-.34 1.6c-.2-.107-.514-.217-.94-.33-.427-.113-.94-.17-1.54-.17-.52 0-.974.103-1.36.31-.387.207-.58.53-.58.97 0 .227.043.427.13.6.086.173.22.33.4.47s.403.27.67.39c.266.12.586.247.96.38.493.187.933.37 1.32.55.386.18.716.39.99.63.273.24.483.53.63.87.146.34.22.757.22 1.25 0 .96-.357 1.687-1.07 2.18-.714.493-1.73.74-3.05.74-.92 0-1.64-.077-2.16-.23s-.874-.27-1.06-.35l.34-1.6c.213.08.553.2 1.02.36.466.16 1.086.24 1.86.24z"/><path d="m235.857 250.016h3.94v1.56h-3.94v4.8c0 .52.04.95.12 1.29s.2.607.36.8.36.33.6.41.52.12.84.12c.56 0 1.01-.063 1.35-.19s.576-.217.71-.27l.36 1.54c-.187.093-.514.21-.98.35-.467.14-1 .21-1.6.21-.707 0-1.29-.09-1.75-.27s-.83-.45-1.11-.81-.477-.803-.59-1.33c-.114-.527-.17-1.137-.17-1.83v-9.28l1.86-.32v3.22z"/><path d="m133.507 277.476c0 1.2-.187 2.243-.56 3.13-.374.887-.9 1.62-1.58 2.2s-1.494 1.013-2.44 1.3c-.947.287-1.987.43-3.12.43-.56 0-1.177-.023-1.85-.07-.674-.047-1.284-.137-1.83-.27v-13.44c.546-.133 1.156-.223 1.83-.27.673-.047 1.29-.07 1.85-.07 1.133 0 2.173.143 3.12.43.946.287 1.76.72 2.44 1.3s1.206 1.313 1.58 2.2c.373.887.56 1.93.56 3.13zm-7.54 5.36c1.84 0 3.213-.47 4.12-1.41.906-.94 1.36-2.257 1.36-3.95s-.454-3.01-1.36-3.95c-.907-.94-2.28-1.41-4.12-1.41-.547 0-.97.007-1.27.02s-.51.027-.63.04v10.6c.12.013.33.027.63.04s.723.02 1.27.02z"/><path d="m139.507 283.076c.44 0 .83-.01 1.17-.03s.623-.057.85-.11v-3.1c-.134-.067-.35-.123-.65-.17s-.664-.07-1.09-.07c-.28 0-.577.02-.89.06-.314.04-.6.123-.86.25s-.477.3-.65.52c-.174.22-.26.51-.26.87 0 .667.213 1.13.64 1.39.426.26 1.006.39 1.74.39zm-.16-9.32c.746 0 1.376.097 1.89.29.513.193.926.467 1.24.82.313.353.536.773.67 1.26.133.487.2 1.023.2 1.61v6.5c-.16.027-.384.063-.67.11-.287.047-.61.09-.97.13s-.75.077-1.17.11-.837.05-1.25.05c-.587 0-1.127-.06-1.62-.18-.494-.12-.92-.31-1.28-.57s-.64-.603-.84-1.03-.3-.94-.3-1.54c0-.573.116-1.067.35-1.48.233-.413.55-.747.95-1s.866-.44 1.4-.56c.533-.12 1.093-.18 1.68-.18.186 0 .38.01.58.03s.39.047.57.08.336.063.47.09c.133.027.226.047.28.06v-.52c0-.307-.034-.61-.1-.91-.067-.3-.187-.567-.36-.8-.174-.233-.41-.42-.71-.56s-.69-.21-1.17-.21c-.614 0-1.15.043-1.61.13s-.804.177-1.03.27l-.22-1.54c.24-.107.64-.21 1.2-.31s1.166-.15 1.82-.15z"/><path d="m148.167 274.016h3.94v1.56h-3.94v4.8c0 .52.04.95.12 1.29s.2.607.36.8.36.33.6.41.52.12.84.12c.56 0 1.01-.063 1.35-.19s.576-.217.71-.27l.36 1.54c-.187.093-.514.21-.98.35-.467.14-1 .21-1.6.21-.707 0-1.29-.09-1.75-.27s-.83-.45-1.11-.81-.477-.803-.59-1.33c-.114-.527-.17-1.137-.17-1.83v-9.28l1.86-.32z"/><path d="m157.987 283.076c.44 0 .83-.01 1.17-.03s.623-.057.85-.11v-3.1c-.134-.067-.35-.123-.65-.17s-.664-.07-1.09-.07c-.28 0-.577.02-.89.06-.314.04-.6.123-.86.25s-.477.3-.65.52c-.174.22-.26.51-.26.87 0 .667.213 1.13.64 1.39.426.26 1.006.39 1.74.39zm-.16-9.32c.746 0 1.376.097 1.89.29.513.193.926.467 1.24.82.313.353.536.773.67 1.26.133.487.2 1.023.2 1.61v6.5c-.16.027-.384.063-.67.11-.287.047-.61.09-.97.13s-.75.077-1.17.11-.837.05-1.25.05c-.587 0-1.127-.06-1.62-.18-.494-.12-.92-.31-1.28-.57s-.64-.603-.84-1.03-.3-.94-.3-1.54c0-.573.116-1.067.35-1.48.233-.413.55-.747.95-1s.866-.44 1.4-.56c.533-.12 1.093-.18 1.68-.18.186 0 .38.01.58.03s.39.047.57.08.336.063.47.09c.133.027.226.047.28.06v-.52c0-.307-.034-.61-.1-.91-.067-.3-.187-.567-.36-.8-.174-.233-.41-.42-.71-.56s-.69-.21-1.17-.21c-.614 0-1.15.043-1.61.13s-.804.177-1.03.27l-.22-1.54c.24-.107.64-.21 1.2-.31s1.166-.15 1.82-.15z"/><path d="m178.907 284.416c-.227-.6-.44-1.19-.64-1.77s-.407-1.17-.62-1.77h-6.28l-1.26 3.54h-2.02c.533-1.467 1.033-2.823 1.5-4.07.466-1.247.923-2.43 1.37-3.55.446-1.12.89-2.19 1.33-3.21s.9-2.03 1.38-3.03h1.78c.48 1 .94 2.01 1.38 3.03s.883 2.09 1.33 3.21c.446 1.12.903 2.303 1.37 3.55.466 1.247.966 2.603 1.5 4.07zm-1.82-5.14c-.427-1.16-.85-2.283-1.27-3.37s-.857-2.13-1.31-3.13c-.467 1-.91 2.043-1.33 3.13s-.837 2.21-1.25 3.37z"/><path d="m182.787 274.316c.426-.107.993-.22 1.7-.34.706-.12 1.52-.18 2.44-.18.826 0 1.513.117 2.06.35.546.233.983.56 1.31.98.326.42.556.923.69 1.51.133.587.2 1.233.2 1.94v5.84h-1.86v-5.44c0-.64-.044-1.187-.13-1.64-.087-.453-.23-.82-.43-1.1s-.467-.483-.8-.61c-.334-.127-.747-.19-1.24-.19-.2 0-.407.007-.62.02-.214.013-.417.03-.61.05-.194.02-.367.043-.52.07-.154.027-.264.047-.33.06v8.78h-1.86z"/><path d="m197.787 283.076c.44 0 .83-.01 1.17-.03s.623-.057.85-.11v-3.1c-.134-.067-.35-.123-.65-.17s-.664-.07-1.09-.07c-.28 0-.577.02-.89.06-.314.04-.6.123-.86.25s-.477.3-.65.52c-.174.22-.26.51-.26.87 0 .667.213 1.13.64 1.39.426.26 1.006.39 1.74.39zm-.16-9.32c.746 0 1.376.097 1.89.29.513.193.926.467 1.24.82.313.353.536.773.67 1.26.133.487.2 1.023.2 1.61v6.5c-.16.027-.384.063-.67.11-.287.047-.61.09-.97.13s-.75.077-1.17.11-.837.05-1.25.05c-.587 0-1.127-.06-1.62-.18-.494-.12-.92-.31-1.28-.57s-.64-.603-.84-1.03-.3-.94-.3-1.54c0-.573.116-1.067.35-1.48.233-.413.55-.747.95-1s.866-.44 1.4-.56c.533-.12 1.093-.18 1.68-.18.186 0 .38.01.58.03s.39.047.57.08.336.063.47.09c.133.027.226.047.28.06v-.52c0-.307-.034-.61-.1-.91-.067-.3-.187-.567-.36-.8-.174-.233-.41-.42-.71-.56s-.69-.21-1.17-.21c-.614 0-1.15.043-1.61.13s-.804.177-1.03.27l-.22-1.54c.24-.107.64-.21 1.2-.31s1.166-.15 1.82-.15z"/><path d="m207.827 284.616c-1.147-.027-1.96-.273-2.44-.74s-.72-1.193-.72-2.18v-12.48l1.86-.32v12.5c0 .307.026.56.08.76.053.2.14.36.26.48s.28.21.48.27.446.11.74.15z"/><path d="m208.947 286.356c.146.067.336.13.57.19.233.06.463.09.69.09.733 0 1.306-.163 1.72-.49.413-.327.786-.857 1.12-1.59-.84-1.6-1.624-3.297-2.35-5.09-.727-1.793-1.33-3.61-1.81-5.45h2c.146.6.323 1.247.53 1.94.206.693.436 1.407.69 2.14.253.733.526 1.467.82 2.2.293.733.6 1.44.92 2.12.506-1.4.946-2.787 1.32-4.16.373-1.373.726-2.787 1.06-4.24h1.92c-.48 1.96-1.014 3.843-1.6 5.65-.587 1.807-1.22 3.497-1.9 5.07-.267.6-.544 1.117-.83 1.55-.287.433-.604.79-.95 1.07-.347.28-.737.487-1.17.62-.434.133-.924.2-1.47.2-.147 0-.3-.01-.46-.03s-.317-.047-.47-.08c-.154-.033-.294-.07-.42-.11-.127-.04-.217-.073-.27-.1z"/><path d="m222.527 283.076c.76 0 1.323-.1 1.69-.3.366-.2.55-.52.55-.96 0-.453-.18-.813-.54-1.08s-.954-.567-1.78-.9c-.4-.16-.784-.323-1.15-.49-.367-.167-.684-.363-.95-.59-.267-.227-.48-.5-.64-.82s-.24-.713-.24-1.18c0-.92.34-1.65 1.02-2.19s1.606-.81 2.78-.81c.293 0 .586.017.88.05.293.033.566.073.82.12.253.047.476.097.67.15.193.053.343.1.45.14l-.34 1.6c-.2-.107-.514-.217-.94-.33-.427-.113-.94-.17-1.54-.17-.52 0-.974.103-1.36.31-.387.207-.58.53-.58.97 0 .227.043.427.13.6.086.173.22.33.4.47s.403.27.67.39c.266.12.586.247.96.38.493.187.933.37 1.32.55.386.18.716.39.99.63.273.24.483.53.63.87.146.34.22.757.22 1.25 0 .96-.357 1.687-1.07 2.18-.714.493-1.73.74-3.05.74-.92 0-1.64-.077-2.16-.23s-.874-.27-1.06-.35l.34-1.6c.213.08.553.2 1.02.36.466.16 1.086.24 1.86.24z"/><path d="m230.767 274.016h3.94v1.56h-3.94v4.8c0 .52.04.95.12 1.29s.2.607.36.8.36.33.6.41.52.12.84.12c.56 0 1.01-.063 1.35-.19s.576-.217.71-.27l.36 1.54c-.187.093-.514.21-.98.35-.467.14-1 .21-1.6.21-.707 0-1.29-.09-1.75-.27s-.83-.45-1.11-.81-.477-.803-.59-1.33c-.114-.527-.17-1.137-.17-1.83v-9.28l1.86-.32z"/><path d="m169.528 47.232c-2.496 3.264-5.152 6.816-7.968 10.656s-5.184 7.776-7.104 11.808h15.072zm14.016-17.472v39.936h7.104v11.712h-7.104v14.88h-14.016v-14.88h-28.704v-10.464c1.408-2.816 3.168-6 5.28-9.552s4.464-7.2 7.056-10.944 5.328-7.408 8.208-10.992 5.76-6.816 8.64-9.696z"/></g></svg>