<?xml version="1.0" encoding="UTF-8" standalone="no"?> <svg xmlns="http://www.w3.org/2000/svg" xmlns:xlink="http://www.w3.org/1999/xlink" xmlns:serif="http://www.serif.com/" width="100%" height="100%" viewBox="0 0 348 302" xml:space="preserve" style="fill-rule:evenodd;clip-rule:evenodd;stroke-linejoin:round;stroke-miterlimit:2;"><rect id="Plan-de-travail1" serif:id="Plan de travail1" x="0" y="0" width="347.738" height="301.249" style="fill:none;"></rect><g><path d="M53.395,142.322l0,-33.264l22.272,0l0,6.288l-14.784,0l0,6.96l13.152,0l0,6.288l-13.152,0l0,13.728l-7.488,0Z" style="fill:#fff;fill-rule:nonzero;"></path><path d="M103.603,129.65c0,1.984 -0.288,3.8 -0.864,5.448c-0.576,1.648 -1.408,3.056 -2.496,4.224c-1.088,1.168 -2.392,2.072 -3.912,2.712c-1.52,0.64 -3.224,0.96 -5.112,0.96c-1.856,0 -3.544,-0.32 -5.064,-0.96c-1.52,-0.64 -2.824,-1.544 -3.912,-2.712c-1.088,-1.168 -1.936,-2.576 -2.544,-4.224c-0.608,-1.648 -0.912,-3.464 -0.912,-5.448c0,-1.984 0.312,-3.792 0.936,-5.424c0.624,-1.632 1.488,-3.024 2.592,-4.176c1.104,-1.152 2.416,-2.048 3.936,-2.688c1.52,-0.64 3.176,-0.96 4.968,-0.96c1.824,0 3.496,0.32 5.016,0.96c1.52,0.64 2.824,1.536 3.912,2.688c1.088,1.152 1.936,2.544 2.544,4.176c0.608,1.632 0.912,3.44 0.912,5.424Zm-7.296,0c0,-2.208 -0.44,-3.944 -1.32,-5.208c-0.88,-1.264 -2.136,-1.896 -3.768,-1.896c-1.632,0 -2.896,0.632 -3.792,1.896c-0.896,1.264 -1.344,3 -1.344,5.208c0,2.208 0.448,3.96 1.344,5.256c0.896,1.296 2.16,1.944 3.792,1.944c1.632,0 2.888,-0.648 3.768,-1.944c0.88,-1.296 1.32,-3.048 1.32,-5.256Z" style="fill:#fff;fill-rule:nonzero;"></path><path d="M124.339,123.41c-0.64,-0.16 -1.392,-0.328 -2.256,-0.504c-0.864,-0.176 -1.792,-0.264 -2.784,-0.264c-0.448,0 -0.984,0.04 -1.608,0.12c-0.624,0.08 -1.096,0.168 -1.416,0.264l0,19.296l-7.152,0l0,-23.904c1.28,-0.448 2.792,-0.872 4.536,-1.272c1.744,-0.4 3.688,-0.6 5.832,-0.6c0.384,0 0.848,0.024 1.392,0.072c0.544,0.048 1.088,0.112 1.632,0.192c0.544,0.08 1.088,0.176 1.632,0.288c0.544,0.112 1.008,0.248 1.392,0.408l-1.2,5.904Z" style="fill:#fff;fill-rule:nonzero;"></path><path d="M143.251,128.93c0,-2.304 -0.296,-3.936 -0.888,-4.896c-0.592,-0.96 -1.608,-1.44 -3.048,-1.44c-0.448,0 -0.912,0.024 -1.392,0.072c-0.48,0.048 -0.944,0.104 -1.392,0.168l0,19.488l-7.152,0l0,-24.384c0.608,-0.16 1.32,-0.328 2.136,-0.504c0.816,-0.176 1.68,-0.336 2.592,-0.48c0.912,-0.144 1.848,-0.256 2.808,-0.336c0.96,-0.08 1.904,-0.12 2.832,-0.12c1.824,0 3.304,0.232 4.44,0.696c1.136,0.464 2.072,1.016 2.808,1.656c1.024,-0.736 2.2,-1.312 3.528,-1.728c1.328,-0.416 2.552,-0.624 3.672,-0.624c2.016,0 3.672,0.28 4.968,0.84c1.296,0.56 2.328,1.352 3.096,2.376c0.768,1.024 1.296,2.24 1.584,3.648c0.288,1.408 0.432,2.976 0.432,4.704l0,14.256l-7.152,0l0,-13.392c0,-2.304 -0.296,-3.936 -0.888,-4.896c-0.592,-0.96 -1.608,-1.44 -3.048,-1.44c-0.384,0 -0.92,0.096 -1.608,0.288c-0.688,0.192 -1.256,0.432 -1.704,0.72c0.224,0.736 0.368,1.512 0.432,2.328c0.064,0.816 0.096,1.688 0.096,2.616l0,13.776l-7.152,0l0,-13.392Z" style="fill:#fff;fill-rule:nonzero;"></path><path d="M180.403,137.33c0.704,0 1.376,-0.016 2.016,-0.048c0.64,-0.032 1.152,-0.08 1.536,-0.144l0,-5.424c-0.288,-0.064 -0.72,-0.128 -1.296,-0.192c-0.576,-0.064 -1.104,-0.096 -1.584,-0.096c-0.672,0 -1.304,0.04 -1.896,0.12c-0.592,0.08 -1.112,0.232 -1.56,0.456c-0.448,0.224 -0.8,0.528 -1.056,0.912c-0.256,0.384 -0.384,0.864 -0.384,1.44c0,1.12 0.376,1.896 1.128,2.328c0.752,0.432 1.784,0.648 3.096,0.648Zm-0.576,-20.928c2.112,0 3.872,0.24 5.28,0.72c1.408,0.48 2.536,1.168 3.384,2.064c0.848,0.896 1.448,1.984 1.8,3.264c0.352,1.28 0.528,2.704 0.528,4.272l0,14.88c-1.024,0.224 -2.448,0.488 -4.272,0.792c-1.824,0.304 -4.032,0.456 -6.624,0.456c-1.632,0 -3.112,-0.144 -4.44,-0.432c-1.328,-0.288 -2.472,-0.76 -3.432,-1.416c-0.96,-0.656 -1.696,-1.512 -2.208,-2.568c-0.512,-1.056 -0.768,-2.352 -0.768,-3.888c0,-1.472 0.296,-2.72 0.888,-3.744c0.592,-1.024 1.384,-1.84 2.376,-2.448c0.992,-0.608 2.128,-1.048 3.408,-1.32c1.28,-0.272 2.608,-0.408 3.984,-0.408c0.928,0 1.752,0.04 2.472,0.12c0.72,0.08 1.304,0.184 1.752,0.312l0,-0.672c0,-1.216 -0.368,-2.192 -1.104,-2.928c-0.736,-0.736 -2.016,-1.104 -3.84,-1.104c-1.216,0 -2.416,0.088 -3.6,0.264c-1.184,0.176 -2.208,0.424 -3.072,0.744l-0.912,-5.76c0.416,-0.128 0.936,-0.264 1.56,-0.408c0.624,-0.144 1.304,-0.272 2.04,-0.384c0.736,-0.112 1.512,-0.208 2.328,-0.288c0.816,-0.08 1.64,-0.12 2.472,-0.12Z" style="fill:#fff;fill-rule:nonzero;"></path><path d="M197.059,110.786l7.152,-1.152l0,7.44l8.592,0l0,5.952l-8.592,0l0,8.88c0,1.504 0.264,2.704 0.792,3.6c0.528,0.896 1.592,1.344 3.192,1.344c0.768,0 1.56,-0.072 2.376,-0.216c0.816,-0.144 1.56,-0.344 2.232,-0.6l1.008,5.568c-0.864,0.352 -1.824,0.656 -2.88,0.912c-1.056,0.256 -2.352,0.384 -3.888,0.384c-1.952,0 -3.568,-0.264 -4.848,-0.792c-1.28,-0.528 -2.304,-1.264 -3.072,-2.208c-0.768,-0.944 -1.304,-2.088 -1.608,-3.432c-0.304,-1.344 -0.456,-2.832 -0.456,-4.464l0,-21.216Z" style="fill:#fff;fill-rule:nonzero;"></path><path d="M225.763,142.322l-7.152,0l0,-25.248l7.152,0l0,25.248Zm0.672,-32.544c0,1.312 -0.424,2.344 -1.272,3.096c-0.848,0.752 -1.848,1.128 -3,1.128c-1.152,0 -2.152,-0.376 -3,-1.128c-0.848,-0.752 -1.272,-1.784 -1.272,-3.096c0,-1.312 0.424,-2.344 1.272,-3.096c0.848,-0.752 1.848,-1.128 3,-1.128c1.152,0 2.152,0.376 3,1.128c0.848,0.752 1.272,1.784 1.272,3.096Z" style="fill:#fff;fill-rule:nonzero;"></path><path d="M256.099,129.65c0,1.984 -0.288,3.8 -0.864,5.448c-0.576,1.648 -1.408,3.056 -2.496,4.224c-1.088,1.168 -2.392,2.072 -3.912,2.712c-1.52,0.64 -3.224,0.96 -5.112,0.96c-1.856,0 -3.544,-0.32 -5.064,-0.96c-1.52,-0.64 -2.824,-1.544 -3.912,-2.712c-1.088,-1.168 -1.936,-2.576 -2.544,-4.224c-0.608,-1.648 -0.912,-3.464 -0.912,-5.448c0,-1.984 0.312,-3.792 0.936,-5.424c0.624,-1.632 1.488,-3.024 2.592,-4.176c1.104,-1.152 2.416,-2.048 3.936,-2.688c1.52,-0.64 3.176,-0.96 4.968,-0.96c1.824,0 3.496,0.32 5.016,0.96c1.52,0.64 2.824,1.536 3.912,2.688c1.088,1.152 1.936,2.544 2.544,4.176c0.608,1.632 0.912,3.44 0.912,5.424Zm-7.296,0c0,-2.208 -0.44,-3.944 -1.32,-5.208c-0.88,-1.264 -2.136,-1.896 -3.768,-1.896c-1.632,0 -2.896,0.632 -3.792,1.896c-0.896,1.264 -1.344,3 -1.344,5.208c0,2.208 0.448,3.96 1.344,5.256c0.896,1.296 2.16,1.944 3.792,1.944c1.632,0 2.888,-0.648 3.768,-1.944c0.88,-1.296 1.32,-3.048 1.32,-5.256Z" style="fill:#fff;fill-rule:nonzero;"></path><path d="M261.619,117.938c1.216,-0.352 2.784,-0.68 4.704,-0.984c1.92,-0.304 3.936,-0.456 6.048,-0.456c2.144,0 3.928,0.28 5.352,0.84c1.424,0.56 2.552,1.352 3.384,2.376c0.832,1.024 1.424,2.24 1.776,3.648c0.352,1.408 0.528,2.976 0.528,4.704l0,14.256l-7.152,0l0,-13.392c0,-2.304 -0.304,-3.936 -0.912,-4.896c-0.608,-0.96 -1.744,-1.44 -3.408,-1.44c-0.512,0 -1.056,0.024 -1.632,0.072c-0.576,0.048 -1.088,0.104 -1.536,0.168l0,19.488l-7.152,0l0,-24.384Z" style="fill:#fff;fill-rule:nonzero;"></path><path d="M297.139,137.186c1.312,0 2.24,-0.128 2.784,-0.384c0.544,-0.256 0.816,-0.752 0.816,-1.488c0,-0.576 -0.352,-1.08 -1.056,-1.512c-0.704,-0.432 -1.776,-0.92 -3.216,-1.464c-1.12,-0.416 -2.136,-0.848 -3.048,-1.296c-0.912,-0.448 -1.688,-0.984 -2.328,-1.608c-0.64,-0.624 -1.136,-1.368 -1.488,-2.232c-0.352,-0.864 -0.528,-1.904 -0.528,-3.12c0,-2.368 0.88,-4.24 2.64,-5.616c1.76,-1.376 4.176,-2.064 7.248,-2.064c1.536,0 3.008,0.136 4.416,0.408c1.408,0.272 2.528,0.568 3.36,0.888l-1.248,5.568c-0.832,-0.288 -1.736,-0.544 -2.712,-0.768c-0.976,-0.224 -2.072,-0.336 -3.288,-0.336c-2.24,0 -3.36,0.624 -3.36,1.872c0,0.288 0.048,0.544 0.144,0.768c0.096,0.224 0.288,0.44 0.576,0.648c0.288,0.208 0.68,0.433 1.176,0.675c0.496,0.242 1.128,0.508 1.896,0.798c1.568,0.581 2.864,1.154 3.888,1.719c1.024,0.564 1.832,1.174 2.424,1.828c0.592,0.655 1.008,1.381 1.248,2.179c0.24,0.798 0.36,1.724 0.36,2.778c0,2.49 -0.936,4.374 -2.808,5.651c-1.872,1.278 -4.52,1.916 -7.944,1.916c-2.24,0 -4.104,-0.192 -5.592,-0.576c-1.488,-0.384 -2.52,-0.704 -3.096,-0.96l1.2,-5.808c1.216,0.48 2.464,0.856 3.744,1.128c1.28,0.272 2.544,0.408 3.792,0.408Z" style="fill:#fff;fill-rule:nonzero;"></path><path d="M52.963,171.794c0,-1.856 0.288,-3.592 0.864,-5.208c0.576,-1.616 1.4,-3.016 2.472,-4.2c1.072,-1.184 2.376,-2.112 3.912,-2.784c1.536,-0.672 3.264,-1.008 5.184,-1.008c2.368,0 4.608,0.432 6.72,1.296l-1.248,4.752c-0.672,-0.288 -1.432,-0.528 -2.28,-0.72c-0.848,-0.192 -1.752,-0.288 -2.712,-0.288c-2.272,0 -4,0.712 -5.184,2.136c-1.184,1.424 -1.776,3.432 -1.776,6.024c0,2.496 0.56,4.472 1.68,5.928c1.12,1.456 3.008,2.184 5.664,2.184c0.992,0 1.968,-0.096 2.928,-0.288c0.96,-0.192 1.792,-0.432 2.496,-0.72l0.816,4.8c-0.64,0.32 -1.608,0.608 -2.904,0.864c-1.296,0.256 -2.632,0.384 -4.008,0.384c-2.144,0 -4.008,-0.328 -5.592,-0.984c-1.584,-0.656 -2.896,-1.568 -3.936,-2.736c-1.04,-1.168 -1.816,-2.56 -2.328,-4.176c-0.512,-1.616 -0.768,-3.368 -0.768,-5.256Z" style="fill:#fff;fill-rule:nonzero;"></path><path d="M75.619,171.89c0,-2.208 0.328,-4.144 0.984,-5.808c0.656,-1.664 1.528,-3.048 2.616,-4.152c1.088,-1.104 2.336,-1.936 3.744,-2.496c1.408,-0.56 2.848,-0.84 4.32,-0.84c3.456,0 6.152,1.072 8.088,3.216c1.936,2.144 2.904,5.344 2.904,9.6c0,0.32 -0.008,0.68 -0.024,1.08c-0.016,0.4 -0.04,0.76 -0.072,1.08l-16.56,0c0.16,2.016 0.872,3.576 2.136,4.68c1.264,1.104 3.096,1.656 5.496,1.656c1.408,0 2.696,-0.128 3.864,-0.384c1.168,-0.256 2.088,-0.528 2.76,-0.816l0.768,4.752c-0.32,0.16 -0.76,0.328 -1.32,0.504c-0.56,0.176 -1.2,0.336 -1.92,0.48c-0.72,0.144 -1.496,0.264 -2.328,0.36c-0.832,0.096 -1.68,0.144 -2.544,0.144c-2.208,0 -4.128,-0.328 -5.76,-0.984c-1.632,-0.656 -2.976,-1.568 -4.032,-2.736c-1.056,-1.168 -1.84,-2.544 -2.352,-4.128c-0.512,-1.584 -0.768,-3.32 -0.768,-5.208Zm16.848,-2.592c0,-0.8 -0.112,-1.56 -0.336,-2.28c-0.224,-0.72 -0.552,-1.344 -0.984,-1.872c-0.432,-0.528 -0.96,-0.944 -1.584,-1.248c-0.624,-0.304 -1.368,-0.456 -2.232,-0.456c-0.896,0 -1.68,0.168 -2.352,0.504c-0.672,0.336 -1.24,0.776 -1.704,1.32c-0.464,0.544 -0.824,1.168 -1.08,1.872c-0.256,0.704 -0.432,1.424 -0.528,2.16l10.8,0Z" style="fill:#fff;fill-rule:nonzero;"></path><path d="M118.723,164.45c-0.48,-0.16 -1.144,-0.328 -1.992,-0.504c-0.848,-0.176 -1.832,-0.264 -2.952,-0.264c-0.64,0 -1.32,0.064 -2.04,0.192c-0.72,0.128 -1.224,0.24 -1.512,0.336l0,20.112l-5.808,0l0,-23.904c1.12,-0.416 2.52,-0.808 4.2,-1.176c1.68,-0.368 3.544,-0.552 5.592,-0.552c0.384,0 0.832,0.024 1.344,0.072c0.512,0.048 1.024,0.112 1.536,0.192c0.512,0.08 1.008,0.176 1.488,0.288c0.48,0.112 0.864,0.216 1.152,0.312l-1.008,4.896Z" style="fill:#fff;fill-rule:nonzero;"></path><path d="M123.475,152.594l5.808,-0.96l0,7.584l8.928,0l0,4.848l-8.928,0l0,10.224c0,2.016 0.32,3.456 0.96,4.32c0.64,0.864 1.728,1.296 3.264,1.296c1.056,0 1.992,-0.112 2.808,-0.336c0.816,-0.224 1.464,-0.432 1.944,-0.624l0.96,4.608c-0.672,0.288 -1.552,0.584 -2.64,0.888c-1.088,0.304 -2.368,0.456 -3.84,0.456c-1.792,0 -3.288,-0.24 -4.488,-0.72c-1.2,-0.48 -2.152,-1.176 -2.856,-2.088c-0.704,-0.912 -1.2,-2.016 -1.488,-3.312c-0.288,-1.296 -0.432,-2.776 -0.432,-4.44l0,-21.744Z" style="fill:#fff;fill-rule:nonzero;"></path><path d="M149.683,184.322l-5.808,0l0,-25.104l5.808,0l0,25.104Zm0.624,-32.448c0,1.088 -0.352,1.952 -1.056,2.592c-0.704,0.64 -1.536,0.96 -2.496,0.96c-0.992,0 -1.84,-0.32 -2.544,-0.96c-0.704,-0.64 -1.056,-1.504 -1.056,-2.592c0,-1.12 0.352,-2 1.056,-2.64c0.704,-0.64 1.552,-0.96 2.544,-0.96c0.96,0 1.792,0.32 2.496,0.96c0.704,0.64 1.056,1.52 1.056,2.64Z" style="fill:#fff;fill-rule:nonzero;"></path><path d="M182.275,184.322l-5.808,0l0,-25.104l5.808,0l0,25.104Zm0.672,-32.448c0,1.088 -0.352,1.952 -1.056,2.592c-0.704,0.64 -1.536,0.96 -2.496,0.96c-0.992,0 -1.84,-0.32 -2.544,-0.96c-0.704,-0.64 -1.056,-1.504 -1.056,-2.592c0,-1.12 0.352,-2 1.056,-2.64c0.704,-0.64 1.552,-0.96 2.544,-0.96c0.96,0 1.792,0.32 2.496,0.96c0.704,0.64 1.056,1.52 1.056,2.64Zm-15.552,-4.8c1.216,0 2.248,0.096 3.096,0.288c0.848,0.192 1.512,0.384 1.992,0.576l-0.912,4.704c-0.448,-0.16 -0.984,-0.304 -1.608,-0.432c-0.624,-0.128 -1.304,-0.192 -2.04,-0.192c-1.92,0 -3.24,0.512 -3.96,1.536c-0.72,1.024 -1.08,2.352 -1.08,3.984l0,1.68l9.216,0l0,4.848l-9.216,0l0,20.256l-5.808,0l0,-26.88c0,-3.264 0.848,-5.808 2.544,-7.632c1.696,-1.824 4.288,-2.736 7.776,-2.736Z" style="fill:#fff;fill-rule:nonzero;"></path><path d="M198.547,180.242c1.792,0 3.152,-0.096 4.08,-0.288l0,-6.432c-0.32,-0.096 -0.784,-0.192 -1.392,-0.288c-0.608,-0.096 -1.28,-0.144 -2.016,-0.144c-0.64,0 -1.288,0.048 -1.944,0.144c-0.656,0.096 -1.248,0.272 -1.776,0.528c-0.528,0.256 -0.952,0.616 -1.272,1.08c-0.32,0.464 -0.48,1.048 -0.48,1.752c0,1.376 0.432,2.328 1.296,2.856c0.864,0.528 2.032,0.792 3.504,0.792Zm-0.48,-21.648c1.92,0 3.536,0.24 4.848,0.72c1.312,0.48 2.36,1.152 3.144,2.016c0.784,0.864 1.344,1.912 1.68,3.144c0.336,1.232 0.504,2.584 0.504,4.056l0,15.216c-0.896,0.192 -2.248,0.424 -4.056,0.696c-1.808,0.272 -3.848,0.408 -6.12,0.408c-1.504,0 -2.88,-0.144 -4.128,-0.432c-1.248,-0.288 -2.312,-0.752 -3.192,-1.392c-0.88,-0.64 -1.568,-1.472 -2.064,-2.496c-0.496,-1.024 -0.744,-2.288 -0.744,-3.792c0,-1.44 0.28,-2.656 0.84,-3.648c0.56,-0.992 1.32,-1.8 2.28,-2.424c0.96,-0.624 2.072,-1.072 3.336,-1.344c1.264,-0.272 2.584,-0.408 3.96,-0.408c0.64,0 1.312,0.04 2.016,0.12c0.704,0.08 1.456,0.216 2.256,0.408l0,-0.96c0,-0.672 -0.08,-1.312 -0.24,-1.92c-0.16,-0.608 -0.44,-1.144 -0.84,-1.608c-0.4,-0.464 -0.928,-0.824 -1.584,-1.08c-0.656,-0.256 -1.48,-0.384 -2.472,-0.384c-1.344,0 -2.576,0.096 -3.696,0.288c-1.12,0.192 -2.032,0.416 -2.736,0.672l-0.72,-4.704c0.736,-0.256 1.808,-0.512 3.216,-0.768c1.408,-0.256 2.912,-0.384 4.512,-0.384Z" style="fill:#fff;fill-rule:nonzero;"></path><path d="M215.347,160.034c1.12,-0.32 2.576,-0.624 4.368,-0.912c1.792,-0.288 3.776,-0.432 5.952,-0.432c2.048,0 3.76,0.28 5.136,0.84c1.376,0.56 2.472,1.344 3.288,2.352c0.816,1.008 1.392,2.224 1.728,3.648c0.336,1.424 0.504,2.984 0.504,4.68l0,14.112l-5.808,0l0,-13.2c0,-1.344 -0.088,-2.488 -0.264,-3.432c-0.176,-0.944 -0.464,-1.712 -0.864,-2.304c-0.4,-0.592 -0.944,-1.024 -1.632,-1.296c-0.688,-0.272 -1.528,-0.408 -2.52,-0.408c-0.736,0 -1.504,0.048 -2.304,0.144c-0.8,0.096 -1.392,0.176 -1.776,0.24l0,20.256l-5.808,0l0,-24.288Z" style="fill:#fff;fill-rule:nonzero;"></path><path d="M243.139,152.594l5.808,-0.96l0,7.584l8.928,0l0,4.848l-8.928,0l0,10.224c0,2.016 0.32,3.456 0.96,4.32c0.64,0.864 1.728,1.296 3.264,1.296c1.056,0 1.992,-0.112 2.808,-0.336c0.816,-0.224 1.464,-0.432 1.944,-0.624l0.96,4.608c-0.672,0.288 -1.552,0.584 -2.64,0.888c-1.088,0.304 -2.368,0.456 -3.84,0.456c-1.792,0 -3.288,-0.24 -4.488,-0.72c-1.2,-0.48 -2.152,-1.176 -2.856,-2.088c-0.704,-0.912 -1.2,-2.016 -1.488,-3.312c-0.288,-1.296 -0.432,-2.776 -0.432,-4.44l0,-21.744Z" style="fill:#fff;fill-rule:nonzero;"></path><path d="M261.667,171.89c0,-2.208 0.328,-4.144 0.984,-5.808c0.656,-1.664 1.528,-3.048 2.616,-4.152c1.088,-1.104 2.336,-1.936 3.744,-2.496c1.408,-0.56 2.848,-0.84 4.32,-0.84c3.456,0 6.152,1.072 8.088,3.216c1.936,2.144 2.904,5.344 2.904,9.6c0,0.32 -0.008,0.68 -0.024,1.08c-0.016,0.4 -0.04,0.76 -0.072,1.08l-16.56,0c0.16,2.016 0.872,3.576 2.136,4.68c1.264,1.104 3.096,1.656 5.496,1.656c1.408,0 2.696,-0.128 3.864,-0.384c1.168,-0.256 2.088,-0.528 2.76,-0.816l0.768,4.752c-0.32,0.16 -0.76,0.328 -1.32,0.504c-0.56,0.176 -1.2,0.336 -1.92,0.48c-0.72,0.144 -1.496,0.264 -2.328,0.36c-0.832,0.096 -1.68,0.144 -2.544,0.144c-2.208,0 -4.128,-0.328 -5.76,-0.984c-1.632,-0.656 -2.976,-1.568 -4.032,-2.736c-1.056,-1.168 -1.84,-2.544 -2.352,-4.128c-0.512,-1.584 -0.768,-3.32 -0.768,-5.208Zm16.848,-2.592c0,-0.8 -0.112,-1.56 -0.336,-2.28c-0.224,-0.72 -0.552,-1.344 -0.984,-1.872c-0.432,-0.528 -0.96,-0.944 -1.584,-1.248c-0.624,-0.304 -1.368,-0.456 -2.232,-0.456c-0.896,0 -1.68,0.168 -2.352,0.504c-0.672,0.336 -1.24,0.776 -1.704,1.32c-0.464,0.544 -0.824,1.168 -1.08,1.872c-0.256,0.704 -0.432,1.424 -0.528,2.16l10.8,0Z" style="fill:#fff;fill-rule:nonzero;"></path><path d="M296.755,180.146c1.536,0 2.656,-0.184 3.36,-0.552c0.704,-0.368 1.056,-1 1.056,-1.896c0,-0.832 -0.376,-1.52 -1.128,-2.064c-0.752,-0.544 -1.992,-1.136 -3.72,-1.776c-1.056,-0.384 -2.024,-0.792 -2.904,-1.224c-0.88,-0.432 -1.64,-0.936 -2.28,-1.512c-0.64,-0.576 -1.144,-1.272 -1.512,-2.088c-0.368,-0.816 -0.552,-1.816 -0.552,-3c0,-2.304 0.848,-4.12 2.544,-5.448c1.696,-1.328 4,-1.992 6.912,-1.992c1.472,0 2.88,0.136 4.224,0.408c1.344,0.272 2.352,0.536 3.024,0.792l-1.056,4.704c-0.64,-0.288 -1.456,-0.552 -2.448,-0.792c-0.992,-0.24 -2.144,-0.36 -3.456,-0.36c-1.184,0 -2.144,0.2 -2.88,0.6c-0.736,0.4 -1.104,1.016 -1.104,1.848c0,0.416 0.072,0.784 0.216,1.104c0.144,0.32 0.392,0.616 0.744,0.888c0.352,0.272 0.816,0.544 1.392,0.816c0.576,0.272 1.28,0.552 2.112,0.84c1.376,0.512 2.544,1.016 3.504,1.512c0.96,0.496 1.752,1.056 2.376,1.68c0.624,0.624 1.08,1.336 1.368,2.136c0.288,0.8 0.432,1.76 0.432,2.88c0,2.4 -0.888,4.216 -2.664,5.448c-1.776,1.232 -4.312,1.848 -7.608,1.848c-2.208,0 -3.984,-0.184 -5.328,-0.552c-1.344,-0.368 -2.288,-0.664 -2.832,-0.888l1.008,-4.848c0.864,0.352 1.896,0.688 3.096,1.008c1.2,0.32 2.568,0.48 4.104,0.48Z" style="fill:#fff;fill-rule:nonzero;"></path></g><g><path d="M83.537,198.556l0,1.68l-4.36,0l0,12.18l-1.94,0l0,-12.18l-4.36,0l0,-1.68l10.66,0Z" style="fill:#fff;fill-rule:nonzero;"></path><path d="M83.777,207.236c0,-0.92 0.133,-1.723 0.4,-2.41c0.266,-0.687 0.62,-1.257 1.06,-1.71c0.44,-0.453 0.946,-0.793 1.52,-1.02c0.573,-0.227 1.16,-0.34 1.76,-0.34c1.4,0 2.473,0.437 3.22,1.31c0.746,0.873 1.12,2.203 1.12,3.99l0,0.31c0,0.127 -0.007,0.243 -0.02,0.35l-7.12,0c0.08,1.08 0.393,1.9 0.94,2.46c0.546,0.56 1.4,0.84 2.56,0.84c0.653,0 1.203,-0.057 1.65,-0.17c0.446,-0.113 0.783,-0.223 1.01,-0.33l0.26,1.56c-0.227,0.12 -0.624,0.247 -1.19,0.38c-0.567,0.133 -1.21,0.2 -1.93,0.2c-0.907,0 -1.69,-0.137 -2.35,-0.41c-0.66,-0.273 -1.204,-0.65 -1.63,-1.13c-0.427,-0.48 -0.744,-1.05 -0.95,-1.71c-0.207,-0.66 -0.31,-1.383 -0.31,-2.17Zm7.14,-1.02c0.013,-0.84 -0.197,-1.53 -0.63,-2.07c-0.434,-0.54 -1.03,-0.81 -1.79,-0.81c-0.427,0 -0.804,0.083 -1.13,0.25c-0.327,0.167 -0.604,0.383 -0.83,0.65c-0.227,0.267 -0.404,0.573 -0.53,0.92c-0.127,0.347 -0.21,0.7 -0.25,1.06l5.16,0Z" style="fill:#fff;fill-rule:nonzero;"></path><path d="M100.057,212.656c-0.84,0 -1.577,-0.133 -2.21,-0.4c-0.634,-0.267 -1.167,-0.64 -1.6,-1.12c-0.434,-0.48 -0.757,-1.05 -0.97,-1.71c-0.214,-0.66 -0.32,-1.39 -0.32,-2.19c0,-0.8 0.116,-1.533 0.35,-2.2c0.233,-0.667 0.563,-1.243 0.99,-1.73c0.426,-0.487 0.95,-0.867 1.57,-1.14c0.62,-0.273 1.31,-0.41 2.07,-0.41c0.466,0 0.933,0.04 1.4,0.12c0.466,0.08 0.913,0.207 1.34,0.38l-0.42,1.58c-0.28,-0.133 -0.604,-0.24 -0.97,-0.32c-0.367,-0.08 -0.757,-0.12 -1.17,-0.12c-1.04,0 -1.837,0.327 -2.39,0.98c-0.554,0.653 -0.83,1.607 -0.83,2.86c0,0.56 0.063,1.073 0.19,1.54c0.126,0.467 0.326,0.867 0.6,1.2c0.273,0.333 0.623,0.59 1.05,0.77c0.426,0.18 0.946,0.27 1.56,0.27c0.493,0 0.94,-0.047 1.34,-0.14c0.4,-0.093 0.713,-0.193 0.94,-0.3l0.26,1.56c-0.107,0.067 -0.26,0.13 -0.46,0.19c-0.2,0.06 -0.427,0.113 -0.68,0.16c-0.254,0.047 -0.524,0.087 -0.81,0.12c-0.287,0.033 -0.564,0.05 -0.83,0.05Z" style="fill:#fff;fill-rule:nonzero;"></path><path d="M104.837,212.416l0,-15.2l1.86,-0.32l0,5.32c0.346,-0.133 0.716,-0.237 1.11,-0.31c0.393,-0.073 0.783,-0.11 1.17,-0.11c0.826,0 1.513,0.117 2.06,0.35c0.546,0.233 0.983,0.56 1.31,0.98c0.326,0.42 0.556,0.923 0.69,1.51c0.133,0.587 0.2,1.233 0.2,1.94l0,5.84l-1.86,0l0,-5.44c0,-0.64 -0.044,-1.187 -0.13,-1.64c-0.087,-0.453 -0.23,-0.82 -0.43,-1.1c-0.2,-0.28 -0.467,-0.483 -0.8,-0.61c-0.334,-0.127 -0.747,-0.19 -1.24,-0.19c-0.2,0 -0.407,0.013 -0.62,0.04c-0.214,0.027 -0.417,0.057 -0.61,0.09c-0.194,0.033 -0.367,0.07 -0.52,0.11c-0.154,0.04 -0.264,0.073 -0.33,0.1l0,8.64l-1.86,0Z" style="fill:#fff;fill-rule:nonzero;"></path><path d="M116.257,202.316c0.426,-0.107 0.993,-0.22 1.7,-0.34c0.706,-0.12 1.52,-0.18 2.44,-0.18c0.826,0 1.513,0.117 2.06,0.35c0.546,0.233 0.983,0.56 1.31,0.98c0.326,0.42 0.556,0.923 0.69,1.51c0.133,0.587 0.2,1.233 0.2,1.94l0,5.84l-1.86,0l0,-5.44c0,-0.64 -0.044,-1.187 -0.13,-1.64c-0.087,-0.453 -0.23,-0.82 -0.43,-1.1c-0.2,-0.28 -0.467,-0.483 -0.8,-0.61c-0.334,-0.127 -0.747,-0.19 -1.24,-0.19c-0.2,0 -0.407,0.007 -0.62,0.02c-0.214,0.013 -0.417,0.03 -0.61,0.05c-0.194,0.02 -0.367,0.043 -0.52,0.07c-0.154,0.027 -0.264,0.047 -0.33,0.06l0,8.78l-1.86,0l0,-10.1Z" style="fill:#fff;fill-rule:nonzero;"></path><path d="M129.597,212.416l-1.86,0l0,-10.4l1.86,0l0,10.4Zm-0.94,-12.28c-0.334,0 -0.617,-0.11 -0.85,-0.33c-0.234,-0.22 -0.35,-0.517 -0.35,-0.89c0,-0.373 0.116,-0.67 0.35,-0.89c0.233,-0.22 0.516,-0.33 0.85,-0.33c0.333,0 0.616,0.11 0.85,0.33c0.233,0.22 0.35,0.517 0.35,0.89c0,0.373 -0.117,0.67 -0.35,0.89c-0.234,0.22 -0.517,0.33 -0.85,0.33Z" style="fill:#fff;fill-rule:nonzero;"></path><path d="M137.317,212.656c-0.84,0 -1.577,-0.133 -2.21,-0.4c-0.634,-0.267 -1.167,-0.64 -1.6,-1.12c-0.434,-0.48 -0.757,-1.05 -0.97,-1.71c-0.214,-0.66 -0.32,-1.39 -0.32,-2.19c0,-0.8 0.116,-1.533 0.35,-2.2c0.233,-0.667 0.563,-1.243 0.99,-1.73c0.426,-0.487 0.95,-0.867 1.57,-1.14c0.62,-0.273 1.31,-0.41 2.07,-0.41c0.466,0 0.933,0.04 1.4,0.12c0.466,0.08 0.913,0.207 1.34,0.38l-0.42,1.58c-0.28,-0.133 -0.604,-0.24 -0.97,-0.32c-0.367,-0.08 -0.757,-0.12 -1.17,-0.12c-1.04,0 -1.837,0.327 -2.39,0.98c-0.554,0.653 -0.83,1.607 -0.83,2.86c0,0.56 0.063,1.073 0.19,1.54c0.126,0.467 0.326,0.867 0.6,1.2c0.273,0.333 0.623,0.59 1.05,0.77c0.426,0.18 0.946,0.27 1.56,0.27c0.493,0 0.94,-0.047 1.34,-0.14c0.4,-0.093 0.713,-0.193 0.94,-0.3l0.26,1.56c-0.107,0.067 -0.26,0.13 -0.46,0.19c-0.2,0.06 -0.427,0.113 -0.68,0.16c-0.254,0.047 -0.524,0.087 -0.81,0.12c-0.287,0.033 -0.564,0.05 -0.83,0.05Z" style="fill:#fff;fill-rule:nonzero;"></path><path d="M143.957,212.416l-1.86,0l0,-10.4l1.86,0l0,10.4Zm-0.94,-12.28c-0.334,0 -0.617,-0.11 -0.85,-0.33c-0.234,-0.22 -0.35,-0.517 -0.35,-0.89c0,-0.373 0.116,-0.67 0.35,-0.89c0.233,-0.22 0.516,-0.33 0.85,-0.33c0.333,0 0.616,0.11 0.85,0.33c0.233,0.22 0.35,0.517 0.35,0.89c0,0.373 -0.117,0.67 -0.35,0.89c-0.234,0.22 -0.517,0.33 -0.85,0.33Z" style="fill:#fff;fill-rule:nonzero;"></path><path d="M146.577,207.236c0,-0.92 0.133,-1.723 0.4,-2.41c0.266,-0.687 0.62,-1.257 1.06,-1.71c0.44,-0.453 0.946,-0.793 1.52,-1.02c0.573,-0.227 1.16,-0.34 1.76,-0.34c1.4,0 2.473,0.437 3.22,1.31c0.746,0.873 1.12,2.203 1.12,3.99l0,0.31c0,0.127 -0.007,0.243 -0.02,0.35l-7.12,0c0.08,1.08 0.393,1.9 0.94,2.46c0.546,0.56 1.4,0.84 2.56,0.84c0.653,0 1.203,-0.057 1.65,-0.17c0.446,-0.113 0.783,-0.223 1.01,-0.33l0.26,1.56c-0.227,0.12 -0.624,0.247 -1.19,0.38c-0.567,0.133 -1.21,0.2 -1.93,0.2c-0.907,0 -1.69,-0.137 -2.35,-0.41c-0.66,-0.273 -1.204,-0.65 -1.63,-1.13c-0.427,-0.48 -0.744,-1.05 -0.95,-1.71c-0.207,-0.66 -0.31,-1.383 -0.31,-2.17Zm7.14,-1.02c0.013,-0.84 -0.197,-1.53 -0.63,-2.07c-0.434,-0.54 -1.03,-0.81 -1.79,-0.81c-0.427,0 -0.804,0.083 -1.13,0.25c-0.327,0.167 -0.604,0.383 -0.83,0.65c-0.227,0.267 -0.404,0.573 -0.53,0.92c-0.127,0.347 -0.21,0.7 -0.25,1.06l5.16,0Z" style="fill:#fff;fill-rule:nonzero;"></path><path d="M158.337,202.316c0.426,-0.107 0.993,-0.22 1.7,-0.34c0.706,-0.12 1.52,-0.18 2.44,-0.18c0.826,0 1.513,0.117 2.06,0.35c0.546,0.233 0.983,0.56 1.31,0.98c0.326,0.42 0.556,0.923 0.69,1.51c0.133,0.587 0.2,1.233 0.2,1.94l0,5.84l-1.86,0l0,-5.44c0,-0.64 -0.044,-1.187 -0.13,-1.64c-0.087,-0.453 -0.23,-0.82 -0.43,-1.1c-0.2,-0.28 -0.467,-0.483 -0.8,-0.61c-0.334,-0.127 -0.747,-0.19 -1.24,-0.19c-0.2,0 -0.407,0.007 -0.62,0.02c-0.214,0.013 -0.417,0.03 -0.61,0.05c-0.194,0.02 -0.367,0.043 -0.52,0.07c-0.154,0.027 -0.264,0.047 -0.33,0.06l0,8.78l-1.86,0l0,-10.1Z" style="fill:#fff;fill-rule:nonzero;"></path><path d="M181.157,204.216c-0.227,-0.187 -0.554,-0.367 -0.98,-0.54c-0.427,-0.173 -0.894,-0.26 -1.4,-0.26c-0.534,0 -0.99,0.097 -1.37,0.29c-0.38,0.193 -0.69,0.46 -0.93,0.8c-0.24,0.34 -0.414,0.743 -0.52,1.21c-0.107,0.467 -0.16,0.967 -0.16,1.5c0,1.213 0.3,2.15 0.9,2.81c0.6,0.66 1.4,0.99 2.4,0.99c0.506,0 0.93,-0.023 1.27,-0.07c0.34,-0.047 0.603,-0.097 0.79,-0.15l0,-6.58Zm0,-7l1.86,-0.32l0,15.22c-0.427,0.12 -0.974,0.24 -1.64,0.36c-0.667,0.12 -1.434,0.18 -2.3,0.18c-0.8,0 -1.52,-0.127 -2.16,-0.38c-0.64,-0.253 -1.187,-0.613 -1.64,-1.08c-0.454,-0.467 -0.804,-1.037 -1.05,-1.71c-0.247,-0.673 -0.37,-1.43 -0.37,-2.27c0,-0.8 0.103,-1.533 0.31,-2.2c0.206,-0.667 0.51,-1.24 0.91,-1.72c0.4,-0.48 0.89,-0.853 1.47,-1.12c0.58,-0.267 1.243,-0.4 1.99,-0.4c0.6,0 1.13,0.08 1.59,0.24c0.46,0.16 0.803,0.313 1.03,0.46l0,-5.26Z" style="fill:#fff;fill-rule:nonzero;"></path><path d="M185.637,207.236c0,-0.92 0.133,-1.723 0.4,-2.41c0.266,-0.687 0.62,-1.257 1.06,-1.71c0.44,-0.453 0.946,-0.793 1.52,-1.02c0.573,-0.227 1.16,-0.34 1.76,-0.34c1.4,0 2.473,0.437 3.22,1.31c0.746,0.873 1.12,2.203 1.12,3.99l0,0.31c0,0.127 -0.007,0.243 -0.02,0.35l-7.12,0c0.08,1.08 0.393,1.9 0.94,2.46c0.546,0.56 1.4,0.84 2.56,0.84c0.653,0 1.203,-0.057 1.65,-0.17c0.446,-0.113 0.783,-0.223 1.01,-0.33l0.26,1.56c-0.227,0.12 -0.624,0.247 -1.19,0.38c-0.567,0.133 -1.21,0.2 -1.93,0.2c-0.907,0 -1.69,-0.137 -2.35,-0.41c-0.66,-0.273 -1.204,-0.65 -1.63,-1.13c-0.427,-0.48 -0.744,-1.05 -0.95,-1.71c-0.207,-0.66 -0.31,-1.383 -0.31,-2.17Zm7.14,-1.02c0.013,-0.84 -0.197,-1.53 -0.63,-2.07c-0.434,-0.54 -1.03,-0.81 -1.79,-0.81c-0.427,0 -0.804,0.083 -1.13,0.25c-0.327,0.167 -0.604,0.383 -0.83,0.65c-0.227,0.267 -0.404,0.573 -0.53,0.92c-0.127,0.347 -0.21,0.7 -0.25,1.06l5.16,0Zm-0.02,-8.14l-2.82,2.74l-0.94,-0.84l2.56,-3.08l1.2,1.18Z" style="fill:#fff;fill-rule:nonzero;"></path><path d="M205.517,202.016c-0.52,1.947 -1.13,3.813 -1.83,5.6c-0.7,1.787 -1.377,3.387 -2.03,4.8l-1.68,0c-0.654,-1.413 -1.33,-3.013 -2.03,-4.8c-0.7,-1.787 -1.31,-3.653 -1.83,-5.6l2,0c0.16,0.653 0.35,1.35 0.57,2.09c0.22,0.74 0.453,1.473 0.7,2.2c0.246,0.727 0.496,1.43 0.75,2.11c0.253,0.68 0.493,1.287 0.72,1.82c0.226,-0.533 0.466,-1.14 0.72,-1.82c0.253,-0.68 0.503,-1.383 0.75,-2.11c0.246,-0.727 0.48,-1.46 0.7,-2.2c0.22,-0.74 0.41,-1.437 0.57,-2.09l1.92,0Z" style="fill:#fff;fill-rule:nonzero;"></path><path d="M206.577,207.236c0,-0.92 0.133,-1.723 0.4,-2.41c0.266,-0.687 0.62,-1.257 1.06,-1.71c0.44,-0.453 0.946,-0.793 1.52,-1.02c0.573,-0.227 1.16,-0.34 1.76,-0.34c1.4,0 2.473,0.437 3.22,1.31c0.746,0.873 1.12,2.203 1.12,3.99l0,0.31c0,0.127 -0.007,0.243 -0.02,0.35l-7.12,0c0.08,1.08 0.393,1.9 0.94,2.46c0.546,0.56 1.4,0.84 2.56,0.84c0.653,0 1.203,-0.057 1.65,-0.17c0.446,-0.113 0.783,-0.223 1.01,-0.33l0.26,1.56c-0.227,0.12 -0.624,0.247 -1.19,0.38c-0.567,0.133 -1.21,0.2 -1.93,0.2c-0.907,0 -1.69,-0.137 -2.35,-0.41c-0.66,-0.273 -1.204,-0.65 -1.63,-1.13c-0.427,-0.48 -0.744,-1.05 -0.95,-1.71c-0.207,-0.66 -0.31,-1.383 -0.31,-2.17Zm7.14,-1.02c0.013,-0.84 -0.197,-1.53 -0.63,-2.07c-0.434,-0.54 -1.03,-0.81 -1.79,-0.81c-0.427,0 -0.804,0.083 -1.13,0.25c-0.327,0.167 -0.604,0.383 -0.83,0.65c-0.227,0.267 -0.404,0.573 -0.53,0.92c-0.127,0.347 -0.21,0.7 -0.25,1.06l5.16,0Z" style="fill:#fff;fill-rule:nonzero;"></path><path d="M221.457,212.616c-1.147,-0.027 -1.96,-0.273 -2.44,-0.74c-0.48,-0.467 -0.72,-1.193 -0.72,-2.18l0,-12.48l1.86,-0.32l0,12.5c0,0.307 0.026,0.56 0.08,0.76c0.053,0.2 0.14,0.36 0.26,0.48c0.12,0.12 0.28,0.21 0.48,0.27c0.2,0.06 0.446,0.11 0.74,0.15l-0.26,1.56Z" style="fill:#fff;fill-rule:nonzero;"></path><path d="M232.977,207.216c0,0.827 -0.12,1.573 -0.36,2.24c-0.24,0.667 -0.577,1.24 -1.01,1.72c-0.434,0.48 -0.95,0.85 -1.55,1.11c-0.6,0.26 -1.254,0.39 -1.96,0.39c-0.707,0 -1.36,-0.13 -1.96,-0.39c-0.6,-0.26 -1.117,-0.63 -1.55,-1.11c-0.434,-0.48 -0.77,-1.053 -1.01,-1.72c-0.24,-0.667 -0.36,-1.413 -0.36,-2.24c0,-0.813 0.12,-1.557 0.36,-2.23c0.24,-0.673 0.576,-1.25 1.01,-1.73c0.433,-0.48 0.95,-0.85 1.55,-1.11c0.6,-0.26 1.253,-0.39 1.96,-0.39c0.706,0 1.36,0.13 1.96,0.39c0.6,0.26 1.116,0.63 1.55,1.11c0.433,0.48 0.77,1.057 1.01,1.73c0.24,0.673 0.36,1.417 0.36,2.23Zm-1.94,0c0,-1.173 -0.264,-2.103 -0.79,-2.79c-0.527,-0.687 -1.244,-1.03 -2.15,-1.03c-0.907,0 -1.624,0.343 -2.15,1.03c-0.527,0.687 -0.79,1.617 -0.79,2.79c0,1.173 0.263,2.103 0.79,2.79c0.526,0.687 1.243,1.03 2.15,1.03c0.906,0 1.623,-0.343 2.15,-1.03c0.526,-0.687 0.79,-1.617 0.79,-2.79Z" style="fill:#fff;fill-rule:nonzero;"></path><path d="M242.817,207.236c0,-1.213 -0.3,-2.147 -0.9,-2.8c-0.6,-0.653 -1.4,-0.98 -2.4,-0.98c-0.56,0 -0.997,0.02 -1.31,0.06c-0.314,0.04 -0.564,0.087 -0.75,0.14l0,6.56c0.226,0.187 0.553,0.367 0.98,0.54c0.426,0.173 0.893,0.26 1.4,0.26c0.533,0 0.99,-0.097 1.37,-0.29c0.38,-0.193 0.69,-0.46 0.93,-0.8c0.24,-0.34 0.413,-0.74 0.52,-1.2c0.106,-0.46 0.16,-0.957 0.16,-1.49Zm1.94,0c0,0.787 -0.104,1.513 -0.31,2.18c-0.207,0.667 -0.51,1.24 -0.91,1.72c-0.4,0.48 -0.89,0.853 -1.47,1.12c-0.58,0.267 -1.244,0.4 -1.99,0.4c-0.6,0 -1.13,-0.08 -1.59,-0.24c-0.46,-0.16 -0.804,-0.313 -1.03,-0.46l0,4.16l-1.86,0l0,-13.78c0.44,-0.107 0.99,-0.223 1.65,-0.35c0.66,-0.127 1.423,-0.19 2.29,-0.19c0.8,0 1.52,0.127 2.16,0.38c0.64,0.253 1.186,0.613 1.64,1.08c0.453,0.467 0.803,1.037 1.05,1.71c0.246,0.673 0.37,1.43 0.37,2.27Z" style="fill:#fff;fill-rule:nonzero;"></path><path d="M254.597,207.236c0,-1.213 -0.3,-2.147 -0.9,-2.8c-0.6,-0.653 -1.4,-0.98 -2.4,-0.98c-0.56,0 -0.997,0.02 -1.31,0.06c-0.314,0.04 -0.564,0.087 -0.75,0.14l0,6.56c0.226,0.187 0.553,0.367 0.98,0.54c0.426,0.173 0.893,0.26 1.4,0.26c0.533,0 0.99,-0.097 1.37,-0.29c0.38,-0.193 0.69,-0.46 0.93,-0.8c0.24,-0.34 0.413,-0.74 0.52,-1.2c0.106,-0.46 0.16,-0.957 0.16,-1.49Zm1.94,0c0,0.787 -0.104,1.513 -0.31,2.18c-0.207,0.667 -0.51,1.24 -0.91,1.72c-0.4,0.48 -0.89,0.853 -1.47,1.12c-0.58,0.267 -1.244,0.4 -1.99,0.4c-0.6,0 -1.13,-0.08 -1.59,-0.24c-0.46,-0.16 -0.804,-0.313 -1.03,-0.46l0,4.16l-1.86,0l0,-13.78c0.44,-0.107 0.99,-0.223 1.65,-0.35c0.66,-0.127 1.423,-0.19 2.29,-0.19c0.8,0 1.52,0.127 2.16,0.38c0.64,0.253 1.186,0.613 1.64,1.08c0.453,0.467 0.803,1.037 1.05,1.71c0.246,0.673 0.37,1.43 0.37,2.27Z" style="fill:#fff;fill-rule:nonzero;"></path><path d="M258.577,207.236c0,-0.92 0.133,-1.723 0.4,-2.41c0.266,-0.687 0.62,-1.257 1.06,-1.71c0.44,-0.453 0.946,-0.793 1.52,-1.02c0.573,-0.227 1.16,-0.34 1.76,-0.34c1.4,0 2.473,0.437 3.22,1.31c0.746,0.873 1.12,2.203 1.12,3.99l0,0.31c0,0.127 -0.007,0.243 -0.02,0.35l-7.12,0c0.08,1.08 0.393,1.9 0.94,2.46c0.546,0.56 1.4,0.84 2.56,0.84c0.653,0 1.203,-0.057 1.65,-0.17c0.446,-0.113 0.783,-0.223 1.01,-0.33l0.26,1.56c-0.227,0.12 -0.624,0.247 -1.19,0.38c-0.567,0.133 -1.21,0.2 -1.93,0.2c-0.907,0 -1.69,-0.137 -2.35,-0.41c-0.66,-0.273 -1.204,-0.65 -1.63,-1.13c-0.427,-0.48 -0.744,-1.05 -0.95,-1.71c-0.207,-0.66 -0.31,-1.383 -0.31,-2.17Zm7.14,-1.02c0.013,-0.84 -0.197,-1.53 -0.63,-2.07c-0.434,-0.54 -1.03,-0.81 -1.79,-0.81c-0.427,0 -0.804,0.083 -1.13,0.25c-0.327,0.167 -0.604,0.383 -0.83,0.65c-0.227,0.267 -0.404,0.573 -0.53,0.92c-0.127,0.347 -0.21,0.7 -0.25,1.06l5.16,0Z" style="fill:#fff;fill-rule:nonzero;"></path><path d="M278.617,212.116c-0.427,0.107 -0.99,0.22 -1.69,0.34c-0.7,0.12 -1.51,0.18 -2.43,0.18c-0.8,0 -1.474,-0.117 -2.02,-0.35c-0.547,-0.233 -0.987,-0.563 -1.32,-0.99c-0.334,-0.427 -0.574,-0.93 -0.72,-1.51c-0.147,-0.58 -0.22,-1.223 -0.22,-1.93l0,-5.84l1.86,0l0,5.44c0,1.267 0.2,2.173 0.6,2.72c0.4,0.547 1.073,0.82 2.02,0.82c0.2,0 0.406,-0.007 0.62,-0.02c0.213,-0.013 0.413,-0.03 0.6,-0.05c0.186,-0.02 0.356,-0.04 0.51,-0.06c0.153,-0.02 0.263,-0.043 0.33,-0.07l0,-8.78l1.86,0l0,10.1Z" style="fill:#fff;fill-rule:nonzero;"></path><path d="M285.657,201.796c0.16,0 0.343,0.01 0.55,0.03c0.206,0.02 0.41,0.047 0.61,0.08c0.2,0.033 0.383,0.067 0.55,0.1c0.166,0.033 0.29,0.063 0.37,0.09l-0.32,1.62c-0.147,-0.053 -0.39,-0.117 -0.73,-0.19c-0.34,-0.073 -0.777,-0.11 -1.31,-0.11c-0.347,0 -0.69,0.037 -1.03,0.11c-0.34,0.073 -0.564,0.123 -0.67,0.15l0,8.74l-1.86,0l0,-9.96c0.44,-0.16 0.986,-0.31 1.64,-0.45c0.653,-0.14 1.386,-0.21 2.2,-0.21Z" style="fill:#fff;fill-rule:nonzero;"></path><path d="M104.577,222.416c1.946,0 3.443,0.37 4.49,1.11c1.046,0.74 1.57,1.843 1.57,3.31c0,0.8 -0.144,1.483 -0.43,2.05c-0.287,0.567 -0.7,1.027 -1.24,1.38c-0.54,0.353 -1.197,0.61 -1.97,0.77c-0.774,0.16 -1.647,0.24 -2.62,0.24l-1.54,0l0,5.14l-1.94,0l0,-13.66c0.546,-0.133 1.156,-0.223 1.83,-0.27c0.673,-0.047 1.29,-0.07 1.85,-0.07Zm0.16,1.7c-0.827,0 -1.46,0.02 -1.9,0.06l0,5.44l1.46,0c0.666,0 1.266,-0.043 1.8,-0.13c0.533,-0.087 0.983,-0.233 1.35,-0.44c0.366,-0.207 0.65,-0.49 0.85,-0.85c0.2,-0.36 0.3,-0.82 0.3,-1.38c0,-0.533 -0.104,-0.973 -0.31,-1.32c-0.207,-0.347 -0.487,-0.623 -0.84,-0.83c-0.354,-0.207 -0.764,-0.35 -1.23,-0.43c-0.467,-0.08 -0.96,-0.12 -1.48,-0.12Z" style="fill:#fff;fill-rule:nonzero;"></path><path d="M116.077,235.076c0.44,0 0.83,-0.01 1.17,-0.03c0.34,-0.02 0.623,-0.057 0.85,-0.11l0,-3.1c-0.134,-0.067 -0.35,-0.123 -0.65,-0.17c-0.3,-0.047 -0.664,-0.07 -1.09,-0.07c-0.28,0 -0.577,0.02 -0.89,0.06c-0.314,0.04 -0.6,0.123 -0.86,0.25c-0.26,0.127 -0.477,0.3 -0.65,0.52c-0.174,0.22 -0.26,0.51 -0.26,0.87c0,0.667 0.213,1.13 0.64,1.39c0.426,0.26 1.006,0.39 1.74,0.39Zm-0.16,-9.32c0.746,0 1.376,0.097 1.89,0.29c0.513,0.193 0.926,0.467 1.24,0.82c0.313,0.353 0.536,0.773 0.67,1.26c0.133,0.487 0.2,1.023 0.2,1.61l0,6.5c-0.16,0.027 -0.384,0.063 -0.67,0.11c-0.287,0.047 -0.61,0.09 -0.97,0.13c-0.36,0.04 -0.75,0.077 -1.17,0.11c-0.42,0.033 -0.837,0.05 -1.25,0.05c-0.587,0 -1.127,-0.06 -1.62,-0.18c-0.494,-0.12 -0.92,-0.31 -1.28,-0.57c-0.36,-0.26 -0.64,-0.603 -0.84,-1.03c-0.2,-0.427 -0.3,-0.94 -0.3,-1.54c0,-0.573 0.116,-1.067 0.35,-1.48c0.233,-0.413 0.55,-0.747 0.95,-1c0.4,-0.253 0.866,-0.44 1.4,-0.56c0.533,-0.12 1.093,-0.18 1.68,-0.18c0.186,0 0.38,0.01 0.58,0.03c0.2,0.02 0.39,0.047 0.57,0.08c0.18,0.033 0.336,0.063 0.47,0.09c0.133,0.027 0.226,0.047 0.28,0.06l0,-0.52c0,-0.307 -0.034,-0.61 -0.1,-0.91c-0.067,-0.3 -0.187,-0.567 -0.36,-0.8c-0.174,-0.233 -0.41,-0.42 -0.71,-0.56c-0.3,-0.14 -0.69,-0.21 -1.17,-0.21c-0.614,0 -1.15,0.043 -1.61,0.13c-0.46,0.087 -0.804,0.177 -1.03,0.27l-0.22,-1.54c0.24,-0.107 0.64,-0.21 1.2,-0.31c0.56,-0.1 1.166,-0.15 1.82,-0.15Z" style="fill:#fff;fill-rule:nonzero;"></path><path d="M125.417,235.076c0.76,0 1.323,-0.1 1.69,-0.3c0.366,-0.2 0.55,-0.52 0.55,-0.96c0,-0.453 -0.18,-0.813 -0.54,-1.08c-0.36,-0.267 -0.954,-0.567 -1.78,-0.9c-0.4,-0.16 -0.784,-0.323 -1.15,-0.49c-0.367,-0.167 -0.684,-0.363 -0.95,-0.59c-0.267,-0.227 -0.48,-0.5 -0.64,-0.82c-0.16,-0.32 -0.24,-0.713 -0.24,-1.18c0,-0.92 0.34,-1.65 1.02,-2.19c0.68,-0.54 1.606,-0.81 2.78,-0.81c0.293,0 0.586,0.017 0.88,0.05c0.293,0.033 0.566,0.073 0.82,0.12c0.253,0.047 0.476,0.097 0.67,0.15c0.193,0.053 0.343,0.1 0.45,0.14l-0.34,1.6c-0.2,-0.107 -0.514,-0.217 -0.94,-0.33c-0.427,-0.113 -0.94,-0.17 -1.54,-0.17c-0.52,0 -0.974,0.103 -1.36,0.31c-0.387,0.207 -0.58,0.53 -0.58,0.97c0,0.227 0.043,0.427 0.13,0.6c0.086,0.173 0.22,0.33 0.4,0.47c0.18,0.14 0.403,0.27 0.67,0.39c0.266,0.12 0.586,0.247 0.96,0.38c0.493,0.187 0.933,0.37 1.32,0.55c0.386,0.18 0.716,0.39 0.99,0.63c0.273,0.24 0.483,0.53 0.63,0.87c0.146,0.34 0.22,0.757 0.22,1.25c0,0.96 -0.357,1.687 -1.07,2.18c-0.714,0.493 -1.73,0.74 -3.05,0.74c-0.92,0 -1.64,-0.077 -2.16,-0.23c-0.52,-0.153 -0.874,-0.27 -1.06,-0.35l0.34,-1.6c0.213,0.08 0.553,0.2 1.02,0.36c0.466,0.16 1.086,0.24 1.86,0.24Z" style="fill:#fff;fill-rule:nonzero;"></path><path d="M134.337,235.076c0.76,0 1.323,-0.1 1.69,-0.3c0.366,-0.2 0.55,-0.52 0.55,-0.96c0,-0.453 -0.18,-0.813 -0.54,-1.08c-0.36,-0.267 -0.954,-0.567 -1.78,-0.9c-0.4,-0.16 -0.784,-0.323 -1.15,-0.49c-0.367,-0.167 -0.684,-0.363 -0.95,-0.59c-0.267,-0.227 -0.48,-0.5 -0.64,-0.82c-0.16,-0.32 -0.24,-0.713 -0.24,-1.18c0,-0.92 0.34,-1.65 1.02,-2.19c0.68,-0.54 1.606,-0.81 2.78,-0.81c0.293,0 0.586,0.017 0.88,0.05c0.293,0.033 0.566,0.073 0.82,0.12c0.253,0.047 0.476,0.097 0.67,0.15c0.193,0.053 0.343,0.1 0.45,0.14l-0.34,1.6c-0.2,-0.107 -0.514,-0.217 -0.94,-0.33c-0.427,-0.113 -0.94,-0.17 -1.54,-0.17c-0.52,0 -0.974,0.103 -1.36,0.31c-0.387,0.207 -0.58,0.53 -0.58,0.97c0,0.227 0.043,0.427 0.13,0.6c0.086,0.173 0.22,0.33 0.4,0.47c0.18,0.14 0.403,0.27 0.67,0.39c0.266,0.12 0.586,0.247 0.96,0.38c0.493,0.187 0.933,0.37 1.32,0.55c0.386,0.18 0.716,0.39 0.99,0.63c0.273,0.24 0.483,0.53 0.63,0.87c0.146,0.34 0.22,0.757 0.22,1.25c0,0.96 -0.357,1.687 -1.07,2.18c-0.714,0.493 -1.73,0.74 -3.05,0.74c-0.92,0 -1.64,-0.077 -2.16,-0.23c-0.52,-0.153 -0.874,-0.27 -1.06,-0.35l0.34,-1.6c0.213,0.08 0.553,0.2 1.02,0.36c0.466,0.16 1.086,0.24 1.86,0.24Z" style="fill:#fff;fill-rule:nonzero;"></path><path d="M140.257,231.236c0,-0.92 0.133,-1.723 0.4,-2.41c0.266,-0.687 0.62,-1.257 1.06,-1.71c0.44,-0.453 0.946,-0.793 1.52,-1.02c0.573,-0.227 1.16,-0.34 1.76,-0.34c1.4,0 2.473,0.437 3.22,1.31c0.746,0.873 1.12,2.203 1.12,3.99l0,0.31c0,0.127 -0.007,0.243 -0.02,0.35l-7.12,0c0.08,1.08 0.393,1.9 0.94,2.46c0.546,0.56 1.4,0.84 2.56,0.84c0.653,0 1.203,-0.057 1.65,-0.17c0.446,-0.113 0.783,-0.223 1.01,-0.33l0.26,1.56c-0.227,0.12 -0.624,0.247 -1.19,0.38c-0.567,0.133 -1.21,0.2 -1.93,0.2c-0.907,0 -1.69,-0.137 -2.35,-0.41c-0.66,-0.273 -1.204,-0.65 -1.63,-1.13c-0.427,-0.48 -0.744,-1.05 -0.95,-1.71c-0.207,-0.66 -0.31,-1.383 -0.31,-2.17Zm7.14,-1.02c0.013,-0.84 -0.197,-1.53 -0.63,-2.07c-0.434,-0.54 -1.03,-0.81 -1.79,-0.81c-0.427,0 -0.804,0.083 -1.13,0.25c-0.327,0.167 -0.604,0.383 -0.83,0.65c-0.227,0.267 -0.404,0.573 -0.53,0.92c-0.127,0.347 -0.21,0.7 -0.25,1.06l5.16,0Z" style="fill:#fff;fill-rule:nonzero;"></path><path d="M166.257,236.416c-0.294,-0.493 -0.63,-1.047 -1.01,-1.66c-0.38,-0.613 -0.79,-1.25 -1.23,-1.91c-0.44,-0.66 -0.897,-1.33 -1.37,-2.01c-0.474,-0.68 -0.944,-1.337 -1.41,-1.97c-0.467,-0.633 -0.92,-1.23 -1.36,-1.79c-0.44,-0.56 -0.847,-1.053 -1.22,-1.48l0,10.82l-1.9,0l0,-13.86l1.54,0c0.626,0.667 1.296,1.443 2.01,2.33c0.713,0.887 1.42,1.8 2.12,2.74c0.7,0.94 1.36,1.863 1.98,2.77c0.62,0.907 1.143,1.713 1.57,2.42l0,-10.26l1.9,0l0,13.86l-1.62,0Z" style="fill:#fff;fill-rule:nonzero;"></path><path d="M179.477,236.116c-0.427,0.107 -0.99,0.22 -1.69,0.34c-0.7,0.12 -1.51,0.18 -2.43,0.18c-0.8,0 -1.474,-0.117 -2.02,-0.35c-0.547,-0.233 -0.987,-0.563 -1.32,-0.99c-0.334,-0.427 -0.574,-0.93 -0.72,-1.51c-0.147,-0.58 -0.22,-1.223 -0.22,-1.93l0,-5.84l1.86,0l0,5.44c0,1.267 0.2,2.173 0.6,2.72c0.4,0.547 1.073,0.82 2.02,0.82c0.2,0 0.406,-0.007 0.62,-0.02c0.213,-0.013 0.413,-0.03 0.6,-0.05c0.186,-0.02 0.356,-0.04 0.51,-0.06c0.153,-0.02 0.263,-0.043 0.33,-0.07l0,-8.78l1.86,0l0,10.1Z" style="fill:#fff;fill-rule:nonzero;"></path><path d="M182.677,226.316c0.426,-0.107 0.99,-0.22 1.69,-0.34c0.7,-0.12 1.51,-0.18 2.43,-0.18c0.666,0 1.226,0.09 1.68,0.27c0.453,0.18 0.833,0.443 1.14,0.79c0.093,-0.067 0.24,-0.16 0.44,-0.28c0.2,-0.12 0.446,-0.237 0.74,-0.35c0.293,-0.113 0.62,-0.213 0.98,-0.3c0.36,-0.087 0.746,-0.13 1.16,-0.13c0.8,0 1.453,0.117 1.96,0.35c0.506,0.233 0.903,0.563 1.19,0.99c0.286,0.427 0.48,0.933 0.58,1.52c0.1,0.587 0.15,1.227 0.15,1.92l0,5.84l-1.86,0l0,-5.44c0,-0.613 -0.03,-1.14 -0.09,-1.58c-0.06,-0.44 -0.174,-0.807 -0.34,-1.1c-0.167,-0.293 -0.394,-0.51 -0.68,-0.65c-0.287,-0.14 -0.657,-0.21 -1.11,-0.21c-0.627,0 -1.144,0.083 -1.55,0.25c-0.407,0.167 -0.684,0.317 -0.83,0.45c0.106,0.347 0.186,0.727 0.24,1.14c0.053,0.413 0.08,0.847 0.08,1.3l0,5.84l-1.86,0l0,-5.44c0,-0.613 -0.034,-1.14 -0.1,-1.58c-0.067,-0.44 -0.184,-0.807 -0.35,-1.1c-0.167,-0.293 -0.394,-0.51 -0.68,-0.65c-0.287,-0.14 -0.65,-0.21 -1.09,-0.21c-0.187,0 -0.387,0.007 -0.6,0.02c-0.214,0.013 -0.417,0.03 -0.61,0.05c-0.194,0.02 -0.37,0.043 -0.53,0.07c-0.16,0.027 -0.267,0.047 -0.32,0.06l0,8.78l-1.86,0l0,-10.1Z" style="fill:#fff;fill-rule:nonzero;"></path><path d="M199.317,231.236c0,-0.92 0.133,-1.723 0.4,-2.41c0.266,-0.687 0.62,-1.257 1.06,-1.71c0.44,-0.453 0.946,-0.793 1.52,-1.02c0.573,-0.227 1.16,-0.34 1.76,-0.34c1.4,0 2.473,0.437 3.22,1.31c0.746,0.873 1.12,2.203 1.12,3.99l0,0.31c0,0.127 -0.007,0.243 -0.02,0.35l-7.12,0c0.08,1.08 0.393,1.9 0.94,2.46c0.546,0.56 1.4,0.84 2.56,0.84c0.653,0 1.203,-0.057 1.65,-0.17c0.446,-0.113 0.783,-0.223 1.01,-0.33l0.26,1.56c-0.227,0.12 -0.624,0.247 -1.19,0.38c-0.567,0.133 -1.21,0.2 -1.93,0.2c-0.907,0 -1.69,-0.137 -2.35,-0.41c-0.66,-0.273 -1.204,-0.65 -1.63,-1.13c-0.427,-0.48 -0.744,-1.05 -0.95,-1.71c-0.207,-0.66 -0.31,-1.383 -0.31,-2.17Zm7.14,-1.02c0.013,-0.84 -0.197,-1.53 -0.63,-2.07c-0.434,-0.54 -1.03,-0.81 -1.79,-0.81c-0.427,0 -0.804,0.083 -1.13,0.25c-0.327,0.167 -0.604,0.383 -0.83,0.65c-0.227,0.267 -0.404,0.573 -0.53,0.92c-0.127,0.347 -0.21,0.7 -0.25,1.06l5.16,0Zm-0.02,-8.14l-2.82,2.74l-0.94,-0.84l2.56,-3.08l1.2,1.18Z" style="fill:#fff;fill-rule:nonzero;"></path><path d="M214.917,225.796c0.16,0 0.343,0.01 0.55,0.03c0.206,0.02 0.41,0.047 0.61,0.08c0.2,0.033 0.383,0.067 0.55,0.1c0.166,0.033 0.29,0.063 0.37,0.09l-0.32,1.62c-0.147,-0.053 -0.39,-0.117 -0.73,-0.19c-0.34,-0.073 -0.777,-0.11 -1.31,-0.11c-0.347,0 -0.69,0.037 -1.03,0.11c-0.34,0.073 -0.564,0.123 -0.67,0.15l0,8.74l-1.86,0l0,-9.96c0.44,-0.16 0.986,-0.31 1.64,-0.45c0.653,-0.14 1.386,-0.21 2.2,-0.21Z" style="fill:#fff;fill-rule:nonzero;"></path><path d="M220.657,236.416l-1.86,0l0,-10.4l1.86,0l0,10.4Zm-0.94,-12.28c-0.334,0 -0.617,-0.11 -0.85,-0.33c-0.234,-0.22 -0.35,-0.517 -0.35,-0.89c0,-0.373 0.116,-0.67 0.35,-0.89c0.233,-0.22 0.516,-0.33 0.85,-0.33c0.333,0 0.616,0.11 0.85,0.33c0.233,0.22 0.35,0.517 0.35,0.89c0,0.373 -0.117,0.67 -0.35,0.89c-0.234,0.22 -0.517,0.33 -0.85,0.33Z" style="fill:#fff;fill-rule:nonzero;"></path><path d="M225.217,231.236c0,0.533 0.053,1.03 0.16,1.49c0.106,0.46 0.28,0.86 0.52,1.2c0.24,0.34 0.55,0.607 0.93,0.8c0.38,0.193 0.836,0.29 1.37,0.29c0.506,0 0.973,-0.087 1.4,-0.26c0.426,-0.173 0.753,-0.353 0.98,-0.54l0,-6.56c-0.187,-0.053 -0.437,-0.1 -0.75,-0.14c-0.314,-0.04 -0.75,-0.06 -1.31,-0.06c-1,0 -1.8,0.327 -2.4,0.98c-0.6,0.653 -0.9,1.587 -0.9,2.8Zm-1.94,0c0,-0.84 0.123,-1.597 0.37,-2.27c0.246,-0.673 0.596,-1.243 1.05,-1.71c0.453,-0.467 1,-0.827 1.64,-1.08c0.64,-0.253 1.36,-0.38 2.16,-0.38c0.866,0 1.63,0.063 2.29,0.19c0.66,0.127 1.21,0.243 1.65,0.35l0,13.78l-1.86,0l0,-4.16c-0.227,0.147 -0.57,0.3 -1.03,0.46c-0.46,0.16 -0.99,0.24 -1.59,0.24c-0.747,0 -1.41,-0.133 -1.99,-0.4c-0.58,-0.267 -1.07,-0.64 -1.47,-1.12c-0.4,-0.48 -0.704,-1.053 -0.91,-1.72c-0.207,-0.667 -0.31,-1.393 -0.31,-2.18Z" style="fill:#fff;fill-rule:nonzero;"></path><path d="M243.917,236.116c-0.427,0.107 -0.99,0.22 -1.69,0.34c-0.7,0.12 -1.51,0.18 -2.43,0.18c-0.8,0 -1.474,-0.117 -2.02,-0.35c-0.547,-0.233 -0.987,-0.563 -1.32,-0.99c-0.334,-0.427 -0.574,-0.93 -0.72,-1.51c-0.147,-0.58 -0.22,-1.223 -0.22,-1.93l0,-5.84l1.86,0l0,5.44c0,1.267 0.2,2.173 0.6,2.72c0.4,0.547 1.073,0.82 2.02,0.82c0.2,0 0.406,-0.007 0.62,-0.02c0.213,-0.013 0.413,-0.03 0.6,-0.05c0.186,-0.02 0.356,-0.04 0.51,-0.06c0.153,-0.02 0.263,-0.043 0.33,-0.07l0,-8.78l1.86,0l0,10.1Z" style="fill:#fff;fill-rule:nonzero;"></path><path d="M246.537,231.236c0,-0.92 0.133,-1.723 0.4,-2.41c0.266,-0.687 0.62,-1.257 1.06,-1.71c0.44,-0.453 0.946,-0.793 1.52,-1.02c0.573,-0.227 1.16,-0.34 1.76,-0.34c1.4,0 2.473,0.437 3.22,1.31c0.746,0.873 1.12,2.203 1.12,3.99l0,0.31c0,0.127 -0.007,0.243 -0.02,0.35l-7.12,0c0.08,1.08 0.393,1.9 0.94,2.46c0.546,0.56 1.4,0.84 2.56,0.84c0.653,0 1.203,-0.057 1.65,-0.17c0.446,-0.113 0.783,-0.223 1.01,-0.33l0.26,1.56c-0.227,0.12 -0.624,0.247 -1.19,0.38c-0.567,0.133 -1.21,0.2 -1.93,0.2c-0.907,0 -1.69,-0.137 -2.35,-0.41c-0.66,-0.273 -1.204,-0.65 -1.63,-1.13c-0.427,-0.48 -0.744,-1.05 -0.95,-1.71c-0.207,-0.66 -0.31,-1.383 -0.31,-2.17Zm7.14,-1.02c0.013,-0.84 -0.197,-1.53 -0.63,-2.07c-0.434,-0.54 -1.03,-0.81 -1.79,-0.81c-0.427,0 -0.804,0.083 -1.13,0.25c-0.327,0.167 -0.604,0.383 -0.83,0.65c-0.227,0.267 -0.404,0.573 -0.53,0.92c-0.127,0.347 -0.21,0.7 -0.25,1.06l5.16,0Z" style="fill:#fff;fill-rule:nonzero;"></path><path d="M128.417,253.476c0,1.2 -0.187,2.243 -0.56,3.13c-0.374,0.887 -0.9,1.62 -1.58,2.2c-0.68,0.58 -1.494,1.013 -2.44,1.3c-0.947,0.287 -1.987,0.43 -3.12,0.43c-0.56,0 -1.177,-0.023 -1.85,-0.07c-0.674,-0.047 -1.284,-0.137 -1.83,-0.27l0,-13.44c0.546,-0.133 1.156,-0.223 1.83,-0.27c0.673,-0.047 1.29,-0.07 1.85,-0.07c1.133,0 2.173,0.143 3.12,0.43c0.946,0.287 1.76,0.72 2.44,1.3c0.68,0.58 1.206,1.313 1.58,2.2c0.373,0.887 0.56,1.93 0.56,3.13Zm-7.54,5.36c1.84,0 3.213,-0.47 4.12,-1.41c0.906,-0.94 1.36,-2.257 1.36,-3.95c0,-1.693 -0.454,-3.01 -1.36,-3.95c-0.907,-0.94 -2.28,-1.41 -4.12,-1.41c-0.547,0 -0.97,0.007 -1.27,0.02c-0.3,0.013 -0.51,0.027 -0.63,0.04l0,10.6c0.12,0.013 0.33,0.027 0.63,0.04c0.3,0.013 0.723,0.02 1.27,0.02Z" style="fill:#fff;fill-rule:nonzero;"></path><path d="M134.417,259.076c0.44,0 0.83,-0.01 1.17,-0.03c0.34,-0.02 0.623,-0.057 0.85,-0.11l0,-3.1c-0.134,-0.067 -0.35,-0.123 -0.65,-0.17c-0.3,-0.047 -0.664,-0.07 -1.09,-0.07c-0.28,0 -0.577,0.02 -0.89,0.06c-0.314,0.04 -0.6,0.123 -0.86,0.25c-0.26,0.127 -0.477,0.3 -0.65,0.52c-0.174,0.22 -0.26,0.51 -0.26,0.87c0,0.667 0.213,1.13 0.64,1.39c0.426,0.26 1.006,0.39 1.74,0.39Zm-0.16,-9.32c0.746,0 1.376,0.097 1.89,0.29c0.513,0.193 0.926,0.467 1.24,0.82c0.313,0.353 0.536,0.773 0.67,1.26c0.133,0.487 0.2,1.023 0.2,1.61l0,6.5c-0.16,0.027 -0.384,0.063 -0.67,0.11c-0.287,0.047 -0.61,0.09 -0.97,0.13c-0.36,0.04 -0.75,0.077 -1.17,0.11c-0.42,0.033 -0.837,0.05 -1.25,0.05c-0.587,0 -1.127,-0.06 -1.62,-0.18c-0.494,-0.12 -0.92,-0.31 -1.28,-0.57c-0.36,-0.26 -0.64,-0.603 -0.84,-1.03c-0.2,-0.427 -0.3,-0.94 -0.3,-1.54c0,-0.573 0.116,-1.067 0.35,-1.48c0.233,-0.413 0.55,-0.747 0.95,-1c0.4,-0.253 0.866,-0.44 1.4,-0.56c0.533,-0.12 1.093,-0.18 1.68,-0.18c0.186,0 0.38,0.01 0.58,0.03c0.2,0.02 0.39,0.047 0.57,0.08c0.18,0.033 0.336,0.063 0.47,0.09c0.133,0.027 0.226,0.047 0.28,0.06l0,-0.52c0,-0.307 -0.034,-0.61 -0.1,-0.91c-0.067,-0.3 -0.187,-0.567 -0.36,-0.8c-0.174,-0.233 -0.41,-0.42 -0.71,-0.56c-0.3,-0.14 -0.69,-0.21 -1.17,-0.21c-0.614,0 -1.15,0.043 -1.61,0.13c-0.46,0.087 -0.804,0.177 -1.03,0.27l-0.22,-1.54c0.24,-0.107 0.64,-0.21 1.2,-0.31c0.56,-0.1 1.166,-0.15 1.82,-0.15Z" style="fill:#fff;fill-rule:nonzero;"></path><path d="M143.077,250.016l3.94,0l0,1.56l-3.94,0l0,4.8c0,0.52 0.04,0.95 0.12,1.29c0.08,0.34 0.2,0.607 0.36,0.8c0.16,0.193 0.36,0.33 0.6,0.41c0.24,0.08 0.52,0.12 0.84,0.12c0.56,0 1.01,-0.063 1.35,-0.19c0.34,-0.127 0.576,-0.217 0.71,-0.27l0.36,1.54c-0.187,0.093 -0.514,0.21 -0.98,0.35c-0.467,0.14 -1,0.21 -1.6,0.21c-0.707,0 -1.29,-0.09 -1.75,-0.27c-0.46,-0.18 -0.83,-0.45 -1.11,-0.81c-0.28,-0.36 -0.477,-0.803 -0.59,-1.33c-0.114,-0.527 -0.17,-1.137 -0.17,-1.83l0,-9.28l1.86,-0.32l0,3.22Z" style="fill:#fff;fill-rule:nonzero;"></path><path d="M152.897,259.076c0.44,0 0.83,-0.01 1.17,-0.03c0.34,-0.02 0.623,-0.057 0.85,-0.11l0,-3.1c-0.134,-0.067 -0.35,-0.123 -0.65,-0.17c-0.3,-0.047 -0.664,-0.07 -1.09,-0.07c-0.28,0 -0.577,0.02 -0.89,0.06c-0.314,0.04 -0.6,0.123 -0.86,0.25c-0.26,0.127 -0.477,0.3 -0.65,0.52c-0.174,0.22 -0.26,0.51 -0.26,0.87c0,0.667 0.213,1.13 0.64,1.39c0.426,0.26 1.006,0.39 1.74,0.39Zm-0.16,-9.32c0.746,0 1.376,0.097 1.89,0.29c0.513,0.193 0.926,0.467 1.24,0.82c0.313,0.353 0.536,0.773 0.67,1.26c0.133,0.487 0.2,1.023 0.2,1.61l0,6.5c-0.16,0.027 -0.384,0.063 -0.67,0.11c-0.287,0.047 -0.61,0.09 -0.97,0.13c-0.36,0.04 -0.75,0.077 -1.17,0.11c-0.42,0.033 -0.837,0.05 -1.25,0.05c-0.587,0 -1.127,-0.06 -1.62,-0.18c-0.494,-0.12 -0.92,-0.31 -1.28,-0.57c-0.36,-0.26 -0.64,-0.603 -0.84,-1.03c-0.2,-0.427 -0.3,-0.94 -0.3,-1.54c0,-0.573 0.116,-1.067 0.35,-1.48c0.233,-0.413 0.55,-0.747 0.95,-1c0.4,-0.253 0.866,-0.44 1.4,-0.56c0.533,-0.12 1.093,-0.18 1.68,-0.18c0.186,0 0.38,0.01 0.58,0.03c0.2,0.02 0.39,0.047 0.57,0.08c0.18,0.033 0.336,0.063 0.47,0.09c0.133,0.027 0.226,0.047 0.28,0.06l0,-0.52c0,-0.307 -0.034,-0.61 -0.1,-0.91c-0.067,-0.3 -0.187,-0.567 -0.36,-0.8c-0.174,-0.233 -0.41,-0.42 -0.71,-0.56c-0.3,-0.14 -0.69,-0.21 -1.17,-0.21c-0.614,0 -1.15,0.043 -1.61,0.13c-0.46,0.087 -0.804,0.177 -1.03,0.27l-0.22,-1.54c0.24,-0.107 0.64,-0.21 1.2,-0.31c0.56,-0.1 1.166,-0.15 1.82,-0.15Z" style="fill:#fff;fill-rule:nonzero;"></path><path d="M167.777,259.036c2.026,0 3.04,-0.693 3.04,-2.08c0,-0.427 -0.09,-0.79 -0.27,-1.09c-0.18,-0.3 -0.424,-0.56 -0.73,-0.78c-0.307,-0.22 -0.657,-0.41 -1.05,-0.57c-0.394,-0.16 -0.81,-0.32 -1.25,-0.48c-0.507,-0.173 -0.987,-0.37 -1.44,-0.59c-0.454,-0.22 -0.847,-0.48 -1.18,-0.78c-0.334,-0.3 -0.597,-0.657 -0.79,-1.07c-0.194,-0.413 -0.29,-0.913 -0.29,-1.5c0,-1.213 0.413,-2.16 1.24,-2.84c0.826,-0.68 1.966,-1.02 3.42,-1.02c0.84,0 1.603,0.09 2.29,0.27c0.686,0.18 1.19,0.377 1.51,0.59l-0.62,1.58c-0.28,-0.173 -0.697,-0.343 -1.25,-0.51c-0.554,-0.167 -1.197,-0.25 -1.93,-0.25c-0.374,0 -0.72,0.04 -1.04,0.12c-0.32,0.08 -0.6,0.2 -0.84,0.36c-0.24,0.16 -0.43,0.363 -0.57,0.61c-0.14,0.247 -0.21,0.537 -0.21,0.87c0,0.373 0.073,0.687 0.22,0.94c0.146,0.253 0.353,0.477 0.62,0.67c0.266,0.193 0.576,0.37 0.93,0.53c0.353,0.16 0.743,0.32 1.17,0.48c0.6,0.24 1.15,0.48 1.65,0.72c0.5,0.24 0.933,0.527 1.3,0.86c0.366,0.333 0.65,0.73 0.85,1.19c0.2,0.46 0.3,1.017 0.3,1.67c0,1.213 -0.444,2.147 -1.33,2.8c-0.887,0.653 -2.137,0.98 -3.75,0.98c-0.547,0 -1.05,-0.037 -1.51,-0.11c-0.46,-0.073 -0.87,-0.16 -1.23,-0.26c-0.36,-0.1 -0.67,-0.207 -0.93,-0.32c-0.26,-0.113 -0.464,-0.21 -0.61,-0.29l0.58,-1.6c0.306,0.173 0.773,0.367 1.4,0.58c0.626,0.213 1.393,0.32 2.3,0.32Z" style="fill:#fff;fill-rule:nonzero;"></path><path d="M179.597,260.656c-0.84,0 -1.577,-0.133 -2.21,-0.4c-0.634,-0.267 -1.167,-0.64 -1.6,-1.12c-0.434,-0.48 -0.757,-1.05 -0.97,-1.71c-0.214,-0.66 -0.32,-1.39 -0.32,-2.19c0,-0.8 0.116,-1.533 0.35,-2.2c0.233,-0.667 0.563,-1.243 0.99,-1.73c0.426,-0.487 0.95,-0.867 1.57,-1.14c0.62,-0.273 1.31,-0.41 2.07,-0.41c0.466,0 0.933,0.04 1.4,0.12c0.466,0.08 0.913,0.207 1.34,0.38l-0.42,1.58c-0.28,-0.133 -0.604,-0.24 -0.97,-0.32c-0.367,-0.08 -0.757,-0.12 -1.17,-0.12c-1.04,0 -1.837,0.327 -2.39,0.98c-0.554,0.653 -0.83,1.607 -0.83,2.86c0,0.56 0.063,1.073 0.19,1.54c0.126,0.467 0.326,0.867 0.6,1.2c0.273,0.333 0.623,0.59 1.05,0.77c0.426,0.18 0.946,0.27 1.56,0.27c0.493,0 0.94,-0.047 1.34,-0.14c0.4,-0.093 0.713,-0.193 0.94,-0.3l0.26,1.56c-0.107,0.067 -0.26,0.13 -0.46,0.19c-0.2,0.06 -0.427,0.113 -0.68,0.16c-0.254,0.047 -0.524,0.087 -0.81,0.12c-0.287,0.033 -0.564,0.05 -0.83,0.05Z" style="fill:#fff;fill-rule:nonzero;"></path><path d="M186.237,260.416l-1.86,0l0,-10.4l1.86,0l0,10.4Zm-0.94,-12.28c-0.334,0 -0.617,-0.11 -0.85,-0.33c-0.234,-0.22 -0.35,-0.517 -0.35,-0.89c0,-0.373 0.116,-0.67 0.35,-0.89c0.233,-0.22 0.516,-0.33 0.85,-0.33c0.333,0 0.616,0.11 0.85,0.33c0.233,0.22 0.35,0.517 0.35,0.89c0,0.373 -0.117,0.67 -0.35,0.89c-0.234,0.22 -0.517,0.33 -0.85,0.33Z" style="fill:#fff;fill-rule:nonzero;"></path><path d="M188.857,255.236c0,-0.92 0.133,-1.723 0.4,-2.41c0.266,-0.687 0.62,-1.257 1.06,-1.71c0.44,-0.453 0.946,-0.793 1.52,-1.02c0.573,-0.227 1.16,-0.34 1.76,-0.34c1.4,0 2.473,0.437 3.22,1.31c0.746,0.873 1.12,2.203 1.12,3.99l0,0.31c0,0.127 -0.007,0.243 -0.02,0.35l-7.12,0c0.08,1.08 0.393,1.9 0.94,2.46c0.546,0.56 1.4,0.84 2.56,0.84c0.653,0 1.203,-0.057 1.65,-0.17c0.446,-0.113 0.783,-0.223 1.01,-0.33l0.26,1.56c-0.227,0.12 -0.624,0.247 -1.19,0.38c-0.567,0.133 -1.21,0.2 -1.93,0.2c-0.907,0 -1.69,-0.137 -2.35,-0.41c-0.66,-0.273 -1.204,-0.65 -1.63,-1.13c-0.427,-0.48 -0.744,-1.05 -0.95,-1.71c-0.207,-0.66 -0.31,-1.383 -0.31,-2.17Zm7.14,-1.02c0.013,-0.84 -0.197,-1.53 -0.63,-2.07c-0.434,-0.54 -1.03,-0.81 -1.79,-0.81c-0.427,0 -0.804,0.083 -1.13,0.25c-0.327,0.167 -0.604,0.383 -0.83,0.65c-0.227,0.267 -0.404,0.573 -0.53,0.92c-0.127,0.347 -0.21,0.7 -0.25,1.06l5.16,0Z" style="fill:#fff;fill-rule:nonzero;"></path><path d="M200.617,250.316c0.426,-0.107 0.993,-0.22 1.7,-0.34c0.706,-0.12 1.52,-0.18 2.44,-0.18c0.826,0 1.513,0.117 2.06,0.35c0.546,0.233 0.983,0.56 1.31,0.98c0.326,0.42 0.556,0.923 0.69,1.51c0.133,0.587 0.2,1.233 0.2,1.94l0,5.84l-1.86,0l0,-5.44c0,-0.64 -0.044,-1.187 -0.13,-1.64c-0.087,-0.453 -0.23,-0.82 -0.43,-1.1c-0.2,-0.28 -0.467,-0.483 -0.8,-0.61c-0.334,-0.127 -0.747,-0.19 -1.24,-0.19c-0.2,0 -0.407,0.007 -0.62,0.02c-0.214,0.013 -0.417,0.03 -0.61,0.05c-0.194,0.02 -0.367,0.043 -0.52,0.07c-0.154,0.027 -0.264,0.047 -0.33,0.06l0,8.78l-1.86,0l0,-10.1Z" style="fill:#fff;fill-rule:nonzero;"></path><path d="M213.837,250.016l3.94,0l0,1.56l-3.94,0l0,4.8c0,0.52 0.04,0.95 0.12,1.29c0.08,0.34 0.2,0.607 0.36,0.8c0.16,0.193 0.36,0.33 0.6,0.41c0.24,0.08 0.52,0.12 0.84,0.12c0.56,0 1.01,-0.063 1.35,-0.19c0.34,-0.127 0.576,-0.217 0.71,-0.27l0.36,1.54c-0.187,0.093 -0.514,0.21 -0.98,0.35c-0.467,0.14 -1,0.21 -1.6,0.21c-0.707,0 -1.29,-0.09 -1.75,-0.27c-0.46,-0.18 -0.83,-0.45 -1.11,-0.81c-0.28,-0.36 -0.477,-0.803 -0.59,-1.33c-0.114,-0.527 -0.17,-1.137 -0.17,-1.83l0,-9.28l1.86,-0.32l0,3.22Z" style="fill:#fff;fill-rule:nonzero;"></path><path d="M221.997,260.416l-1.86,0l0,-10.4l1.86,0l0,10.4Zm-0.94,-12.28c-0.334,0 -0.617,-0.11 -0.85,-0.33c-0.234,-0.22 -0.35,-0.517 -0.35,-0.89c0,-0.373 0.116,-0.67 0.35,-0.89c0.233,-0.22 0.516,-0.33 0.85,-0.33c0.333,0 0.616,0.11 0.85,0.33c0.233,0.22 0.35,0.517 0.35,0.89c0,0.373 -0.117,0.67 -0.35,0.89c-0.234,0.22 -0.517,0.33 -0.85,0.33Z" style="fill:#fff;fill-rule:nonzero;"></path><path d="M227.617,259.076c0.76,0 1.323,-0.1 1.69,-0.3c0.366,-0.2 0.55,-0.52 0.55,-0.96c0,-0.453 -0.18,-0.813 -0.54,-1.08c-0.36,-0.267 -0.954,-0.567 -1.78,-0.9c-0.4,-0.16 -0.784,-0.323 -1.15,-0.49c-0.367,-0.167 -0.684,-0.363 -0.95,-0.59c-0.267,-0.227 -0.48,-0.5 -0.64,-0.82c-0.16,-0.32 -0.24,-0.713 -0.24,-1.18c0,-0.92 0.34,-1.65 1.02,-2.19c0.68,-0.54 1.606,-0.81 2.78,-0.81c0.293,0 0.586,0.017 0.88,0.05c0.293,0.033 0.566,0.073 0.82,0.12c0.253,0.047 0.476,0.097 0.67,0.15c0.193,0.053 0.343,0.1 0.45,0.14l-0.34,1.6c-0.2,-0.107 -0.514,-0.217 -0.94,-0.33c-0.427,-0.113 -0.94,-0.17 -1.54,-0.17c-0.52,0 -0.974,0.103 -1.36,0.31c-0.387,0.207 -0.58,0.53 -0.58,0.97c0,0.227 0.043,0.427 0.13,0.6c0.086,0.173 0.22,0.33 0.4,0.47c0.18,0.14 0.403,0.27 0.67,0.39c0.266,0.12 0.586,0.247 0.96,0.38c0.493,0.187 0.933,0.37 1.32,0.55c0.386,0.18 0.716,0.39 0.99,0.63c0.273,0.24 0.483,0.53 0.63,0.87c0.146,0.34 0.22,0.757 0.22,1.25c0,0.96 -0.357,1.687 -1.07,2.18c-0.714,0.493 -1.73,0.74 -3.05,0.74c-0.92,0 -1.64,-0.077 -2.16,-0.23c-0.52,-0.153 -0.874,-0.27 -1.06,-0.35l0.34,-1.6c0.213,0.08 0.553,0.2 1.02,0.36c0.466,0.16 1.086,0.24 1.86,0.24Z" style="fill:#fff;fill-rule:nonzero;"></path><path d="M235.857,250.016l3.94,0l0,1.56l-3.94,0l0,4.8c0,0.52 0.04,0.95 0.12,1.29c0.08,0.34 0.2,0.607 0.36,0.8c0.16,0.193 0.36,0.33 0.6,0.41c0.24,0.08 0.52,0.12 0.84,0.12c0.56,0 1.01,-0.063 1.35,-0.19c0.34,-0.127 0.576,-0.217 0.71,-0.27l0.36,1.54c-0.187,0.093 -0.514,0.21 -0.98,0.35c-0.467,0.14 -1,0.21 -1.6,0.21c-0.707,0 -1.29,-0.09 -1.75,-0.27c-0.46,-0.18 -0.83,-0.45 -1.11,-0.81c-0.28,-0.36 -0.477,-0.803 -0.59,-1.33c-0.114,-0.527 -0.17,-1.137 -0.17,-1.83l0,-9.28l1.86,-0.32l0,3.22Z" style="fill:#fff;fill-rule:nonzero;"></path><path d="M133.507,277.476c0,1.2 -0.187,2.243 -0.56,3.13c-0.374,0.887 -0.9,1.62 -1.58,2.2c-0.68,0.58 -1.494,1.013 -2.44,1.3c-0.947,0.287 -1.987,0.43 -3.12,0.43c-0.56,0 -1.177,-0.023 -1.85,-0.07c-0.674,-0.047 -1.284,-0.137 -1.83,-0.27l0,-13.44c0.546,-0.133 1.156,-0.223 1.83,-0.27c0.673,-0.047 1.29,-0.07 1.85,-0.07c1.133,0 2.173,0.143 3.12,0.43c0.946,0.287 1.76,0.72 2.44,1.3c0.68,0.58 1.206,1.313 1.58,2.2c0.373,0.887 0.56,1.93 0.56,3.13Zm-7.54,5.36c1.84,0 3.213,-0.47 4.12,-1.41c0.906,-0.94 1.36,-2.257 1.36,-3.95c0,-1.693 -0.454,-3.01 -1.36,-3.95c-0.907,-0.94 -2.28,-1.41 -4.12,-1.41c-0.547,0 -0.97,0.007 -1.27,0.02c-0.3,0.013 -0.51,0.027 -0.63,0.04l0,10.6c0.12,0.013 0.33,0.027 0.63,0.04c0.3,0.013 0.723,0.02 1.27,0.02Z" style="fill:#fff;fill-rule:nonzero;"></path><path d="M139.507,283.076c0.44,0 0.83,-0.01 1.17,-0.03c0.34,-0.02 0.623,-0.057 0.85,-0.11l0,-3.1c-0.134,-0.067 -0.35,-0.123 -0.65,-0.17c-0.3,-0.047 -0.664,-0.07 -1.09,-0.07c-0.28,0 -0.577,0.02 -0.89,0.06c-0.314,0.04 -0.6,0.123 -0.86,0.25c-0.26,0.127 -0.477,0.3 -0.65,0.52c-0.174,0.22 -0.26,0.51 -0.26,0.87c0,0.667 0.213,1.13 0.64,1.39c0.426,0.26 1.006,0.39 1.74,0.39Zm-0.16,-9.32c0.746,0 1.376,0.097 1.89,0.29c0.513,0.193 0.926,0.467 1.24,0.82c0.313,0.353 0.536,0.773 0.67,1.26c0.133,0.487 0.2,1.023 0.2,1.61l0,6.5c-0.16,0.027 -0.384,0.063 -0.67,0.11c-0.287,0.047 -0.61,0.09 -0.97,0.13c-0.36,0.04 -0.75,0.077 -1.17,0.11c-0.42,0.033 -0.837,0.05 -1.25,0.05c-0.587,0 -1.127,-0.06 -1.62,-0.18c-0.494,-0.12 -0.92,-0.31 -1.28,-0.57c-0.36,-0.26 -0.64,-0.603 -0.84,-1.03c-0.2,-0.427 -0.3,-0.94 -0.3,-1.54c0,-0.573 0.116,-1.067 0.35,-1.48c0.233,-0.413 0.55,-0.747 0.95,-1c0.4,-0.253 0.866,-0.44 1.4,-0.56c0.533,-0.12 1.093,-0.18 1.68,-0.18c0.186,0 0.38,0.01 0.58,0.03c0.2,0.02 0.39,0.047 0.57,0.08c0.18,0.033 0.336,0.063 0.47,0.09c0.133,0.027 0.226,0.047 0.28,0.06l0,-0.52c0,-0.307 -0.034,-0.61 -0.1,-0.91c-0.067,-0.3 -0.187,-0.567 -0.36,-0.8c-0.174,-0.233 -0.41,-0.42 -0.71,-0.56c-0.3,-0.14 -0.69,-0.21 -1.17,-0.21c-0.614,0 -1.15,0.043 -1.61,0.13c-0.46,0.087 -0.804,0.177 -1.03,0.27l-0.22,-1.54c0.24,-0.107 0.64,-0.21 1.2,-0.31c0.56,-0.1 1.166,-0.15 1.82,-0.15Z" style="fill:#fff;fill-rule:nonzero;"></path><path d="M148.167,274.016l3.94,0l0,1.56l-3.94,0l0,4.8c0,0.52 0.04,0.95 0.12,1.29c0.08,0.34 0.2,0.607 0.36,0.8c0.16,0.193 0.36,0.33 0.6,0.41c0.24,0.08 0.52,0.12 0.84,0.12c0.56,0 1.01,-0.063 1.35,-0.19c0.34,-0.127 0.576,-0.217 0.71,-0.27l0.36,1.54c-0.187,0.093 -0.514,0.21 -0.98,0.35c-0.467,0.14 -1,0.21 -1.6,0.21c-0.707,0 -1.29,-0.09 -1.75,-0.27c-0.46,-0.18 -0.83,-0.45 -1.11,-0.81c-0.28,-0.36 -0.477,-0.803 -0.59,-1.33c-0.114,-0.527 -0.17,-1.137 -0.17,-1.83l0,-9.28l1.86,-0.32l0,3.22Z" style="fill:#fff;fill-rule:nonzero;"></path><path d="M157.987,283.076c0.44,0 0.83,-0.01 1.17,-0.03c0.34,-0.02 0.623,-0.057 0.85,-0.11l0,-3.1c-0.134,-0.067 -0.35,-0.123 -0.65,-0.17c-0.3,-0.047 -0.664,-0.07 -1.09,-0.07c-0.28,0 -0.577,0.02 -0.89,0.06c-0.314,0.04 -0.6,0.123 -0.86,0.25c-0.26,0.127 -0.477,0.3 -0.65,0.52c-0.174,0.22 -0.26,0.51 -0.26,0.87c0,0.667 0.213,1.13 0.64,1.39c0.426,0.26 1.006,0.39 1.74,0.39Zm-0.16,-9.32c0.746,0 1.376,0.097 1.89,0.29c0.513,0.193 0.926,0.467 1.24,0.82c0.313,0.353 0.536,0.773 0.67,1.26c0.133,0.487 0.2,1.023 0.2,1.61l0,6.5c-0.16,0.027 -0.384,0.063 -0.67,0.11c-0.287,0.047 -0.61,0.09 -0.97,0.13c-0.36,0.04 -0.75,0.077 -1.17,0.11c-0.42,0.033 -0.837,0.05 -1.25,0.05c-0.587,0 -1.127,-0.06 -1.62,-0.18c-0.494,-0.12 -0.92,-0.31 -1.28,-0.57c-0.36,-0.26 -0.64,-0.603 -0.84,-1.03c-0.2,-0.427 -0.3,-0.94 -0.3,-1.54c0,-0.573 0.116,-1.067 0.35,-1.48c0.233,-0.413 0.55,-0.747 0.95,-1c0.4,-0.253 0.866,-0.44 1.4,-0.56c0.533,-0.12 1.093,-0.18 1.68,-0.18c0.186,0 0.38,0.01 0.58,0.03c0.2,0.02 0.39,0.047 0.57,0.08c0.18,0.033 0.336,0.063 0.47,0.09c0.133,0.027 0.226,0.047 0.28,0.06l0,-0.52c0,-0.307 -0.034,-0.61 -0.1,-0.91c-0.067,-0.3 -0.187,-0.567 -0.36,-0.8c-0.174,-0.233 -0.41,-0.42 -0.71,-0.56c-0.3,-0.14 -0.69,-0.21 -1.17,-0.21c-0.614,0 -1.15,0.043 -1.61,0.13c-0.46,0.087 -0.804,0.177 -1.03,0.27l-0.22,-1.54c0.24,-0.107 0.64,-0.21 1.2,-0.31c0.56,-0.1 1.166,-0.15 1.82,-0.15Z" style="fill:#fff;fill-rule:nonzero;"></path><path d="M178.907,284.416c-0.227,-0.6 -0.44,-1.19 -0.64,-1.77c-0.2,-0.58 -0.407,-1.17 -0.62,-1.77l-6.28,0l-1.26,3.54l-2.02,0c0.533,-1.467 1.033,-2.823 1.5,-4.07c0.466,-1.247 0.923,-2.43 1.37,-3.55c0.446,-1.12 0.89,-2.19 1.33,-3.21c0.44,-1.02 0.9,-2.03 1.38,-3.03l1.78,0c0.48,1 0.94,2.01 1.38,3.03c0.44,1.02 0.883,2.09 1.33,3.21c0.446,1.12 0.903,2.303 1.37,3.55c0.466,1.247 0.966,2.603 1.5,4.07l-2.12,0Zm-1.82,-5.14c-0.427,-1.16 -0.85,-2.283 -1.27,-3.37c-0.42,-1.087 -0.857,-2.13 -1.31,-3.13c-0.467,1 -0.91,2.043 -1.33,3.13c-0.42,1.087 -0.837,2.21 -1.25,3.37l5.16,0Z" style="fill:#fff;fill-rule:nonzero;"></path><path d="M182.787,274.316c0.426,-0.107 0.993,-0.22 1.7,-0.34c0.706,-0.12 1.52,-0.18 2.44,-0.18c0.826,0 1.513,0.117 2.06,0.35c0.546,0.233 0.983,0.56 1.31,0.98c0.326,0.42 0.556,0.923 0.69,1.51c0.133,0.587 0.2,1.233 0.2,1.94l0,5.84l-1.86,0l0,-5.44c0,-0.64 -0.044,-1.187 -0.13,-1.64c-0.087,-0.453 -0.23,-0.82 -0.43,-1.1c-0.2,-0.28 -0.467,-0.483 -0.8,-0.61c-0.334,-0.127 -0.747,-0.19 -1.24,-0.19c-0.2,0 -0.407,0.007 -0.62,0.02c-0.214,0.013 -0.417,0.03 -0.61,0.05c-0.194,0.02 -0.367,0.043 -0.52,0.07c-0.154,0.027 -0.264,0.047 -0.33,0.06l0,8.78l-1.86,0l0,-10.1Z" style="fill:#fff;fill-rule:nonzero;"></path><path d="M197.787,283.076c0.44,0 0.83,-0.01 1.17,-0.03c0.34,-0.02 0.623,-0.057 0.85,-0.11l0,-3.1c-0.134,-0.067 -0.35,-0.123 -0.65,-0.17c-0.3,-0.047 -0.664,-0.07 -1.09,-0.07c-0.28,0 -0.577,0.02 -0.89,0.06c-0.314,0.04 -0.6,0.123 -0.86,0.25c-0.26,0.127 -0.477,0.3 -0.65,0.52c-0.174,0.22 -0.26,0.51 -0.26,0.87c0,0.667 0.213,1.13 0.64,1.39c0.426,0.26 1.006,0.39 1.74,0.39Zm-0.16,-9.32c0.746,0 1.376,0.097 1.89,0.29c0.513,0.193 0.926,0.467 1.24,0.82c0.313,0.353 0.536,0.773 0.67,1.26c0.133,0.487 0.2,1.023 0.2,1.61l0,6.5c-0.16,0.027 -0.384,0.063 -0.67,0.11c-0.287,0.047 -0.61,0.09 -0.97,0.13c-0.36,0.04 -0.75,0.077 -1.17,0.11c-0.42,0.033 -0.837,0.05 -1.25,0.05c-0.587,0 -1.127,-0.06 -1.62,-0.18c-0.494,-0.12 -0.92,-0.31 -1.28,-0.57c-0.36,-0.26 -0.64,-0.603 -0.84,-1.03c-0.2,-0.427 -0.3,-0.94 -0.3,-1.54c0,-0.573 0.116,-1.067 0.35,-1.48c0.233,-0.413 0.55,-0.747 0.95,-1c0.4,-0.253 0.866,-0.44 1.4,-0.56c0.533,-0.12 1.093,-0.18 1.68,-0.18c0.186,0 0.38,0.01 0.58,0.03c0.2,0.02 0.39,0.047 0.57,0.08c0.18,0.033 0.336,0.063 0.47,0.09c0.133,0.027 0.226,0.047 0.28,0.06l0,-0.52c0,-0.307 -0.034,-0.61 -0.1,-0.91c-0.067,-0.3 -0.187,-0.567 -0.36,-0.8c-0.174,-0.233 -0.41,-0.42 -0.71,-0.56c-0.3,-0.14 -0.69,-0.21 -1.17,-0.21c-0.614,0 -1.15,0.043 -1.61,0.13c-0.46,0.087 -0.804,0.177 -1.03,0.27l-0.22,-1.54c0.24,-0.107 0.64,-0.21 1.2,-0.31c0.56,-0.1 1.166,-0.15 1.82,-0.15Z" style="fill:#fff;fill-rule:nonzero;"></path><path d="M207.827,284.616c-1.147,-0.027 -1.96,-0.273 -2.44,-0.74c-0.48,-0.467 -0.72,-1.193 -0.72,-2.18l0,-12.48l1.86,-0.32l0,12.5c0,0.307 0.026,0.56 0.08,0.76c0.053,0.2 0.14,0.36 0.26,0.48c0.12,0.12 0.28,0.21 0.48,0.27c0.2,0.06 0.446,0.11 0.74,0.15l-0.26,1.56Z" style="fill:#fff;fill-rule:nonzero;"></path><path d="M208.947,286.356c0.146,0.067 0.336,0.13 0.57,0.19c0.233,0.06 0.463,0.09 0.69,0.09c0.733,0 1.306,-0.163 1.72,-0.49c0.413,-0.327 0.786,-0.857 1.12,-1.59c-0.84,-1.6 -1.624,-3.297 -2.35,-5.09c-0.727,-1.793 -1.33,-3.61 -1.81,-5.45l2,0c0.146,0.6 0.323,1.247 0.53,1.94c0.206,0.693 0.436,1.407 0.69,2.14c0.253,0.733 0.526,1.467 0.82,2.2c0.293,0.733 0.6,1.44 0.92,2.12c0.506,-1.4 0.946,-2.787 1.32,-4.16c0.373,-1.373 0.726,-2.787 1.06,-4.24l1.92,0c-0.48,1.96 -1.014,3.843 -1.6,5.65c-0.587,1.807 -1.22,3.497 -1.9,5.07c-0.267,0.6 -0.544,1.117 -0.83,1.55c-0.287,0.433 -0.604,0.79 -0.95,1.07c-0.347,0.28 -0.737,0.487 -1.17,0.62c-0.434,0.133 -0.924,0.2 -1.47,0.2c-0.147,0 -0.3,-0.01 -0.46,-0.03c-0.16,-0.02 -0.317,-0.047 -0.47,-0.08c-0.154,-0.033 -0.294,-0.07 -0.42,-0.11c-0.127,-0.04 -0.217,-0.073 -0.27,-0.1l0.34,-1.5Z" style="fill:#fff;fill-rule:nonzero;"></path><path d="M222.527,283.076c0.76,0 1.323,-0.1 1.69,-0.3c0.366,-0.2 0.55,-0.52 0.55,-0.96c0,-0.453 -0.18,-0.813 -0.54,-1.08c-0.36,-0.267 -0.954,-0.567 -1.78,-0.9c-0.4,-0.16 -0.784,-0.323 -1.15,-0.49c-0.367,-0.167 -0.684,-0.363 -0.95,-0.59c-0.267,-0.227 -0.48,-0.5 -0.64,-0.82c-0.16,-0.32 -0.24,-0.713 -0.24,-1.18c0,-0.92 0.34,-1.65 1.02,-2.19c0.68,-0.54 1.606,-0.81 2.78,-0.81c0.293,0 0.586,0.017 0.88,0.05c0.293,0.033 0.566,0.073 0.82,0.12c0.253,0.047 0.476,0.097 0.67,0.15c0.193,0.053 0.343,0.1 0.45,0.14l-0.34,1.6c-0.2,-0.107 -0.514,-0.217 -0.94,-0.33c-0.427,-0.113 -0.94,-0.17 -1.54,-0.17c-0.52,0 -0.974,0.103 -1.36,0.31c-0.387,0.207 -0.58,0.53 -0.58,0.97c0,0.227 0.043,0.427 0.13,0.6c0.086,0.173 0.22,0.33 0.4,0.47c0.18,0.14 0.403,0.27 0.67,0.39c0.266,0.12 0.586,0.247 0.96,0.38c0.493,0.187 0.933,0.37 1.32,0.55c0.386,0.18 0.716,0.39 0.99,0.63c0.273,0.24 0.483,0.53 0.63,0.87c0.146,0.34 0.22,0.757 0.22,1.25c0,0.96 -0.357,1.687 -1.07,2.18c-0.714,0.493 -1.73,0.74 -3.05,0.74c-0.92,0 -1.64,-0.077 -2.16,-0.23c-0.52,-0.153 -0.874,-0.27 -1.06,-0.35l0.34,-1.6c0.213,0.08 0.553,0.2 1.02,0.36c0.466,0.16 1.086,0.24 1.86,0.24Z" style="fill:#fff;fill-rule:nonzero;"></path><path d="M230.767,274.016l3.94,0l0,1.56l-3.94,0l0,4.8c0,0.52 0.04,0.95 0.12,1.29c0.08,0.34 0.2,0.607 0.36,0.8c0.16,0.193 0.36,0.33 0.6,0.41c0.24,0.08 0.52,0.12 0.84,0.12c0.56,0 1.01,-0.063 1.35,-0.19c0.34,-0.127 0.576,-0.217 0.71,-0.27l0.36,1.54c-0.187,0.093 -0.514,0.21 -0.98,0.35c-0.467,0.14 -1,0.21 -1.6,0.21c-0.707,0 -1.29,-0.09 -1.75,-0.27c-0.46,-0.18 -0.83,-0.45 -1.11,-0.81c-0.28,-0.36 -0.477,-0.803 -0.59,-1.33c-0.114,-0.527 -0.17,-1.137 -0.17,-1.83l0,-9.28l1.86,-0.32l0,3.22Z" style="fill:#fff;fill-rule:nonzero;"></path></g><path d="M169.528,47.232c-2.496,3.264 -5.152,6.816 -7.968,10.656c-2.816,3.84 -5.184,7.776 -7.104,11.808l15.072,0l0,-22.464Zm14.016,-17.472l0,39.936l7.104,0l0,11.712l-7.104,0l0,14.88l-14.016,0l0,-14.88l-28.704,0l0,-10.464c1.408,-2.816 3.168,-6 5.28,-9.552c2.112,-3.552 4.464,-7.2 7.056,-10.944c2.592,-3.744 5.328,-7.408 8.208,-10.992c2.88,-3.584 5.76,-6.816 8.64,-9.696l13.536,0Z" style="fill:#fff;fill-rule:nonzero;"></path></svg> 