<svg clip-rule="evenodd" fill-rule="evenodd" stroke-linejoin="round" stroke-miterlimit="2" viewBox="0 0 348 302" xmlns="http://www.w3.org/2000/svg"><path d="m0 0h347.738v301.249h-347.738z" fill="none"/><g fill="#fff" fill-rule="nonzero"><path d="m49.376 159.058v-33.264h22.272v6.288h-14.784v6.96h13.152v6.288h-13.152v13.728z"/><path d="m99.584 146.386c0 1.984-.288 3.8-.864 5.448s-1.408 3.056-2.496 4.224-2.392 2.072-3.912 2.712-3.224.96-5.112.96c-1.856 0-3.544-.32-5.064-.96s-2.824-1.544-3.912-2.712-1.936-2.576-2.544-4.224-.912-3.464-.912-5.448.312-3.792.936-5.424 1.488-3.024 2.592-4.176 2.416-2.048 3.936-2.688 3.176-.96 4.968-.96c1.824 0 3.496.32 5.016.96s2.824 1.536 3.912 2.688 1.936 2.544 2.544 4.176.912 3.44.912 5.424zm-7.296 0c0-2.208-.44-3.944-1.32-5.208s-2.136-1.896-3.768-1.896-2.896.632-3.792 1.896-1.344 3-1.344 5.208.448 3.96 1.344 5.256 2.16 1.944 3.792 1.944 2.888-.648 3.768-1.944 1.32-3.048 1.32-5.256z"/><path d="m120.32 140.146c-.64-.16-1.392-.328-2.256-.504s-1.792-.264-2.784-.264c-.448 0-.984.04-1.608.12s-1.096.168-1.416.264v19.296h-7.152v-23.904c1.28-.448 2.792-.872 4.536-1.272s3.688-.6 5.832-.6c.384 0 .848.024 1.392.072s1.088.112 1.632.192 1.088.176 1.632.288 1.008.248 1.392.408z"/><path d="m139.232 145.666c0-2.304-.296-3.936-.888-4.896s-1.608-1.44-3.048-1.44c-.448 0-.912.024-1.392.072s-.944.104-1.392.168v19.488h-7.152v-24.384c.608-.16 1.32-.328 2.136-.504s1.68-.336 2.592-.48 1.848-.256 2.808-.336 1.904-.12 2.832-.12c1.824 0 3.304.232 4.44.696s2.072 1.016 2.808 1.656c1.024-.736 2.2-1.312 3.528-1.728s2.552-.624 3.672-.624c2.016 0 3.672.28 4.968.84s2.328 1.352 3.096 2.376 1.296 2.24 1.584 3.648.432 2.976.432 4.704v14.256h-7.152v-13.392c0-2.304-.296-3.936-.888-4.896s-1.608-1.44-3.048-1.44c-.384 0-.92.096-1.608.288s-1.256.432-1.704.72c.224.736.368 1.512.432 2.328s.096 1.688.096 2.616v13.776h-7.152z"/><path d="m176.384 154.066c.704 0 1.376-.016 2.016-.048s1.152-.08 1.536-.144v-5.424c-.288-.064-.72-.128-1.296-.192s-1.104-.096-1.584-.096c-.672 0-1.304.04-1.896.12s-1.112.232-1.56.456-.8.528-1.056.912-.384.864-.384 1.44c0 1.12.376 1.896 1.128 2.328s1.784.648 3.096.648zm-.576-20.928c2.112 0 3.872.24 5.28.72s2.536 1.168 3.384 2.064 1.448 1.984 1.8 3.264.528 2.704.528 4.272v14.88c-1.024.224-2.448.488-4.272.792s-4.032.456-6.624.456c-1.632 0-3.112-.144-4.44-.432s-2.472-.76-3.432-1.416-1.696-1.512-2.208-2.568-.768-2.352-.768-3.888c0-1.472.296-2.72.888-3.744s1.384-1.84 2.376-2.448 2.128-1.048 3.408-1.32 2.608-.408 3.984-.408c.928 0 1.752.04 2.472.12s1.304.184 1.752.312v-.672c0-1.216-.368-2.192-1.104-2.928s-2.016-1.104-3.84-1.104c-1.216 0-2.416.088-3.6.264s-2.208.424-3.072.744l-.912-5.76c.416-.128.936-.264 1.56-.408s1.304-.272 2.04-.384 1.512-.208 2.328-.288 1.64-.12 2.472-.12z"/><path d="m193.04 127.522 7.152-1.152v7.44h8.592v5.952h-8.592v8.88c0 1.504.264 2.704.792 3.6s1.592 1.344 3.192 1.344c.768 0 1.56-.072 2.376-.216s1.56-.344 2.232-.6l1.008 5.568c-.864.352-1.824.656-2.88.912s-2.352.384-3.888.384c-1.952 0-3.568-.264-4.848-.792s-2.304-1.264-3.072-2.208-1.304-2.088-1.608-3.432-.456-2.832-.456-4.464z"/><path d="m212.432 146.626c0-2.24.344-4.2 1.032-5.88s1.592-3.08 2.712-4.2 2.408-1.968 3.864-2.544 2.952-.864 4.488-.864c3.584 0 6.416 1.096 8.496 3.288s3.12 5.416 3.12 9.672c0 .416-.016.872-.048 1.368s-.064.936-.096 1.32h-16.224c.16 1.472.848 2.64 2.064 3.504s2.848 1.296 4.896 1.296c1.312 0 2.6-.12 3.864-.36s2.296-.536 3.096-.888l.96 5.808c-.384.192-.896.384-1.536.576s-1.352.36-2.136.504-1.624.264-2.52.36-1.792.144-2.688.144c-2.272 0-4.248-.336-5.928-1.008s-3.072-1.592-4.176-2.76-1.92-2.552-2.448-4.152-.792-3.328-.792-5.184zm16.8-2.736c-.032-.608-.136-1.2-.312-1.776s-.448-1.088-.816-1.536-.832-.816-1.392-1.104-1.256-.432-2.088-.432c-.8 0-1.488.136-2.064.408s-1.056.632-1.44 1.08-.68.968-.888 1.56-.36 1.192-.456 1.8z"/><path d="m263.216 158.194c-1.216.352-2.784.68-4.704.984s-3.936.456-6.048.456c-2.144 0-3.928-.288-5.352-.864s-2.552-1.384-3.384-2.424-1.424-2.28-1.776-3.72-.528-3.024-.528-4.752v-14.064h7.152v13.2c0 2.304.304 3.968.912 4.992s1.744 1.536 3.408 1.536c.512 0 1.056-.024 1.632-.072s1.088-.104 1.536-.168v-19.488h7.152z"/><path d="m285.152 140.146c-.64-.16-1.392-.328-2.256-.504s-1.792-.264-2.784-.264c-.448 0-.984.04-1.608.12s-1.096.168-1.416.264v19.296h-7.152v-23.904c1.28-.448 2.792-.872 4.536-1.272s3.688-.6 5.832-.6c.384 0 .848.024 1.392.072s1.088.112 1.632.192 1.088.176 1.632.288 1.008.248 1.392.408z"/><path d="m297.44 153.922c1.312 0 2.24-.128 2.784-.384s.816-.752.816-1.488c0-.576-.352-1.08-1.056-1.512s-1.776-.92-3.216-1.464c-1.12-.416-2.136-.848-3.048-1.296s-1.688-.984-2.328-1.608-1.136-1.368-1.488-2.232-.528-1.904-.528-3.12c0-2.368.88-4.24 2.64-5.616s4.176-2.064 7.248-2.064c1.536 0 3.008.136 4.416.408s2.528.568 3.36.888l-1.248 5.568c-.832-.288-1.736-.544-2.712-.768s-2.072-.336-3.288-.336c-2.24 0-3.36.624-3.36 1.872 0 .288.048.544.144.768s.288.44.576.648.68.433 1.176.675 1.128.508 1.896.798c1.568.581 2.864 1.154 3.888 1.719 1.024.564 1.832 1.174 2.424 1.828.592.655 1.008 1.381 1.248 2.179.24.799.36 1.724.36 2.778 0 2.49-.936 4.374-2.808 5.652-1.872 1.277-4.52 1.915-7.944 1.915-2.24 0-4.104-.192-5.592-.576s-2.52-.704-3.096-.96l1.2-5.808c1.216.48 2.464.856 3.744 1.128s2.544.408 3.792.408z"/><path d="m52.256 194.626c0-2.208.328-4.144.984-5.808s1.528-3.048 2.616-4.152 2.336-1.936 3.744-2.496 2.848-.84 4.32-.84c3.456 0 6.152 1.072 8.088 3.216s2.904 5.344 2.904 9.6c0 .32-.008.68-.024 1.08s-.04.76-.072 1.08h-16.56c.16 2.016.872 3.576 2.136 4.68s3.096 1.656 5.496 1.656c1.408 0 2.696-.128 3.864-.384s2.088-.528 2.76-.816l.768 4.752c-.32.16-.76.328-1.32.504s-1.2.336-1.92.48-1.496.264-2.328.36-1.68.144-2.544.144c-2.208 0-4.128-.328-5.76-.984s-2.976-1.568-4.032-2.736-1.84-2.544-2.352-4.128-.768-3.32-.768-5.208zm16.848-2.592c0-.8-.112-1.56-.336-2.28s-.552-1.344-.984-1.872-.96-.944-1.584-1.248-1.368-.456-2.232-.456c-.896 0-1.68.168-2.352.504s-1.24.776-1.704 1.32-.824 1.168-1.08 1.872-.432 1.424-.528 2.16z"/><path d="m81.056 182.77c1.12-.32 2.576-.624 4.368-.912s3.776-.432 5.952-.432c2.048 0 3.76.28 5.136.84s2.472 1.344 3.288 2.352 1.392 2.224 1.728 3.648.504 2.984.504 4.68v14.112h-5.808v-13.2c0-1.344-.088-2.488-.264-3.432s-.464-1.712-.864-2.304-.944-1.024-1.632-1.296-1.528-.408-2.52-.408c-.736 0-1.504.048-2.304.144s-1.392.176-1.776.24v20.256h-5.808z"/><path d="m129.152 202.978c1.792 0 3.152-.096 4.08-.288v-6.432c-.32-.096-.784-.192-1.392-.288s-1.28-.144-2.016-.144c-.64 0-1.288.048-1.944.144s-1.248.272-1.776.528-.952.616-1.272 1.08-.48 1.048-.48 1.752c0 1.376.432 2.328 1.296 2.856s2.032.792 3.504.792zm-.48-21.648c1.92 0 3.536.24 4.848.72s2.36 1.152 3.144 2.016 1.344 1.912 1.68 3.144.504 2.584.504 4.056v15.216c-.896.192-2.248.424-4.056.696s-3.848.408-6.12.408c-1.504 0-2.88-.144-4.128-.432s-2.312-.752-3.192-1.392-1.568-1.472-2.064-2.496-.744-2.288-.744-3.792c0-1.44.28-2.656.84-3.648s1.32-1.8 2.28-2.424 2.072-1.072 3.336-1.344 2.584-.408 3.96-.408c.64 0 1.312.04 2.016.12s1.456.216 2.256.408v-.96c0-.672-.08-1.312-.24-1.92s-.44-1.144-.84-1.608-.928-.824-1.584-1.08-1.48-.384-2.472-.384c-1.344 0-2.576.096-3.696.288s-2.032.416-2.736.672l-.72-4.704c.736-.256 1.808-.512 3.216-.768s2.912-.384 4.512-.384z"/><path d="m144.56 194.53c0-1.856.288-3.592.864-5.208s1.4-3.016 2.472-4.2 2.376-2.112 3.912-2.784 3.264-1.008 5.184-1.008c2.368 0 4.608.432 6.72 1.296l-1.248 4.752c-.672-.288-1.432-.528-2.28-.72s-1.752-.288-2.712-.288c-2.272 0-4 .712-5.184 2.136s-1.776 3.432-1.776 6.024c0 2.496.56 4.472 1.68 5.928s3.008 2.184 5.664 2.184c.992 0 1.968-.096 2.928-.288s1.792-.432 2.496-.72l.816 4.8c-.64.32-1.608.608-2.904.864s-2.632.384-4.008.384c-2.144 0-4.008-.328-5.592-.984s-2.896-1.568-3.936-2.736-1.816-2.56-2.328-4.176-.768-3.368-.768-5.256z"/><path d="m168.32 175.33 5.808-.96v7.584h8.928v4.848h-8.928v10.224c0 2.016.32 3.456.96 4.32s1.728 1.296 3.264 1.296c1.056 0 1.992-.112 2.808-.336s1.464-.432 1.944-.624l.96 4.608c-.672.288-1.552.584-2.64.888s-2.368.456-3.84.456c-1.792 0-3.288-.24-4.488-.72s-2.152-1.176-2.856-2.088-1.2-2.016-1.488-3.312-.432-2.776-.432-4.44z"/><path d="m194.528 207.058h-5.808v-25.104h5.808zm.624-32.448c0 1.088-.352 1.952-1.056 2.592s-1.536.96-2.496.96c-.992 0-1.84-.32-2.544-.96s-1.056-1.504-1.056-2.592c0-1.12.352-2 1.056-2.64s1.552-.96 2.544-.96c.96 0 1.792.32 2.496.96s1.056 1.52 1.056 2.64z"/><path d="m208.388 207.058c-1.606-3.296-3.253-7.08-4.94-11.352s-3.221-8.856-4.603-13.752h6.195c.353 1.408.763 2.92 1.229 4.536.465 1.616.963 3.232 1.494 4.848.53 1.616 1.076 3.184 1.638 4.704.563 1.52 1.085 2.888 1.567 4.104.482-1.216.996-2.584 1.542-4.104s1.084-3.088 1.614-4.704 1.036-3.232 1.518-4.848.9-3.128 1.254-4.536h6.001c-1.381 4.896-2.916 9.48-4.603 13.752s-3.333 8.056-4.94 11.352z"/><path d="m233.024 207.058h-5.808v-25.104h5.808zm.624-32.448c0 1.088-.352 1.952-1.056 2.592s-1.536.96-2.496.96c-.992 0-1.84-.32-2.544-.96s-1.056-1.504-1.056-2.592c0-1.12.352-2 1.056-2.64s1.552-.96 2.544-.96c.96 0 1.792.32 2.496.96s1.056 1.52 1.056 2.64z"/><path d="m240.128 175.33 5.808-.96v7.584h8.928v4.848h-8.928v10.224c0 2.016.32 3.456.96 4.32s1.728 1.296 3.264 1.296c1.056 0 1.992-.112 2.808-.336s1.464-.432 1.944-.624l.96 4.608c-.672.288-1.552.584-2.64.888s-2.368.456-3.84.456c-1.792 0-3.288-.24-4.488-.72s-2.152-1.176-2.856-2.088-1.2-2.016-1.488-3.312-.432-2.776-.432-4.44z"/><path d="m258.656 194.626c0-2.208.328-4.144.984-5.808s1.528-3.048 2.616-4.152 2.336-1.936 3.744-2.496 2.848-.84 4.32-.84c3.456 0 6.152 1.072 8.088 3.216s2.904 5.344 2.904 9.6c0 .32-.008.68-.024 1.08s-.04.76-.072 1.08h-16.56c.16 2.016.872 3.576 2.136 4.68s3.096 1.656 5.496 1.656c1.408 0 2.696-.128 3.864-.384s2.088-.528 2.76-.816l.768 4.752c-.32.16-.76.328-1.32.504s-1.2.336-1.92.48-1.496.264-2.328.36-1.68.144-2.544.144c-2.208 0-4.128-.328-5.76-.984s-2.976-1.568-4.032-2.736-1.84-2.544-2.352-4.128-.768-3.32-.768-5.208zm16.848-2.592c0-.8-.112-1.56-.336-2.28s-.552-1.344-.984-1.872-.96-.944-1.584-1.248-1.368-.456-2.232-.456c-.896 0-1.68.168-2.352.504s-1.24.776-1.704 1.32-.824 1.168-1.08 1.872-.432 1.424-.528 2.16zm.96-20.352-7.824 7.584-2.88-2.592 7.056-8.4z"/><path d="m293.744 202.882c1.536 0 2.656-.184 3.36-.552s1.056-1 1.056-1.896c0-.832-.376-1.52-1.128-2.064s-1.992-1.136-3.72-1.776c-1.056-.384-2.024-.792-2.904-1.224s-1.64-.936-2.28-1.512-1.144-1.272-1.512-2.088-.552-1.816-.552-3c0-2.304.848-4.12 2.544-5.448s4-1.992 6.912-1.992c1.472 0 2.88.136 4.224.408s2.352.536 3.024.792l-1.056 4.704c-.64-.288-1.456-.552-2.448-.792s-2.144-.36-3.456-.36c-1.184 0-2.144.2-2.88.6s-1.104 1.016-1.104 1.848c0 .416.072.784.216 1.104s.392.616.744.888.816.544 1.392.816 1.28.552 2.112.84c1.376.512 2.544 1.016 3.504 1.512s1.752 1.056 2.376 1.68 1.08 1.336 1.368 2.136.432 1.76.432 2.88c0 2.4-.888 4.216-2.664 5.448s-4.312 1.848-7.608 1.848c-2.208 0-3.984-.184-5.328-.552s-2.288-.664-2.832-.888l1.008-4.848c.864.352 1.896.688 3.096 1.008s2.568.48 4.104.48z"/><path d="m173.058 85.231c0 2.883-.496 5.526-1.488 7.93-.992 2.403-2.48 4.502-4.464 6.296s-4.464 3.188-7.44 4.181c-2.976.994-6.416 1.49-10.32 1.49-4.48 0-8.208-.624-11.184-1.874-2.976-1.249-5.376-2.804-7.2-4.663s-3.12-3.894-3.888-6.105-1.152-4.245-1.152-6.103c0-1.923.256-3.686.768-5.288s1.216-3.06 2.112-4.374 1.904-2.515 3.024-3.605c1.12-1.089 2.32-2.115 3.6-3.076-2.752-2.237-4.784-4.442-6.096-6.615s-1.968-4.953-1.968-8.34c0-2.556.528-5.016 1.584-7.381s2.544-4.426 4.464-6.184c1.92-1.757 4.24-3.163 6.96-4.218 2.72-1.054 5.744-1.582 9.072-1.582 3.904 0 7.248.56 10.032 1.678 2.784 1.119 5.072 2.541 6.864 4.266 1.792 1.726 3.088 3.659 3.888 5.799.8 2.141 1.2 4.265 1.2 6.374 0 3.068-.816 5.928-2.448 8.58s-3.664 4.745-6.096 6.279c3.648 2.371 6.256 4.855 7.824 7.45 1.568 2.596 2.352 5.624 2.352 9.085zm-33.216.582c0 .77.176 1.62.528 2.551.352.93.912 1.78 1.68 2.55.768.769 1.76 1.411 2.976 1.924 1.216.514 2.688.77 4.416.77 3.328 0 5.76-.802 7.296-2.406s2.304-3.4 2.304-5.389c0-1.476-.336-2.792-1.008-3.947s-1.584-2.165-2.736-3.031-2.512-1.636-4.08-2.31-3.248-1.3-5.04-1.877c-1.792 1.347-3.296 2.919-4.512 4.716s-1.824 3.947-1.824 6.449zm17.76-31.584c0-.702-.144-1.452-.432-2.249-.288-.798-.768-1.548-1.44-2.25-.672-.703-1.52-1.293-2.544-1.772-1.024-.478-2.272-.718-3.744-.718-1.408 0-2.624.224-3.648.671s-1.872 1.037-2.544 1.771-1.168 1.516-1.488 2.346c-.32.829-.48 1.627-.48 2.393 0 2.042.752 3.956 2.256 5.743s4.08 3.319 7.728 4.596c2.048-1.277 3.616-2.745 4.704-4.404s1.632-3.701 1.632-6.127z"/><path d="m227.97 70.376c0 11.2-2.128 19.792-6.384 25.776s-10.128 8.976-17.616 8.976-13.36-2.992-17.616-8.976-6.384-14.576-6.384-25.776c0-5.568.56-10.496 1.68-14.784s2.736-7.904 4.848-10.848 4.64-5.184 7.584-6.72 6.24-2.304 9.888-2.304c7.488 0 13.36 2.992 17.616 8.976s6.384 14.544 6.384 25.68zm-14.592 0c0-3.328-.16-6.352-.48-9.072s-.832-5.072-1.536-7.056-1.664-3.52-2.88-4.608-2.72-1.632-4.512-1.632-3.28.544-4.464 1.632-2.144 2.624-2.88 4.608-1.264 4.336-1.584 7.056-.48 5.744-.48 9.072.16 6.368.48 9.12.848 5.12 1.584 7.104 1.696 3.52 2.88 4.608 2.672 1.632 4.464 1.632 3.296-.544 4.512-1.632 2.176-2.624 2.88-4.608 1.216-4.352 1.536-7.104.48-5.792.48-9.12z"/></g></svg>