<?xml version="1.0" encoding="UTF-8" standalone="no"?> <svg xmlns="http://www.w3.org/2000/svg" xmlns:xlink="http://www.w3.org/1999/xlink" xmlns:serif="http://www.serif.com/" width="100%" height="100%" viewBox="0 0 348 302" xml:space="preserve" style="fill-rule:evenodd;clip-rule:evenodd;stroke-linejoin:round;stroke-miterlimit:2;"><rect id="Plan-de-travail1" serif:id="Plan de travail1" x="0" y="0" width="347.738" height="301.249" style="fill:none;"></rect><g><path d="M49.376,159.058l0,-33.264l22.272,0l0,6.288l-14.784,0l0,6.96l13.152,0l0,6.288l-13.152,0l0,13.728l-7.488,0Z" style="fill:#fff;fill-rule:nonzero;"></path><path d="M99.584,146.386c0,1.984 -0.288,3.8 -0.864,5.448c-0.576,1.648 -1.408,3.056 -2.496,4.224c-1.088,1.168 -2.392,2.072 -3.912,2.712c-1.52,0.64 -3.224,0.96 -5.112,0.96c-1.856,0 -3.544,-0.32 -5.064,-0.96c-1.52,-0.64 -2.824,-1.544 -3.912,-2.712c-1.088,-1.168 -1.936,-2.576 -2.544,-4.224c-0.608,-1.648 -0.912,-3.464 -0.912,-5.448c0,-1.984 0.312,-3.792 0.936,-5.424c0.624,-1.632 1.488,-3.024 2.592,-4.176c1.104,-1.152 2.416,-2.048 3.936,-2.688c1.52,-0.64 3.176,-0.96 4.968,-0.96c1.824,0 3.496,0.32 5.016,0.96c1.52,0.64 2.824,1.536 3.912,2.688c1.088,1.152 1.936,2.544 2.544,4.176c0.608,1.632 0.912,3.44 0.912,5.424Zm-7.296,0c0,-2.208 -0.44,-3.944 -1.32,-5.208c-0.88,-1.264 -2.136,-1.896 -3.768,-1.896c-1.632,0 -2.896,0.632 -3.792,1.896c-0.896,1.264 -1.344,3 -1.344,5.208c0,2.208 0.448,3.96 1.344,5.256c0.896,1.296 2.16,1.944 3.792,1.944c1.632,0 2.888,-0.648 3.768,-1.944c0.88,-1.296 1.32,-3.048 1.32,-5.256Z" style="fill:#fff;fill-rule:nonzero;"></path><path d="M120.32,140.146c-0.64,-0.16 -1.392,-0.328 -2.256,-0.504c-0.864,-0.176 -1.792,-0.264 -2.784,-0.264c-0.448,0 -0.984,0.04 -1.608,0.12c-0.624,0.08 -1.096,0.168 -1.416,0.264l0,19.296l-7.152,0l0,-23.904c1.28,-0.448 2.792,-0.872 4.536,-1.272c1.744,-0.4 3.688,-0.6 5.832,-0.6c0.384,0 0.848,0.024 1.392,0.072c0.544,0.048 1.088,0.112 1.632,0.192c0.544,0.08 1.088,0.176 1.632,0.288c0.544,0.112 1.008,0.248 1.392,0.408l-1.2,5.904Z" style="fill:#fff;fill-rule:nonzero;"></path><path d="M139.232,145.666c0,-2.304 -0.296,-3.936 -0.888,-4.896c-0.592,-0.96 -1.608,-1.44 -3.048,-1.44c-0.448,0 -0.912,0.024 -1.392,0.072c-0.48,0.048 -0.944,0.104 -1.392,0.168l0,19.488l-7.152,0l0,-24.384c0.608,-0.16 1.32,-0.328 2.136,-0.504c0.816,-0.176 1.68,-0.336 2.592,-0.48c0.912,-0.144 1.848,-0.256 2.808,-0.336c0.96,-0.08 1.904,-0.12 2.832,-0.12c1.824,0 3.304,0.232 4.44,0.696c1.136,0.464 2.072,1.016 2.808,1.656c1.024,-0.736 2.2,-1.312 3.528,-1.728c1.328,-0.416 2.552,-0.624 3.672,-0.624c2.016,0 3.672,0.28 4.968,0.84c1.296,0.56 2.328,1.352 3.096,2.376c0.768,1.024 1.296,2.24 1.584,3.648c0.288,1.408 0.432,2.976 0.432,4.704l0,14.256l-7.152,0l0,-13.392c0,-2.304 -0.296,-3.936 -0.888,-4.896c-0.592,-0.96 -1.608,-1.44 -3.048,-1.44c-0.384,0 -0.92,0.096 -1.608,0.288c-0.688,0.192 -1.256,0.432 -1.704,0.72c0.224,0.736 0.368,1.512 0.432,2.328c0.064,0.816 0.096,1.688 0.096,2.616l0,13.776l-7.152,0l0,-13.392Z" style="fill:#fff;fill-rule:nonzero;"></path><path d="M176.384,154.066c0.704,0 1.376,-0.016 2.016,-0.048c0.64,-0.032 1.152,-0.08 1.536,-0.144l0,-5.424c-0.288,-0.064 -0.72,-0.128 -1.296,-0.192c-0.576,-0.064 -1.104,-0.096 -1.584,-0.096c-0.672,0 -1.304,0.04 -1.896,0.12c-0.592,0.08 -1.112,0.232 -1.56,0.456c-0.448,0.224 -0.8,0.528 -1.056,0.912c-0.256,0.384 -0.384,0.864 -0.384,1.44c0,1.12 0.376,1.896 1.128,2.328c0.752,0.432 1.784,0.648 3.096,0.648Zm-0.576,-20.928c2.112,0 3.872,0.24 5.28,0.72c1.408,0.48 2.536,1.168 3.384,2.064c0.848,0.896 1.448,1.984 1.8,3.264c0.352,1.28 0.528,2.704 0.528,4.272l0,14.88c-1.024,0.224 -2.448,0.488 -4.272,0.792c-1.824,0.304 -4.032,0.456 -6.624,0.456c-1.632,0 -3.112,-0.144 -4.44,-0.432c-1.328,-0.288 -2.472,-0.76 -3.432,-1.416c-0.96,-0.656 -1.696,-1.512 -2.208,-2.568c-0.512,-1.056 -0.768,-2.352 -0.768,-3.888c0,-1.472 0.296,-2.72 0.888,-3.744c0.592,-1.024 1.384,-1.84 2.376,-2.448c0.992,-0.608 2.128,-1.048 3.408,-1.32c1.28,-0.272 2.608,-0.408 3.984,-0.408c0.928,0 1.752,0.04 2.472,0.12c0.72,0.08 1.304,0.184 1.752,0.312l0,-0.672c0,-1.216 -0.368,-2.192 -1.104,-2.928c-0.736,-0.736 -2.016,-1.104 -3.84,-1.104c-1.216,0 -2.416,0.088 -3.6,0.264c-1.184,0.176 -2.208,0.424 -3.072,0.744l-0.912,-5.76c0.416,-0.128 0.936,-0.264 1.56,-0.408c0.624,-0.144 1.304,-0.272 2.04,-0.384c0.736,-0.112 1.512,-0.208 2.328,-0.288c0.816,-0.08 1.64,-0.12 2.472,-0.12Z" style="fill:#fff;fill-rule:nonzero;"></path><path d="M193.04,127.522l7.152,-1.152l0,7.44l8.592,0l0,5.952l-8.592,0l0,8.88c0,1.504 0.264,2.704 0.792,3.6c0.528,0.896 1.592,1.344 3.192,1.344c0.768,0 1.56,-0.072 2.376,-0.216c0.816,-0.144 1.56,-0.344 2.232,-0.6l1.008,5.568c-0.864,0.352 -1.824,0.656 -2.88,0.912c-1.056,0.256 -2.352,0.384 -3.888,0.384c-1.952,0 -3.568,-0.264 -4.848,-0.792c-1.28,-0.528 -2.304,-1.264 -3.072,-2.208c-0.768,-0.944 -1.304,-2.088 -1.608,-3.432c-0.304,-1.344 -0.456,-2.832 -0.456,-4.464l0,-21.216Z" style="fill:#fff;fill-rule:nonzero;"></path><path d="M212.432,146.626c0,-2.24 0.344,-4.2 1.032,-5.88c0.688,-1.68 1.592,-3.08 2.712,-4.2c1.12,-1.12 2.408,-1.968 3.864,-2.544c1.456,-0.576 2.952,-0.864 4.488,-0.864c3.584,0 6.416,1.096 8.496,3.288c2.08,2.192 3.12,5.416 3.12,9.672c0,0.416 -0.016,0.872 -0.048,1.368c-0.032,0.496 -0.064,0.936 -0.096,1.32l-16.224,0c0.16,1.472 0.848,2.64 2.064,3.504c1.216,0.864 2.848,1.296 4.896,1.296c1.312,0 2.6,-0.12 3.864,-0.36c1.264,-0.24 2.296,-0.536 3.096,-0.888l0.96,5.808c-0.384,0.192 -0.896,0.384 -1.536,0.576c-0.64,0.192 -1.352,0.36 -2.136,0.504c-0.784,0.144 -1.624,0.264 -2.52,0.36c-0.896,0.096 -1.792,0.144 -2.688,0.144c-2.272,0 -4.248,-0.336 -5.928,-1.008c-1.68,-0.672 -3.072,-1.592 -4.176,-2.76c-1.104,-1.168 -1.92,-2.552 -2.448,-4.152c-0.528,-1.6 -0.792,-3.328 -0.792,-5.184Zm16.8,-2.736c-0.032,-0.608 -0.136,-1.2 -0.312,-1.776c-0.176,-0.576 -0.448,-1.088 -0.816,-1.536c-0.368,-0.448 -0.832,-0.816 -1.392,-1.104c-0.56,-0.288 -1.256,-0.432 -2.088,-0.432c-0.8,0 -1.488,0.136 -2.064,0.408c-0.576,0.272 -1.056,0.632 -1.44,1.08c-0.384,0.448 -0.68,0.968 -0.888,1.56c-0.208,0.592 -0.36,1.192 -0.456,1.8l9.456,0Z" style="fill:#fff;fill-rule:nonzero;"></path><path d="M263.216,158.194c-1.216,0.352 -2.784,0.68 -4.704,0.984c-1.92,0.304 -3.936,0.456 -6.048,0.456c-2.144,0 -3.928,-0.288 -5.352,-0.864c-1.424,-0.576 -2.552,-1.384 -3.384,-2.424c-0.832,-1.04 -1.424,-2.28 -1.776,-3.72c-0.352,-1.44 -0.528,-3.024 -0.528,-4.752l0,-14.064l7.152,0l0,13.2c0,2.304 0.304,3.968 0.912,4.992c0.608,1.024 1.744,1.536 3.408,1.536c0.512,0 1.056,-0.024 1.632,-0.072c0.576,-0.048 1.088,-0.104 1.536,-0.168l0,-19.488l7.152,0l0,24.384Z" style="fill:#fff;fill-rule:nonzero;"></path><path d="M285.152,140.146c-0.64,-0.16 -1.392,-0.328 -2.256,-0.504c-0.864,-0.176 -1.792,-0.264 -2.784,-0.264c-0.448,0 -0.984,0.04 -1.608,0.12c-0.624,0.08 -1.096,0.168 -1.416,0.264l0,19.296l-7.152,0l0,-23.904c1.28,-0.448 2.792,-0.872 4.536,-1.272c1.744,-0.4 3.688,-0.6 5.832,-0.6c0.384,0 0.848,0.024 1.392,0.072c0.544,0.048 1.088,0.112 1.632,0.192c0.544,0.08 1.088,0.176 1.632,0.288c0.544,0.112 1.008,0.248 1.392,0.408l-1.2,5.904Z" style="fill:#fff;fill-rule:nonzero;"></path><path d="M297.44,153.922c1.312,0 2.24,-0.128 2.784,-0.384c0.544,-0.256 0.816,-0.752 0.816,-1.488c0,-0.576 -0.352,-1.08 -1.056,-1.512c-0.704,-0.432 -1.776,-0.92 -3.216,-1.464c-1.12,-0.416 -2.136,-0.848 -3.048,-1.296c-0.912,-0.448 -1.688,-0.984 -2.328,-1.608c-0.64,-0.624 -1.136,-1.368 -1.488,-2.232c-0.352,-0.864 -0.528,-1.904 -0.528,-3.12c0,-2.368 0.88,-4.24 2.64,-5.616c1.76,-1.376 4.176,-2.064 7.248,-2.064c1.536,0 3.008,0.136 4.416,0.408c1.408,0.272 2.528,0.568 3.36,0.888l-1.248,5.568c-0.832,-0.288 -1.736,-0.544 -2.712,-0.768c-0.976,-0.224 -2.072,-0.336 -3.288,-0.336c-2.24,0 -3.36,0.624 -3.36,1.872c0,0.288 0.048,0.544 0.144,0.768c0.096,0.224 0.288,0.44 0.576,0.648c0.288,0.208 0.68,0.433 1.176,0.675c0.496,0.242 1.128,0.508 1.896,0.798c1.568,0.581 2.864,1.154 3.888,1.719c1.024,0.564 1.832,1.174 2.424,1.828c0.592,0.655 1.008,1.381 1.248,2.179c0.24,0.799 0.36,1.724 0.36,2.778c0,2.49 -0.936,4.374 -2.808,5.652c-1.872,1.277 -4.52,1.915 -7.944,1.915c-2.24,0 -4.104,-0.192 -5.592,-0.576c-1.488,-0.384 -2.52,-0.704 -3.096,-0.96l1.2,-5.808c1.216,0.48 2.464,0.856 3.744,1.128c1.28,0.272 2.544,0.408 3.792,0.408Z" style="fill:#fff;fill-rule:nonzero;"></path><path d="M52.256,194.626c0,-2.208 0.328,-4.144 0.984,-5.808c0.656,-1.664 1.528,-3.048 2.616,-4.152c1.088,-1.104 2.336,-1.936 3.744,-2.496c1.408,-0.56 2.848,-0.84 4.32,-0.84c3.456,0 6.152,1.072 8.088,3.216c1.936,2.144 2.904,5.344 2.904,9.6c0,0.32 -0.008,0.68 -0.024,1.08c-0.016,0.4 -0.04,0.76 -0.072,1.08l-16.56,0c0.16,2.016 0.872,3.576 2.136,4.68c1.264,1.104 3.096,1.656 5.496,1.656c1.408,0 2.696,-0.128 3.864,-0.384c1.168,-0.256 2.088,-0.528 2.76,-0.816l0.768,4.752c-0.32,0.16 -0.76,0.328 -1.32,0.504c-0.56,0.176 -1.2,0.336 -1.92,0.48c-0.72,0.144 -1.496,0.264 -2.328,0.36c-0.832,0.096 -1.68,0.144 -2.544,0.144c-2.208,0 -4.128,-0.328 -5.76,-0.984c-1.632,-0.656 -2.976,-1.568 -4.032,-2.736c-1.056,-1.168 -1.84,-2.544 -2.352,-4.128c-0.512,-1.584 -0.768,-3.32 -0.768,-5.208Zm16.848,-2.592c0,-0.8 -0.112,-1.56 -0.336,-2.28c-0.224,-0.72 -0.552,-1.344 -0.984,-1.872c-0.432,-0.528 -0.96,-0.944 -1.584,-1.248c-0.624,-0.304 -1.368,-0.456 -2.232,-0.456c-0.896,0 -1.68,0.168 -2.352,0.504c-0.672,0.336 -1.24,0.776 -1.704,1.32c-0.464,0.544 -0.824,1.168 -1.08,1.872c-0.256,0.704 -0.432,1.424 -0.528,2.16l10.8,0Z" style="fill:#fff;fill-rule:nonzero;"></path><path d="M81.056,182.77c1.12,-0.32 2.576,-0.624 4.368,-0.912c1.792,-0.288 3.776,-0.432 5.952,-0.432c2.048,0 3.76,0.28 5.136,0.84c1.376,0.56 2.472,1.344 3.288,2.352c0.816,1.008 1.392,2.224 1.728,3.648c0.336,1.424 0.504,2.984 0.504,4.68l0,14.112l-5.808,0l0,-13.2c0,-1.344 -0.088,-2.488 -0.264,-3.432c-0.176,-0.944 -0.464,-1.712 -0.864,-2.304c-0.4,-0.592 -0.944,-1.024 -1.632,-1.296c-0.688,-0.272 -1.528,-0.408 -2.52,-0.408c-0.736,0 -1.504,0.048 -2.304,0.144c-0.8,0.096 -1.392,0.176 -1.776,0.24l0,20.256l-5.808,0l0,-24.288Z" style="fill:#fff;fill-rule:nonzero;"></path><path d="M129.152,202.978c1.792,0 3.152,-0.096 4.08,-0.288l0,-6.432c-0.32,-0.096 -0.784,-0.192 -1.392,-0.288c-0.608,-0.096 -1.28,-0.144 -2.016,-0.144c-0.64,0 -1.288,0.048 -1.944,0.144c-0.656,0.096 -1.248,0.272 -1.776,0.528c-0.528,0.256 -0.952,0.616 -1.272,1.08c-0.32,0.464 -0.48,1.048 -0.48,1.752c0,1.376 0.432,2.328 1.296,2.856c0.864,0.528 2.032,0.792 3.504,0.792Zm-0.48,-21.648c1.92,0 3.536,0.24 4.848,0.72c1.312,0.48 2.36,1.152 3.144,2.016c0.784,0.864 1.344,1.912 1.68,3.144c0.336,1.232 0.504,2.584 0.504,4.056l0,15.216c-0.896,0.192 -2.248,0.424 -4.056,0.696c-1.808,0.272 -3.848,0.408 -6.12,0.408c-1.504,0 -2.88,-0.144 -4.128,-0.432c-1.248,-0.288 -2.312,-0.752 -3.192,-1.392c-0.88,-0.64 -1.568,-1.472 -2.064,-2.496c-0.496,-1.024 -0.744,-2.288 -0.744,-3.792c0,-1.44 0.28,-2.656 0.84,-3.648c0.56,-0.992 1.32,-1.8 2.28,-2.424c0.96,-0.624 2.072,-1.072 3.336,-1.344c1.264,-0.272 2.584,-0.408 3.96,-0.408c0.64,0 1.312,0.04 2.016,0.12c0.704,0.08 1.456,0.216 2.256,0.408l0,-0.96c0,-0.672 -0.08,-1.312 -0.24,-1.92c-0.16,-0.608 -0.44,-1.144 -0.84,-1.608c-0.4,-0.464 -0.928,-0.824 -1.584,-1.08c-0.656,-0.256 -1.48,-0.384 -2.472,-0.384c-1.344,0 -2.576,0.096 -3.696,0.288c-1.12,0.192 -2.032,0.416 -2.736,0.672l-0.72,-4.704c0.736,-0.256 1.808,-0.512 3.216,-0.768c1.408,-0.256 2.912,-0.384 4.512,-0.384Z" style="fill:#fff;fill-rule:nonzero;"></path><path d="M144.56,194.53c0,-1.856 0.288,-3.592 0.864,-5.208c0.576,-1.616 1.4,-3.016 2.472,-4.2c1.072,-1.184 2.376,-2.112 3.912,-2.784c1.536,-0.672 3.264,-1.008 5.184,-1.008c2.368,0 4.608,0.432 6.72,1.296l-1.248,4.752c-0.672,-0.288 -1.432,-0.528 -2.28,-0.72c-0.848,-0.192 -1.752,-0.288 -2.712,-0.288c-2.272,0 -4,0.712 -5.184,2.136c-1.184,1.424 -1.776,3.432 -1.776,6.024c0,2.496 0.56,4.472 1.68,5.928c1.12,1.456 3.008,2.184 5.664,2.184c0.992,0 1.968,-0.096 2.928,-0.288c0.96,-0.192 1.792,-0.432 2.496,-0.72l0.816,4.8c-0.64,0.32 -1.608,0.608 -2.904,0.864c-1.296,0.256 -2.632,0.384 -4.008,0.384c-2.144,0 -4.008,-0.328 -5.592,-0.984c-1.584,-0.656 -2.896,-1.568 -3.936,-2.736c-1.04,-1.168 -1.816,-2.56 -2.328,-4.176c-0.512,-1.616 -0.768,-3.368 -0.768,-5.256Z" style="fill:#fff;fill-rule:nonzero;"></path><path d="M168.32,175.33l5.808,-0.96l0,7.584l8.928,0l0,4.848l-8.928,0l0,10.224c0,2.016 0.32,3.456 0.96,4.32c0.64,0.864 1.728,1.296 3.264,1.296c1.056,0 1.992,-0.112 2.808,-0.336c0.816,-0.224 1.464,-0.432 1.944,-0.624l0.96,4.608c-0.672,0.288 -1.552,0.584 -2.64,0.888c-1.088,0.304 -2.368,0.456 -3.84,0.456c-1.792,0 -3.288,-0.24 -4.488,-0.72c-1.2,-0.48 -2.152,-1.176 -2.856,-2.088c-0.704,-0.912 -1.2,-2.016 -1.488,-3.312c-0.288,-1.296 -0.432,-2.776 -0.432,-4.44l0,-21.744Z" style="fill:#fff;fill-rule:nonzero;"></path><path d="M194.528,207.058l-5.808,0l0,-25.104l5.808,0l0,25.104Zm0.624,-32.448c0,1.088 -0.352,1.952 -1.056,2.592c-0.704,0.64 -1.536,0.96 -2.496,0.96c-0.992,0 -1.84,-0.32 -2.544,-0.96c-0.704,-0.64 -1.056,-1.504 -1.056,-2.592c0,-1.12 0.352,-2 1.056,-2.64c0.704,-0.64 1.552,-0.96 2.544,-0.96c0.96,0 1.792,0.32 2.496,0.96c0.704,0.64 1.056,1.52 1.056,2.64Z" style="fill:#fff;fill-rule:nonzero;"></path><path d="M208.388,207.058c-1.606,-3.296 -3.253,-7.08 -4.94,-11.352c-1.687,-4.272 -3.221,-8.856 -4.603,-13.752l6.195,0c0.353,1.408 0.763,2.92 1.229,4.536c0.465,1.616 0.963,3.232 1.494,4.848c0.53,1.616 1.076,3.184 1.638,4.704c0.563,1.52 1.085,2.888 1.567,4.104c0.482,-1.216 0.996,-2.584 1.542,-4.104c0.546,-1.52 1.084,-3.088 1.614,-4.704c0.53,-1.616 1.036,-3.232 1.518,-4.848c0.482,-1.616 0.9,-3.128 1.254,-4.536l6.001,0c-1.381,4.896 -2.916,9.48 -4.603,13.752c-1.687,4.272 -3.333,8.056 -4.94,11.352l-4.966,0Z" style="fill:#fff;fill-rule:nonzero;"></path><path d="M233.024,207.058l-5.808,0l0,-25.104l5.808,0l0,25.104Zm0.624,-32.448c0,1.088 -0.352,1.952 -1.056,2.592c-0.704,0.64 -1.536,0.96 -2.496,0.96c-0.992,0 -1.84,-0.32 -2.544,-0.96c-0.704,-0.64 -1.056,-1.504 -1.056,-2.592c0,-1.12 0.352,-2 1.056,-2.64c0.704,-0.64 1.552,-0.96 2.544,-0.96c0.96,0 1.792,0.32 2.496,0.96c0.704,0.64 1.056,1.52 1.056,2.64Z" style="fill:#fff;fill-rule:nonzero;"></path><path d="M240.128,175.33l5.808,-0.96l0,7.584l8.928,0l0,4.848l-8.928,0l0,10.224c0,2.016 0.32,3.456 0.96,4.32c0.64,0.864 1.728,1.296 3.264,1.296c1.056,0 1.992,-0.112 2.808,-0.336c0.816,-0.224 1.464,-0.432 1.944,-0.624l0.96,4.608c-0.672,0.288 -1.552,0.584 -2.64,0.888c-1.088,0.304 -2.368,0.456 -3.84,0.456c-1.792,0 -3.288,-0.24 -4.488,-0.72c-1.2,-0.48 -2.152,-1.176 -2.856,-2.088c-0.704,-0.912 -1.2,-2.016 -1.488,-3.312c-0.288,-1.296 -0.432,-2.776 -0.432,-4.44l0,-21.744Z" style="fill:#fff;fill-rule:nonzero;"></path><path d="M258.656,194.626c0,-2.208 0.328,-4.144 0.984,-5.808c0.656,-1.664 1.528,-3.048 2.616,-4.152c1.088,-1.104 2.336,-1.936 3.744,-2.496c1.408,-0.56 2.848,-0.84 4.32,-0.84c3.456,0 6.152,1.072 8.088,3.216c1.936,2.144 2.904,5.344 2.904,9.6c0,0.32 -0.008,0.68 -0.024,1.08c-0.016,0.4 -0.04,0.76 -0.072,1.08l-16.56,0c0.16,2.016 0.872,3.576 2.136,4.68c1.264,1.104 3.096,1.656 5.496,1.656c1.408,0 2.696,-0.128 3.864,-0.384c1.168,-0.256 2.088,-0.528 2.76,-0.816l0.768,4.752c-0.32,0.16 -0.76,0.328 -1.32,0.504c-0.56,0.176 -1.2,0.336 -1.92,0.48c-0.72,0.144 -1.496,0.264 -2.328,0.36c-0.832,0.096 -1.68,0.144 -2.544,0.144c-2.208,0 -4.128,-0.328 -5.76,-0.984c-1.632,-0.656 -2.976,-1.568 -4.032,-2.736c-1.056,-1.168 -1.84,-2.544 -2.352,-4.128c-0.512,-1.584 -0.768,-3.32 -0.768,-5.208Zm16.848,-2.592c0,-0.8 -0.112,-1.56 -0.336,-2.28c-0.224,-0.72 -0.552,-1.344 -0.984,-1.872c-0.432,-0.528 -0.96,-0.944 -1.584,-1.248c-0.624,-0.304 -1.368,-0.456 -2.232,-0.456c-0.896,0 -1.68,0.168 -2.352,0.504c-0.672,0.336 -1.24,0.776 -1.704,1.32c-0.464,0.544 -0.824,1.168 -1.08,1.872c-0.256,0.704 -0.432,1.424 -0.528,2.16l10.8,0Zm0.96,-20.352l-7.824,7.584l-2.88,-2.592l7.056,-8.4l3.648,3.408Z" style="fill:#fff;fill-rule:nonzero;"></path><path d="M293.744,202.882c1.536,0 2.656,-0.184 3.36,-0.552c0.704,-0.368 1.056,-1 1.056,-1.896c0,-0.832 -0.376,-1.52 -1.128,-2.064c-0.752,-0.544 -1.992,-1.136 -3.72,-1.776c-1.056,-0.384 -2.024,-0.792 -2.904,-1.224c-0.88,-0.432 -1.64,-0.936 -2.28,-1.512c-0.64,-0.576 -1.144,-1.272 -1.512,-2.088c-0.368,-0.816 -0.552,-1.816 -0.552,-3c0,-2.304 0.848,-4.12 2.544,-5.448c1.696,-1.328 4,-1.992 6.912,-1.992c1.472,0 2.88,0.136 4.224,0.408c1.344,0.272 2.352,0.536 3.024,0.792l-1.056,4.704c-0.64,-0.288 -1.456,-0.552 -2.448,-0.792c-0.992,-0.24 -2.144,-0.36 -3.456,-0.36c-1.184,0 -2.144,0.2 -2.88,0.6c-0.736,0.4 -1.104,1.016 -1.104,1.848c0,0.416 0.072,0.784 0.216,1.104c0.144,0.32 0.392,0.616 0.744,0.888c0.352,0.272 0.816,0.544 1.392,0.816c0.576,0.272 1.28,0.552 2.112,0.84c1.376,0.512 2.544,1.016 3.504,1.512c0.96,0.496 1.752,1.056 2.376,1.68c0.624,0.624 1.08,1.336 1.368,2.136c0.288,0.8 0.432,1.76 0.432,2.88c0,2.4 -0.888,4.216 -2.664,5.448c-1.776,1.232 -4.312,1.848 -7.608,1.848c-2.208,0 -3.984,-0.184 -5.328,-0.552c-1.344,-0.368 -2.288,-0.664 -2.832,-0.888l1.008,-4.848c0.864,0.352 1.896,0.688 3.096,1.008c1.2,0.32 2.568,0.48 4.104,0.48Z" style="fill:#fff;fill-rule:nonzero;"></path></g><g><path d="M173.058,85.231c0,2.883 -0.496,5.526 -1.488,7.93c-0.992,2.403 -2.48,4.502 -4.464,6.296c-1.984,1.794 -4.464,3.188 -7.44,4.181c-2.976,0.994 -6.416,1.49 -10.32,1.49c-4.48,0 -8.208,-0.624 -11.184,-1.874c-2.976,-1.249 -5.376,-2.804 -7.2,-4.663c-1.824,-1.859 -3.12,-3.894 -3.888,-6.105c-0.768,-2.211 -1.152,-4.245 -1.152,-6.103c0,-1.923 0.256,-3.686 0.768,-5.288c0.512,-1.602 1.216,-3.06 2.112,-4.374c0.896,-1.314 1.904,-2.515 3.024,-3.605c1.12,-1.089 2.32,-2.115 3.6,-3.076c-2.752,-2.237 -4.784,-4.442 -6.096,-6.615c-1.312,-2.173 -1.968,-4.953 -1.968,-8.34c0,-2.556 0.528,-5.016 1.584,-7.381c1.056,-2.365 2.544,-4.426 4.464,-6.184c1.92,-1.757 4.24,-3.163 6.96,-4.218c2.72,-1.054 5.744,-1.582 9.072,-1.582c3.904,0 7.248,0.56 10.032,1.678c2.784,1.119 5.072,2.541 6.864,4.266c1.792,1.726 3.088,3.659 3.888,5.799c0.8,2.141 1.2,4.265 1.2,6.374c0,3.068 -0.816,5.928 -2.448,8.58c-1.632,2.652 -3.664,4.745 -6.096,6.279c3.648,2.371 6.256,4.855 7.824,7.45c1.568,2.596 2.352,5.624 2.352,9.085Zm-33.216,0.582c0,0.77 0.176,1.62 0.528,2.551c0.352,0.93 0.912,1.78 1.68,2.55c0.768,0.769 1.76,1.411 2.976,1.924c1.216,0.514 2.688,0.77 4.416,0.77c3.328,0 5.76,-0.802 7.296,-2.406c1.536,-1.604 2.304,-3.4 2.304,-5.389c0,-1.476 -0.336,-2.792 -1.008,-3.947c-0.672,-1.155 -1.584,-2.165 -2.736,-3.031c-1.152,-0.866 -2.512,-1.636 -4.08,-2.31c-1.568,-0.674 -3.248,-1.3 -5.04,-1.877c-1.792,1.347 -3.296,2.919 -4.512,4.716c-1.216,1.797 -1.824,3.947 -1.824,6.449Zm17.76,-31.584c0,-0.702 -0.144,-1.452 -0.432,-2.249c-0.288,-0.798 -0.768,-1.548 -1.44,-2.25c-0.672,-0.703 -1.52,-1.293 -2.544,-1.772c-1.024,-0.478 -2.272,-0.718 -3.744,-0.718c-1.408,0 -2.624,0.224 -3.648,0.671c-1.024,0.447 -1.872,1.037 -2.544,1.771c-0.672,0.734 -1.168,1.516 -1.488,2.346c-0.32,0.829 -0.48,1.627 -0.48,2.393c0,2.042 0.752,3.956 2.256,5.743c1.504,1.787 4.08,3.319 7.728,4.596c2.048,-1.277 3.616,-2.745 4.704,-4.404c1.088,-1.659 1.632,-3.701 1.632,-6.127Z" style="fill:#fff;fill-rule:nonzero;"></path><path d="M227.97,70.376c0,11.2 -2.128,19.792 -6.384,25.776c-4.256,5.984 -10.128,8.976 -17.616,8.976c-7.488,0 -13.36,-2.992 -17.616,-8.976c-4.256,-5.984 -6.384,-14.576 -6.384,-25.776c0,-5.568 0.56,-10.496 1.68,-14.784c1.12,-4.288 2.736,-7.904 4.848,-10.848c2.112,-2.944 4.64,-5.184 7.584,-6.72c2.944,-1.536 6.24,-2.304 9.888,-2.304c7.488,0 13.36,2.992 17.616,8.976c4.256,5.984 6.384,14.544 6.384,25.68Zm-14.592,0c0,-3.328 -0.16,-6.352 -0.48,-9.072c-0.32,-2.72 -0.832,-5.072 -1.536,-7.056c-0.704,-1.984 -1.664,-3.52 -2.88,-4.608c-1.216,-1.088 -2.72,-1.632 -4.512,-1.632c-1.792,0 -3.28,0.544 -4.464,1.632c-1.184,1.088 -2.144,2.624 -2.88,4.608c-0.736,1.984 -1.264,4.336 -1.584,7.056c-0.32,2.72 -0.48,5.744 -0.48,9.072c0,3.328 0.16,6.368 0.48,9.12c0.32,2.752 0.848,5.12 1.584,7.104c0.736,1.984 1.696,3.52 2.88,4.608c1.184,1.088 2.672,1.632 4.464,1.632c1.792,0 3.296,-0.544 4.512,-1.632c1.216,-1.088 2.176,-2.624 2.88,-4.608c0.704,-1.984 1.216,-4.352 1.536,-7.104c0.32,-2.752 0.48,-5.792 0.48,-9.12Z" style="fill:#fff;fill-rule:nonzero;"></path></g></svg> 