<svg enable-background="new 0 0 120 120" viewBox="0 0 120 120" xmlns="http://www.w3.org/2000/svg"><path d="m0 .2h120v120h-120z" fill="#1880b6"/><g stroke="#324249" stroke-linecap="round" stroke-linejoin="round" stroke-width="2" transform="translate(3 2)"><path d="m42 33.8v17l2 1v2h-8v-2l2-1v-17h-8l-2 1v-5h24v5l-2-1z" fill="#ff6673"/><path d="m76 67.8v20h-4v-20h-10v-4h24v4z" fill="#ff6673"/><path d="m30.8 67.8c-.2-.3-.4-.7-.6-1.3-.1-.5-.2-1.1-.2-1.7 0-1.1.2-1.9.7-2.4s1.1-.7 1.9-.7h17.5c.2.3.4.7.6 1.3.2.5.3 1.1.3 1.7 0 1.1-.2 1.9-.7 2.4s-.8.7-1.6.7h-5.7v20c-2.7 0-4.3-.3-5-1-1-1-1-1.8-1-2.5v-16.5zm35.8-11.4c-.2.4-.4.7-.6 1s-.5.6-.7.8-.5.3-.8.4-.5.1-.8.1c-.4 0-.7-.1-.9-.3s-.4-.5-.4-1c0-.1 0-.3 0-.5s.1-.4.2-.6c.8-2.1 1.7-4.1 2.5-6s1.6-3.7 2.4-5.4 1.5-3.2 2.2-4.5c.7-1.4 1.3-2.5 1.9-3.5s1.1-1.7 1.5-2.2.7-.8.9-.8c.4 0 .7.1.9.4s.3.6.3.9-.1.6-.2.9c-.3.7-.6 1.4-.9 2.3s-.7 1.8-1.1 2.7c-.4 1-.8 1.9-1.2 3-.4 1-.8 2-1.2 3s-.8 2-1.2 2.9-.8 1.8-1.1 2.6-.6 1.5-.9 2.1c-.4.8-.6 1.3-.8 1.7zm19.4-23.2c0 .2-.1.6-.2 1s-.4.8-.6 1.3c-.3.4-.6.8-1 1.1s-.8.4-1.3.4c-.1 0-.2 0-.4 0s-.3-.1-.5-.1c-.2-.1-.3-.2-.4-.3s-.2-.3-.2-.6c0-.1 0-.3.1-.5s.2-.5.3-.7c.1-.3.2-.5.3-.7s.1-.4.1-.6c0-.4-.3-.8-.8-1s-1.4-.3-2.7-.3c-1.3.1-2.4.1-3.4.3-1 .1-1.9.3-2.8.5s-1.6.4-2.4.7c-.7.3-1.5.5-2.2.8s-1.4.6-2.2.9c-.7.3-1.5.6-2.3 1-.1 0-.2.1-.2.1s-.1 0-.2 0c-.2 0-.3 0-.5-.1-.1-.1-.3-.2-.4-.4s-.2-.3-.2-.5c.1-.4.1-.6.1-.9s.2-.7.7-1.2c.5-.4 1.1-.9 1.9-1.3s1.8-.9 2.9-1.3 2.3-.8 3.5-1.1c1.3-.3 2.6-.6 4-.8s2.8-.3 4.1-.3c1.2 0 2.2.1 3.1.3s1.6.5 2.1.9 1 .9 1.3 1.4c.2.8.4 1.4.4 2z" fill="#daecf2"/></g></svg>