<svg enable-background="new 0 0 212.3 136.2" viewBox="0 0 212.3 136.2" xmlns="http://www.w3.org/2000/svg" xmlns:xlink="http://www.w3.org/1999/xlink"><linearGradient id="a" gradientUnits="userSpaceOnUse" x1="148.378" x2="69.204" y1="87.6912" y2="41.98"><stop offset="0" stop-color="#eaeaea"/><stop offset="1" stop-color="#fff"/></linearGradient><path d="m131.3 66.5c1.2.3 2 1.3 1.8 2.2s-1.4 1.3-2.6 1-2-1.3-1.8-2.2 1.4-1.4 2.6-1" fill="#4d4d4d"/><path d="m137.3 51.9c-.2 0-.2 0 0 0z" fill="#231f20"/><path d="m140.8 54.7c18.2-1.8 30.8-9.6 30.8-29.3 0-3.1-.1-5.9 2.6-8 4.2-3.4-3.3-3.5.6-6 2.5-1.7-5.5-1.2-7.5.7-2.6 2.7-3.6 5.2-3.6 9.3 0 5.9-2.1 11.4-6.5 14.7-4.9 3.6-8.8 1.7-11.9.7l-9.3-3.3c-8-1.6-14.3-10.1-23.5 4.1-1.7-.7-3.5-1.2-5.3-1.2v-4.4c1.2.1 2.4.2 3.5.5 8.1-10.7 14.6-7.9 21.5-4.9.1 0 .1.1.2.1.7.3 1.5.7 2.2.9 4.1 1.5 8 3 12 4.7 2.5 1.1 5 1.5 8-.7 2-1.5 3.5-4.4 4.2-7.6.2-.7.3-1.4.4-2.1s.1 0 .1-.7c0-.4 0-.6 0-.8-.1-3.3.5-6.3 1.7-8.7 2-3.8 5.1-5.7 8.8-6.4 2.9-.4 9.8-.7 10.1 3.3 0 .7-.1 1-.2 1.1l-.1.1c-1.9 1.2-.3 1.2.6 3.1 1.1 2.2.3 4.1-3.3 7-1 .8-1 2.5-1 4.4.1 22.4-13.3 30.6-33.2 33.7-4.8 4.7-8.6 15.3-11.2 21.6-2.4 5.9-3 12.7-3.6 23.1-.1 2.2-.1 4.3-.2 6.4-.1 3.3-.3 6.7-.3 10.4 0 6.7-7.5 8.8-15.8 8.8-1.5 0-3-.1-4.6-.2v-4.3c7.5.6 15.9-.1 15.9-4.3l.7-15.7.4-9.2.4-2.9c.5-5 1.3-9.3 2.7-13.1 3.9-10.2 7.3-18.7 13.7-24.9zm-33.7 16.6v3.7c7.9 1.4 16.7.6 23.8-4.7-9.5 3.6-17.5 2.9-23.8 1zm0-34.9c-14.7-1.1-29.9 17.3-9.4 30.6l.6.3c2.3 1.4 5.3 3 8.8 4.1v3.6c-6.2-1.1-11.9-3.5-15.7-6.1-2.5-1.7-4.6-5-6.1-8.5l-6.9.3c-11.2.8-17.5 3.8-22.9 8.5-2.5-1-6.3-2.8-11.2.6-4.6 3.2-2.4 5.4-3.7 9.8-.4 1.3-1.7 2.8-1.9 3.3 0 0 2 1.5 2.2 1.2.7-1 1.5-4.1 1.6-5.5.5-6.7 3-6.1 8.3-3.9-7.5 11.7-5.6 29.3-4.2 46.8 8.9 3.9 17.8 3.9 26.7 0-9.8-36.8 32.4-28.5 22.7.8-.3.7 5.1 2 11.1 2.5v4.3c-1.5-.1-2.9-.2-4.3-.4-2.8-.4-5.3-.9-6.8-1.4-3.5-1.2-5.1-3.3-4.1-6.4 0 0 .1-.1.1-.1 2.5-7.6.8-13.2-2.5-16.4-1.7-1.7-3.8-2.7-5.9-2.9-1.8-.1-3.6.4-4.9 1.8-2.5 2.7-3.5 8.1-1.2 17.2.6 2.2-.5 4.3-2.5 5.2-1.4.6-2.8 1.1-4.2 1.5-1.3.4-2.8.8-4.2 1.1-7.3 1.4-14.6.5-21.8-2.7-1.5-.7-2.5-2.1-2.6-3.6l-.2-2.6c-.9-10.7-1.8-21.3-.5-30.7-.7.1-1.3 0-2-.2h-.1c-.4-.1-.9-.4-1.4-.6-.2-.1-.5-.3-.8-.5-.5-.3-.9-.7-1.2-1.2-1.2-1.4-1.8-3.5-1.7-4.3h.1v-.1c.2-.9.7-1.5 1.2-2.2.4-.4.7-1 .7-1.1.3-.9.3-1.9.4-2.8.1-3.4.2-5.9 5-9.3 5.4-3.8 9.7-3.2 13-2 3-2.3 6.4-4.1 10.6-5.5 4.7-1.5 10.4-2.4 17.7-2.5h.8c-.4-1.3-.5-2.6-.5-3.7-.1-3.3.9-6.4 2.5-9.3 1.5-2.7 3.8-5 6.4-6.8 4.2-3 9.6-4.7 14.8-4.4v4.2z" fill="#4d4d4d"/><path d="m140.8 54.7c18.2-1.8 30.8-9.6 30.8-29.3 0-3.1-.1-5.9 2.6-8 4.2-3.4-3.3-3.5.6-6 2.5-1.7-5.5-1.2-7.5.7-2.6 2.7-3.6 5.2-3.6 9.3 0 5.9-2.1 11.4-6.5 14.7-4.9 3.6-8.8 1.7-11.9.7l-9.3-3.3c-8-1.6-14.3-10.1-23.5 4.1-15.8-6.8-37.8 14.5-14.8 29.4l.6.3c6.3 3.9 17.7 8.6 32.6 3-12.9 9.6-31.1 4.3-39.5-1.4-2.5-1.7-4.6-5-6.1-8.5l-6.9.3c-11.2.8-17.5 3.8-22.9 8.5-2.5-1-6.3-2.8-11.2.6-4.6 3.2-2.4 5.4-3.7 9.8-.4 1.3-1.7 2.8-1.9 3.3 0 0 2 1.5 2.2 1.2.7-1 1.5-4.1 1.6-5.5.5-6.7 3-6.1 8.3-3.9-7.5 11.7-5.6 29.3-4.2 46.8 8.9 3.9 17.8 3.9 26.7 0-9.8-36.8 32.4-28.5 22.7.8-.6 1.7 27 5.8 27-1.8l.7-15.7.4-9.2.4-2.9c.5-5 1.3-9.3 2.7-13.1 3.8-10.2 7.2-18.7 13.6-24.9z" fill="url(#a)"/><path clip-rule="evenodd" d="m125.4 36.6c1.1-.7 2.3-.7 2.8.1s0 2-1.1 2.6c-1.1.7-2.3.7-2.8-.1-.4-.7 0-1.9 1.1-2.6z" fill="#646464" fill-rule="evenodd"/></svg>