<svg enable-background="new 0 0 120 120" viewBox="0 0 120 120" xmlns="http://www.w3.org/2000/svg"><path d="m0 0h120v120h-120z" fill="#1880b6"/><g stroke="#324249" stroke-linecap="round" stroke-linejoin="round" stroke-width="2" transform="translate(1 11)"><path d="m44 26h30c8.8 0 16 7.2 16 16s-7.2 16-16 16h-30c-8.8 0-16-7.2-16-16s7.2-16 16-16z" fill="#daecf2"/><path d="m65 53.3 11-4.5c1.9-.8 4.1 0 5.1 1.7l3.3 5.8c2.3 3.9.9 8.9-3 11.2l-6.1 3.5c-3.4 2-7.8.8-9.8-2.6l-11-19c-1-1.7-.4-3.9 1.3-4.9s3.9-.4 4.9 1.3z" fill="#ff6673"/><path d="m57 31v6m12.5 0-4.7 3.8m-23.4 9.8 5.8-1.3m-2.7-12.3 4.7 3.8" fill="#daecf2"/></g></svg>