<svg enable-background="new 0 0 380 1276" viewBox="0 0 380 1276" xmlns="http://www.w3.org/2000/svg"><path d="m141.5 281.1v112.9l97.7 56.4 97.7-56.4v-112.9l-97.7-56.4z" fill="#ff4f81"/><path d="m40.5 105.8v112.8l97.7 56.4 97.7-56.4v-112.8l-97.7-56.5z" fill="#ee2961"/><path d="m168.3 326c.9.7 1.6 1.1 2.7 1.1 1.3 0 2.4-.6 2.4-2 0-1.3-1-1.8-2.2-2.2-1.9-.7-2.9-1.3-2.9-3.2 0-1.8 1.5-2.8 3.1-2.8 1 0 1.9.3 2.6.8v1.2c-.9-.7-1.6-1-2.6-1-1.2 0-2 .7-2 1.8 0 1 .6 1.5 2.2 2.1 2 .7 3 1.4 3 3.3 0 2-1.5 2.9-3.5 2.9-1.2 0-2.1-.3-2.7-.8v-1.2z" fill="#fff"/><path d="m180.4 319.9c2.3 0 3.9 1.7 3.9 4.1s-1.6 4.1-3.9 4.1-3.9-1.7-3.9-4.1 1.6-4.1 3.9-4.1zm0 .9c-1.7 0-2.8 1.3-2.8 3.2s1.2 3.2 2.8 3.2 2.8-1.3 2.8-3.2c.1-1.9-1.1-3.2-2.8-3.2z" fill="#fff"/><g enable-background="new" fill="#fff"><path d="m192.4 321.6c-.7-.5-1.5-.7-2.2-.7-1.6 0-3 1.1-3 3.1s1.4 3.1 3.1 3.1c.8 0 1.5-.3 2.3-.7v1.1c-.8.4-1.5.6-2.4.6-2.2 0-4.1-1.5-4.1-4.1s1.9-4.1 4.1-4.1c.9 0 1.5.2 2.3.6v1.1z"/><path d="m195.7 327.9h-1.1v-12.2h1.1z"/><path d="m198.9 324c0 2 1.4 3.1 2.9 3.1 1.1 0 1.9-.3 2.7-.9v1.1c-.7.5-1.7.8-2.7.8-2.3 0-4-1.5-4-4.1 0-2.4 1.6-4.1 3.7-4.1 2 0 3.3 1.2 3.3 3.4v.7zm4.9-.9c-.1-1.6-1-2.3-2.3-2.3-1.2 0-2.2.8-2.5 2.3z"/><path d="m216.9 327.8c-.8.2-1.7.3-2.6.3-2.7 0-4.6-1.5-4.6-4.1s2-4.1 4.3-4.1c.6 0 1.3.1 1.7.4v-4.6h1.1v12.1zm-1.1-6.6c-.4-.2-1-.4-1.7-.4-1.8 0-3.2 1.1-3.2 3.1s1.4 3.2 3.5 3.2c.5 0 1 0 1.5-.1v-5.8z"/><path d="m220 324c0 2 1.4 3.1 2.9 3.1 1.1 0 1.9-.3 2.7-.9v1.1c-.7.5-1.7.8-2.7.8-2.3 0-4-1.5-4-4.1 0-2.4 1.6-4.1 3.7-4.1 2 0 3.3 1.2 3.3 3.4v.7zm4.9-.9c-.1-1.6-1-2.3-2.3-2.3-1.2 0-2.2.8-2.5 2.3z"/></g><g enable-background="new" fill="#fff"><path d="m174.6 337.6c-.7-.5-1.5-.7-2.2-.7-1.6 0-3 1.1-3 3.1s1.4 3.1 3.1 3.1c.8 0 1.5-.3 2.3-.7v1.1c-.8.4-1.5.6-2.4.6-2.2 0-4.1-1.5-4.1-4.1s1.9-4.1 4.1-4.1c.9 0 1.5.2 2.3.6v1.1z"/><path d="m180.1 335.9c2.3 0 3.9 1.7 3.9 4.1s-1.6 4.1-3.9 4.1-3.9-1.7-3.9-4.1 1.6-4.1 3.9-4.1zm0 .9c-1.7 0-2.8 1.3-2.8 3.2s1.2 3.2 2.8 3.2c1.7 0 2.8-1.3 2.8-3.2.1-1.9-1.1-3.2-2.8-3.2z"/><path d="m196.2 338.7c0-1.5-1-1.8-1.8-1.8-.9 0-1.8.2-2.3.5.1.3.2.8.2 1.3v5.3h-1.1v-5.3c0-1.5-1-1.8-1.9-1.8s-1.6.2-2.1.4v6.7h-1.1v-7.3c1-.4 2.1-.7 3.2-.7.9 0 1.6.2 2.1.6.9-.4 1.9-.6 2.9-.6 1.9 0 2.9.8 2.9 2.7v5.3h-1.1v-5.3z"/></g><g enable-background="new" fill="#fff"><path d="m200.1 336.4c.7-.3 1.7-.5 2.7-.5 2.7 0 4.3 1.4 4.3 4.1 0 2.6-1.7 4.1-4.3 4.1-.6 0-1.3-.1-1.7-.3v3.4h-1.1v-10.8zm1.1 6.4c.5.2 1.1.3 1.7.3 1.9 0 3.2-1.2 3.2-3.2 0-1.9-1.2-3.1-3.2-3.1-.6 0-1.2.1-1.7.2z"/><path d="m209.9 340c0 2 1.4 3.1 2.9 3.1 1.1 0 1.9-.3 2.7-.9v1.1c-.7.5-1.7.8-2.7.8-2.3 0-4-1.5-4-4.1 0-2.4 1.6-4.1 3.7-4.1 2 0 3.3 1.2 3.3 3.4v.7zm4.8-.9c-.1-1.6-1-2.3-2.3-2.3-1.2 0-2.2.8-2.5 2.3zm-2.8-4.4 1.5-2.7h1.1l-1.5 2.7z"/></g><path d="m217.4 336.1h1.2v-1.9h1.1v1.9h2.2v.9h-2.2v4.8c0 1 .4 1.4 1.1 1.4.5 0 .9-.2 1.5-.4v1c-.5.2-1 .4-1.7.4-1.1 0-2-.6-2-2.2v-5h-1.2z" fill="#fff"/><g enable-background="new" fill="#fff"><path d="m225.4 340c0 2 1.4 3.1 2.9 3.1 1.1 0 1.9-.3 2.7-.9v1.1c-.7.5-1.7.8-2.7.8-2.3 0-4-1.5-4-4.1 0-2.4 1.6-4.1 3.7-4.1 2 0 3.3 1.2 3.3 3.4v.7zm4.9-.9c-.1-1.6-1-2.3-2.3-2.3-1.2 0-2.2.8-2.5 2.3z"/><path d="m233.4 336.5c1-.4 2.2-.6 3.3-.6 2 0 3.2.8 3.2 2.7v5.3h-1.1v-5.1c0-1.6-1.1-1.9-2.2-1.9-.8 0-1.6.1-2.1.3v6.7h-1.1z"/><path d="m248.2 337.6c-.7-.5-1.5-.7-2.2-.7-1.6 0-3 1.1-3 3.1s1.4 3.1 3.1 3.1c.8 0 1.5-.3 2.3-.7v1.1c-.8.4-1.5.6-2.4.6-2.2 0-4.1-1.5-4.1-4.1s1.9-4.1 4.1-4.1c.9 0 1.5.2 2.3.6v1.1z"/></g><path d="m251.3 340c0 2 1.4 3.1 2.9 3.1 1.1 0 1.9-.3 2.7-.9v1.1c-.7.5-1.7.8-2.7.8-2.3 0-4-1.5-4-4.1 0-2.4 1.6-4.1 3.7-4.1 2 0 3.3 1.2 3.3 3.4v.7zm4.9-.9c-.1-1.6-1-2.3-2.3-2.3-1.2 0-2.2.8-2.5 2.3z" fill="#fff"/><path d="m259.1 342.2c.7.6 1.3.9 2.2.9 1 0 1.6-.4 1.6-1.3s-.7-1.2-1.9-1.6c-1.4-.5-2-1-2-2.3 0-1.4 1-2.1 2.5-2.1.8 0 1.5.2 2.1.6v1.2c-.6-.5-1.2-.8-2.1-.8s-1.4.5-1.4 1.2.4 1.1 1.6 1.5c1.4.4 2.3.9 2.3 2.4s-1.2 2.3-2.7 2.3c-.9 0-1.7-.3-2.2-.6z" fill="#fff"/><path d="m169.6 360.7h-.9v-8.3c.4-.1 1-.1 1.5-.1 2.3 0 3.3 1.1 3.3 2.6 0 1.8-1.2 2.7-3.3 2.7-.2 0-.4 0-.5 0v3.1zm0-3.8h.4c1.7 0 2.5-.7 2.5-2 0-1.1-.6-1.9-2.4-1.9-.2 0-.4 0-.6 0v3.9z" fill="#fff"/><path d="m175.2 357.7c0 1.5 1.1 2.4 2.3 2.4.9 0 1.5-.2 2.1-.7v.8c-.5.4-1.3.6-2.1.6-1.8 0-3.1-1.2-3.1-3.2 0-1.8 1.3-3.2 2.9-3.2 1.5 0 2.6.9 2.6 2.7v.6zm3.8-.7c-.1-1.3-.7-1.8-1.8-1.8-1 0-1.7.6-2 1.8zm-2.2-3.5 1.2-2.1h.8l-1.2 2.1z" fill="#fff"/><g enable-background="new" fill="#fff"><path d="m186.6 360.6c-.7.2-1.3.2-2 .2-2.1 0-3.5-1.1-3.5-3.2s1.5-3.2 3.4-3.2c.5 0 1 .1 1.3.3v-3.6h.8zm-.9-5.1c-.3-.2-.8-.3-1.3-.3-1.4 0-2.5.9-2.5 2.4 0 1.6 1.1 2.5 2.7 2.5.4 0 .8 0 1.1-.1z"/><path d="m191.8 356.4c0-.8-.5-1.2-1.3-1.2-.7 0-1.2.2-1.8.5v-.8c.5-.3 1.2-.5 1.9-.5 1.2 0 2 .5 2 1.9v4.2c-.6.2-1.2.2-1.7.2-1.7 0-2.8-.5-2.8-1.8 0-1.2 1.1-1.8 3-1.8h.7zm0 1.5h-.6c-1.3 0-2.2.3-2.2 1.1s.8 1.1 2 1.1c.3 0 .6 0 .9-.1v-2.1z"/></g><path d="m198.9 360.5c-.2.1-.8.3-1.3.3-2 0-3.4-1-3.4-3.1 0-2 1.4-3.2 3.5-3.2.6 0 1.5.2 2 .4v5.9c0 1.9-1.4 2.6-2.8 2.6-.7 0-1.4-.2-1.9-.4v-.8c.5.3 1.2.5 1.9.5 1 0 2-.5 2-2zm0-5.1c-.3-.1-.7-.2-1.1-.2-1.7 0-2.7.9-2.7 2.4s1 2.4 2.6 2.4c.5 0 .8-.1 1.3-.2v-4.4z" fill="#fff"/><path d="m204.3 354.5c1.8 0 3.1 1.3 3.1 3.2s-1.2 3.2-3.1 3.2c-1.8 0-3.1-1.3-3.1-3.2s1.3-3.2 3.1-3.2zm0 .7c-1.3 0-2.2 1-2.2 2.5s.9 2.5 2.2 2.5 2.2-1 2.2-2.5c.1-1.5-.9-2.5-2.2-2.5z" fill="#fff"/><g enable-background="new" fill="#fff"><path d="m213.3 360.5c-.2.1-.8.3-1.3.3-2 0-3.4-1-3.4-3.1 0-2 1.4-3.2 3.5-3.2.6 0 1.5.2 2 .4v5.9c0 1.9-1.4 2.6-2.8 2.6-.7 0-1.4-.2-1.9-.4v-.8c.5.3 1.2.5 1.9.5 1 0 2-.5 2-2zm0-5.1c-.3-.1-.7-.2-1.1-.2-1.7 0-2.7.9-2.7 2.4s1 2.4 2.6 2.4c.5 0 .8-.1 1.3-.2v-4.4z"/><path d="m216.1 352.7c0-.3.3-.6.6-.6.4 0 .6.3.6.6s-.3.6-.6.6c-.4 0-.6-.3-.6-.6zm1 8h-.8v-6.1h.8z"/></g><path d="m219.6 357.7c0 1.5 1.1 2.4 2.3 2.4.9 0 1.5-.2 2.1-.7v.8c-.5.4-1.3.6-2.1.6-1.8 0-3.1-1.2-3.1-3.2 0-1.8 1.3-3.2 2.9-3.2 1.5 0 2.6.9 2.6 2.7v.6zm3.8-.7c-.1-1.3-.7-1.8-1.8-1.8-1 0-1.7.6-2 1.8z" fill="#fff"/><g enable-background="new" fill="#fff"><path d="m225.5 359.4c.5.5 1 .7 1.7.7.8 0 1.3-.3 1.3-1s-.5-.9-1.5-1.2c-1.1-.4-1.5-.8-1.5-1.8 0-1.1.8-1.7 1.9-1.7.6 0 1.2.1 1.7.5v.9c-.5-.4-1-.7-1.7-.7s-1.1.4-1.1.9c0 .6.3.9 1.3 1.1 1.1.3 1.8.7 1.8 1.8 0 1.2-.9 1.8-2.1 1.8-.7 0-1.3-.2-1.7-.5v-.8z"/><path d="m233.7 354.9c.6-.2 1.3-.4 2.1-.4 2.1 0 3.4 1.1 3.4 3.2 0 2-1.3 3.2-3.3 3.2-.5 0-1-.1-1.3-.3v2.6h-.8v-8.3zm.8 5c.4.2.8.3 1.3.3 1.5 0 2.5-.9 2.5-2.5 0-1.5-.9-2.4-2.5-2.4-.5 0-1 .1-1.3.2z"/><path d="m244 356.4c0-.8-.5-1.2-1.3-1.2-.7 0-1.2.2-1.8.5v-.8c.5-.3 1.2-.5 1.9-.5 1.2 0 2 .5 2 1.9v4.2c-.6.2-1.2.2-1.7.2-1.7 0-2.8-.5-2.8-1.8 0-1.2 1.1-1.8 3-1.8h.7zm0 1.5h-.6c-1.3 0-2.2.3-2.2 1.1s.8 1.1 2 1.1c.3 0 .6 0 .9-.1v-2.1z"/><path d="m247.7 360.7h-.8v-5.5c.6-.4 1.4-.7 2.3-.7.3 0 .7 0 1 .1v.8c-.4-.1-.8-.2-1.1-.2-.6 0-1.1.1-1.4.3z"/><path d="m254.1 354.9c.6-.2 1.3-.4 2.1-.4 2.1 0 3.4 1.1 3.4 3.2 0 2-1.3 3.2-3.3 3.2-.5 0-1-.1-1.3-.3v2.6h-.8v-8.3zm.8 5c.4.2.8.3 1.3.3 1.5 0 2.5-.9 2.5-2.5 0-1.5-.9-2.4-2.5-2.4-.5 0-1 .1-1.3.2z"/></g><path d="m262.1 360.7h-.8v-5.5c.6-.4 1.4-.7 2.3-.7.3 0 .7 0 1 .1v.8c-.4-.1-.8-.2-1.1-.2-.6 0-1 .1-1.4.3z" fill="#fff"/><g enable-background="new" fill="#fff"><path d="m268.2 354.5c1.8 0 3.1 1.3 3.1 3.2s-1.2 3.2-3.1 3.2-3.1-1.3-3.1-3.2 1.3-3.2 3.1-3.2zm0 .7c-1.3 0-2.2 1-2.2 2.5s.9 2.5 2.2 2.5 2.2-1 2.2-2.5c.1-1.5-.9-2.5-2.2-2.5z"/><path d="m272.9 354.6h.8v6.9c0 1.2-.5 1.9-1.8 1.9-.3 0-.7-.1-.9-.2v-.8c.2.1.6.2.9.2.6 0 1-.3 1-1.2zm-.2-1.9c0-.3.3-.6.6-.6.4 0 .6.3.6.6s-.3.6-.6.6-.6-.3-.6-.6z"/></g><path d="m276.3 357.7c0 1.5 1.1 2.4 2.3 2.4.9 0 1.5-.2 2.1-.7v.8c-.5.4-1.3.6-2.1.6-1.8 0-3.1-1.2-3.1-3.2 0-1.8 1.3-3.2 2.9-3.2 1.5 0 2.6.9 2.6 2.7v.6zm3.8-.7c-.1-1.3-.7-1.8-1.8-1.8-1 0-1.7.6-2 1.8z" fill="#fff"/><path d="m281.7 354.6h.9v-1.5h.8v1.5h1.7v.7h-1.7v3.7c0 .8.3 1.1.9 1.1.4 0 .7-.1 1.1-.3v.7c-.4.2-.8.3-1.3.3-.9 0-1.5-.5-1.5-1.7v-3.8h-.9z" fill="#fff"/><path d="m40.5 456.5v112.9l97.7 56.4 97.7-56.4v-112.9l-97.7-56.4z" fill="#ff4f81"/><g fill="#fff"><path d="m71.7 467.9-2.3-7.5-1.1 7.5h-2.2l1.6-10.7h2.8l2.4 7.8 2.3-7.8h2.8l1.6 10.7h-2.3l-1.1-7.5-2.3 7.5z"/><path d="m84.9 459.7c2.3 0 4.2 1.9 4.2 4.2s-1.9 4.2-4.2 4.2-4.2-1.9-4.2-4.2c-.1-2.2 1.6-4.1 3.8-4.2zm0 1.9c-1.3-.2-2.5.7-2.7 2s.7 2.5 2 2.7 2.5-.7 2.7-2c0-.1 0-.2 0-.3.1-1.1-.7-2.2-1.8-2.3 0-.1-.1-.1-.2-.1z"/><path d="m98.2 467.7c-1.1.3-2.2.4-3.3.4-2.8 0-4.6-1.5-4.6-4.2-.1-2.2 1.6-4.1 3.8-4.2h.4c.5 0 1 .1 1.5.3v-4.3h2.2zm-2.1-5.8c-.4-.2-.9-.3-1.3-.3-1.1-.1-2.1.7-2.2 1.8v.4c-.1 1.2.8 2.3 2.1 2.4h.4c.3 0 .7 0 1-.1z"/><path d="m107.5 467.7c-1.1.3-2.2.4-3.3.4-2.3 0-3.8-.7-3.8-3.1v-5.1h2.2v4.9c0 1 .4 1.5 1.6 1.5.4 0 .8 0 1.2-.1v-6.3h2.2v7.8z"/><path d="m112 467.9h-2.2v-12.3h2.2z"/><path d="m115.8 464.5c.2 1.1 1.3 1.8 2.4 1.7.9 0 1.9-.2 2.7-.7v1.8c-.9.5-1.9.8-2.9.7-2.1.2-4-1.4-4.2-3.5 0-.2 0-.4 0-.6 0-2.6 1.7-4.3 3.9-4.3 2.5 0 3.5 1.6 3.5 3.8v1zm3.3-1.3c0-1-.5-1.7-1.5-1.7s-1.6.7-1.7 1.7z"/><path d="m122.7 465.4c.7.5 1.6.9 2.6.9.7 0 1.1-.2 1.1-.7s-.3-.7-1.2-.9c-1.8-.3-2.6-1-2.6-2.5 0-1.8 1.3-2.6 3.1-2.6.8 0 1.6.2 2.4.6v1.9c-.7-.5-1.5-.8-2.3-.8-.7 0-1 .3-1 .7s.3.6 1 .8c2.1.4 2.8 1.2 2.8 2.6 0 1.7-1.3 2.5-3.2 2.5-.9 0-1.8-.2-2.6-.6z"/><path d="m138.4 467.9h-2.3v-8.7h-3.3v-2h8.8v2h-3.3v8.7z"/><path d="m143.6 464.5c.2 1.1 1.3 1.8 2.4 1.7.9 0 1.9-.2 2.7-.7v1.8c-.9.5-1.9.8-2.9.7-2.1.2-4-1.4-4.2-3.5 0-.2 0-.4 0-.6 0-2.6 1.7-4.3 3.9-4.3 2.5 0 3.5 1.6 3.5 3.8v1zm3.3-1.3c0-1-.5-1.7-1.5-1.7s-1.5.7-1.7 1.7z"/><path d="m156.8 462.3c-.6-.5-1.3-.7-2-.7-1.2-.1-2.2.8-2.3 2v.3c-.1 1.2.9 2.3 2.1 2.3h.3c.7 0 1.4-.3 2-.7v2c-.7.4-1.5.6-2.3.6-2.2.1-4.1-1.5-4.2-3.7 0-.1 0-.3 0-.4-.1-2.2 1.6-4.1 3.8-4.2h.5c.8 0 1.6.2 2.3.6z"/><path d="m158.6 455.7h2.2v4.3c.6-.2 1.3-.3 2-.3 1.8 0 3.1.8 3.1 3.2v5h-2.2v-4.9c.1-.7-.4-1.3-1.1-1.4-.1 0-.2 0-.3 0-.5 0-1 .1-1.5.2v6h-2.2z"/><path d="m168.1 460.4c1.2-.4 2.5-.7 3.8-.7 2.1 0 3.4.8 3.4 3.2v5h-2.2v-4.9c.1-.7-.4-1.3-1.1-1.4-.1 0-.2 0-.3 0-.5 0-1 .1-1.5.2v6h-2.2z"/><path d="m177.4 457.5c0-.7.5-1.3 1.3-1.3.7 0 1.3.6 1.3 1.3s-.6 1.3-1.3 1.3c-.7-.1-1.3-.6-1.3-1.3zm2.4 10.4h-2.2v-8h2.2z"/><path d="m189.4 471.1h-2.2v-3.3c-.5.2-1 .2-1.5.2-2.2.2-4.1-1.4-4.3-3.6 0-.2 0-.4 0-.6 0-2.6 1.7-4.2 4.6-4.2 1.1 0 2.2.2 3.3.6v10.9zm-2.1-9.3c-.4-.1-.7-.2-1.1-.2-1.3 0-2.3 1-2.4 2.2s1 2.3 2.2 2.4c.4 0 .9-.1 1.3-.2z"/><path d="m198.6 467.7c-1.1.3-2.2.4-3.3.4-2.3 0-3.8-.7-3.8-3.1v-5.1h2.2v4.9c0 1 .4 1.5 1.6 1.5.4 0 .8 0 1.1-.1v-6.3h2.2z"/><path d="m202.5 464.5c.2 1.1 1.3 1.8 2.4 1.7.9 0 1.9-.2 2.7-.7v1.8c-.9.5-1.9.8-2.9.7-2.1.2-4-1.4-4.2-3.5 0-.2 0-.4 0-.6 0-2.6 1.7-4.3 3.9-4.3 2.5 0 3.5 1.6 3.5 3.8v1zm3.2-1.3c0-1-.5-1.7-1.5-1.7s-1.6.7-1.8 1.7z"/><path d="m209.3 465.4c.7.5 1.6.9 2.6.9.7 0 1.1-.2 1.1-.7s-.3-.7-1.2-.9c-1.8-.3-2.6-1-2.6-2.5 0-1.8 1.3-2.6 3.1-2.6.8 0 1.6.2 2.4.6v1.9c-.7-.5-1.5-.8-2.3-.8-.7 0-1 .3-1 .7s.3.6 1.1.8c2.1.4 2.8 1.2 2.8 2.6 0 1.7-1.3 2.5-3.2 2.5-.9 0-1.8-.2-2.6-.6z"/><path d="m77.6 475.5v3.7h4.2v-3.7h1.2v8.8h-1.1v-4.1h-4.2v4.1h-1.1v-8.8z"/><path d="m86.6 476.5h-2.6v-1h6.5v1h-2.7v7.8h-1.1v-7.8z"/><path d="m98.8 480.5c-.1-1.2-.1-2.7-.1-3.8-.3 1-.7 2.1-1.1 3.3l-1.6 4.3h-.9l-1.4-4.2c-.4-1.2-.8-2.4-1-3.4 0 1.1-.1 2.6-.2 3.9l-.2 3.8h-1.1l.6-8.8h1.4l1.5 4.2c.4 1.1.7 2 .9 3 .2-.9.5-1.8.9-3l1.6-4.2h1.4l.5 8.8h-1z"/><path d="m101.9 475.5h1.1v7.8h3.7v1h-4.9z"/><path d="m112.7 476.8h-3.2l-.3 2.2c.2 0 .5-.1.7 0 .6 0 1.3.1 1.8.5.8.4 1.2 1.3 1.2 2.2 0 1.6-1.3 2.9-3 2.9-.1 0-.1 0-.2 0-.7 0-1.5-.2-2.1-.5l.3-.9c.6.3 1.2.5 1.8.5 1 .1 1.9-.7 2-1.8v-.1c0-1.1-.8-1.9-2.4-1.9-.4 0-.8 0-1.2.1l.6-4h4z"/><path d="m113.7 484.8 3.6-9.4h.9l-3.6 9.4z"/><path d="m125.3 484c-.7.3-1.5.4-2.3.4-2.3.1-4.2-1.6-4.3-3.8 0-.2 0-.4 0-.6-.1-2.4 1.7-4.5 4.1-4.6h.5c.7 0 1.4.1 2.1.4l-.3.9c-.6-.2-1.2-.4-1.8-.4-2.1 0-3.4 1.3-3.4 3.6-.2 1.7 1.1 3.3 2.8 3.5h.6c.6 0 1.3-.1 1.8-.4z"/><path d="m126.5 482.9c.6.4 1.3.6 2 .6 1.2 0 1.8-.6 1.8-1.5s-.5-1.3-1.7-1.8c-1.4-.5-2.3-1.2-2.3-2.5s1.1-2.4 2.8-2.4c.7 0 1.3.1 1.9.4l-.3.9c-.5-.3-1.1-.4-1.7-.4-1.2 0-1.7.7-1.7 1.3 0 .8.5 1.2 1.8 1.7 1.5.6 2.2 1.3 2.2 2.6s-1 2.5-3.1 2.5c-.8 0-1.5-.2-2.2-.6z"/><path d="m132.9 482.9c.6.4 1.3.6 2 .6 1.2 0 1.8-.6 1.8-1.5s-.5-1.3-1.6-1.8c-1.4-.5-2.3-1.2-2.3-2.5s1.1-2.4 2.8-2.4c.7 0 1.3.1 1.9.4l-.3.9c-.5-.3-1.1-.4-1.7-.4-1.2 0-1.7.7-1.7 1.3 0 .8.5 1.2 1.8 1.7 1.5.6 2.2 1.3 2.2 2.6s-1 2.5-3.1 2.5c-.8 0-1.5-.2-2.2-.6z"/><path d="m82.2 493.6c-1.4-1.1-3.4-.9-4.6.4-1.1 1.4-.9 3.4.4 4.6.6.5 1.3.7 2 .7.5 0 1.1-.1 1.6-.3v-2.6h.8v3c-.7.4-1.5.6-2.4.6-2.1.1-3.9-1.6-4-3.7 0-.1 0-.2 0-.3-.1-2.2 1.6-3.9 3.8-4h.2c.7 0 1.5.2 2.1.6v1z"/><path d="m85 499.9h-.8v-5.1c.6-.4 1.4-.6 2.1-.6.3 0 .6 0 .9.1v.7c-.3-.1-.7-.1-1-.1-.4 0-.9.1-1.3.3z"/><path d="m91.3 495.9c.1-.5-.3-1-.9-1.1-.1 0-.2 0-.3 0-.6 0-1.2.2-1.7.5v-.7c.5-.3 1.1-.4 1.8-.4 1.2 0 1.9.5 1.9 1.8v3.9c-.5.1-1.1.2-1.6.2-1.5 0-2.5-.5-2.5-1.7s1-1.7 2.8-1.7h.6zm0 1.4h-.6c-1.2 0-2 .3-2 1.1s.8 1 1.8 1c.3 0 .5 0 .8-.1z"/><path d="m94 494.5c.6-.2 1.3-.4 2-.4 2 0 3.1 1 3.1 3 0 1.6-1.2 2.9-2.7 2.9-.1 0-.3 0-.4 0-.4 0-.8-.1-1.2-.2v2.5h-.8zm.8 4.6c.4.2.8.2 1.2.2 1.3 0 2.3-1 2.2-2.3s-1-2.3-2.3-2.2c-.4 0-.8 0-1.2.2z"/><path d="m100.6 491.1h.8v3.3c.5-.2 1.1-.3 1.7-.3 1.4 0 2.2.6 2.2 2v3.8h-.8v-3.7c0-1.2-.8-1.4-1.6-1.4-.5 0-1 .1-1.5.3v4.8h-.8z"/><path d="m107 492.5c0-.3.3-.6.6-.6s.6.3.6.6-.3.6-.6.6c-.3-.1-.6-.3-.6-.6zm1 7.4h-.8v-5.7h.8z"/><path d="m109.6 498.7c.4.4 1 .7 1.6.7.7 0 1.2-.3 1.2-.9s-.5-.9-1.4-1.1-1.4-.8-1.4-1.7.8-1.5 1.8-1.5c.5 0 1.1.1 1.6.4v.8c-.4-.4-1-.6-1.6-.6s-1 .3-1 .9.3.8 1.2 1.1 1.7.7 1.7 1.7-.9 1.6-1.9 1.6c-.6 0-1.1-.1-1.6-.5z"/><path d="m121.9 496.1c.1-.6-.4-1.2-1-1.3-.1 0-.2 0-.3 0-.6 0-1.1.1-1.7.3.1.3.2.6.2.9v3.8h-.8v-3.8c.1-.6-.4-1.2-1-1.3-.1 0-.2 0-.3 0-.5 0-1 .1-1.5.3v4.8h-.8v-5.3c.7-.3 1.5-.5 2.3-.5.5 0 1.1.1 1.5.4.7-.3 1.4-.4 2.1-.4 1.4 0 2.1.6 2.1 2v3.8h-.8z"/><path d="m124.9 497.1c-.1 1.2.8 2.1 2 2.2h.1c.7 0 1.4-.2 1.9-.6v.8c-.6.4-1.3.6-1.9.5-1.6-.2-2.8-1.7-2.6-3.3.2-1.3 1.1-2.4 2.4-2.6 1.2-.1 2.3.8 2.4 2.1v.4.5zm3.5-.6c.1-.8-.5-1.6-1.3-1.7-.1 0-.2 0-.3 0-.9 0-1.7.7-1.8 1.7z"/><path d="m77.3 513.4-.8 2.1h-.8l3-7.7h1l3 7.7h-.9l-.8-2.1zm1.8-5-1.6 4.3h3.2z"/><path d="m84.6 515.5h-.8v-8.8h.8z"/><path d="m90.5 515.3c-.4.2-.8.3-1.2.3-1.9 0-3.2-1-3.2-2.9s1.3-2.9 3.3-2.9c.6 0 1.3.1 1.8.4v5.5c0 1.3-1 2.4-2.3 2.4-.1 0-.2 0-.3 0-.6 0-1.2-.1-1.8-.3v-.8c.5.3 1.1.4 1.8.4.9.1 1.7-.6 1.8-1.5 0-.1 0-.3 0-.4v-.2zm0-4.7c-.3-.1-.7-.2-1.1-.2-1.6 0-2.5.8-2.5 2.2-.1 1.2.9 2.2 2 2.2h.3c.4 0 .8-.1 1.2-.2z"/><path d="m95.6 509.7c1.7-.1 3.1 1.2 3.1 2.8.1 1.7-1.2 3.1-2.8 3.1-1.7.1-3.1-1.2-3.1-2.8v-.1c-.1-1.5 1-2.9 2.5-3zm0 .7c-1.3-.2-2.4.7-2.6 2s.7 2.4 2 2.6 2.4-.7 2.6-2c0-.1 0-.2 0-.3.1-1.1-.7-2.2-1.9-2.3z"/><path d="m100.7 515.5h-.8v-5.1c.9-.6 2-.7 3-.5v.8c-.3-.1-.7-.1-1-.1-.4 0-.9.1-1.3.3z"/><path d="m104 508.1c0-.3.3-.6.6-.6s.6.3.6.6-.3.6-.6.6-.6-.3-.6-.6zm1 7.4h-.8v-5.7h.8z"/><path d="m106.2 509.8h.8v-1.4h.8v1.4h1.6v.7h-1.6v3.5c0 .7.3 1 .8 1 .4 0 .7-.1 1-.3v.7c-.4.2-.8.3-1.2.3-.8 0-1.4-.4-1.4-1.6v-3.6h-.9z"/><path d="m111.1 506.7h.8v3.3c.5-.2 1.1-.3 1.7-.3 1.4 0 2.2.6 2.2 2v3.8h-.8v-3.7c0-1.2-.8-1.4-1.6-1.4-.5 0-1 .1-1.5.3v4.8h-.8z"/><path d="m124.8 511.7c.1-.6-.4-1.2-1-1.3-.1 0-.2 0-.3 0-.6 0-1.1.1-1.7.3.1.3.2.6.2.9v3.8h-.8v-3.8c.1-.6-.4-1.2-1-1.3-.1 0-.2 0-.3 0-.5 0-1 .1-1.5.3v4.8h-.8v-5.3c.7-.3 1.5-.5 2.3-.5.5 0 1.1.1 1.5.4.7-.3 1.4-.4 2.1-.4 1.4 0 2.1.6 2.1 2v3.8h-.8z"/><path d="m127.8 512.7c-.1 1.1.7 2.2 1.9 2.3h.3c.7 0 1.4-.2 1.9-.6v.8c-.6.4-1.2.6-1.9.5-1.6-.2-2.8-1.7-2.6-3.3.2-1.3 1.1-2.4 2.4-2.6 1.2-.1 2.3.8 2.4 2.1v.4.5zm3.6-.6c.1-.8-.5-1.6-1.3-1.7-.1 0-.2 0-.3 0-.9 0-1.7.7-1.8 1.7z"/><path d="m75.7 529.7c.4.5 1 .9 1.7.9.8 0 1.1-.4 1.1-1.4v-5.8h.8v5.9c.1 1-.5 1.8-1.5 2-.1 0-.3 0-.4 0-.6 0-1.2-.2-1.7-.7z"/><path d="m84.1 527.1c.1-.5-.3-1.1-.8-1.1-.1 0-.2 0-.3 0-.6 0-1.2.2-1.7.5v-.7c.5-.3 1.1-.4 1.8-.4 1.1 0 1.9.5 1.9 1.8v3.9c-.5.1-1.1.2-1.6.2-1.5 0-2.6-.5-2.6-1.7s1-1.7 2.8-1.7h.6zm0 1.4h-.6c-1.2 0-2 .3-2 1.1s.8 1 1.8 1c.3 0 .5 0 .8-.1z"/><path d="m88.1 531.1-2.2-5.7h.8l1.8 4.9 1.8-4.9h.8l-2.2 5.7z"/><path d="m95.2 527.1c.1-.5-.3-1.1-.8-1.1-.1 0-.2 0-.3 0-.6 0-1.2.2-1.7.5v-.7c.5-.3 1.1-.4 1.8-.4 1.2 0 1.9.5 1.9 1.8v3.9c-.5.1-1.1.2-1.6.2-1.5 0-2.6-.5-2.6-1.7s1-1.7 2.8-1.7h.6zm0 1.4h-.6c-1.2 0-2 .3-2 1.1s.8 1 1.8 1c.3 0 .5 0 .8-.1z"/><path d="m97.5 529.9c.4.4 1 .7 1.6.7.7 0 1.2-.3 1.2-.9s-.5-.8-1.4-1.2-1.4-.8-1.4-1.7.8-1.5 1.8-1.5c.5 0 1.1.1 1.5.4v.8c-.4-.4-1-.6-1.5-.6-.6 0-1 .3-1 .9s.3.8 1.2 1.1 1.7.7 1.7 1.7-.9 1.6-1.9 1.6c-.6 0-1.1-.1-1.6-.5z"/><path d="m106.6 526.6c-.5-.4-1-.5-1.6-.6-1.2 0-2.3 1-2.3 2.3s1 2.3 2.3 2.3c.6 0 1.1-.2 1.6-.5v.8c-.5.3-1.1.4-1.7.4-1.6-.3-2.8-1.8-2.5-3.4.2-1.3 1.2-2.3 2.5-2.5.6 0 1.1.1 1.6.4z"/><path d="m109 531.1h-.8v-5.1c.6-.4 1.4-.6 2.1-.6.3 0 .7 0 1 .1v.8c-.3-.1-.7-.1-1-.1-.4 0-.9.1-1.3.3z"/><path d="m112.3 523.7c0-.3.3-.6.6-.6s.6.3.6.6-.3.6-.6.6c-.3-.1-.6-.3-.6-.6zm1 7.4h-.8v-5.7h.8z"/><path d="m115.2 525.7c.6-.2 1.3-.4 2-.4 2 0 3.1 1 3.1 3 .1 1.6-1.1 2.9-2.6 3-.1 0-.3 0-.4 0-.4 0-.9-.1-1.3-.3v2.5h-.8zm.8 4.6c.4.2.8.2 1.2.2 1.3 0 2.3-1 2.3-2.3s-1-2.3-2.3-2.3c-.4 0-.8 0-1.2.2z"/><path d="m121.1 525.4h.9v-1.4h.8v1.4h1.6v.7h-1.6v3.5c0 .7.3 1 .8 1 .4 0 .7-.1 1-.3v.8c-.4.2-.8.3-1.2.3-.8 0-1.4-.4-1.4-1.6v-3.6h-.9z"/><path d="m127.3 530.1c0 1-.5 2-1.3 2.7h-.6c.7-.7 1-1.7 1-2.7z"/><path d="m131 529.7c.4.5 1 .9 1.7.9.8 0 1.1-.4 1.1-1.4v-5.8h.8v5.9c.1 1-.5 1.9-1.5 2-.1 0-.3 0-.4 0-.6 0-1.2-.2-1.7-.7z"/><path d="m140 531.2c-2.2-.1-3.9-2-3.8-4.2s2-3.9 4.2-3.8 3.9 2 3.8 4.2c-.1 1.8-1.4 3.4-3.2 3.7l1.7 1.7h-1.1zm.1-7.2c-1.8 0-3.3 1.4-3.4 3.2s1.4 3.3 3.2 3.4c1.8 0 3.3-1.4 3.4-3.2v-.1c.1-1.7-1.3-3.2-3-3.2-.1-.1-.1-.1-.2-.1z"/><path d="m150.1 531c-.7.1-1.3.2-2 .2-1.6 0-2.6-.6-2.6-2v-3.8h.8v3.8c0 1.1.9 1.3 1.8 1.3.4 0 .8 0 1.3-.1v-5h.8z"/><path d="m152.4 528.3c-.1 1.2.8 2.1 2 2.2h.1c.7 0 1.4-.2 1.9-.6v.8c-.6.4-1.3.6-1.9.5-1.6-.2-2.8-1.7-2.6-3.3.2-1.3 1.1-2.4 2.4-2.6 1.2-.1 2.3.8 2.4 2.1v.4.5zm3.5-.6c-.1-1.2-.7-1.7-1.6-1.7s-1.7.7-1.8 1.7z"/><path d="m159 531.1h-.8v-5.1c.6-.4 1.4-.6 2.1-.6.3 0 .6 0 .9.1v.8c-.3-.1-.7-.1-1-.1-.4 0-.9.1-1.3.3z"/><path d="m164.6 530.6 1.9-5.2h.8l-3.1 8h-.8l.8-2-2.4-6h.9z"/><path d="m77.4 546.7h-.8v-7.7c.5-.1.9-.1 1.4-.1 2.1 0 3 1 3 2.5 0 1.7-1.2 2.5-3.1 2.5h-.5zm0-3.6h.4c1.6 0 2.3-.6 2.3-1.9 0-1-.6-1.8-2.3-1.8h-.5v3.7z"/><path d="m88 539h.8v7.7h-.8v-3.6h-4.8v3.6h-.8v-7.7h.8v3.4h4.8z"/><path d="m91.8 546.7h-.8v-7.7c.5-.1.9-.1 1.4-.1 2.1 0 3 1 3 2.5 0 1.7-1.2 2.5-3.1 2.5h-.5zm0-3.6h.4c1.6 0 2.3-.6 2.3-1.9 0-1-.6-1.8-2.2-1.8h-.5z"/><path d="m97.1 545.7c0 1-.5 2-1.3 2.7h-.6c.7-.7 1-1.7 1-2.7z"/><path d="m101.6 541h.8v6.4c0 1.1-.5 1.8-1.7 1.8-.3 0-.6-.1-.9-.2v-.7c.3.2.6.2.9.2.6 0 .9-.3.9-1.1zm-.2-1.8c0-.3.3-.6.7-.5.3 0 .5.2.5.5s-.2.6-.5.7c-.3 0-.6-.2-.7-.5 0-.1 0-.1 0-.2z"/><path d="m107.3 542.7c.1-.5-.3-1-.9-1.1-.1 0-.2 0-.3 0-.6 0-1.2.2-1.7.5v-.7c.5-.3 1.1-.4 1.8-.4 1.2 0 1.9.5 1.9 1.8v3.9c-.5.1-1.1.2-1.6.2-1.5 0-2.6-.5-2.6-1.7s1-1.7 2.8-1.7h.6zm0 1.4h-.6c-1.2 0-2 .3-2 1.1s.8 1 1.8 1c.3 0 .5 0 .8-.1z"/><path d="m111.3 546.7-2.3-5.7h.8l1.8 4.9 1.8-4.9h.8l-2.2 5.7z"/><path d="m118.3 542.7c.1-.5-.3-1-.9-1.1-.1 0-.2 0-.3 0-.6 0-1.2.2-1.7.5v-.7c.5-.3 1.1-.4 1.8-.4 1.2 0 1.9.5 1.9 1.8v3.9c-.5.1-1.1.2-1.6.2-1.5 0-2.6-.5-2.6-1.7s1-1.7 2.8-1.7h.6zm0 1.4h-.6c-1.2 0-2 .3-2 1.1s.8 1 1.8 1c.3 0 .5 0 .8-.1z"/><path d="m122 545.7c0 1-.5 2-1.3 2.7h-.6c.7-.7 1-1.7 1-2.7z"/><path d="m128.7 546.7-3-7.7h.9l2.6 6.9 2.6-6.9h.9l-3 7.7z"/><path d="m137.9 546.6c-.7.1-1.3.2-2 .2-1.6 0-2.6-.6-2.6-2v-3.8h.8v3.8c0 1.1.8 1.3 1.7 1.3.4 0 .8 0 1.3-.1v-5h.8z"/><path d="m140.2 543.9c-.1 1.2.8 2.1 2 2.2h.1c.7 0 1.4-.2 1.9-.6v.8c-.6.4-1.3.6-1.9.5-1.6-.2-2.8-1.7-2.6-3.3.2-1.3 1.1-2.4 2.4-2.6 1.2-.1 2.3.8 2.4 2.1v.4.5zm3.5-.6c-.1-1.2-.7-1.7-1.6-1.7s-1.7.7-1.8 1.7z"/><path d="m145.2 545.3c.4.5 1 .9 1.7.9.8 0 1.1-.4 1.1-1.4v-5.8h.8v5.9c.1 1-.5 1.9-1.5 2-.1 0-.3 0-.4 0-.6 0-1.2-.2-1.7-.7z"/><path d="m150.3 545.4c.5.5 1.3.8 2 .8.9 0 1.7-.4 1.7-1.4s-.7-1.3-1.6-1.6c-1.4-.5-2.1-1-2.1-2.3 0-1.1.9-2 2-2h.3c.7 0 1.3.2 1.9.6v.8c-.5-.5-1.2-.7-1.9-.8s-1.4.5-1.5 1.2v.1c0 .7.4 1.1 1.6 1.5 1.4.5 2.2 1 2.2 2.4s-1.1 2.1-2.5 2.1c-.7 0-1.4-.2-2-.6z"/><path d="m76.6 554.6c.5-.1 1-.1 1.6-.1 2 0 2.8.8 2.8 2.1 0 .9-.7 1.7-1.6 1.8 1-.1 1.9.7 1.9 1.7v.2c0 1.2-.9 2.2-3.1 2.2-.5 0-1-.1-1.6-.2zm.8 3.5h.7c1.3 0 2.1-.5 2.1-1.5s-.7-1.4-2-1.4c-.2 0-.5 0-.8 0zm0 3.6h.8c1.6 0 2.3-.6 2.3-1.5s-.9-1.5-2.3-1.5h-.8z"/><path d="m85.8 558.3c.1-.5-.3-1-.9-1.1-.1 0-.2 0-.3 0-.6 0-1.2.2-1.7.5v-.7c.5-.3 1.1-.4 1.8-.4 1.1 0 1.9.5 1.9 1.8v3.9c-.5.1-1.1.2-1.6.2-1.5 0-2.6-.5-2.6-1.7s1-1.7 2.8-1.7h.6zm0 1.4h-.6c-1.2 0-2 .3-2 1.1s.8 1 1.8 1c.3 0 .5 0 .8-.1z"/><path d="m88.1 561.1c.4.4 1 .7 1.6.7.7 0 1.2-.3 1.2-.9s-.5-.8-1.4-1.2-1.4-.7-1.4-1.7.8-1.5 1.8-1.5c.5 0 1.1.1 1.5.4v.8c-.4-.4-1-.6-1.5-.6-.6 0-1 .3-1 .9s.3.8 1.2 1.1 1.7.7 1.7 1.7-.9 1.6-1.9 1.6c-.6 0-1.1-.1-1.6-.5z"/><path d="m93.5 559.5c-.1 1.2.8 2.1 2 2.2h.1c.7 0 1.4-.2 1.9-.6v.8c-.6.4-1.3.6-1.9.5-1.6-.2-2.8-1.7-2.6-3.3.2-1.3 1.1-2.4 2.4-2.6 1.2-.1 2.3.8 2.4 2.1v.5.5zm3.5-.6c.1-.8-.5-1.6-1.3-1.7-.1 0-.2 0-.3 0-.9 0-1.7.7-1.8 1.7z"/><path d="m106.5 562.2c-.6.1-1.2.2-1.8.2-2 0-3.3-1.1-3.3-3-.1-1.6 1.2-2.9 2.8-3h.3c.4 0 .9.1 1.2.3v-3.3h.8zm-.8-4.7c-.4-.2-.8-.3-1.2-.3-1.2-.1-2.2.8-2.3 2v.3c0 1.2.9 2.3 2.1 2.3h.3c.4 0 .7 0 1.1-.1z"/><path d="m108.8 559.5c-.1 1.2.8 2.1 2 2.2h.1c.7 0 1.4-.2 1.9-.6v.8c-.6.4-1.3.6-1.9.5-1.6-.2-2.8-1.7-2.6-3.3.2-1.3 1.1-2.4 2.4-2.6 1.2-.1 2.3.8 2.4 2.1v.4.5zm3.5-.6c.1-.8-.5-1.6-1.3-1.7-.1 0-.2 0-.3 0-.9 0-1.7.7-1.8 1.7z"/><path d="m121.7 562.2c-.6.1-1.2.2-1.8.2-2 0-3.3-1.1-3.3-3-.1-1.6 1.2-2.9 2.8-3h.3c.4 0 .9.1 1.2.3v-3.3h.8zm-.7-4.7c-.4-.2-.8-.3-1.2-.3-1.2-.1-2.2.8-2.3 2v.3c0 1.2.9 2.3 2.1 2.3h.3c.4 0 .7 0 1.1-.1z"/><path d="m126.1 556.5c1.7-.1 3.1 1.2 3.1 2.8.1 1.7-1.2 3.1-2.8 3.1s-3.1-1.2-3.1-2.8v-.1c-.1-1.5 1-2.9 2.5-3zm0 .7c-1.3-.2-2.4.7-2.6 2s.7 2.4 2 2.6 2.4-.7 2.6-2c0-.1 0-.2 0-.3.1-1.1-.7-2.2-1.9-2.3 0 0 0 0-.1 0z"/><path d="m130.5 556.9c.8-.3 1.6-.4 2.4-.4 1.4 0 2.3.6 2.3 2v3.8h-.8v-3.7c0-1.2-.8-1.4-1.6-1.4-.5 0-1 .1-1.5.2v4.9h-.8z"/><path d="m137 556.9c.8-.3 1.6-.4 2.4-.4 1.4 0 2.3.6 2.3 2v3.8h-.8v-3.7c0-1.2-.8-1.4-1.6-1.4-.5 0-1 .1-1.5.2v4.9h-.8z"/><path d="m144 559.5c-.1 1.2.8 2.1 2 2.2h.1c.7 0 1.4-.2 1.9-.6v.8c-.6.4-1.3.6-1.9.5-1.6-.2-2.8-1.7-2.6-3.3.2-1.3 1.1-2.4 2.4-2.6 1.2-.1 2.3.8 2.4 2.1v.4.5zm3.5-.6c-.1-1.2-.7-1.7-1.6-1.7s-1.7.7-1.8 1.7zm-2-3.3 1.1-2h.8l-1.1 2z"/><path d="m150.2 559.5c-.1 1.2.8 2.1 2 2.2h.1c.7 0 1.4-.2 1.9-.6v.8c-.6.4-1.3.6-1.9.5-1.6-.2-2.8-1.7-2.6-3.3.2-1.3 1.1-2.4 2.4-2.6 1.2-.1 2.3.8 2.4 2.1v.4.5zm3.5-.6c-.1-1.2-.7-1.7-1.6-1.7s-1.7.7-1.8 1.7z"/><path d="m155.7 561.1c.4.4 1 .7 1.6.7.7 0 1.2-.3 1.2-.9s-.5-.8-1.4-1.2-1.4-.8-1.4-1.7.8-1.5 1.8-1.5c.5 0 1.1.1 1.5.4v.8c-.4-.4-1-.6-1.5-.6-.6 0-1 .3-1 .9s.3.8 1.2 1.1 1.6.7 1.6 1.7-.9 1.6-1.9 1.6c-.6 0-1.1-.1-1.6-.5z"/><path d="m77.4 577.9h-.8v-7.7c.5-.1 1-.1 1.5-.1 2.1 0 3 1 3 2.4 0 1.1-.7 2-1.7 2.3l2.6 3.2h-1l-2.4-3h-1.2zm0-3.6h.8c1.3 0 2-.6 2-1.8 0-1-.6-1.7-2.2-1.7h-.7z"/><path d="m83.3 575.1c-.1 1.2.8 2.1 2 2.2h.1c.7 0 1.4-.2 1.9-.6v.8c-.6.4-1.3.6-1.9.5-1.6-.2-2.8-1.7-2.6-3.3.2-1.3 1.1-2.4 2.4-2.6 1.2-.1 2.3.8 2.4 2.1v.4.5zm3.5-.6c.1-.8-.5-1.6-1.3-1.7-.1 0-.2 0-.3 0-.9 0-1.7.7-1.8 1.7zm-2-3.3 1.1-2h.8l-1.1 2z"/><path d="m88.8 576.7c.4.4 1 .7 1.6.7.7 0 1.2-.3 1.2-.9s-.5-.8-1.4-1.2-1.4-.8-1.4-1.7.8-1.5 1.8-1.5c.5 0 1.1.1 1.5.4v.8c-.4-.4-1-.6-1.5-.6-.6 0-1 .3-1 .9s.3.8 1.2 1.1 1.7.7 1.7 1.7-.9 1.6-2 1.6c-.6 0-1.1-.1-1.6-.5v-.8z"/><path d="m94.2 575.1c-.1 1.2.8 2.1 2 2.2h.1c.7 0 1.4-.2 1.9-.6v.8c-.6.4-1.2.6-1.9.5-1.6-.2-2.8-1.7-2.6-3.3.2-1.3 1.1-2.4 2.4-2.6 1.2-.1 2.3.8 2.4 2.1v.4.5zm3.5-.6c.1-.8-.5-1.6-1.3-1.7-.1 0-.2 0-.3 0-.9 0-1.7.7-1.8 1.7z"/><path d="m103 573.9c.1-.5-.3-1-.9-1.1-.1 0-.2 0-.3 0-.6 0-1.2.2-1.7.5v-.7c.5-.3 1.1-.4 1.8-.4 1.2 0 1.9.5 1.9 1.8v3.9c-.5.1-1.1.2-1.6.2-1.5 0-2.6-.5-2.6-1.7s1-1.7 2.8-1.7h.6zm0 1.4h-.6c-1.2 0-2 .3-2 1.1s.8 1 1.8 1c.3 0 .5 0 .8-.1z"/><path d="m110 577.8c-.7.1-1.3.2-2 .2-1.6 0-2.6-.6-2.6-2v-3.8h.8v3.8c0 1.1.8 1.3 1.7 1.3.4 0 .8 0 1.3-.1v-5h.8z"/><path d="m117.7 569.1h.8l-4.1 10.6h-.8z"/><path d="m122.9 575.8-.8 2.1h-.8l3-7.7h1l3 7.7h-.8l-.8-2.1zm1.9-5-1.6 4.3h3.2z"/><path d="m134.2 577.8c-.6.1-1.2.2-1.9.2-2 0-3.3-1.1-3.3-3-.1-1.6 1.2-2.9 2.8-3h.3c.4 0 .9.1 1.2.3v-3.3h.8v8.8zm-.8-4.7c-.4-.2-.8-.3-1.2-.3-1.2-.1-2.2.8-2.3 2v.3c0 1.2.9 2.3 2.1 2.3h.3c.4 0 .7 0 1.1-.1z"/><path d="m143.4 574.1c.1-.6-.4-1.2-1-1.3-.1 0-.2 0-.3 0-.6 0-1.1.1-1.7.3.1.3.2.6.2.9v3.8h-.8v-3.8c.1-.6-.4-1.2-1-1.3-.1 0-.2 0-.3 0-.5 0-1 .1-1.5.3v4.8h-.8v-5.3c.7-.3 1.5-.5 2.3-.5.5 0 1.1.1 1.5.4.7-.3 1.4-.4 2.1-.4 1.4 0 2.1.6 2.1 2v3.8h-.8z"/><path d="m145.9 570.5c0-.3.3-.6.6-.6s.6.3.6.6-.3.6-.6.6c-.4-.1-.6-.3-.6-.6zm1 7.4h-.8v-5.7h.8z"/><path d="m148.8 572.5c.8-.3 1.6-.4 2.4-.4 1.4 0 2.3.6 2.3 2v3.8h-.8v-3.7c0-1.2-.8-1.4-1.6-1.4-.5 0-1 .1-1.5.2v4.9h-.8z"/><g enable-background="new"><path d="m70.4 138.6h-3.7v-21.3c1.4-.2 3.5-.4 5.3-.4 5.6 0 8.7 2.6 8.7 7.3 0 5-3.7 7.3-8.7 7.3-.5 0-1.2 0-1.6-.1zm0-10.4c.3 0 .9.1 1.4.1 3.4 0 5.2-1.3 5.2-4.2 0-2.5-1.7-4-5-4-.4 0-1.1 0-1.5.1v8z"/><path d="m98.9 117.2h3.7v21.4h-3.7v-9.1h-11.1v9.1h-3.7v-21.4h3.7v9h11.1z"/><path d="m111.1 133.5-1.9 5h-3.9l8.3-21.4h4.5l8.4 21.4h-4l-1.9-5zm4.8-12.9-3.7 9.9h7.3z"/><path d="m128.3 133.6c1.7 1.3 3.4 2.2 5.7 2.2 2.1 0 4-.8 4-3 0-2-1.5-2.7-3.9-3.5-4.1-1.3-6-2.9-6-6.5 0-3.9 3.1-6 6.8-6 2.3 0 4 .6 5.5 1.6v3.7c-1.7-1.4-3.3-2.2-5.4-2.2s-3.3 1.1-3.3 2.8 1.2 2.4 3.9 3.3c4.2 1.3 6 3 6 6.7 0 4.3-3.4 6.2-7.5 6.2-2.3 0-4.3-.6-5.7-1.6v-3.7z"/><path d="m158.7 135.3v3.2h-13.3v-21.4h13.1v3.2h-9.4v5.8h8.7v3.2h-8.7v6z"/><path d="m167.9 118.2 7.8-1.3v21.7h-3.6v-17.7l-4.2.6z"/></g></g><path d="m40.5 807.3v112.9l97.7 56.4 97.7-56.4v-112.9l-97.7-56.4z" fill="#5ea6e0"/><path d="m141.5 982.8v112.8l97.7 56.4 97.7-56.4v-112.8l-97.7-56.5z" fill="#5ea6e0"/><path d="m140.5 632v112.8l97.7 56.4 97.7-56.4v-112.8l-97.7-56.5z" fill="#2f82c5"/><g enable-background="new" fill="#fff"><path d="m74.2 844.9v1h-6.2v-10.7h6.1v1h-5v3.8h4.6v1h-4.6v4h5.1zm-3.6-10.6 1.3-2.4h1.1l-1.3 2.4z"/><path d="m77.5 845.9h-1.1v-12.2h1.1z"/><path d="m84.3 840.4c0-1-.6-1.5-1.7-1.5-.9 0-1.6.3-2.3.6v-1c.7-.4 1.5-.6 2.4-.6 1.6 0 2.6.7 2.6 2.5v5.4c-.7.2-1.6.3-2.2.3-2.1 0-3.5-.7-3.5-2.3 0-1.5 1.4-2.4 3.8-2.4h.9zm0 1.9h-.8c-1.6 0-2.8.4-2.8 1.5s1.1 1.4 2.5 1.4c.3 0 .7 0 1.1-.1z"/></g><path d="m90.7 845.9h-1.1v-7.1c.8-.5 1.8-.8 2.9-.8.4 0 .9.1 1.3.2v1.1c-.5-.2-1-.2-1.4-.2-.8 0-1.4.2-1.8.4v6.4z" fill="#fff"/><g enable-background="new" fill="#fff"><path d="m101.3 845.6c-.3.2-1 .3-1.6.3-2.6 0-4.4-1.4-4.4-4 0-2.5 1.8-4.1 4.5-4.1.8 0 1.9.2 2.6.5v7.6c0 2.4-1.8 3.3-3.6 3.3-1 0-1.9-.2-2.4-.5v-1c.7.3 1.6.6 2.4.6 1.3 0 2.5-.6 2.5-2.6zm0-6.5c-.4-.1-.9-.2-1.5-.2-2.2 0-3.4 1.2-3.4 3.1s1.3 3.1 3.3 3.1c.6 0 1.1-.1 1.6-.3z"/><path d="m104.8 835.6c0-.5.4-.8.8-.8.5 0 .8.4.8.8s-.4.8-.8.8c-.5 0-.8-.4-.8-.8zm1.3 10.3h-1.1v-7.9h1.1z"/><path d="m108.4 844.2c.7.6 1.3.9 2.2.9 1 0 1.6-.4 1.6-1.3s-.7-1.2-1.9-1.6c-1.4-.5-2-1-2-2.3 0-1.4 1-2.1 2.5-2.1.8 0 1.5.2 2.1.6v1.2c-.6-.5-1.2-.8-2.1-.8s-1.4.5-1.4 1.2.4 1.1 1.6 1.5c1.4.4 2.3.9 2.3 2.4s-1.2 2.3-2.7 2.3c-.9 0-1.7-.3-2.2-.6z"/></g><path d="m116.7 844.2c.7.6 1.4.9 2.2.9 1 0 1.6-.4 1.6-1.3s-.7-1.2-1.9-1.6c-1.4-.5-2-1-2-2.3 0-1.4 1-2.1 2.5-2.1.8 0 1.5.2 2.1.6v1.2c-.6-.5-1.2-.8-2.1-.8s-1.4.5-1.4 1.2.4 1.1 1.6 1.5c1.4.4 2.3.9 2.3 2.4s-1.2 2.3-2.7 2.3c-.9 0-1.7-.3-2.2-.6z" fill="#fff"/><g enable-background="new" fill="#fff"><path d="m124.9 842c0 2 1.4 3.1 2.9 3.1 1.1 0 1.9-.3 2.7-.9v1.1c-.7.5-1.7.8-2.7.8-2.3 0-4-1.5-4-4.1 0-2.4 1.6-4.1 3.7-4.1 2 0 3.3 1.2 3.3 3.4v.7zm4.9-.9c-.1-1.6-1-2.3-2.3-2.3-1.2 0-2.2.8-2.5 2.3z"/><path d="m142.9 840.7c0-1.5-1-1.8-1.8-1.8-.9 0-1.8.2-2.3.5.1.3.2.8.2 1.3v5.3h-1.1v-5.3c0-1.5-1-1.8-1.9-1.8s-1.6.2-2.1.4v6.7h-1.1v-7.3c1-.4 2.1-.7 3.2-.7.9 0 1.6.2 2.1.6.9-.4 1.9-.6 2.9-.6 1.9 0 2.9.8 2.9 2.7v5.3h-1.1v-5.3z"/><path d="m147.1 842c0 2 1.4 3.1 2.9 3.1 1.1 0 1.9-.3 2.7-.9v1.1c-.7.5-1.7.8-2.7.8-2.3 0-4-1.5-4-4.1 0-2.4 1.6-4.1 3.7-4.1 2 0 3.3 1.2 3.3 3.4v.7zm4.8-.9c-.1-1.6-1-2.3-2.3-2.3-1.2 0-2.2.8-2.5 2.3z"/><path d="m155.1 838.5c1-.4 2.2-.6 3.3-.6 2 0 3.2.8 3.2 2.7v5.3h-1.1v-5.1c0-1.6-1.1-1.9-2.2-1.9-.8 0-1.6.1-2.1.3v6.7h-1.1z"/><path d="m163.1 838.1h1.2v-1.9h1.1v1.9h2.2v.9h-2.2v4.8c0 1 .4 1.4 1.1 1.4.5 0 .9-.2 1.5-.4v1c-.5.2-1 .4-1.7.4-1.1 0-2-.6-2-2.2v-5h-1.2z"/><path d="m174.7 844.5c0 1.5-.8 3.1-1.8 3.7h-.9c.9-.9 1.4-2.2 1.4-3.7z"/></g><g enable-background="new" fill="#fff"><path d="m71.9 856.4c0-1-.6-1.5-1.7-1.5-.9 0-1.6.3-2.3.6v-1c.7-.4 1.5-.6 2.4-.6 1.6 0 2.6.7 2.6 2.5v5.4c-.7.2-1.6.3-2.2.3-2.1 0-3.5-.7-3.5-2.3 0-1.5 1.4-2.4 3.8-2.4h.9zm0 1.9h-.8c-1.6 0-2.8.4-2.8 1.5s1.1 1.4 2.5 1.4c.3 0 .7 0 1.1-.1z"/><path d="m75.6 854.4c.7-.3 1.7-.5 2.7-.5 2.7 0 4.3 1.4 4.3 4.1 0 2.6-1.7 4.1-4.3 4.1-.6 0-1.3-.1-1.7-.3v3.4h-1.1v-10.8zm1.1 6.4c.5.2 1.1.3 1.7.3 1.9 0 3.2-1.2 3.2-3.2 0-1.9-1.2-3.1-3.2-3.1-.6 0-1.2.1-1.7.2z"/><path d="m84.8 854.4c.7-.3 1.7-.5 2.7-.5 2.7 0 4.3 1.4 4.3 4.1 0 2.6-1.7 4.1-4.3 4.1-.6 0-1.3-.1-1.7-.3v3.4h-1.1v-10.8zm1 6.4c.5.2 1.1.3 1.7.3 1.9 0 3.2-1.2 3.2-3.2 0-1.9-1.2-3.1-3.2-3.1-.6 0-1.2.1-1.7.2z"/></g><path d="m96.4 861.9h-1.1v-7.1c.8-.5 1.8-.8 2.9-.8.4 0 .9.1 1.3.2v1.1c-.5-.2-1-.2-1.4-.2-.8 0-1.4.2-1.8.4v6.4z" fill="#fff"/><g enable-background="new" fill="#fff"><path d="m104.9 853.9c2.3 0 3.9 1.7 3.9 4.1s-1.6 4.1-3.9 4.1-3.9-1.7-3.9-4.1 1.6-4.1 3.9-4.1zm0 .9c-1.7 0-2.8 1.3-2.8 3.2s1.2 3.2 2.8 3.2c1.7 0 2.8-1.3 2.8-3.2.1-1.9-1.1-3.2-2.8-3.2z"/><path d="m112.3 861.9h-1.1v-6.9h-1.2v-.9h1.2v-2c0-1.6.8-2.6 2.4-2.6.6 0 1 .1 1.4.4v1c-.4-.3-.8-.5-1.4-.5-.8 0-1.4.4-1.4 1.7v1.9h2.2v.9h-2.2v7z"/><path d="m119.2 853.9c2.3 0 3.9 1.7 3.9 4.1s-1.6 4.1-3.9 4.1-3.9-1.7-3.9-4.1 1.5-4.1 3.9-4.1zm0 .9c-1.7 0-2.8 1.3-2.8 3.2s1.2 3.2 2.8 3.2c1.7 0 2.8-1.3 2.8-3.2s-1.2-3.2-2.8-3.2z"/><path d="m125.2 854.5c1-.4 2.2-.6 3.3-.6 2 0 3.2.8 3.2 2.7v5.3h-1.1v-5.1c0-1.6-1.1-1.9-2.2-1.9-.8 0-1.6.1-2.1.3v6.7h-1.1z"/><path d="m140.8 861.8c-.8.2-1.7.3-2.6.3-2.7 0-4.6-1.5-4.6-4.1s2-4.1 4.3-4.1c.6 0 1.3.1 1.7.4v-4.6h1.1v12.1zm-1.1-6.6c-.4-.2-1-.4-1.7-.4-1.8 0-3.2 1.1-3.2 3.1s1.4 3.2 3.5 3.2c.5 0 1 0 1.5-.1v-5.8z"/><path d="m143.2 851.6c0-.5.4-.8.8-.8.5 0 .8.4.8.8s-.4.8-.8.8-.8-.4-.8-.8zm1.4 10.3h-1.1v-7.9h1.1z"/><path d="m146.8 860.2c.7.6 1.4.9 2.2.9 1 0 1.6-.4 1.6-1.3s-.7-1.2-1.9-1.6c-1.4-.5-2-1-2-2.3 0-1.4 1-2.1 2.5-2.1.8 0 1.5.2 2.1.6v1.2c-.6-.5-1.2-.8-2.1-.8s-1.4.5-1.4 1.2.4 1.1 1.6 1.5c1.4.4 2.3.9 2.3 2.4s-1.2 2.3-2.7 2.3c-.9 0-1.7-.3-2.2-.6z"/></g><path d="m156.8 860.2c.7.6 1.4.9 2.2.9 1 0 1.6-.4 1.6-1.3s-.7-1.2-1.9-1.6c-1.4-.5-2-1-2-2.3 0-1.4 1-2.1 2.5-2.1.8 0 1.5.2 2.1.6v1.2c-.6-.5-1.2-.8-2.1-.8s-1.4.5-1.4 1.2.4 1.1 1.6 1.5c1.4.4 2.3.9 2.3 2.4s-1.2 2.3-2.7 2.3c-.9 0-1.7-.3-2.2-.6z" fill="#fff"/><g enable-background="new" fill="#fff"><path d="m165 858c0 2 1.4 3.1 2.9 3.1 1.1 0 1.9-.3 2.7-.9v1.1c-.7.5-1.7.8-2.7.8-2.3 0-4-1.5-4-4.1 0-2.4 1.6-4.1 3.7-4.1 2 0 3.3 1.2 3.3 3.4v.7zm4.9-.9c-.1-1.6-1-2.3-2.3-2.3-1.2 0-2.2.8-2.5 2.3z"/><path d="m183 856.7c0-1.5-1-1.8-1.8-1.8-.9 0-1.8.2-2.3.5.1.3.2.8.2 1.3v5.3h-1.1v-5.3c0-1.5-1-1.8-1.9-1.8s-1.6.2-2.1.4v6.7h-1.1v-7.3c1-.4 2.1-.7 3.2-.7.9 0 1.6.2 2.1.6.9-.4 1.9-.6 2.9-.6 1.9 0 2.9.8 2.9 2.7v5.3h-1z"/><path d="m187.2 858c0 2 1.4 3.1 2.9 3.1 1.1 0 1.9-.3 2.7-.9v1.1c-.7.5-1.7.8-2.7.8-2.3 0-4-1.5-4-4.1 0-2.4 1.6-4.1 3.7-4.1 2 0 3.3 1.2 3.3 3.4v.7zm4.9-.9c-.1-1.6-1-2.3-2.3-2.3-1.2 0-2.2.8-2.5 2.3z"/><path d="m195.2 854.5c1-.4 2.2-.6 3.3-.6 2 0 3.2.8 3.2 2.7v5.3h-1.1v-5.1c0-1.6-1.1-1.9-2.2-1.9-.8 0-1.6.1-2.1.3v6.7h-1.1z"/><path d="m203.2 854.1h1.2v-1.9h1.1v1.9h2.2v.9h-2.2v4.8c0 1 .4 1.4 1.1 1.4.5 0 .9-.2 1.5-.4v1c-.5.2-1 .4-1.7.4-1.1 0-2-.6-2-2.2v-5h-1.2z"/></g><path d="m74.4 877.8c-.8.2-1.7.3-2.6.3-2.7 0-4.6-1.5-4.6-4.1s2-4.1 4.3-4.1c.6 0 1.3.1 1.7.4v-4.6h1.1v12.1zm-1.1-6.6c-.4-.2-1-.4-1.7-.4-1.8 0-3.2 1.1-3.2 3.1s1.4 3.2 3.5 3.2c.5 0 1 0 1.5-.1v-5.8z" fill="#fff"/><path d="m78 874c0 2 1.4 3.1 2.9 3.1 1.1 0 1.9-.3 2.7-.9v1.1c-.7.5-1.7.8-2.7.8-2.3 0-4-1.5-4-4.1 0-2.4 1.6-4.1 3.7-4.1 2 0 3.3 1.2 3.3 3.4v.7zm4.8-.9c-.1-1.6-1-2.3-2.3-2.3-1.2 0-2.2.8-2.5 2.3z" fill="#fff"/><g enable-background="new" fill="#fff"><path d="m85.7 876.2c.7.6 1.4.9 2.2.9 1 0 1.6-.4 1.6-1.3s-.7-1.2-1.9-1.6c-1.4-.5-2-1-2-2.3 0-1.4 1-2.1 2.5-2.1.8 0 1.5.2 2.1.6v1.2c-.6-.5-1.2-.8-2.1-.8s-1.4.5-1.4 1.2.4 1.1 1.6 1.5c1.4.4 2.3.9 2.3 2.4s-1.2 2.3-2.7 2.3c-.9 0-1.7-.3-2.2-.6z"/><path d="m101.9 871.6c-.7-.5-1.5-.7-2.2-.7-1.6 0-3 1.1-3 3.1s1.4 3.1 3.1 3.1c.8 0 1.5-.3 2.3-.7v1.1c-.8.4-1.5.6-2.4.6-2.2 0-4.1-1.5-4.1-4.1s1.9-4.1 4.1-4.1c.9 0 1.5.2 2.3.6v1.1z"/><path d="m107.4 869.9c2.3 0 3.9 1.7 3.9 4.1s-1.6 4.1-3.9 4.1-3.9-1.7-3.9-4.1 1.6-4.1 3.9-4.1zm0 .9c-1.7 0-2.8 1.3-2.8 3.2s1.2 3.2 2.8 3.2c1.7 0 2.8-1.3 2.8-3.2.1-1.9-1.1-3.2-2.8-3.2z"/><path d="m123.5 872.7c0-1.5-1-1.8-1.8-1.8-.9 0-1.8.2-2.3.5.1.3.2.8.2 1.3v5.3h-1.1v-5.3c0-1.5-1-1.8-1.9-1.8s-1.6.2-2.1.4v6.7h-1.1v-7.3c1-.4 2.1-.7 3.2-.7.9 0 1.6.2 2.1.6.9-.4 1.9-.6 2.9-.6 1.9 0 2.9.8 2.9 2.7v5.3h-1.1v-5.3z"/></g><g enable-background="new" fill="#fff"><path d="m128.1 870.4c.7-.3 1.7-.5 2.7-.5 2.7 0 4.3 1.4 4.3 4.1 0 2.6-1.7 4.1-4.3 4.1-.6 0-1.3-.1-1.7-.3v3.4h-1.1v-10.8zm1.1 6.4c.5.2 1.1.3 1.7.3 1.9 0 3.2-1.2 3.2-3.2 0-1.9-1.2-3.1-3.2-3.1-.6 0-1.2.1-1.7.2z"/><path d="m137.9 874c0 2 1.4 3.1 2.9 3.1 1.1 0 1.9-.3 2.7-.9v1.1c-.7.5-1.7.8-2.7.8-2.3 0-4-1.5-4-4.1 0-2.4 1.6-4.1 3.7-4.1 2 0 3.3 1.2 3.3 3.4v.7zm4.8-.9c-.1-1.6-1-2.3-2.3-2.3-1.2 0-2.2.8-2.5 2.3zm-2.8-4.4 1.5-2.7h1.1l-1.5 2.7z"/></g><path d="m145.5 870.1h1.2v-1.9h1.1v1.9h2.2v.9h-2.2v4.8c0 1 .4 1.4 1.1 1.4.5 0 .9-.2 1.5-.4v1c-.5.2-1 .4-1.7.4-1.1 0-2-.6-2-2.2v-5h-1.2z" fill="#fff"/><g enable-background="new" fill="#fff"><path d="m153.4 874c0 2 1.4 3.1 2.9 3.1 1.1 0 1.9-.3 2.7-.9v1.1c-.7.5-1.7.8-2.7.8-2.3 0-4-1.5-4-4.1 0-2.4 1.6-4.1 3.7-4.1 2 0 3.3 1.2 3.3 3.4v.7zm4.9-.9c-.1-1.6-1-2.3-2.3-2.3-1.2 0-2.2.8-2.5 2.3z"/><path d="m161.4 870.5c1-.4 2.2-.6 3.3-.6 2 0 3.2.8 3.2 2.7v5.3h-1.1v-5.1c0-1.6-1.1-1.9-2.2-1.9-.8 0-1.6.1-2.1.3v6.7h-1.1z"/><path d="m176.2 871.6c-.7-.5-1.5-.7-2.2-.7-1.6 0-3 1.1-3 3.1s1.4 3.1 3.1 3.1c.8 0 1.5-.3 2.3-.7v1.1c-.8.4-1.5.6-2.4.6-2.2 0-4.1-1.5-4.1-4.1s1.9-4.1 4.1-4.1c.9 0 1.5.2 2.3.6v1.1z"/></g><path d="m179.4 874c0 2 1.4 3.1 2.9 3.1 1.1 0 1.9-.3 2.7-.9v1.1c-.7.5-1.7.8-2.7.8-2.3 0-4-1.5-4-4.1 0-2.4 1.6-4.1 3.7-4.1 2 0 3.3 1.2 3.3 3.4v.7zm4.8-.9c-.1-1.6-1-2.3-2.3-2.3-1.2 0-2.2.8-2.5 2.3z" fill="#fff"/><path d="m187.1 876.2c.7.6 1.4.9 2.2.9 1 0 1.6-.4 1.6-1.3s-.7-1.2-1.9-1.6c-1.4-.5-2-1-2-2.3 0-1.4 1-2.1 2.5-2.1.8 0 1.5.2 2.1.6v1.2c-.6-.5-1.2-.8-2.1-.8s-1.4.5-1.4 1.2.4 1.1 1.6 1.5c1.4.4 2.3.9 2.3 2.4s-1.2 2.3-2.7 2.3c-.9 0-1.7-.3-2.2-.6z" fill="#fff"/><path d="m68.6 894.7h-.9v-8.3c.4-.1 1-.1 1.5-.1 2.3 0 3.3 1.1 3.3 2.6 0 1.8-1.2 2.7-3.3 2.7-.2 0-.4 0-.5 0v3.1zm0-3.8h.4c1.7 0 2.5-.7 2.5-2 0-1.1-.6-1.9-2.4-1.9-.2 0-.4 0-.6 0v3.9z" fill="#fff"/><path d="m74.2 891.7c0 1.5 1.1 2.4 2.3 2.4.9 0 1.5-.2 2.1-.7v.8c-.5.4-1.3.6-2.1.6-1.8 0-3.1-1.2-3.1-3.2 0-1.8 1.3-3.2 2.9-3.2 1.5 0 2.6.9 2.6 2.7v.6zm3.8-.7c-.1-1.3-.7-1.8-1.8-1.8-1 0-1.7.6-2 1.8zm-2.2-3.5 1.2-2.1h.8l-1.2 2.1z" fill="#fff"/><g enable-background="new" fill="#fff"><path d="m85.6 894.6c-.7.2-1.3.2-2 .2-2.1 0-3.5-1.1-3.5-3.2s1.5-3.2 3.4-3.2c.5 0 1 .1 1.3.3v-3.6h.8zm-.9-5.1c-.3-.2-.8-.3-1.3-.3-1.4 0-2.5.9-2.5 2.4 0 1.6 1.1 2.5 2.7 2.5.4 0 .8 0 1.1-.1z"/><path d="m90.8 890.4c0-.8-.5-1.2-1.3-1.2-.7 0-1.2.2-1.8.5v-.8c.5-.3 1.2-.5 1.9-.5 1.2 0 2 .5 2 1.9v4.2c-.6.2-1.2.2-1.7.2-1.7 0-2.8-.5-2.8-1.8 0-1.2 1.1-1.8 3-1.8h.7zm0 1.5h-.6c-1.3 0-2.2.3-2.2 1.1s.8 1.1 2 1.1c.3 0 .6 0 .9-.1v-2.1z"/></g><path d="m97.9 894.5c-.2.1-.8.3-1.3.3-2 0-3.4-1-3.4-3.1 0-2 1.4-3.2 3.5-3.2.6 0 1.5.2 2 .4v5.9c0 1.9-1.4 2.6-2.8 2.6-.7 0-1.4-.2-1.9-.4v-.8c.5.3 1.2.5 1.9.5 1 0 2-.5 2-2zm0-5.1c-.3-.1-.7-.2-1.1-.2-1.7 0-2.7.9-2.7 2.4s1 2.4 2.6 2.4c.5 0 .8-.1 1.3-.2v-4.4z" fill="#fff"/><path d="m103.3 888.5c1.8 0 3.1 1.3 3.1 3.2s-1.2 3.2-3.1 3.2c-1.8 0-3.1-1.3-3.1-3.2s1.3-3.2 3.1-3.2zm0 .7c-1.3 0-2.2 1-2.2 2.5s.9 2.5 2.2 2.5 2.2-1 2.2-2.5c.1-1.5-.9-2.5-2.2-2.5z" fill="#fff"/><g enable-background="new" fill="#fff"><path d="m112.3 894.5c-.2.1-.8.3-1.3.3-2 0-3.4-1-3.4-3.1 0-2 1.4-3.2 3.5-3.2.6 0 1.5.2 2 .4v5.9c0 1.9-1.4 2.6-2.8 2.6-.7 0-1.4-.2-1.9-.4v-.8c.5.3 1.2.5 1.9.5 1 0 2-.5 2-2zm0-5.1c-.3-.1-.7-.2-1.1-.2-1.7 0-2.7.9-2.7 2.4s1 2.4 2.6 2.4c.5 0 .8-.1 1.3-.2v-4.4z"/><path d="m115.1 886.7c0-.3.3-.6.6-.6.4 0 .6.3.6.6s-.3.6-.6.6c-.4 0-.6-.3-.6-.6zm1 8h-.8v-6.1h.8z"/></g><path d="m118.6 891.7c0 1.5 1.1 2.4 2.3 2.4.9 0 1.5-.2 2.1-.7v.8c-.5.4-1.3.6-2.1.6-1.8 0-3.1-1.2-3.1-3.2 0-1.8 1.3-3.2 2.9-3.2 1.5 0 2.6.9 2.6 2.7v.6zm3.8-.7c-.1-1.3-.7-1.8-1.8-1.8-1 0-1.7.6-2 1.8z" fill="#fff"/><g enable-background="new" fill="#fff"><path d="m124.5 893.4c.5.5 1.1.7 1.7.7.8 0 1.3-.3 1.3-1s-.5-.9-1.5-1.2c-1.1-.4-1.5-.8-1.5-1.8 0-1.1.8-1.7 1.9-1.7.6 0 1.2.1 1.7.5v.9c-.5-.4-1-.7-1.7-.7s-1.1.4-1.1.9c0 .6.3.9 1.3 1.1 1.1.3 1.8.7 1.8 1.8 0 1.2-.9 1.8-2.1 1.8-.7 0-1.3-.2-1.7-.5v-.8z"/><path d="m132.7 888.9c.6-.2 1.3-.4 2.1-.4 2.1 0 3.4 1.1 3.4 3.2 0 2-1.3 3.2-3.3 3.2-.5 0-1-.1-1.3-.3v2.6h-.8v-8.3zm.8 5c.4.2.8.3 1.3.3 1.5 0 2.5-.9 2.5-2.5 0-1.5-.9-2.4-2.5-2.4-.5 0-1 .1-1.3.2z"/><path d="m143 890.4c0-.8-.5-1.2-1.3-1.2-.7 0-1.2.2-1.8.5v-.8c.5-.3 1.2-.5 1.9-.5 1.2 0 2 .5 2 1.9v4.2c-.6.2-1.2.2-1.7.2-1.7 0-2.8-.5-2.8-1.8 0-1.2 1.1-1.8 3-1.8h.7zm0 1.5h-.6c-1.3 0-2.2.3-2.2 1.1s.8 1.1 2 1.1c.3 0 .6 0 .9-.1v-2.1z"/><path d="m146.7 894.7h-.8v-5.5c.6-.4 1.4-.7 2.3-.7.3 0 .7 0 1 .1v.8c-.4-.1-.8-.2-1.1-.2-.6 0-1.1.1-1.4.3z"/><path d="m153.1 888.9c.6-.2 1.3-.4 2.1-.4 2.1 0 3.4 1.1 3.4 3.2 0 2-1.3 3.2-3.3 3.2-.5 0-1-.1-1.3-.3v2.6h-.8v-8.3zm.8 5c.4.2.8.3 1.3.3 1.5 0 2.5-.9 2.5-2.5 0-1.5-.9-2.4-2.5-2.4-.5 0-1 .1-1.3.2z"/></g><path d="m161.1 894.7h-.8v-5.5c.6-.4 1.4-.7 2.3-.7.3 0 .7 0 1 .1v.8c-.4-.1-.8-.2-1.1-.2-.6 0-1.1.1-1.4.3z" fill="#fff"/><g enable-background="new" fill="#fff"><path d="m167.2 888.5c1.8 0 3.1 1.3 3.1 3.2s-1.2 3.2-3.1 3.2c-1.8 0-3.1-1.3-3.1-3.2s1.3-3.2 3.1-3.2zm0 .7c-1.3 0-2.2 1-2.2 2.5s.9 2.5 2.2 2.5 2.2-1 2.2-2.5c.1-1.5-.9-2.5-2.2-2.5z"/><path d="m171.9 888.6h.8v6.9c0 1.2-.5 1.9-1.8 1.9-.3 0-.7-.1-.9-.2v-.8c.2.1.6.2.9.2.6 0 1-.3 1-1.2zm-.2-1.9c0-.3.3-.6.6-.6.4 0 .6.3.6.6s-.3.6-.6.6-.6-.3-.6-.6z"/></g><path d="m175.3 891.7c0 1.5 1.1 2.4 2.3 2.4.9 0 1.5-.2 2.1-.7v.8c-.5.4-1.3.6-2.1.6-1.8 0-3.1-1.2-3.1-3.2 0-1.8 1.3-3.2 2.9-3.2 1.5 0 2.6.9 2.6 2.7v.6zm3.8-.7c-.1-1.3-.7-1.8-1.8-1.8-1 0-1.7.6-2 1.8z" fill="#fff"/><path d="m180.7 888.6h.9v-1.5h.8v1.5h1.7v.7h-1.7v3.7c0 .8.3 1.1.9 1.1.4 0 .7-.1 1.1-.3v.7c-.4.2-.8.3-1.3.3-.9 0-1.5-.5-1.5-1.7v-3.8h-.9z" fill="#fff"/><path d="m169.1 994.9h-1.1v-10.7c.5-.1 1.3-.2 1.9-.2 3 0 4.2 1.4 4.2 3.4 0 2.3-1.6 3.5-4.3 3.5-.2 0-.5 0-.7 0zm0-4.9h.6c2.2 0 3.3-.8 3.3-2.6 0-1.4-.8-2.4-3.1-2.4-.2 0-.5 0-.7 0v5z" fill="#fff"/><path d="m178 994.9h-1v-7.1c.8-.5 1.8-.8 2.9-.8.4 0 .9.1 1.3.2v1.1c-.5-.2-1-.2-1.4-.2-.8 0-1.4.2-1.8.4z" fill="#fff"/><g enable-background="new" fill="#fff"><path d="m186.6 986.9c2.3 0 3.9 1.7 3.9 4.1s-1.6 4.1-3.9 4.1-3.9-1.7-3.9-4.1 1.5-4.1 3.9-4.1zm0 .9c-1.7 0-2.8 1.3-2.8 3.2s1.2 3.2 2.8 3.2c1.7 0 2.8-1.3 2.8-3.2s-1.2-3.2-2.8-3.2z"/><path d="m192.6 987.1h1.1v8.8c0 1.5-.7 2.4-2.4 2.4-.4 0-.9-.1-1.2-.3v-1c.3.2.7.3 1.2.3.8 0 1.3-.4 1.3-1.6zm-.3-2.5c0-.5.4-.8.8-.8.5 0 .8.4.8.8s-.4.8-.8.8-.8-.4-.8-.8z"/></g><path d="m197.7 991c0 2 1.4 3.1 2.9 3.1 1.1 0 1.9-.3 2.7-.9v1.1c-.7.5-1.7.8-2.7.8-2.3 0-4-1.5-4-4.1 0-2.4 1.6-4.1 3.7-4.1 2 0 3.3 1.2 3.3 3.4v.7zm4.9-.9c-.1-1.6-1-2.3-2.3-2.3-1.2 0-2.2.8-2.5 2.3z" fill="#fff"/><g enable-background="new" fill="#fff"><path d="m204.9 987.1h1.2v-1.9h1.1v1.9h2.2v.9h-2.2v4.8c0 1 .4 1.4 1.1 1.4.5 0 .9-.2 1.5-.4v1c-.5.2-1 .4-1.7.4-1.1 0-2-.6-2-2.2v-5h-1.2z"/><path d="m211.2 993.2c.7.6 1.4.9 2.2.9 1 0 1.6-.4 1.6-1.3s-.7-1.2-1.9-1.6c-1.4-.5-2-1-2-2.3 0-1.4 1-2.1 2.5-2.1.8 0 1.5.2 2.1.6v1.2c-.6-.5-1.2-.8-2.1-.8s-1.4.5-1.4 1.2.4 1.1 1.6 1.5c1.4.4 2.3.9 2.3 2.4s-1.2 2.3-2.7 2.3c-.9 0-1.7-.3-2.2-.6z"/><path d="m225.8 989.4c0-1-.6-1.5-1.7-1.5-.9 0-1.6.3-2.3.6v-1c.7-.4 1.5-.6 2.4-.6 1.6 0 2.6.7 2.6 2.5v5.4c-.7.2-1.6.3-2.2.3-2.1 0-3.5-.7-3.5-2.3 0-1.5 1.4-2.4 3.8-2.4h.9zm0 1.9h-.8c-1.6 0-2.8.4-2.8 1.5s1.1 1.4 2.5 1.4c.3 0 .7 0 1.1-.1z"/><path d="m235.5 994.8c-1 .2-1.9.3-2.7.3-2.3 0-3.6-.8-3.6-2.7v-5.3h1.1v5.2c0 1.5 1.2 1.9 2.4 1.9.5 0 1.2 0 1.7-.1v-7h1.1z"/><path d="m247.4 988.6c-.7-.5-1.5-.7-2.2-.7-1.6 0-3 1.1-3 3.1s1.4 3.1 3.1 3.1c.8 0 1.5-.3 2.3-.7v1.1c-.8.4-1.5.6-2.4.6-2.2 0-4.1-1.5-4.1-4.1s1.9-4.1 4.1-4.1c.9 0 1.5.2 2.3.6v1.1z"/><path d="m249.6 982.7h1.1v4.6c.6-.2 1.5-.4 2.3-.4 1.9 0 3.1.8 3.1 2.7v5.3h-1.1v-5.1c0-1.6-1.1-1.9-2.2-1.9-.8 0-1.6.2-2.1.4v6.7h-1.1z"/><path d="m262 986.9c2.3 0 3.9 1.7 3.9 4.1s-1.6 4.1-3.9 4.1-3.9-1.7-3.9-4.1 1.6-4.1 3.9-4.1zm0 .9c-1.7 0-2.8 1.3-2.8 3.2s1.2 3.2 2.8 3.2 2.8-1.3 2.8-3.2c.1-1.9-1.1-3.2-2.8-3.2z"/><path d="m267.8 984.6c0-.5.4-.8.8-.8.5 0 .8.4.8.8s-.4.8-.8.8-.8-.4-.8-.8zm1.3 10.3h-1.1v-7.9h1.1z"/><path d="m274.8 990.9 2.9 4.1h-1.2l-2.3-3.3-2.3 3.3h-1.2l2.9-4-2.8-3.8h1.2l2.2 3 2.1-3h1.2z"/></g><g enable-background="new" fill="#fff"><path d="m177.5 1005.7c.5-.1 1.3-.2 2.2-.2 1.1 0 1.9.3 2.5.7.5.4.8 1.1.8 1.8 0 .8-.2 1.4-.7 1.9-.6.6-1.6 1-2.7 1-.3 0-.7 0-.9-.1v3.5h-1.1v-8.6zm1.1 4.2c.2.1.6.1.9.1 1.4 0 2.2-.7 2.2-1.9s-.8-1.7-2.1-1.7c-.5 0-.9 0-1.1.1v3.4z"/><path d="m185.5 1005.5v3.7h4.2v-3.7h1.1v8.8h-1.1v-4.1h-4.2v4.1h-1.1v-8.8z"/><path d="m192.9 1005.7c.5-.1 1.3-.2 2.2-.2 1.1 0 1.9.3 2.5.7.5.4.8 1.1.8 1.8 0 .8-.2 1.4-.7 1.9-.6.6-1.6 1-2.7 1-.3 0-.7 0-.9-.1v3.5h-1.1v-8.6zm1.1 4.2c.2.1.6.1.9.1 1.4 0 2.2-.7 2.2-1.9s-.8-1.7-2.1-1.7c-.5 0-.9 0-1.1.1v3.4z"/><path d="m210 1009.8c0 3-1.8 4.6-4.1 4.6s-3.9-1.8-3.9-4.4c0-2.8 1.7-4.6 4.1-4.6s3.9 1.8 3.9 4.4zm-6.8.2c0 1.9 1 3.5 2.8 3.5s2.8-1.7 2.8-3.6c0-1.7-.9-3.6-2.8-3.6-1.8 0-2.8 1.8-2.8 3.7z"/><path d="m211.4 1014.3c0-.4.1-1.1.1-1.6v-7.6h1.1v4c.4-.7 1.1-1.2 2.1-1.2 1.6 0 2.7 1.3 2.7 3.2 0 2.3-1.4 3.4-2.8 3.4-.9 0-1.6-.4-2.1-1.2l-.1 1zm1.2-2.5c0 .1 0 .3.1.4.2.8.9 1.3 1.7 1.3 1.2 0 1.9-1 1.9-2.4 0-1.3-.6-2.3-1.9-2.3-.8 0-1.5.5-1.7 1.4 0 .1-.1.3-.1.5z"/><path d="m217.3 1016.1c.5 0 1-.2 1.2-.5.3-.4.4-.9.4-2.4v-5.3h1.1v5.7c0 1.2-.2 2-.8 2.6-.5.5-1.3.7-2 .7zm3-9.9c0 .4-.3.7-.7.7s-.7-.3-.7-.7.3-.7.7-.7.7.3.7.7z"/><path d="m222.7 1011.4c0 1.5 1 2.2 2.2 2.2.8 0 1.3-.1 1.7-.3l.2.8c-.4.2-1.1.4-2.1.4-1.9 0-3.1-1.3-3.1-3.2s1.1-3.4 3-3.4c2.1 0 2.6 1.8 2.6 3v.5zm3.3-.8c0-.7-.3-1.9-1.6-1.9-1.2 0-1.7 1.1-1.8 1.9z"/><path d="m229.9 1006.2v1.8h1.6v.9h-1.6v3.4c0 .8.2 1.2.9 1.2.3 0 .5 0 .7-.1l.1.9c-.2.1-.6.2-1 .2-.5 0-1-.2-1.2-.5-.3-.3-.4-.9-.4-1.6v-3.4h-1v-.9h1v-1.5z"/><path d="m243 1010.5c-.1-1.2-.1-2.7-.1-3.8-.3 1-.7 2.1-1.1 3.3l-1.5 4.3h-.9l-1.4-4.2c-.4-1.2-.8-2.4-1-3.4 0 1.1-.1 2.6-.2 3.9l-.2 3.8h-1.1l.6-8.8h1.4l1.5 4.2c.4 1.1.7 2 .9 3 .2-.9.5-1.8.9-3l1.6-4.2h1.4l.5 8.8h-1.1z"/><path d="m248 1014.3-2.9-8.8h1.2l1.4 4.3c.4 1.2.7 2.2.9 3.3.2-1 .6-2.1 1-3.3l1.5-4.3h1.2l-3.1 8.8z"/><path d="m259.5 1014c-.4.2-1.2.4-2.3.4-2.5 0-4.3-1.6-4.3-4.4 0-2.7 1.9-4.6 4.6-4.6 1.1 0 1.8.2 2.1.4l-.3.9c-.4-.2-1-.4-1.8-.4-2.1 0-3.4 1.3-3.4 3.6 0 2.1 1.2 3.5 3.4 3.5.7 0 1.4-.1 1.8-.4z"/></g><g enable-background="new" fill="#fff"><path d="m177.5 1024.2h.8v6.4c0 1.1-.5 1.8-1.7 1.8-.3 0-.6-.1-.9-.2v-.7c.2.1.5.2.9.2.6 0 .9-.3.9-1.1zm-.2-1.7c0-.3.3-.6.6-.6s.6.3.6.6-.3.6-.6.6-.6-.3-.6-.6z"/><path d="m183.1 1025.9c0-.7-.5-1.1-1.2-1.1s-1.1.2-1.7.5v-.7c.5-.3 1.1-.4 1.8-.4 1.1 0 1.9.5 1.9 1.8v3.9c-.5.1-1.1.2-1.6.2-1.5 0-2.6-.5-2.6-1.7 0-1.1 1-1.7 2.8-1.7h.6zm0 1.4h-.6c-1.2 0-2 .3-2 1.1s.8 1 1.8 1c.2 0 .5 0 .8-.1z"/><path d="m187.1 1029.9-2.2-5.7h.8l1.8 4.9 1.8-4.9h.8l-2.2 5.7z"/><path d="m194.2 1025.9c0-.7-.5-1.1-1.2-1.1s-1.1.2-1.7.5v-.7c.5-.3 1.1-.4 1.8-.4 1.1 0 1.9.5 1.9 1.8v3.9c-.5.1-1.1.2-1.6.2-1.5 0-2.6-.5-2.6-1.7 0-1.1 1-1.7 2.8-1.7h.6zm0 1.4h-.6c-1.2 0-2 .3-2 1.1s.8 1 1.8 1c.2 0 .5 0 .8-.1z"/></g><path d="m178.3 1043.4-.8 2.1h-.8l3-7.7h1l3 7.7h-.9l-.8-2.1zm1.8-5-1.6 4.3h3.2z" fill="#fff"/><g enable-background="new" fill="#fff"><path d="m184.8 1040.1c.8-.3 1.6-.4 2.4-.4 1.4 0 2.3.6 2.3 2v3.8h-.8v-3.7c0-1.2-.8-1.4-1.6-1.4-.6 0-1.1.1-1.5.2v4.9h-.8z"/><path d="m195.3 1045.3c-.2.1-.7.2-1.2.2-1.9 0-3.2-1-3.2-2.9 0-1.8 1.3-2.9 3.3-2.9.6 0 1.4.2 1.8.4v5.5c0 1.7-1.3 2.4-2.6 2.4-.7 0-1.3-.2-1.8-.4v-.7c.5.2 1.1.4 1.8.4.9 0 1.8-.5 1.8-1.9v-.1zm0-4.7c-.3-.1-.7-.2-1.1-.2-1.6 0-2.5.8-2.5 2.2s.9 2.2 2.4 2.2c.5 0 .8-.1 1.2-.2z"/><path d="m202.5 1045.4c-.7.1-1.4.2-2 .2-1.6 0-2.6-.6-2.6-2v-3.8h.8v3.8c0 1.1.8 1.3 1.7 1.3.4 0 .8 0 1.2-.1v-5h.8v5.6z"/><path d="m205.2 1045.5h-.8v-8.8h.8z"/><path d="m210.1 1041.5c0-.7-.5-1.1-1.2-1.1s-1.1.2-1.7.5v-.7c.5-.3 1.1-.4 1.8-.4 1.1 0 1.9.5 1.9 1.8v3.9c-.5.1-1.1.2-1.6.2-1.5 0-2.6-.5-2.6-1.7 0-1.1 1-1.7 2.8-1.7h.6zm0 1.4h-.6c-1.2 0-2 .3-2 1.1s.8 1 1.8 1c.2 0 .5 0 .8-.1z"/><path d="m213.5 1045.5h-.8v-5.1c.6-.4 1.3-.6 2.1-.6.3 0 .6 0 .9.1v.8c-.3-.1-.7-.1-1-.1-.6 0-1 .1-1.3.3v4.6z"/><path d="m218.7 1044.1c.5.6 1.1.9 1.7.9.8 0 1.1-.4 1.1-1.4v-5.8h.8v5.9c0 1.3-.7 2-1.9 2-.7 0-1.3-.3-1.7-.7z"/><path d="m223.8 1044.2c.6.5 1.2.8 2 .8.9 0 1.7-.4 1.7-1.4 0-.9-.7-1.3-1.6-1.6-1.4-.5-2.1-1-2.1-2.3s1.1-2 2.2-2c.8 0 1.4.2 1.8.6v.8c-.6-.5-1.1-.8-1.8-.8-.9 0-1.5.5-1.5 1.3 0 .7.4 1.1 1.6 1.5 1.4.5 2.2 1 2.2 2.4s-1.1 2.1-2.5 2.1c-.8 0-1.5-.2-2-.6z"/></g><path d="m181.9 1053.4 1.7 7 1.8-7h.8l-2.1 7.7h-1.1l-1.7-6.8-1.7 6.8h-1.1l-2.1-7.7h.8l1.8 7 1.7-7z" fill="#fff"/><g enable-background="new" fill="#fff"><path d="m187.5 1058.3c0 1.4 1 2.2 2.1 2.2.8 0 1.4-.2 1.9-.6v.8c-.5.4-1.2.5-1.9.5-1.6 0-2.9-1.1-2.9-3 0-1.7 1.2-3 2.7-3 1.4 0 2.4.9 2.4 2.5v.5h-4.3zm3.5-.6c-.1-1.2-.7-1.7-1.6-1.7s-1.6.6-1.8 1.7z"/><path d="m193.3 1052.3h.8v3.3c.2-.1.8-.3 1.4-.3 1.7 0 3 1 3 2.9 0 1.8-1.3 3-3.3 3-.6 0-1.3-.1-1.8-.3v-8.6zm.8 8.1c.3.1.7.1 1.1.1 1.5 0 2.5-.9 2.5-2.3 0-1.5-1-2.2-2.2-2.2-.6 0-1 .1-1.4.3z"/><path d="m209.6 1057.3c0-1.1-.7-1.3-1.3-1.3-.7 0-1.3.2-1.7.3.1.2.2.6.2.9v3.8h-.8v-3.8c0-1.1-.7-1.3-1.3-1.3s-1.1.1-1.5.3v4.8h-.8v-5.3c.7-.3 1.5-.5 2.3-.5.7 0 1.2.1 1.5.4.7-.3 1.4-.4 2.1-.4 1.4 0 2.1.6 2.1 2v3.8h-.8z"/><path d="m214.7 1055.3c1.7 0 2.8 1.2 2.8 3s-1.2 3-2.8 3-2.8-1.2-2.8-3 1.1-3 2.8-3zm0 .7c-1.2 0-2.1.9-2.1 2.3s.9 2.3 2.1 2.3 2.1-.9 2.1-2.3-.9-2.3-2.1-2.3z"/><path d="m219.1 1052.3h.8v3.3c.2-.1.8-.3 1.4-.3 1.7 0 3 1 3 2.9 0 1.8-1.3 3-3.3 3-.6 0-1.3-.1-1.8-.3v-8.6zm.8 8.1c.3.1.7.1 1.1.1 1.5 0 2.5-.9 2.5-2.3 0-1.5-1-2.2-2.2-2.2-.6 0-1 .1-1.4.3z"/><path d="m225.5 1053.7c0-.3.3-.6.6-.6s.6.3.6.6-.3.6-.6.6-.6-.3-.6-.6zm1 7.4h-.8v-5.7h.8z"/><path d="m229.2 1061.1h-.8v-8.8h.8z"/><path d="m231.5 1058.3c0 1.4 1 2.2 2.1 2.2.8 0 1.4-.2 1.9-.6v.8c-.5.4-1.2.5-1.9.5-1.6 0-2.9-1.1-2.9-3 0-1.7 1.2-3 2.7-3 1.4 0 2.4.9 2.4 2.5v.5h-4.3zm3.5-.6c-.1-1.2-.7-1.7-1.6-1.7s-1.6.6-1.8 1.7z"/></g><g enable-background="new" fill="#fff"><path d="m177 1075.4c.6.5 1.2.8 2 .8.9 0 1.7-.4 1.7-1.4 0-.9-.7-1.3-1.6-1.6-1.4-.5-2.1-1-2.1-2.3s1.1-2 2.2-2c.8 0 1.4.2 1.8.6v.8c-.6-.5-1.1-.8-1.8-.8-.9 0-1.5.5-1.5 1.3 0 .7.4 1.1 1.6 1.5 1.4.5 2.2 1 2.2 2.4s-1.1 2.1-2.5 2.1c-.8 0-1.5-.2-2-.6z"/><path d="m184.9 1076.2 1.9-5.2h.8l-3.1 8h-.8l.8-2-2.4-6h.9z"/><path d="m195.8 1072.9c0-1.1-.7-1.3-1.3-1.3-.7 0-1.3.2-1.7.3.1.2.2.6.2.9v3.8h-.8v-3.8c0-1.1-.7-1.3-1.3-1.3s-1.1.1-1.5.3v4.8h-.8v-5.3c.7-.3 1.5-.5 2.3-.5.7 0 1.2.1 1.5.4.7-.3 1.4-.4 2.1-.4 1.4 0 2.1.6 2.1 2v3.8h-.8z"/><path d="m199.4 1076.7h-.8v-5h-.9v-.7h.9v-1.4c0-1.2.6-1.9 1.7-1.9.4 0 .7.1 1 .3v.7c-.3-.2-.6-.3-1-.3-.6 0-1 .3-1 1.2v1.4h1.6v.7h-1.6v5z"/><path d="m204.4 1070.9c1.7 0 2.8 1.2 2.8 3s-1.2 3-2.8 3c-1.7 0-2.8-1.2-2.8-3s1.1-3 2.8-3zm0 .7c-1.2 0-2.1.9-2.1 2.3s.9 2.3 2.1 2.3 2.1-.9 2.1-2.3-.9-2.3-2.1-2.3z"/><path d="m208.8 1071.3c.8-.3 1.6-.4 2.4-.4 1.4 0 2.3.6 2.3 2v3.8h-.8v-3.7c0-1.2-.8-1.4-1.6-1.4-.6 0-1.1.1-1.5.2v4.9h-.8z"/><path d="m217.2 1076.2 1.9-5.2h.8l-3.1 8h-.8l.8-2-2.4-6h.9z"/></g><g enable-background="new" fill="#fff"><path d="m176.7 1090.9c.5.6 1.1.9 1.7.9.8 0 1.1-.4 1.1-1.4v-5.8h.8v5.9c0 1.3-.7 2-1.9 2-.7 0-1.3-.3-1.7-.7z"/><path d="m185.1 1088.3c0-.7-.5-1.1-1.2-1.1s-1.1.2-1.7.5v-.7c.5-.3 1.1-.4 1.8-.4 1.1 0 1.9.5 1.9 1.8v3.9c-.5.1-1.1.2-1.6.2-1.5 0-2.6-.5-2.6-1.7 0-1.1 1-1.7 2.8-1.7h.6zm0 1.4h-.6c-1.2 0-2 .3-2 1.1s.8 1 1.8 1c.2 0 .5 0 .8-.1z"/><path d="m189.1 1092.3-2.2-5.7h.8l1.8 4.9 1.8-4.9h.8l-2.2 5.7z"/><path d="m196.2 1088.3c0-.7-.5-1.1-1.2-1.1s-1.1.2-1.7.5v-.7c.5-.3 1.1-.4 1.8-.4 1.1 0 1.9.5 1.9 1.8v3.9c-.5.1-1.1.2-1.6.2-1.5 0-2.6-.5-2.6-1.7 0-1.1 1-1.7 2.8-1.7h.6zm0 1.4h-.6c-1.2 0-2 .3-2 1.1s.8 1 1.8 1c.2 0 .5 0 .8-.1z"/><path d="m198.4 1091c.6.5 1.2.8 2 .8.9 0 1.7-.4 1.7-1.4 0-.9-.7-1.3-1.6-1.6-1.4-.5-2.1-1-2.1-2.3s1.1-2 2.2-2c.8 0 1.4.2 1.8.6v.8c-.6-.5-1.1-.8-1.8-.8-.9 0-1.5.5-1.5 1.3 0 .7.4 1.1 1.6 1.5 1.4.5 2.2 1 2.2 2.4s-1.1 2.1-2.5 2.1c-.8 0-1.5-.2-2-.6z"/><path d="m208.5 1087.8c-.5-.3-1.1-.5-1.6-.5-1.2 0-2.2.8-2.2 2.3 0 1.4 1 2.2 2.2 2.2.6 0 1.1-.2 1.6-.5v.8c-.6.3-1.1.4-1.7.4-1.6 0-3-1.1-3-3s1.4-3 2.9-3c.6 0 1.1.1 1.6.4v.9z"/><path d="m210.9 1092.3h-.8v-5.1c.6-.4 1.3-.6 2.1-.6.3 0 .6 0 .9.1v.8c-.3-.1-.7-.1-1-.1-.6 0-1 .1-1.3.3v4.6z"/><path d="m214.2 1084.9c0-.3.3-.6.6-.6s.6.3.6.6-.3.6-.6.6-.6-.3-.6-.6zm1 7.4h-.8v-5.7h.8z"/><path d="m217.1 1086.9c.5-.2 1.2-.4 2-.4 2 0 3.1 1 3.1 3 0 1.8-1.2 3-3.1 3-.5 0-.9-.1-1.2-.2v2.4h-.8zm.8 4.6c.4.2.8.2 1.2.2 1.4 0 2.3-.8 2.3-2.3 0-1.4-.8-2.2-2.3-2.2-.4 0-.9.1-1.2.2z"/><path d="m223 1086.6h.9v-1.4h.8v1.4h1.6v.7h-1.6v3.5c0 .7.3 1 .8 1 .4 0 .7-.1 1.1-.3v.7c-.3.2-.7.3-1.2.3-.8 0-1.4-.4-1.4-1.6v-3.5h-1z"/></g><g enable-background="new" fill="#fff"><path d="m173.4 659.6h-3.7v-21.3c1.4-.2 3.5-.4 5.3-.4 5.6 0 8.7 2.6 8.7 7.3 0 5-3.7 7.3-8.7 7.3-.5 0-1.2 0-1.6-.1zm0-10.4c.3 0 .9.1 1.4.1 3.4 0 5.2-1.3 5.2-4.2 0-2.5-1.7-4-5-4-.4 0-1.1 0-1.5.1v8z"/><path d="m201.9 638.2h3.7v21.4h-3.7v-9.1h-11.1v9.1h-3.7v-21.4h3.7v9h11.1z"/><path d="m214.1 654.5-1.9 5h-3.9l8.3-21.4h4.5l8.4 21.4h-4l-1.9-5zm4.8-12.9-3.7 9.9h7.3z"/><path d="m231.3 654.6c1.7 1.3 3.4 2.2 5.7 2.2 2.1 0 4-.8 4-3 0-2-1.5-2.7-3.9-3.5-4.1-1.3-6-2.9-6-6.5 0-3.9 3.1-6 6.8-6 2.3 0 4 .6 5.5 1.6v3.7c-1.7-1.4-3.3-2.2-5.4-2.2s-3.3 1.1-3.3 2.8 1.2 2.4 3.9 3.3c4.2 1.3 6 3 6 6.7 0 4.3-3.4 6.2-7.5 6.2-2.3 0-4.3-.6-5.7-1.6v-3.7z"/><path d="m261.7 656.3v3.2h-13.3v-21.4h13.1v3.2h-9.4v5.8h8.7v3.2h-8.7v6z"/><path d="m284.8 656.3v3.2h-14.1v-2.7c5.1-4.4 9.8-8.4 9.8-12.3 0-2.3-1.4-3.3-3.5-3.3-2.3 0-4.3 1.3-5.7 2.6v-3.6c1.5-1.4 3.7-2.4 6.4-2.4 3.7 0 6.6 2.1 6.6 6.3 0 4.4-4.2 8.8-8.9 12.2z"/></g><path d="m169.9 684-1.1 3h-1.2l4.1-10.7h1.4l4.2 10.7h-1.2l-1.1-3zm2.6-6.9-2.2 5.9h4.5z" fill="#fff"/><path d="m180.2 676.2h1.1v9.7h4.6v1h-5.7z" fill="#fff"/><g enable-background="new" fill="#fff"><path d="m190.5 686.9h-1.1v-9.7h-3.5v-1h8.2v1h-3.5v9.7z"/><path d="m201.9 685.9v1h-6.2v-10.7h6.1v1h-5v3.8h4.6v1h-4.6v4h5.1z"/><path d="m205.5 686.9h-1.1v-10.7c.5-.1 1.4-.2 2-.2 2.9 0 4.2 1.3 4.2 3.3 0 1.6-.9 2.8-2.3 3.2l3.5 4.4h-1.4l-3.3-4.1h-1.6zm0-5h1.1c1.8 0 2.8-.8 2.8-2.5 0-1.4-.8-2.4-3-2.4-.2 0-.6 0-.9 0z"/><path d="m220.8 685.3v-9.1h1.1v10.7h-1.1l-6.4-9.1v9.1h-1.1v-10.7h1.2z"/><path d="m225.9 684-1.1 3h-1.2l4.1-10.7h1.4l4.2 10.7h-1.2l-1.1-3zm2.5-6.9-2.2 5.9h4.5z"/><path d="m242.5 685.3v-9.1h1.1v10.7h-1.1l-6.4-9.1v9.1h-1.1v-10.7h1.2z"/><path d="m254.4 678.1c-.8-.7-1.8-1.1-3-1.1-2.4 0-4.4 1.8-4.4 4.5s2 4.5 4.4 4.5c1.1 0 2.3-.3 3-1.1v1.3c-.8.5-1.9.8-3 .8-3.2 0-5.5-2.3-5.5-5.5 0-3.3 2.4-5.5 5.5-5.5 1.1 0 2.1.3 3 .8z"/><path d="m262.9 685.9v1h-6.2v-10.7h6.1v1h-5v3.8h4.6v1h-4.6v4h5.1z"/></g><path d="m170.4 703c-1.2-1.1-2.1-2.8-2.1-4.9s.9-3.8 2.1-4.9h.8c-1.2 1.2-2.3 2.7-2.3 4.9s1 3.7 2.3 4.9z" fill="#fff"/><path d="m177.2 695.5c-.5-.5-1.2-.7-2-.7-1.6 0-2.9 1.2-2.9 3s1.3 3 2.9 3c.8 0 1.5-.2 2-.7v.9c-.6.3-1.3.5-2 .5-2.2 0-3.7-1.5-3.7-3.7s1.6-3.7 3.7-3.7c.7 0 1.4.2 2 .5z" fill="#fff"/><g enable-background="new" fill="#fff"><path d="m181 696c1.6 0 2.6 1.1 2.6 2.7s-1.1 2.7-2.6 2.7-2.6-1.1-2.6-2.7 1-2.7 2.6-2.7zm0 .6c-1.1 0-1.9.8-1.9 2.1s.8 2.1 1.9 2.1 1.9-.8 1.9-2.1-.8-2.1-1.9-2.1z"/><path d="m185 696.4c.7-.3 1.5-.4 2.2-.4 1.3 0 2.1.5 2.1 1.8v3.5h-.7v-3.4c0-1.1-.8-1.3-1.5-1.3-.6 0-1 .1-1.4.2v4.5h-.7z"/><path d="m190.4 696.1h.8v-1.3h.7v1.3h1.5v.6h-1.5v3.2c0 .7.3.9.8.9.3 0 .6-.1 1-.3v.6c-.3.2-.7.3-1.1.3-.8 0-1.3-.4-1.3-1.5v-3.3h-.8v-.5z"/></g><path d="m195.6 701.3h-.7v-4.7c.6-.3 1.2-.6 1.9-.6.3 0 .6 0 .9.1v.7c-.3-.1-.7-.1-.9-.1-.5 0-.9.1-1.2.3z" fill="#fff"/><g enable-background="new" fill="#fff"><path d="m201.4 697.7c0-.7-.4-1-1.1-1-.6 0-1.1.2-1.5.4v-.7c.4-.2 1-.4 1.6-.4 1.1 0 1.7.5 1.7 1.6v3.6c-.5.1-1 .2-1.5.2-1.4 0-2.4-.4-2.4-1.5 0-1 .9-1.6 2.5-1.6h.6v-.6zm0 1.2h-.5c-1.1 0-1.9.3-1.9 1s.7.9 1.7.9c.2 0 .5 0 .7-.1z"/><path d="m203.1 696.1h.8v-1.3h.7v1.3h1.5v.6h-1.5v3.2c0 .7.3.9.8.9.3 0 .6-.1 1-.3v.6c-.3.2-.7.3-1.1.3-.8 0-1.3-.4-1.3-1.5v-3.3h-.8v-.5z"/><path d="m209.9 696.3c.5-.2 1.2-.3 1.8-.3 1.8 0 2.9.9 2.9 2.7 0 1.7-1.1 2.7-2.8 2.7-.4 0-.9-.1-1.2-.2v2.3h-.7zm.8 4.3c.3.1.7.2 1.2.2 1.3 0 2.1-.8 2.1-2.1s-.8-2.1-2.2-2.1c-.4 0-.8 0-1.1.1z"/></g><path d="m216.8 701.3h-.7v-4.7c.6-.3 1.2-.6 1.9-.6.3 0 .6 0 .9.1v.7c-.3-.1-.7-.1-.9-.1-.5 0-.9.1-1.2.3z" fill="#fff"/><g enable-background="new" fill="#fff"><path d="m222.1 696c1.6 0 2.6 1.1 2.6 2.7s-1.1 2.7-2.6 2.7c-1.6 0-2.6-1.1-2.6-2.7s1-2.7 2.6-2.7zm0 .6c-1.1 0-1.9.8-1.9 2.1s.8 2.1 1.9 2.1 1.9-.8 1.9-2.1-.8-2.1-1.9-2.1z"/><path d="m227 701.3h-.7v-4.6h-.8v-.6h.8v-1.3c0-1.1.6-1.7 1.6-1.7.4 0 .7.1.9.3v.7c-.3-.2-.5-.3-.9-.3-.6 0-.9.3-.9 1.1v1.3h1.4v.6h-1.4z"/></g><path d="m229.7 698.7c0 1.3.9 2.1 1.9 2.1.7 0 1.3-.2 1.8-.6v.7c-.5.3-1.1.5-1.8.5-1.5 0-2.7-1-2.7-2.7 0-1.6 1.1-2.7 2.5-2.7 1.3 0 2.2.8 2.2 2.3v.5h-3.9zm3.2-.6c0-1.1-.6-1.5-1.5-1.5-.8 0-1.5.6-1.7 1.5z" fill="#fff"/><g enable-background="new" fill="#fff"><path d="m234.7 700.2c.4.4.9.6 1.5.6.7 0 1.1-.3 1.1-.8 0-.6-.5-.8-1.3-1.1-.9-.3-1.3-.7-1.3-1.5 0-.9.7-1.4 1.6-1.4.5 0 1 .1 1.4.4v.8c-.4-.3-.8-.6-1.4-.6s-.9.3-.9.8.3.7 1.1 1c.9.3 1.5.6 1.5 1.6s-.8 1.5-1.8 1.5c-.6 0-1.2-.2-1.5-.4z"/><path d="m239.1 700.2c.4.4.9.6 1.5.6.7 0 1.1-.3 1.1-.8 0-.6-.5-.8-1.3-1.1-.9-.3-1.3-.7-1.3-1.5 0-.9.7-1.4 1.6-1.4.5 0 1 .1 1.4.4v.8c-.4-.3-.8-.6-1.4-.6s-.9.3-.9.8.3.7 1.1 1c.9.3 1.5.6 1.5 1.6s-.8 1.5-1.8 1.5c-.6 0-1.2-.2-1.5-.4z"/><path d="m243.7 694.4c0-.3.3-.5.5-.5.3 0 .5.2.5.5s-.2.5-.5.5c-.3.1-.5-.2-.5-.5zm.9 6.9h-.7v-5.2h.7z"/><path d="m248.6 696c1.6 0 2.6 1.1 2.6 2.7s-1.1 2.7-2.6 2.7c-1.6 0-2.6-1.1-2.6-2.7s1-2.7 2.6-2.7zm0 .6c-1.1 0-1.9.8-1.9 2.1s.8 2.1 1.9 2.1 1.9-.8 1.9-2.1-.8-2.1-1.9-2.1z"/><path d="m252.6 696.4c.7-.3 1.5-.4 2.2-.4 1.3 0 2.1.5 2.1 1.8v3.5h-.7v-3.4c0-1.1-.8-1.3-1.5-1.3-.6 0-1 .1-1.4.2v4.5h-.7z"/><path d="m261.4 697.7c0-.7-.4-1-1.1-1-.6 0-1.1.2-1.5.4v-.7c.4-.2 1-.4 1.6-.4 1.1 0 1.7.5 1.7 1.6v3.6c-.5.1-1 .2-1.5.2-1.4 0-2.4-.4-2.4-1.5 0-1 .9-1.6 2.5-1.6h.6v-.6zm0 1.2h-.5c-1.1 0-1.9.3-1.9 1s.7.9 1.7.9c.2 0 .5 0 .7-.1z"/><path d="m264.6 701.3h-.7v-8.2h.7z"/><path d="m266.2 694.4c0-.3.3-.5.5-.5.3 0 .5.2.5.5s-.2.5-.5.5c-.3.1-.5-.2-.5-.5zm.9 6.9h-.7v-5.2h.7z"/></g><path d="m268.6 700.2c.4.4.9.6 1.5.6.7 0 1.1-.3 1.1-.8 0-.6-.5-.8-1.3-1.1-.9-.3-1.3-.7-1.3-1.5 0-.9.7-1.4 1.6-1.4.5 0 1 .1 1.4.4v.8c-.4-.3-.8-.6-1.4-.6s-.9.3-.9.8.3.7 1.1 1c.9.3 1.5.6 1.5 1.6s-.8 1.5-1.8 1.5c-.6 0-1.2-.2-1.5-.4z" fill="#fff"/><g enable-background="new" fill="#fff"><path d="m276 697.7c0-.7-.4-1-1.1-1-.6 0-1.1.2-1.5.4v-.7c.4-.2 1-.4 1.6-.4 1.1 0 1.7.5 1.7 1.6v3.6c-.5.1-1 .2-1.5.2-1.4 0-2.4-.4-2.4-1.5 0-1 .9-1.6 2.5-1.6h.6v-.6zm0 1.2h-.5c-1.1 0-1.9.3-1.9 1s.7.9 1.7.9c.2 0 .5 0 .7-.1z"/><path d="m277.8 696.1h.8v-1.3h.7v1.3h1.5v.6h-1.5v3.2c0 .7.3.9.8.9.3 0 .6-.1 1-.3v.6c-.3.2-.7.3-1.1.3-.8 0-1.3-.4-1.3-1.5v-3.3h-.8v-.5z"/><path d="m282.1 694.4c0-.3.3-.5.5-.5.3 0 .5.2.5.5s-.2.5-.5.5c-.3.1-.5-.2-.5-.5zm.9 6.9h-.7v-5.2h.7z"/><path d="m287 696c1.6 0 2.6 1.1 2.6 2.7s-1.1 2.7-2.6 2.7c-1.6 0-2.6-1.1-2.6-2.7s1.1-2.7 2.6-2.7zm0 .6c-1.1 0-1.9.8-1.9 2.1s.8 2.1 1.9 2.1 1.9-.8 1.9-2.1-.8-2.1-1.9-2.1z"/><path d="m291.1 696.4c.7-.3 1.5-.4 2.2-.4 1.3 0 2.1.5 2.1 1.8v3.5h-.7v-3.4c0-1.1-.8-1.3-1.5-1.3-.6 0-1 .1-1.4.2v4.5h-.7z"/><path d="m297.1 693.2c1.2 1.1 2.1 2.8 2.1 4.9s-.9 3.8-2.1 4.9h-.8c1.2-1.2 2.3-2.7 2.3-4.9s-1-3.7-2.3-4.9z"/></g><g enable-background="new" fill="#fff"><path d="m167.8 712.6 3.3-.6v10.9h-1.1v-9.6l-2.2.3z"/><path d="m179.9 721.9v1h-6.8v-.8c2.8-2.3 5.4-4.6 5.4-7 0-1.4-.8-2-2-2-1.4 0-2.3.7-3 1.4v-1.2c.6-.7 1.7-1.2 3-1.2 1.7 0 3.1.9 3.1 3 0 2.4-2.6 5-5.1 6.9h5.4z"/><path d="m198.7 717.7c0-1.5-1-1.8-1.8-1.8-.9 0-1.8.2-2.3.5.1.3.2.8.2 1.3v5.3h-1.1v-5.3c0-1.5-1-1.8-1.9-1.8s-1.6.2-2.1.4v6.7h-1.1v-7.3c1-.4 2.1-.7 3.2-.7.9 0 1.6.2 2.1.6.9-.4 1.9-.6 2.9-.6 1.9 0 2.9.8 2.9 2.7v5.3h-1.1v-5.3z"/><path d="m205.8 714.9c2.3 0 3.9 1.7 3.9 4.1s-1.6 4.1-3.9 4.1-3.9-1.7-3.9-4.1 1.5-4.1 3.9-4.1zm0 .9c-1.7 0-2.8 1.3-2.8 3.2s1.2 3.2 2.8 3.2c1.7 0 2.8-1.3 2.8-3.2s-1.2-3.2-2.8-3.2z"/><path d="m211.5 712.6c0-.5.4-.8.8-.8.5 0 .8.4.8.8s-.4.8-.8.8-.8-.4-.8-.8zm1.4 10.3h-1.1v-7.9h1.1z"/><path d="m215.1 721.2c.7.6 1.4.9 2.2.9 1 0 1.6-.4 1.6-1.3s-.7-1.2-1.9-1.6c-1.4-.5-2-1-2-2.3 0-1.4 1-2.1 2.5-2.1.8 0 1.5.2 2.1.6v1.2c-.6-.5-1.2-.8-2.1-.8s-1.4.5-1.4 1.2.4 1.1 1.6 1.5c1.4.4 2.3.9 2.3 2.4s-1.2 2.3-2.7 2.3c-.9 0-1.7-.3-2.2-.6z"/></g><g enable-background="new" fill="#fff"><path d="m169.6 737.9c2.4.3 4.4 1.2 4.4 3.6 0 1.6-1.2 3.2-3.7 3.2-.9 0-1.8-.3-2.4-.7v-1c.8.5 1.6.8 2.4.8 1.7 0 2.6-.9 2.6-2.2 0-1.9-1.8-2.5-4.3-2.8l.3-4.9h4.8v1h-3.9z"/><path d="m182.3 743.5v1h-6.8v-.8c2.8-2.3 5.4-4.6 5.4-7 0-1.4-.8-2-2-2-1.4 0-2.3.7-3 1.4v-1.2c.6-.7 1.7-1.2 3-1.2 1.7 0 3.1.9 3.1 3 0 2.4-2.6 5-5.1 6.9h5.4z"/></g><g enable-background="new" fill="#fff"><path d="m185.1 737.9c2.4.3 4.4 1.2 4.4 3.6 0 1.6-1.2 3.2-3.7 3.2-.9 0-1.8-.3-2.4-.7v-1c.8.5 1.6.8 2.4.8 1.7 0 2.6-.9 2.6-2.2 0-1.9-1.8-2.5-4.3-2.8l.3-4.9h4.8v1h-3.9z"/><path d="m191.6 732.3h1.1v4.6c.6-.2 1.5-.4 2.3-.4 1.9 0 3.1.8 3.1 2.7v5.3h-1.1v-5.1c0-1.6-1.1-1.9-2.2-1.9-.8 0-1.6.2-2.1.4v6.7h-1.1z"/><path d="m204.6 740.6c0 2 1.4 3.1 2.9 3.1 1.1 0 1.9-.3 2.7-.9v1.1c-.7.5-1.7.8-2.7.8-2.3 0-4-1.5-4-4.1 0-2.4 1.6-4.1 3.7-4.1 2 0 3.3 1.2 3.3 3.4v.7zm4.8-.9c-.1-1.6-1-2.3-2.3-2.3-1.2 0-2.2.8-2.5 2.3z"/><path d="m212.6 737.1c1-.4 2.2-.6 3.3-.6 2 0 3.2.8 3.2 2.7v5.3h-1.1v-5.1c0-1.6-1.1-1.9-2.2-1.9-.8 0-1.6.1-2.1.3v6.7h-1.1z"/><path d="m225.1 737c.7-.3 1.7-.5 2.7-.5 2.7 0 4.3 1.4 4.3 4.1 0 2.6-1.7 4.1-4.3 4.1-.6 0-1.3-.1-1.7-.3v3.4h-1.1v-10.8zm1.1 6.4c.5.2 1.1.3 1.7.3 1.9 0 3.2-1.2 3.2-3.2 0-1.9-1.2-3.1-3.2-3.1-.6 0-1.2.1-1.7.2z"/></g><path d="m235.3 744.5h-1.1v-7.1c.8-.5 1.8-.8 2.9-.8.4 0 .9.1 1.3.2v1.1c-.5-.2-1-.2-1.4-.2-.8 0-1.4.2-1.8.4v6.4z" fill="#fff"/><path d="m240.4 740.6c0 2 1.4 3.1 2.9 3.1 1.1 0 1.9-.3 2.7-.9v1.1c-.7.5-1.7.8-2.7.8-2.3 0-4-1.5-4-4.1 0-2.4 1.6-4.1 3.7-4.1 2 0 3.3 1.2 3.3 3.4v.7zm4.9-.9c-.1-1.6-1-2.3-2.3-2.3-1.2 0-2.2.8-2.5 2.3zm-2.8-4.4 1.5-2.7h1.1l-1.5 2.7z" fill="#fff"/><path d="m248.1 742.8c.7.6 1.3.9 2.2.9 1 0 1.6-.4 1.6-1.3s-.7-1.2-1.9-1.6c-1.4-.5-2-1-2-2.3 0-1.4 1-2.1 2.5-2.1.8 0 1.5.2 2.1.6v1.2c-.6-.5-1.2-.8-2.1-.8s-1.4.5-1.4 1.2.4 1.1 1.6 1.5c1.4.4 2.3.9 2.3 2.4s-1.2 2.3-2.7 2.3c-.9 0-1.7-.3-2.2-.6z" fill="#fff"/><g enable-background="new" fill="#fff"><path d="m255.5 740.6c0 2 1.4 3.1 2.9 3.1 1.1 0 1.9-.3 2.7-.9v1.1c-.7.5-1.7.8-2.7.8-2.3 0-4-1.5-4-4.1 0-2.4 1.6-4.1 3.7-4.1 2 0 3.3 1.2 3.3 3.4v.7zm4.9-.9c-.1-1.6-1-2.3-2.3-2.3-1.2 0-2.2.8-2.5 2.3z"/><path d="m263.5 737.1c1-.4 2.2-.6 3.3-.6 2 0 3.2.8 3.2 2.7v5.3h-1.1v-5.1c0-1.6-1.1-1.9-2.2-1.9-.8 0-1.6.1-2.1.3v6.7h-1.1z"/><path d="m271.5 736.7h1.2v-1.9h1.1v1.9h2.2v.9h-2.2v4.8c0 1 .4 1.4 1.1 1.4.5 0 .9-.2 1.5-.4v1c-.5.2-1 .4-1.7.4-1.1 0-2-.6-2-2.2v-4.9h-1.2z"/><path d="m278 734.2c0-.5.4-.8.8-.8.5 0 .8.4.8.8s-.4.8-.8.8-.8-.4-.8-.8zm1.4 10.3h-1.1v-7.9h1.1z"/><path d="m282.5 740.6c0 2 1.4 3.1 2.9 3.1 1.1 0 1.9-.3 2.7-.9v1.1c-.7.5-1.7.8-2.7.8-2.3 0-4-1.5-4-4.1 0-2.4 1.6-4.1 3.7-4.1 2 0 3.3 1.2 3.3 3.4v.7zm4.9-.9c-.1-1.6-1-2.3-2.3-2.3-1.2 0-2.2.8-2.5 2.3z"/><path d="m291.6 744.5h-1.1v-12.2h1.1z"/></g><g enable-background="new" fill="#fff"><path d="m67.1 164.9h-1.1v-10.7c.5-.1 1.3-.2 1.9-.2 3 0 4.2 1.4 4.2 3.4 0 2.3-1.6 3.5-4.3 3.5-.2 0-.5 0-.7 0zm0-4.9h.6c2.2 0 3.3-.8 3.3-2.6 0-1.4-.8-2.4-3.1-2.4-.2 0-.5 0-.7 0v5z"/><path d="m75.2 164.9h-1.1v-10.7c.5-.1 1.4-.2 2-.2 2.9 0 4.2 1.3 4.2 3.3 0 1.6-.9 2.8-2.3 3.2l3.5 4.4h-1.4l-3.3-4.1h-1.6zm0-5h1.1c1.8 0 2.8-.8 2.8-2.5 0-1.4-.8-2.4-3-2.4-.2 0-.6 0-.9 0z"/></g><path d="m91 163.9v1h-6.2v-10.7h6.1v1h-5v3.8h4.6v1h-4.5v4h5zm-3.5-10.6 1.3-2.4h1.1l-1.3 2.4z" fill="#fff"/><g enable-background="new" fill="#fff"><path d="m93.2 163c.9.7 1.6 1.1 2.7 1.1 1.3 0 2.4-.6 2.4-2 0-1.3-1-1.8-2.2-2.2-1.9-.7-2.9-1.3-2.9-3.2 0-1.8 1.5-2.8 3.1-2.8 1 0 1.9.3 2.6.8v1.2c-.9-.7-1.6-1-2.6-1-1.2 0-2 .7-2 1.8 0 1 .6 1.5 2.2 2.1 2 .7 3 1.4 3 3.3 0 2-1.5 2.9-3.5 2.9-1.2 0-2.1-.3-2.7-.8v-1.2z"/><path d="m107.9 163.9v1h-6.2v-10.7h6.1v1h-5v3.8h4.6v1h-4.6v4h5.1z"/><path d="m117.8 163.3v-9.1h1.1v10.7h-1.1l-6.4-9.1v9.1h-1.1v-10.7h1.2z"/><path d="m125.3 164.9h-1.1v-9.7h-3.5v-1h8.2v1h-3.5v9.7z"/><path d="m131.8 164.9h-1.1v-10.7h1.1z"/><path d="m141 163.9v1h-6.2v-10.7h6.1v1h-5v3.8h4.6v1h-4.6v4h5.1z"/><path d="m143.4 154.2h1.1v9.7h4.6v1h-5.7z"/></g><g enable-background="new" fill="#fff"><path d="m70.1 175.8-2.4 3.6-.9 1.3c.6-.7 1.3-1 2.2-1 1.8 0 3.4 1.2 3.4 3.5 0 1.9-1.3 3.5-3.7 3.5-2.3 0-3.6-1.6-3.6-3.5 0-1.3.5-2.4 1.3-3.6l2.4-3.8zm-1.3 10c1.5 0 2.5-1 2.5-2.6 0-1.5-1.1-2.6-2.5-2.6s-2.5 1-2.5 2.6c.1 1.6 1.2 2.6 2.5 2.6z"/><path d="m91.3 181.3c0-1.5-1-1.8-1.8-1.8-.9 0-1.8.2-2.3.5.1.3.2.8.2 1.3v5.3h-1.1v-5.3c0-1.5-1-1.8-1.9-1.8s-1.6.2-2.1.4v6.7h-1.1v-7.3c1-.4 2.1-.7 3.2-.7.9 0 1.6.2 2.1.6.9-.4 1.9-.6 2.9-.6 1.9 0 2.9.8 2.9 2.7v5.3h-1.1v-5.3z"/><path d="m98.3 178.5c2.3 0 3.9 1.7 3.9 4.1s-1.6 4.1-3.9 4.1-3.9-1.7-3.9-4.1 1.6-4.1 3.9-4.1zm0 .9c-1.7 0-2.8 1.3-2.8 3.2s1.2 3.2 2.8 3.2c1.7 0 2.8-1.3 2.8-3.2.1-1.9-1.1-3.2-2.8-3.2z"/><path d="m104.1 176.2c0-.5.4-.8.8-.8.5 0 .8.4.8.8s-.4.8-.8.8-.8-.4-.8-.8zm1.4 10.3h-1.1v-7.9h1.1z"/><path d="m107.7 184.8c.7.6 1.4.9 2.2.9 1 0 1.6-.4 1.6-1.3s-.7-1.2-1.9-1.6c-1.4-.5-2-1-2-2.3 0-1.4 1-2.1 2.5-2.1.8 0 1.5.2 2.1.6v1.2c-.6-.5-1.2-.8-2.1-.8s-1.4.5-1.4 1.2.4 1.1 1.6 1.5c1.4.4 2.3.9 2.3 2.4s-1.2 2.3-2.7 2.3c-.9 0-1.7-.3-2.2-.6z"/></g><g enable-background="new" fill="#fff"><path d="m65.2 205.2c0-1.5 1.2-2.6 2.3-2.8-.9-.3-1.7-1.1-1.7-2.4 0-1.8 1.4-2.8 3-2.8s3 1 3 2.8c0 1.3-.8 2.1-1.7 2.4 1.1.2 2.3 1.2 2.3 2.8 0 2-1.6 3.1-3.6 3.1s-3.6-1.1-3.6-3.1zm6 0c0-1.4-1.1-2.3-2.4-2.3s-2.4.9-2.4 2.3c0 1.5 1.1 2.2 2.4 2.2s2.4-.7 2.4-2.2zm-.5-5.2c0-1.2-.9-1.9-1.9-1.9s-1.9.7-1.9 1.9.9 1.9 1.9 1.9 1.9-.7 1.9-1.9z"/><path d="m77.9 197.2c2.4 0 4 2.3 4 5.5s-1.5 5.5-4 5.5-4-2.3-4-5.5 1.6-5.5 4-5.5zm0 10.1c1.7 0 2.9-1.9 2.9-4.6s-1.1-4.6-2.9-4.6-2.9 1.9-2.9 4.6 1.2 4.6 2.9 4.6z"/><path d="m87.7 197.2c2.4 0 4 2.3 4 5.5s-1.5 5.5-4 5.5-4-2.3-4-5.5 1.6-5.5 4-5.5zm0 10.1c1.7 0 2.9-1.9 2.9-4.6s-1.1-4.6-2.9-4.6-2.9 1.9-2.9 4.6 1.2 4.6 2.9 4.6z"/><path d="m93.9 195.9h1.1v4.6c.6-.2 1.5-.4 2.3-.4 1.9 0 3.1.8 3.1 2.7v5.3h-1.1v-5.1c0-1.6-1.1-1.9-2.2-1.9-.8 0-1.6.2-2.1.4v6.7h-1.1z"/></g><g fill="#050505"><path d="m49.8 1184.1c-.8-.7-1.8-1.1-3-1.1-2.4 0-4.4 1.8-4.4 4.5s2 4.5 4.4 4.5c1.1 0 2.3-.3 3-1.1v1.3c-.8.5-1.9.8-3 .8-3.2 0-5.5-2.3-5.5-5.5 0-3.3 2.4-5.5 5.5-5.5 1.1 0 2.1.3 3 .8z"/><g enable-background="new"><path d="m55.3 1184.9c2.3 0 3.9 1.7 3.9 4.1s-1.6 4.1-3.9 4.1-3.9-1.7-3.9-4.1 1.5-4.1 3.9-4.1zm0 .9c-1.7 0-2.8 1.3-2.8 3.2s1.2 3.2 2.8 3.2c1.7 0 2.8-1.3 2.8-3.2s-1.2-3.2-2.8-3.2z"/><path d="m71.3 1187.7c0-1.5-1-1.8-1.8-1.8-.9 0-1.8.2-2.3.5.1.3.2.8.2 1.3v5.3h-1.1v-5.3c0-1.5-1-1.8-1.9-1.8s-1.6.2-2.1.4v6.7h-1.1v-7.3c1-.4 2.1-.7 3.2-.7.9 0 1.6.2 2.1.6.9-.4 1.9-.6 2.9-.6 1.9 0 2.9.8 2.9 2.7v5.3h-1.1v-5.3z"/></g><g enable-background="new"><path d="m75.4 1185.4c.7-.3 1.7-.5 2.7-.5 2.7 0 4.3 1.4 4.3 4.1 0 2.6-1.7 4.1-4.3 4.1-.6 0-1.3-.1-1.7-.3v3.4h-1.1v-10.8zm1 6.4c.5.2 1.1.3 1.7.3 1.9 0 3.2-1.2 3.2-3.2 0-1.9-1.2-3.1-3.2-3.1-.6 0-1.2.1-1.7.2z"/><path d="m85.1 1189c0 2 1.4 3.1 2.9 3.1 1.1 0 1.9-.3 2.7-.9v1.1c-.7.5-1.7.8-2.7.8-2.3 0-4-1.5-4-4.1 0-2.4 1.6-4.1 3.7-4.1 2 0 3.3 1.2 3.3 3.4v.7zm4.9-.9c-.1-1.6-1-2.3-2.3-2.3-1.2 0-2.2.8-2.5 2.3zm-2.8-4.4 1.5-2.7h1.1l-1.5 2.7z"/></g><path d="m92.7 1185.1h1.2v-1.9h1.1v1.9h2.2v.9h-2.2v4.8c0 1 .4 1.4 1.1 1.4.5 0 .9-.2 1.5-.4v1c-.5.2-1 .4-1.7.4-1.1 0-2-.6-2-2.2v-4.9h-1.2z"/><g enable-background="new"><path d="m100.7 1189c0 2 1.4 3.1 2.9 3.1 1.1 0 1.9-.3 2.7-.9v1.1c-.7.5-1.7.8-2.7.8-2.3 0-4-1.5-4-4.1 0-2.4 1.6-4.1 3.7-4.1 2 0 3.3 1.2 3.3 3.4v.7zm4.8-.9c-.1-1.6-1-2.3-2.3-2.3-1.2 0-2.2.8-2.5 2.3z"/><path d="m108.7 1185.5c1-.4 2.2-.6 3.3-.6 2 0 3.2.8 3.2 2.7v5.3h-1.1v-5.1c0-1.6-1.1-1.9-2.2-1.9-.8 0-1.6.1-2.1.3v6.7h-1.1z"/><path d="m123.5 1186.6c-.7-.5-1.5-.7-2.2-.7-1.6 0-3 1.1-3 3.1s1.4 3.1 3.1 3.1c.8 0 1.5-.3 2.3-.7v1.1c-.8.4-1.5.6-2.4.6-2.2 0-4.1-1.5-4.1-4.1s1.9-4.1 4.1-4.1c.9 0 1.5.2 2.3.6v1.1z"/></g><path d="m126.6 1189c0 2 1.4 3.1 2.9 3.1 1.1 0 1.9-.3 2.7-.9v1.1c-.7.5-1.7.8-2.7.8-2.3 0-4-1.5-4-4.1 0-2.4 1.6-4.1 3.7-4.1 2 0 3.3 1.2 3.3 3.4v.7zm4.9-.9c-.1-1.6-1-2.3-2.3-2.3-1.2 0-2.2.8-2.5 2.3z"/><g enable-background="new"><path d="m134.3 1191.2c.7.6 1.4.9 2.2.9 1 0 1.6-.4 1.6-1.3s-.7-1.2-1.9-1.6c-1.4-.5-2-1-2-2.3 0-1.4 1-2.1 2.5-2.1.8 0 1.5.2 2.1.6v1.2c-.6-.5-1.2-.8-2.1-.8s-1.4.5-1.4 1.2.4 1.1 1.6 1.5c1.4.4 2.3.9 2.3 2.4s-1.2 2.3-2.7 2.3c-.9 0-1.7-.3-2.2-.6z"/><path d="m143.7 1185.1h1.2v-1.9h1.1v1.9h2.2v.9h-2.2v4.8c0 1 .4 1.4 1.1 1.4.5 0 .9-.2 1.5-.4v1c-.5.2-1 .4-1.7.4-1.1 0-2-.6-2-2.2v-4.9h-1.2z"/></g><path d="m153 1192.9h-1v-7.1c.8-.5 1.8-.8 2.9-.8.4 0 .9.1 1.3.2v1.1c-.5-.2-1-.2-1.4-.2-.8 0-1.4.2-1.8.4z"/><g enable-background="new"><path d="m162.2 1187.4c0-1-.6-1.5-1.7-1.5-.9 0-1.6.3-2.3.6v-1c.7-.4 1.5-.6 2.4-.6 1.6 0 2.6.7 2.6 2.5v5.4c-.7.2-1.6.3-2.2.3-2.1 0-3.5-.7-3.5-2.3 0-1.5 1.4-2.4 3.8-2.4h.9zm0 1.9h-.8c-1.6 0-2.8.4-2.8 1.5s1.1 1.4 2.5 1.4c.3 0 .7 0 1.1-.1z"/><path d="m165.9 1185.5c1-.4 2.2-.6 3.3-.6 2 0 3.2.8 3.2 2.7v5.3h-1.1v-5.1c0-1.6-1.1-1.9-2.2-1.9-.8 0-1.6.1-2.1.3v6.7h-1.1z"/></g><g enable-background="new"><path d="m175.5 1191.2c.7.6 1.4.9 2.2.9 1 0 1.6-.4 1.6-1.3s-.7-1.2-1.9-1.6c-1.4-.5-2-1-2-2.3 0-1.4 1-2.1 2.5-2.1.8 0 1.5.2 2.1.6v1.2c-.6-.5-1.2-.8-2.1-.8s-1.4.5-1.4 1.2.4 1.1 1.6 1.5c1.4.4 2.3.9 2.3 2.4s-1.2 2.3-2.7 2.3c-.9 0-1.7-.3-2.2-.6z"/><path d="m184.2 1192.9-3.1-7.9h1.1l2.6 6.8 2.6-6.8h1.1l-3.1 7.9z"/></g><path d="m192.4 1189c0 2 1.4 3.1 2.9 3.1 1.1 0 1.9-.3 2.7-.9v1.1c-.7.5-1.7.8-2.7.8-2.3 0-4-1.5-4-4.1 0-2.4 1.6-4.1 3.7-4.1 2 0 3.3 1.2 3.3 3.4v.7zm4.8-.9c-.1-1.6-1-2.3-2.3-2.3-1.2 0-2.2.8-2.5 2.3z"/><g enable-background="new"><path d="m201.6 1192.9h-1.1v-7.1c.8-.5 1.8-.8 2.9-.8.4 0 .9.1 1.3.2v1.1c-.5-.2-1-.2-1.4-.2-.8 0-1.4.2-1.8.4v6.4z"/><path d="m206.1 1191.2c.7.6 1.4.9 2.2.9 1 0 1.6-.4 1.6-1.3s-.7-1.2-1.9-1.6c-1.4-.5-2-1-2-2.3 0-1.4 1-2.1 2.5-2.1.8 0 1.5.2 2.1.6v1.2c-.6-.5-1.2-.8-2.1-.8s-1.4.5-1.4 1.2.4 1.1 1.6 1.5c1.4.4 2.3.9 2.3 2.4s-1.2 2.3-2.7 2.3c-.9 0-1.7-.3-2.2-.6z"/></g><g enable-background="new"><path d="m218.3 1187.4c0-1-.6-1.5-1.7-1.5-.9 0-1.6.3-2.3.6v-1c.7-.4 1.5-.6 2.4-.6 1.6 0 2.6.7 2.6 2.5v5.4c-.7.2-1.6.3-2.2.3-2.1 0-3.5-.7-3.5-2.3 0-1.5 1.4-2.4 3.8-2.4h.9zm0 1.9h-.8c-1.6 0-2.8.4-2.8 1.5s1.1 1.4 2.5 1.4c.3 0 .7 0 1.1-.1z"/><path d="m223 1192.9h-1.1v-12.2h1.1z"/></g><path d="m227.5 1189c0 2 1.4 3.1 2.9 3.1 1.1 0 1.9-.3 2.7-.9v1.1c-.7.5-1.7.8-2.7.8-2.3 0-4-1.5-4-4.1 0-2.4 1.6-4.1 3.7-4.1 2 0 3.3 1.2 3.3 3.4v.7zm4.8-.9c-.1-1.6-1-2.3-2.3-2.3-1.2 0-2.2.8-2.5 2.3z"/><path d="m235.2 1191.2c.7.6 1.3.9 2.2.9 1 0 1.6-.4 1.6-1.3s-.7-1.2-1.9-1.6c-1.4-.5-2-1-2-2.3 0-1.4 1-2.1 2.5-2.1.8 0 1.5.2 2.1.6v1.2c-.6-.5-1.2-.8-2.1-.8s-1.4.5-1.4 1.2.4 1.1 1.6 1.5c1.4.4 2.3.9 2.3 2.4s-1.2 2.3-2.7 2.3c-.9 0-1.7-.3-2.2-.6z"/><g enable-background="new"><path d="m45.1 1201.1c2.2 0 4 1.6 4 4s-1.8 4-4 4-4-1.6-4-4 1.8-4 4-4zm0 .7c-1.7 0-3.2 1.3-3.2 3.3s1.4 3.3 3.2 3.3 3.2-1.3 3.2-3.3-1.5-3.3-3.2-3.3z"/><path d="m55 1208.8c-.7.1-1.4.2-2 .2-1.6 0-2.6-.6-2.6-2v-3.8h.8v3.8c0 1.1.8 1.3 1.7 1.3.4 0 .8 0 1.2-.1v-5h.9z"/><path d="m56.2 1203.2h.9v-1.4h.8v1.4h1.6v.7h-1.6v3.5c0 .7.3 1 .8 1 .4 0 .7-.1 1.1-.3v.7c-.3.2-.7.3-1.2.3-.8 0-1.4-.4-1.4-1.6v-3.5h-.9v-.8z"/><path d="m60.9 1201.5c0-.3.3-.6.6-.6s.6.3.6.6-.3.6-.6.6-.6-.3-.6-.6zm1 7.4h-.8v-5.7h.8z"/><path d="m64.6 1208.9h-.8v-8.8h.8z"/><path d="m66.2 1207.7c.5.4 1 .7 1.6.7.7 0 1.2-.3 1.2-.9 0-.7-.5-.9-1.4-1.2-1-.3-1.4-.8-1.4-1.7 0-1 .8-1.5 1.8-1.5.6 0 1.1.1 1.5.4v.8c-.4-.4-.9-.6-1.5-.6s-1 .3-1 .9c0 .5.3.8 1.2 1.1 1 .3 1.7.7 1.7 1.7 0 1.1-.9 1.6-1.9 1.6-.6 0-1.2-.2-1.6-.5v-.8z"/><path d="m78.5 1208.8c-.6.1-1.2.2-1.8.2-2 0-3.3-1.1-3.3-3s1.4-3 3.1-3c.4 0 .9.1 1.2.3v-3.3h.8zm-.8-4.7c-.3-.2-.7-.3-1.2-.3-1.3 0-2.3.8-2.3 2.3 0 1.4 1 2.3 2.5 2.3.4 0 .7 0 1.1-.1v-4.2z"/><path d="m80.8 1206.1c0 1.4 1 2.2 2.1 2.2.8 0 1.4-.2 1.9-.6v.8c-.5.4-1.2.5-1.9.5-1.6 0-2.9-1.1-2.9-3 0-1.7 1.2-3 2.7-3 1.4 0 2.4.9 2.4 2.5v.5h-4.3zm3.5-.6c-.1-1.2-.7-1.7-1.6-1.7s-1.6.6-1.8 1.7z"/><path d="m88.3 1203.2h.9v-1.4h.8v1.4h1.6v.7h-1.6v3.5c0 .7.3 1 .8 1 .4 0 .7-.1 1.1-.3v.7c-.3.2-.7.3-1.2.3-.8 0-1.4-.4-1.4-1.6v-3.5h-.9v-.8z"/></g><path d="m93.9 1208.9h-.8v-5.1c.6-.4 1.3-.6 2.1-.6.3 0 .6 0 .9.1v.8c-.3-.1-.7-.1-1-.1-.6 0-1 .1-1.3.3v4.6z"/><g enable-background="new"><path d="m100.3 1204.9c0-.7-.5-1.1-1.2-1.1s-1.1.2-1.7.5v-.7c.5-.3 1.1-.4 1.8-.4 1.1 0 1.9.5 1.9 1.8v3.9c-.5.1-1.1.2-1.6.2-1.5 0-2.6-.5-2.6-1.7 0-1.1 1-1.7 2.8-1.7h.6zm0 1.4h-.6c-1.2 0-2 .3-2 1.1s.8 1 1.8 1c.2 0 .5 0 .8-.1z"/><path d="m104.2 1208.9-2.2-5.7h.8l1.8 4.9 1.8-4.9h.8l-2.2 5.7z"/><path d="m111.3 1204.9c0-.7-.5-1.1-1.2-1.1s-1.1.2-1.7.5v-.7c.5-.3 1.1-.4 1.8-.4 1.1 0 1.9.5 1.9 1.8v3.9c-.5.1-1.1.2-1.6.2-1.5 0-2.6-.5-2.6-1.7 0-1.1 1-1.7 2.8-1.7h.6zm0 1.4h-.6c-1.2 0-2 .3-2 1.1s.8 1 1.8 1c.2 0 .5 0 .8-.1z"/><path d="m113.7 1201.5c0-.3.3-.6.6-.6s.6.3.6.6-.3.6-.6.6-.6-.3-.6-.6zm1 7.4h-.8v-5.7h.8z"/><path d="m117.4 1208.9h-.8v-8.8h.8z"/><path d="m126 1204.4c-.5-.3-1.1-.5-1.6-.5-1.2 0-2.2.8-2.2 2.3 0 1.4 1 2.2 2.2 2.2.6 0 1.1-.2 1.6-.5v.8c-.6.3-1.1.4-1.7.4-1.6 0-3-1.1-3-3s1.4-3 2.9-3c.6 0 1.1.1 1.6.4v.9z"/><path d="m130 1203.1c1.7 0 2.8 1.2 2.8 3s-1.2 3-2.8 3-2.8-1.2-2.8-3 1.1-3 2.8-3zm0 .7c-1.2 0-2.1.9-2.1 2.3s.9 2.3 2.1 2.3 2.1-.9 2.1-2.3-.9-2.3-2.1-2.3z"/><path d="m135.1 1208.9h-.8v-8.8h.8z"/><path d="m137.9 1208.9h-.8v-8.8h.8z"/><path d="m142.7 1204.9c0-.7-.5-1.1-1.2-1.1s-1.1.2-1.7.5v-.7c.5-.3 1.1-.4 1.8-.4 1.1 0 1.9.5 1.9 1.8v3.9c-.5.1-1.1.2-1.6.2-1.5 0-2.6-.5-2.6-1.7 0-1.1 1-1.7 2.8-1.7h.6zm0 1.4h-.6c-1.2 0-2 .3-2 1.1s.8 1 1.8 1c.2 0 .5 0 .8-.1z"/></g><path d="m145.4 1200.1h.8v3.3c.2-.1.8-.3 1.4-.3 1.7 0 3 1 3 2.9 0 1.8-1.3 3-3.3 3-.6 0-1.3-.1-1.8-.3v-8.6zm.8 8.1c.3.1.7.1 1.1.1 1.5 0 2.5-.9 2.5-2.3 0-1.5-1-2.2-2.2-2.2-.6 0-1 .1-1.4.3z"/><path d="m154.5 1203.1c1.7 0 2.8 1.2 2.8 3s-1.2 3-2.8 3-2.8-1.2-2.8-3 1.1-3 2.8-3zm0 .7c-1.2 0-2.1.9-2.1 2.3s.9 2.3 2.1 2.3 2.1-.9 2.1-2.3-.9-2.3-2.1-2.3z"/><path d="m159.6 1208.9h-.8v-5.1c.6-.4 1.3-.6 2.1-.6.3 0 .6 0 .9.1v.8c-.3-.1-.7-.1-1-.1-.6 0-1 .1-1.3.3v4.6z"/><g enable-background="new"><path d="m166 1204.9c0-.7-.5-1.1-1.2-1.1s-1.1.2-1.7.5v-.7c.5-.3 1.1-.4 1.8-.4 1.1 0 1.9.5 1.9 1.8v3.9c-.5.1-1.1.2-1.6.2-1.5 0-2.6-.5-2.6-1.7 0-1.1 1-1.7 2.8-1.7h.6zm0 1.4h-.6c-1.2 0-2 .3-2 1.1s.8 1 1.8 1c.2 0 .5 0 .8-.1z"/><path d="m167.8 1203.2h.9v-1.4h.8v1.4h1.6v.7h-1.6v3.5c0 .7.3 1 .8 1 .4 0 .7-.1 1.1-.3v.7c-.3.2-.7.3-1.2.3-.8 0-1.4-.4-1.4-1.6v-3.5h-.9v-.8z"/><path d="m172.5 1201.5c0-.3.3-.6.6-.6s.6.3.6.6-.3.6-.6.6-.6-.3-.6-.6zm1 7.4h-.8v-5.7h.8z"/><path d="m176.4 1208.9h-.8v-5h-.9v-.7h.9v-1.4c0-1.2.6-1.9 1.7-1.9.4 0 .7.1 1 .3v.7c-.3-.2-.6-.3-1-.3-.6 0-1 .3-1 1.2v1.4h1.6v.7h-1.6v5z"/></g><path d="m183.5 1210.7c-1.3-1.2-2.3-3-2.3-5.3s1-4.1 2.3-5.3h.9c-1.4 1.3-2.4 2.9-2.4 5.3s1.1 4 2.4 5.3z"/><path d="m191 1202.6c-.6-.5-1.3-.8-2.1-.8-1.7 0-3.2 1.3-3.2 3.3s1.4 3.3 3.2 3.3c.7 0 1.1-.1 1.6-.3v-2.6h.8v3c-.6.4-1.4.6-2.4.6-2.3 0-4-1.6-4-4s1.8-4 4-4c.8 0 1.5.2 2.1.6z"/><g enable-background="new"><path d="m192.8 1201.5c0-.3.3-.6.6-.6s.6.3.6.6-.3.6-.6.6-.6-.3-.6-.6zm1 7.4h-.8v-5.7h.8z"/><path d="m195 1203.2h.9v-1.4h.8v1.4h1.6v.7h-1.6v3.5c0 .7.3 1 .8 1 .4 0 .7-.1 1.1-.3v.7c-.3.2-.7.3-1.2.3-.8 0-1.4-.4-1.4-1.6v-3.5h-1z"/><path d="m199.9 1200.1c1.3 1.2 2.3 3 2.3 5.3s-1 4.1-2.3 5.3h-.9c1.4-1.3 2.4-2.9 2.4-5.3s-1.1-4-2.4-5.3z"/><path d="m205 1207.9c0 1.1-.6 2.2-1.3 2.7h-.6c.6-.7 1-1.6 1-2.7z"/></g><path d="m210.3 1208.9h-.8v-5.1c.6-.4 1.3-.6 2.1-.6.3 0 .6 0 .9.1v.8c-.3-.1-.7-.1-1-.1-.6 0-1 .1-1.3.3v4.6z"/><path d="m214 1206.1c0 1.4 1 2.2 2.1 2.2.8 0 1.4-.2 1.9-.6v.8c-.5.4-1.2.5-1.9.5-1.6 0-2.9-1.1-2.9-3 0-1.7 1.2-3 2.7-3 1.4 0 2.4.9 2.4 2.5v.5h-4.3zm3.5-.6c-.1-1.2-.7-1.7-1.6-1.7s-1.6.6-1.8 1.7zm-2-3.3 1.1-2h.8l-1.1 2z"/><g enable-background="new"><path d="m224.5 1208.8c-.6.1-1.2.2-1.8.2-2 0-3.3-1.1-3.3-3s1.4-3 3.1-3c.4 0 .9.1 1.2.3v-3.3h.8zm-.8-4.7c-.3-.2-.7-.3-1.2-.3-1.3 0-2.3.8-2.3 2.3 0 1.4 1 2.3 2.5 2.3.4 0 .7 0 1.1-.1v-4.2z"/><path d="m226.3 1201.5c0-.3.3-.6.6-.6s.6.3.6.6-.3.6-.6.6c-.4 0-.6-.3-.6-.6zm1 7.4h-.8v-5.7h.8z"/></g><path d="m233.1 1208.7c-.2.1-.7.2-1.2.2-1.9 0-3.2-1-3.2-2.9 0-1.8 1.3-2.9 3.3-2.9.6 0 1.4.2 1.8.4v5.5c0 1.7-1.3 2.4-2.6 2.4-.7 0-1.3-.2-1.8-.4v-.7c.5.2 1.1.4 1.8.4.9 0 1.8-.5 1.8-1.9v-.1zm0-4.7c-.3-.1-.7-.2-1.1-.2-1.6 0-2.5.8-2.5 2.2s.9 2.2 2.4 2.2c.5 0 .8-.1 1.2-.2z"/><g enable-background="new"><path d="m236.1 1206.1c0 1.4 1 2.2 2.1 2.2.8 0 1.4-.2 1.9-.6v.8c-.5.4-1.2.5-1.9.5-1.6 0-2.9-1.1-2.9-3 0-1.7 1.2-3 2.7-3 1.4 0 2.4.9 2.4 2.5v.5h-4.3zm3.5-.6c-.1-1.2-.7-1.7-1.6-1.7s-1.6.6-1.8 1.7z"/><path d="m242.7 1208.9h-.8v-5.1c.6-.4 1.3-.6 2.1-.6.3 0 .6 0 .9.1v.8c-.3-.1-.7-.1-1-.1-.6 0-1 .1-1.3.3v4.6z"/><path d="m253.4 1208.8c-.6.1-1.2.2-1.8.2-2 0-3.3-1.1-3.3-3s1.4-3 3.1-3c.4 0 .9.1 1.2.3v-3.3h.8zm-.8-4.7c-.3-.2-.7-.3-1.2-.3-1.3 0-2.3.8-2.3 2.3 0 1.4 1 2.3 2.5 2.3.4 0 .7 0 1.1-.1v-4.2z"/></g><path d="m255.7 1206.1c0 1.4 1 2.2 2.1 2.2.8 0 1.4-.2 1.9-.6v.8c-.5.4-1.2.5-1.9.5-1.6 0-2.9-1.1-2.9-3 0-1.7 1.2-3 2.7-3 1.4 0 2.4.9 2.4 2.5v.5h-4.3zm3.5-.6c-.1-1.2-.7-1.7-1.6-1.7s-1.6.6-1.8 1.7z"/><path d="m261.2 1207.7c.5.4 1 .7 1.6.7.7 0 1.2-.3 1.2-.9 0-.7-.5-.9-1.4-1.2-1-.3-1.4-.8-1.4-1.7 0-1 .8-1.5 1.8-1.5.6 0 1.1.1 1.5.4v.8c-.4-.4-.9-.6-1.5-.6s-1 .3-1 .9c0 .5.3.8 1.2 1.1 1 .3 1.7.7 1.7 1.7 0 1.1-.9 1.6-1.9 1.6-.6 0-1.2-.2-1.6-.5v-.8z"/><path d="m269.1 1206.1c0 1.4 1 2.2 2.1 2.2.8 0 1.4-.2 1.9-.6v.8c-.5.4-1.2.5-1.9.5-1.6 0-2.9-1.1-2.9-3 0-1.7 1.2-3 2.7-3 1.4 0 2.4.9 2.4 2.5v.5h-4.3zm3.5-.6c-.1-1.2-.7-1.7-1.6-1.7s-1.6.6-1.8 1.7zm-2-3.3 1.1-2h.8l-1.1 2z"/><g enable-background="new"><path d="m279.1 1204.4c-.5-.3-1.1-.5-1.6-.5-1.2 0-2.2.8-2.2 2.3 0 1.4 1 2.2 2.2 2.2.6 0 1.1-.2 1.6-.5v.8c-.6.3-1.1.4-1.7.4-1.6 0-3-1.1-3-3s1.4-3 2.9-3c.6 0 1.1.1 1.6.4v.9z"/><path d="m281.4 1208.9h-.8v-5.1c.6-.4 1.3-.6 2.1-.6.3 0 .6 0 .9.1v.8c-.3-.1-.7-.1-1-.1-.6 0-1 .1-1.3.3v4.6z"/><path d="m284.8 1201.5c0-.3.3-.6.6-.6s.6.3.6.6-.3.6-.6.6c-.4 0-.6-.3-.6-.6zm.9 7.4h-.7v-5.7h.8v5.7z"/><path d="m286.9 1203.2h.9v-1.4h.8v1.4h1.6v.7h-1.6v3.5c0 .7.3 1 .8 1 .4 0 .7-.1 1.1-.3v.7c-.3.2-.7.3-1.2.3-.8 0-1.4-.4-1.4-1.6v-3.5h-.9v-.8z"/><path d="m291.5 1207.7c.5.4 1 .7 1.6.7.7 0 1.2-.3 1.2-.9 0-.7-.5-.9-1.4-1.2-1-.3-1.4-.8-1.4-1.7 0-1 .8-1.5 1.8-1.5.6 0 1.1.1 1.5.4v.8c-.4-.4-.9-.6-1.5-.6s-1 .3-1 .9c0 .5.3.8 1.2 1.1 1 .3 1.7.7 1.7 1.7 0 1.1-.9 1.6-1.9 1.6-.6 0-1.2-.2-1.6-.5v-.8z"/></g><path d="m41.5 1219.5c.5-.2 1.2-.4 2-.4 2 0 3.1 1 3.1 3 0 1.8-1.2 3-3.1 3-.5 0-.9-.1-1.2-.2v2.4h-.8zm.8 4.6c.4.2.8.2 1.2.2 1.4 0 2.3-.8 2.3-2.3 0-1.4-.8-2.2-2.3-2.2-.4 0-.9.1-1.2.2z"/><path d="m48.9 1224.9h-.8v-5.1c.6-.4 1.3-.6 2.1-.6.3 0 .6 0 .9.1v.8c-.3-.1-.7-.1-1-.1-.6 0-1 .1-1.3.3v4.6z"/><g enable-background="new"><path d="m54.6 1219.1c1.7 0 2.8 1.2 2.8 3s-1.2 3-2.8 3-2.8-1.2-2.8-3 1.1-3 2.8-3zm0 .7c-1.2 0-2.1.9-2.1 2.3s.9 2.3 2.1 2.3 2.1-.9 2.1-2.3-.9-2.3-2.1-2.3z"/><path d="m59.9 1224.9h-.8v-5h-.9v-.7h.9v-1.4c0-1.2.6-1.9 1.7-1.9.4 0 .7.1 1 .3v.7c-.3-.2-.6-.3-1-.3-.6 0-1 .3-1 1.2v1.4h1.6v.7h-1.6v5z"/></g><path d="m62.8 1222.1c0 1.4 1 2.2 2.1 2.2.8 0 1.4-.2 1.9-.6v.8c-.5.4-1.2.5-1.9.5-1.6 0-2.9-1.1-2.9-3 0-1.7 1.2-3 2.7-3 1.4 0 2.4.9 2.4 2.5v.5h-4.3zm3.5-.6c-.1-1.2-.7-1.7-1.6-1.7s-1.6.6-1.8 1.7z"/><g enable-background="new"><path d="m68.3 1223.7c.5.4 1 .7 1.6.7.7 0 1.2-.3 1.2-.9 0-.7-.5-.9-1.4-1.2-1-.3-1.4-.8-1.4-1.7 0-1 .8-1.5 1.8-1.5.6 0 1.1.1 1.5.4v.8c-.4-.4-.9-.6-1.5-.6s-1 .3-1 .9c0 .5.3.8 1.2 1.1 1 .3 1.7.7 1.7 1.7 0 1.1-.9 1.6-1.9 1.6-.6 0-1.2-.2-1.6-.5v-.8z"/><path d="m73.1 1223.7c.5.4 1 .7 1.6.7.7 0 1.2-.3 1.2-.9 0-.7-.5-.9-1.4-1.2-1-.3-1.4-.8-1.4-1.7 0-1 .8-1.5 1.8-1.5.6 0 1.1.1 1.5.4v.8c-.4-.4-.9-.6-1.5-.6s-1 .3-1 .9c0 .5.3.8 1.2 1.1 1 .3 1.7.7 1.7 1.7 0 1.1-.9 1.6-1.9 1.6-.6 0-1.2-.2-1.6-.5v-.8z"/><path d="m78 1217.5c0-.3.3-.6.6-.6s.6.3.6.6-.3.6-.6.6-.6-.3-.6-.6zm1 7.4h-.8v-5.7h.8z"/><path d="m83.3 1219.1c1.7 0 2.8 1.2 2.8 3s-1.2 3-2.8 3-2.8-1.2-2.8-3 1.2-3 2.8-3zm0 .7c-1.2 0-2.1.9-2.1 2.3s.9 2.3 2.1 2.3 2.1-.9 2.1-2.3-.9-2.3-2.1-2.3z"/><path d="m87.7 1219.5c.8-.3 1.6-.4 2.4-.4 1.4 0 2.3.6 2.3 2v3.8h-.8v-3.7c0-1.2-.8-1.4-1.6-1.4-.6 0-1.1.1-1.5.2v4.9h-.8z"/><path d="m94.3 1219.5c.8-.3 1.6-.4 2.4-.4 1.4 0 2.3.6 2.3 2v3.8h-.8v-3.7c0-1.2-.8-1.4-1.6-1.4-.6 0-1.1.1-1.5.2v4.9h-.8z"/><path d="m101.2 1222.1c0 1.4 1 2.2 2.1 2.2.8 0 1.4-.2 1.9-.6v.8c-.5.4-1.2.5-1.9.5-1.6 0-2.9-1.1-2.9-3 0-1.7 1.2-3 2.7-3 1.4 0 2.4.9 2.4 2.5v.5h-4.3zm3.5-.6c-.1-1.2-.7-1.7-1.6-1.7s-1.6.6-1.8 1.7z"/><path d="m107.8 1224.9h-.8v-8.8h.8z"/><path d="m109.4 1223.7c.5.4 1 .7 1.6.7.7 0 1.2-.3 1.2-.9 0-.7-.5-.9-1.4-1.2-1-.3-1.4-.8-1.4-1.7 0-1 .8-1.5 1.8-1.5.6 0 1.1.1 1.5.4v.8c-.4-.4-.9-.6-1.5-.6s-1 .3-1 .9c0 .5.3.8 1.2 1.1 1 .3 1.7.7 1.7 1.7 0 1.1-.9 1.6-1.9 1.6-.6 0-1.2-.2-1.6-.5v-.8z"/><path d="m115.5 1223.9c0 1.1-.6 2.2-1.3 2.7h-.6c.6-.7 1-1.6 1-2.7z"/><path d="m124.2 1220.4c-.5-.3-1.1-.5-1.6-.5-1.2 0-2.2.8-2.2 2.3 0 1.4 1 2.2 2.2 2.2.6 0 1.1-.2 1.6-.5v.8c-.6.3-1.1.4-1.7.4-1.6 0-3-1.1-3-3s1.4-3 2.9-3c.6 0 1.1.1 1.6.4v.9z"/><path d="m128.2 1219.1c1.7 0 2.8 1.2 2.8 3s-1.2 3-2.8 3-2.8-1.2-2.8-3 1.1-3 2.8-3zm0 .7c-1.2 0-2.1.9-2.1 2.3s.9 2.3 2.1 2.3 2.1-.9 2.1-2.3-.9-2.3-2.1-2.3z"/><path d="m139.8 1221.1c0-1.1-.7-1.3-1.3-1.3-.7 0-1.3.2-1.7.3.1.2.2.6.2.9v3.8h-.8v-3.8c0-1.1-.7-1.3-1.3-1.3s-1.1.1-1.5.3v4.8h-.8v-5.3c.7-.3 1.5-.5 2.3-.5.7 0 1.2.1 1.5.4.7-.3 1.4-.4 2.1-.4 1.4 0 2.1.6 2.1 2v3.8h-.8z"/><path d="m149.6 1221.1c0-1.1-.7-1.3-1.3-1.3-.7 0-1.3.2-1.7.3.1.2.2.6.2.9v3.8h-.8v-3.8c0-1.1-.7-1.3-1.3-1.3s-1.1.1-1.5.3v4.8h-.8v-5.3c.7-.3 1.5-.5 2.3-.5.7 0 1.2.1 1.5.4.7-.3 1.4-.4 2.1-.4 1.4 0 2.1.6 2.1 2v3.8h-.8z"/><path d="m156.7 1224.8c-.7.1-1.4.2-2 .2-1.6 0-2.6-.6-2.6-2v-3.8h.8v3.8c0 1.1.8 1.3 1.7 1.3.4 0 .8 0 1.2-.1v-5h.8v5.6z"/><path d="m158.7 1219.5c.8-.3 1.6-.4 2.4-.4 1.4 0 2.3.6 2.3 2v3.8h-.8v-3.7c0-1.2-.8-1.4-1.6-1.4-.6 0-1.1.1-1.5.2v4.9h-.8z"/><path d="m165.1 1217.5c0-.3.3-.6.6-.6s.6.3.6.6-.3.6-.6.6c-.4 0-.6-.3-.6-.6zm.9 7.4h-.8v-5.7h.8z"/><path d="m172.7 1227.3h-.8v-2.5c-.2.1-.7.2-1.2.2-1.9 0-3.2-1-3.2-3 0-1.8 1.3-3 3.3-3 .6 0 1.4.2 1.8.4v7.9zm-.8-7.3c-.3-.1-.7-.2-1.1-.2-1.6 0-2.5.9-2.5 2.2 0 1.4.9 2.3 2.4 2.3.5 0 .8-.1 1.2-.2z"/><path d="m179.1 1224.8c-.7.1-1.4.2-2 .2-1.6 0-2.6-.6-2.6-2v-3.8h.8v3.8c0 1.1.8 1.3 1.7 1.3.4 0 .8 0 1.2-.1v-5h.8v5.6z"/><path d="m181.4 1222.1c0 1.4 1 2.2 2.1 2.2.8 0 1.4-.2 1.9-.6v.8c-.5.4-1.2.5-1.9.5-1.6 0-2.9-1.1-2.9-3 0-1.7 1.2-3 2.7-3 1.4 0 2.4.9 2.4 2.5v.5h-4.3zm3.5-.6c-.1-1.2-.7-1.7-1.6-1.7s-1.6.6-1.8 1.7z"/><path d="m187.9 1224.9h-.8v-5.1c.6-.4 1.3-.6 2.1-.6.3 0 .6 0 .9.1v.8c-.3-.1-.7-.1-1-.1-.6 0-1 .1-1.3.3v4.6z"/><path d="m196.8 1220.9c0-.7-.5-1.1-1.2-1.1s-1.1.2-1.7.5v-.7c.5-.3 1.1-.4 1.8-.4 1.1 0 1.9.5 1.9 1.8v3.9c-.5.1-1.1.2-1.6.2-1.5 0-2.6-.5-2.6-1.7 0-1.1 1-1.7 2.8-1.7h.6zm0 1.4h-.6c-1.2 0-2 .3-2 1.1s.8 1 1.8 1c.2 0 .5 0 .8-.1z"/><path d="m200.8 1224.9-2.2-5.7h.8l1.8 4.9 1.8-4.9h.8l-2.2 5.7z"/></g><path d="m205.3 1222.1c0 1.4 1 2.2 2.1 2.2.8 0 1.4-.2 1.9-.6v.8c-.5.4-1.2.5-1.9.5-1.6 0-2.9-1.1-2.9-3 0-1.7 1.2-3 2.7-3 1.4 0 2.4.9 2.4 2.5v.5h-4.3zm3.5-.6c-.1-1.2-.7-1.7-1.6-1.7s-1.6.6-1.8 1.7z"/><path d="m215.2 1220.4c-.5-.3-1.1-.5-1.6-.5-1.2 0-2.2.8-2.2 2.3 0 1.4 1 2.2 2.2 2.2.6 0 1.1-.2 1.6-.5v.8c-.6.3-1.1.4-1.7.4-1.6 0-3-1.1-3-3s1.4-3 2.9-3c.6 0 1.1.1 1.6.4v.9z"/><path d="m219 1223.7c.5.4 1 .7 1.6.7.7 0 1.2-.3 1.2-.9 0-.7-.5-.9-1.4-1.2-1-.3-1.4-.8-1.4-1.7 0-1 .8-1.5 1.8-1.5.6 0 1.1.1 1.5.4v.8c-.4-.4-.9-.6-1.5-.6s-1 .3-1 .9c0 .5.3.8 1.2 1.1 1 .3 1.7.7 1.7 1.7 0 1.1-.9 1.6-1.9 1.6-.6 0-1.2-.2-1.6-.5v-.8z"/><g enable-background="new"><path d="m226.4 1219.1c1.7 0 2.8 1.2 2.8 3s-1.2 3-2.8 3c-1.7 0-2.8-1.2-2.8-3s1.1-3 2.8-3zm0 .7c-1.2 0-2.1.9-2.1 2.3s.9 2.3 2.1 2.3 2.1-.9 2.1-2.3-.9-2.3-2.1-2.3z"/><path d="m230.8 1219.5c.8-.3 1.6-.4 2.4-.4 1.4 0 2.3.6 2.3 2v3.8h-.8v-3.7c0-1.2-.8-1.4-1.6-1.4-.6 0-1.1.1-1.5.2v4.9h-.8z"/></g><path d="m240.2 1222.1c0 1.4 1 2.2 2.1 2.2.8 0 1.4-.2 1.9-.6v.8c-.5.4-1.2.5-1.9.5-1.6 0-2.9-1.1-2.9-3 0-1.7 1.2-3 2.7-3 1.4 0 2.4.9 2.4 2.5v.5h-4.3zm3.5-.6c-.1-1.2-.7-1.7-1.6-1.7s-1.6.6-1.8 1.7zm-2-3.3 1.1-2h.8l-1.1 2z"/><g enable-background="new"><path d="m250.7 1227.3h-.8v-2.5c-.2.1-.7.2-1.2.2-1.9 0-3.2-1-3.2-3 0-1.8 1.3-3 3.3-3 .6 0 1.4.2 1.8.4v7.9zm-.8-7.3c-.3-.1-.7-.2-1.1-.2-1.6 0-2.5.9-2.5 2.2 0 1.4.9 2.3 2.4 2.3.5 0 .8-.1 1.2-.2z"/><path d="m257.1 1224.8c-.7.1-1.4.2-2 .2-1.6 0-2.6-.6-2.6-2v-3.8h.8v3.8c0 1.1.8 1.3 1.7 1.3.4 0 .8 0 1.2-.1v-5h.8v5.6z"/><path d="m258.8 1217.5c0-.3.3-.6.6-.6s.6.3.6.6-.3.6-.6.6-.6-.3-.6-.6zm1 7.4h-.8v-5.7h.8z"/></g><path d="m261.8 1219.5c.5-.2 1.2-.4 2-.4 2 0 3.1 1 3.1 3 0 1.8-1.2 3-3.1 3-.5 0-.9-.1-1.2-.2v2.4h-.8zm.7 4.6c.4.2.8.2 1.2.2 1.4 0 2.3-.8 2.3-2.3 0-1.4-.8-2.2-2.3-2.2-.4 0-.9.1-1.2.2z"/><path d="m268.8 1222.1c0 1.4 1 2.2 2.1 2.2.8 0 1.4-.2 1.9-.6v.8c-.5.4-1.2.5-1.9.5-1.6 0-2.9-1.1-2.9-3 0-1.7 1.2-3 2.7-3 1.4 0 2.4.9 2.4 2.5v.5h-4.3zm3.5-.6c-.1-1.2-.7-1.7-1.6-1.7s-1.6.6-1.8 1.7z"/><g enable-background="new"><path d="m275.6 1223.9c0 1.1-.6 2.2-1.3 2.7h-.6c.6-.7 1-1.6 1-2.7z"/><path d="m283 1220.9c0-.7-.5-1.1-1.2-1.1s-1.1.2-1.7.5v-.7c.5-.3 1.1-.4 1.8-.4 1.1 0 1.9.5 1.9 1.8v3.9c-.5.1-1.1.2-1.6.2-1.5 0-2.6-.5-2.6-1.7 0-1.1 1-1.7 2.8-1.7h.6zm0 1.4h-.6c-1.2 0-2 .3-2 1.1s.8 1 1.8 1c.2 0 .5 0 .8-.1z"/><path d="m285.7 1219.5c.8-.3 1.6-.4 2.4-.4 1.4 0 2.3.6 2.3 2v3.8h-.8v-3.7c0-1.2-.8-1.4-1.6-1.4-.6 0-1.1.1-1.5.2v4.9h-.8z"/><path d="m296.2 1224.7c-.2.1-.7.2-1.2.2-1.9 0-3.2-1-3.2-2.9 0-1.8 1.3-2.9 3.3-2.9.6 0 1.4.2 1.8.4v5.5c0 1.7-1.3 2.4-2.6 2.4-.7 0-1.3-.2-1.8-.4v-.7c.5.2 1.1.4 1.8.4.9 0 1.8-.5 1.8-1.9v-.1zm0-4.7c-.3-.1-.7-.2-1.1-.2-1.6 0-2.5.8-2.5 2.2s.9 2.2 2.4 2.2c.5 0 .8-.1 1.2-.2z"/><path d="m299.7 1224.9h-.8v-8.8h.8z"/><path d="m304.6 1220.9c0-.7-.5-1.1-1.2-1.1s-1.1.2-1.7.5v-.7c.5-.3 1.1-.4 1.8-.4 1.1 0 1.9.5 1.9 1.8v3.9c-.5.1-1.1.2-1.6.2-1.5 0-2.6-.5-2.6-1.7 0-1.1 1-1.7 2.8-1.7h.6zm0 1.4h-.6c-1.2 0-2 .3-2 1.1s.8 1 1.8 1c.2 0 .5 0 .8-.1z"/><path d="m307 1217.5c0-.3.3-.6.6-.6s.6.3.6.6-.3.6-.6.6-.6-.3-.6-.6zm1 7.4h-.8v-5.7h.8z"/><path d="m309.6 1223.7c.5.4 1 .7 1.6.7.7 0 1.2-.3 1.2-.9 0-.7-.5-.9-1.4-1.2-1-.3-1.4-.8-1.4-1.7 0-1 .8-1.5 1.8-1.5.6 0 1.1.1 1.5.4v.8c-.4-.4-.9-.6-1.5-.6s-1 .3-1 .9c0 .5.3.8 1.2 1.1 1 .3 1.7.7 1.7 1.7 0 1.1-.9 1.6-1.9 1.6-.6 0-1.2-.2-1.6-.5v-.8z"/></g><path d="m40.7 1235.2h.9v-1.4h.8v1.4h1.6v.7h-1.6v3.5c0 .7.3 1 .8 1 .4 0 .7-.1 1.1-.3v.7c-.3.2-.7.3-1.2.3-.8 0-1.4-.4-1.4-1.6v-3.5h-.9v-.8z"/><path d="m45.8 1238.1c0 1.4 1 2.2 2.1 2.2.8 0 1.4-.2 1.9-.6v.8c-.5.4-1.2.5-1.9.5-1.6 0-2.9-1.1-2.9-3 0-1.7 1.2-3 2.7-3 1.4 0 2.4.9 2.4 2.5v.5h-4.3zm3.5-.6c-.1-1.2-.7-1.7-1.6-1.7s-1.6.6-1.8 1.7z"/><g enable-background="new"><path d="m55.8 1236.4c-.5-.3-1.1-.5-1.6-.5-1.2 0-2.2.8-2.2 2.3 0 1.4 1 2.2 2.2 2.2.6 0 1.1-.2 1.6-.5v.8c-.6.3-1.1.4-1.7.4-1.6 0-3-1.1-3-3s1.4-3 2.9-3c.6 0 1.1.1 1.6.4v.9z"/><path d="m57.4 1232.1h.8v3.3c.4-.2 1.1-.3 1.7-.3 1.4 0 2.2.6 2.2 2v3.8h-.8v-3.7c0-1.2-.8-1.4-1.6-1.4-.6 0-1.1.1-1.5.3v4.8h-.8z"/><path d="m63.9 1235.5c.8-.3 1.6-.4 2.4-.4 1.4 0 2.3.6 2.3 2v3.8h-.8v-3.7c0-1.2-.8-1.4-1.6-1.4-.6 0-1.1.1-1.5.2v4.9h-.8z"/><path d="m70.3 1233.5c0-.3.3-.6.6-.6s.6.3.6.6-.3.6-.6.6-.6-.3-.6-.6zm1 7.4h-.8v-5.7h.8z"/><path d="m77.9 1243.3h-.8v-2.5c-.2.1-.7.2-1.2.2-1.9 0-3.2-1-3.2-3 0-1.8 1.3-3 3.3-3 .6 0 1.4.2 1.8.4v7.9zm-.7-7.3c-.3-.1-.7-.2-1.1-.2-1.6 0-2.5.9-2.5 2.2 0 1.4.9 2.3 2.4 2.3.5 0 .8-.1 1.2-.2z"/><path d="m84.3 1240.8c-.7.1-1.4.2-2 .2-1.6 0-2.6-.6-2.6-2v-3.8h.8v3.8c0 1.1.8 1.3 1.7 1.3.4 0 .8 0 1.2-.1v-5h.8v5.6z"/></g><path d="m86.6 1238.1c0 1.4 1 2.2 2.1 2.2.8 0 1.4-.2 1.9-.6v.8c-.5.4-1.2.5-1.9.5-1.6 0-2.9-1.1-2.9-3 0-1.7 1.2-3 2.7-3 1.4 0 2.4.9 2.4 2.5v.5h-4.3zm3.5-.6c-.1-1.2-.7-1.7-1.6-1.7s-1.6.6-1.8 1.7z"/><g enable-background="new"><path d="m93.4 1239.9c0 1.1-.6 2.2-1.3 2.7h-.6c.6-.7 1-1.6 1-2.7z"/><path d="m105.1 1237.1c0-1.1-.7-1.3-1.3-1.3-.7 0-1.3.2-1.7.3.1.2.2.6.2.9v3.8h-.8v-3.8c0-1.1-.7-1.3-1.3-1.3s-1.1.1-1.5.3v4.8h-.8v-5.3c.7-.3 1.5-.5 2.3-.5.7 0 1.2.1 1.5.4.7-.3 1.4-.4 2.1-.4 1.4 0 2.1.6 2.1 2v3.8h-.8z"/></g><path d="m108.1 1238.1c0 1.4 1 2.2 2.1 2.2.8 0 1.4-.2 1.9-.6v.8c-.5.4-1.2.5-1.9.5-1.6 0-2.9-1.1-2.9-3 0-1.7 1.2-3 2.7-3 1.4 0 2.4.9 2.4 2.5v.5h-4.3zm3.5-.6c-.1-1.2-.7-1.7-1.6-1.7s-1.6.6-1.8 1.7zm-2-3.3 1.1-2h.8l-1.1 2z"/><g enable-background="new"><path d="m113.2 1235.2h.9v-1.4h.8v1.4h1.6v.7h-1.6v3.5c0 .7.3 1 .8 1 .4 0 .7-.1 1.1-.3v.7c-.3.2-.7.3-1.2.3-.8 0-1.4-.4-1.4-1.6v-3.5h-.9v-.8z"/><path d="m118.1 1232.1h.8v3.3c.4-.2 1.1-.3 1.7-.3 1.4 0 2.2.6 2.2 2v3.8h-.8v-3.7c0-1.2-.8-1.4-1.6-1.4-.6 0-1.1.1-1.5.3v4.8h-.8z"/></g><path d="m127.1 1235.1c1.7 0 2.8 1.2 2.8 3s-1.2 3-2.8 3-2.8-1.2-2.8-3 1.1-3 2.8-3zm0 .7c-1.2 0-2.1.9-2.1 2.3s.9 2.3 2.1 2.3 2.1-.9 2.1-2.3-.9-2.3-2.1-2.3z"/><path d="m136.2 1240.8c-.6.1-1.2.2-1.8.2-2 0-3.3-1.1-3.3-3s1.4-3 3.1-3c.4 0 .9.1 1.2.3v-3.3h.8zm-.8-4.7c-.3-.2-.7-.3-1.2-.3-1.3 0-2.3.8-2.3 2.3 0 1.4 1 2.3 2.5 2.3.4 0 .7 0 1.1-.1v-4.2z"/><path d="m138.5 1238.1c0 1.4 1 2.2 2.1 2.2.8 0 1.4-.2 1.9-.6v.8c-.5.4-1.2.5-1.9.5-1.6 0-2.9-1.1-2.9-3 0-1.7 1.2-3 2.7-3 1.4 0 2.4.9 2.4 2.5v.5h-4.3zm3.5-.6c-.1-1.2-.7-1.7-1.6-1.7s-1.6.6-1.8 1.7z"/><g enable-background="new"><path d="m144 1239.7c.5.4 1 .7 1.6.7.7 0 1.2-.3 1.2-.9 0-.7-.5-.9-1.4-1.2-1-.3-1.4-.8-1.4-1.7 0-1 .8-1.5 1.8-1.5.6 0 1.1.1 1.5.4v.8c-.4-.4-.9-.6-1.5-.6s-1 .3-1 .9c0 .5.3.8 1.2 1.1 1 .3 1.7.7 1.7 1.7 0 1.1-.9 1.6-1.9 1.6-.6 0-1.2-.2-1.6-.5v-.8z"/><path d="m154.5 1236.9c0-.7-.5-1.1-1.2-1.1s-1.1.2-1.7.5v-.7c.5-.3 1.1-.4 1.8-.4 1.1 0 1.9.5 1.9 1.8v3.9c-.5.1-1.1.2-1.6.2-1.5 0-2.6-.5-2.6-1.7 0-1.1 1-1.7 2.8-1.7h.6zm0 1.4h-.6c-1.2 0-2 .3-2 1.1s.8 1 1.8 1c.2 0 .5 0 .8-.1z"/><path d="m161.1 1240.7c-.2.1-.7.2-1.2.2-1.9 0-3.2-1-3.2-2.9 0-1.8 1.3-2.9 3.3-2.9.6 0 1.4.2 1.8.4v5.5c0 1.7-1.3 2.4-2.6 2.4-.7 0-1.3-.2-1.8-.4v-.7c.5.2 1.1.4 1.8.4.9 0 1.8-.5 1.8-1.9v-.1zm0-4.7c-.3-.1-.7-.2-1.1-.2-1.6 0-2.5.8-2.5 2.2s.9 2.2 2.4 2.2c.5 0 .8-.1 1.2-.2z"/><path d="m163.6 1233.5c0-.3.3-.6.6-.6s.6.3.6.6-.3.6-.6.6-.6-.3-.6-.6zm1 7.4h-.8v-5.7h.8z"/><path d="m167.3 1240.9h-.8v-8.8h.8z"/></g><path d="m169.6 1238.1c0 1.4 1 2.2 2.1 2.2.8 0 1.4-.2 1.9-.6v.8c-.5.4-1.2.5-1.9.5-1.6 0-2.9-1.1-2.9-3 0-1.7 1.2-3 2.7-3 1.4 0 2.4.9 2.4 2.5v.5h-4.3zm3.5-.6c-.1-1.2-.7-1.7-1.6-1.7s-1.6.6-1.8 1.7z"/><g enable-background="new"><path d="m175.1 1239.7c.5.4 1 .7 1.6.7.7 0 1.2-.3 1.2-.9 0-.7-.5-.9-1.4-1.2-1-.3-1.4-.8-1.4-1.7 0-1 .8-1.5 1.8-1.5.6 0 1.1.1 1.5.4v.8c-.4-.4-.9-.6-1.5-.6s-1 .3-1 .9c0 .5.3.8 1.2 1.1 1 .3 1.7.7 1.7 1.7 0 1.1-.9 1.6-1.9 1.6-.6 0-1.2-.2-1.6-.5v-.8z"/><path d="m181.3 1239.9c0 1.1-.6 2.2-1.3 2.7h-.6c.6-.7 1-1.6 1-2.7z"/><path d="m190.5 1243.3h-.8v-2.5c-.2.1-.7.2-1.2.2-1.9 0-3.2-1-3.2-3 0-1.8 1.3-3 3.3-3 .6 0 1.4.2 1.8.4v7.9zm-.8-7.3c-.3-.1-.7-.2-1.1-.2-1.6 0-2.5.9-2.5 2.2 0 1.4.9 2.3 2.4 2.3.5 0 .8-.1 1.2-.2z"/><path d="m196.9 1240.8c-.7.1-1.4.2-2 .2-1.6 0-2.6-.6-2.6-2v-3.8h.8v3.8c0 1.1.8 1.3 1.7 1.3.4 0 .8 0 1.2-.1v-5h.8v5.6z"/><path d="m201.8 1236.9c0-.7-.5-1.1-1.2-1.1s-1.1.2-1.7.5v-.7c.5-.3 1.1-.4 1.8-.4 1.1 0 1.9.5 1.9 1.8v3.9c-.5.1-1.1.2-1.6.2-1.5 0-2.6-.5-2.6-1.7 0-1.1 1-1.7 2.8-1.7h.6zm0 1.4h-.6c-1.2 0-2 .3-2 1.1s.8 1 1.8 1c.2 0 .5 0 .8-.1z"/><path d="m205.2 1240.9h-.8v-8.8h.8z"/><path d="m206.9 1233.5c0-.3.3-.6.6-.6s.6.3.6.6-.3.6-.6.6-.6-.3-.6-.6zm1 7.4h-.8v-5.7h.8z"/></g><path d="m209.1 1235.2h.9v-1.4h.8v1.4h1.6v.7h-1.6v3.5c0 .7.3 1 .8 1 .4 0 .7-.1 1.1-.3v.7c-.3.2-.7.3-1.2.3-.8 0-1.4-.4-1.4-1.6v-3.5h-.9v-.8z"/><g enable-background="new"><path d="m214.2 1238.1c0 1.4 1 2.2 2.1 2.2.8 0 1.4-.2 1.9-.6v.8c-.5.4-1.2.5-1.9.5-1.6 0-2.9-1.1-2.9-3 0-1.7 1.2-3 2.7-3 1.4 0 2.4.9 2.4 2.5v.5h-4.3zm3.5-.6c-.1-1.2-.7-1.7-1.6-1.7s-1.6.6-1.8 1.7zm-2-3.3 1.1-2h.8l-1.1 2z"/><path d="m223.2 1240.9h-.8v-8.8h.8z"/></g><path d="m227.6 1235.1c1.7 0 2.8 1.2 2.8 3s-1.2 3-2.8 3c-1.7 0-2.8-1.2-2.8-3s1.1-3 2.8-3zm0 .7c-1.2 0-2.1.9-2.1 2.3s.9 2.3 2.1 2.3 2.1-.9 2.1-2.3-.9-2.3-2.1-2.3z"/><g enable-background="new"><path d="m235.9 1240.7c-.2.1-.7.2-1.2.2-1.9 0-3.2-1-3.2-2.9 0-1.8 1.3-2.9 3.3-2.9.6 0 1.4.2 1.8.4v5.5c0 1.7-1.3 2.4-2.6 2.4-.7 0-1.3-.2-1.8-.4v-.7c.5.2 1.1.4 1.8.4.9 0 1.8-.5 1.8-1.9v-.1zm0-4.7c-.3-.1-.7-.2-1.1-.2-1.6 0-2.5.8-2.5 2.2s.9 2.2 2.4 2.2c.5 0 .8-.1 1.2-.2z"/><path d="m238.5 1233.5c0-.3.3-.6.6-.6s.6.3.6.6-.3.6-.6.6c-.4 0-.6-.3-.6-.6zm.9 7.4h-.8v-5.7h.8z"/><path d="m245.5 1236.4c-.5-.3-1.1-.5-1.6-.5-1.2 0-2.2.8-2.2 2.3 0 1.4 1 2.2 2.2 2.2.6 0 1.1-.2 1.6-.5v.8c-.6.3-1.1.4-1.7.4-1.6 0-3-1.1-3-3s1.4-3 2.9-3c.6 0 1.1.1 1.6.4v.9z"/><path d="m246.9 1233.5c0-.3.3-.6.6-.6s.6.3.6.6-.3.6-.6.6-.6-.3-.6-.6zm1 7.4h-.8v-5.7h.8z"/><path d="m250.2 1238.1c0 1.4 1 2.2 2.1 2.2.8 0 1.4-.2 1.9-.6v.8c-.5.4-1.2.5-1.9.5-1.6 0-2.9-1.1-2.9-3 0-1.7 1.2-3 2.7-3 1.4 0 2.4.9 2.4 2.5v.5h-4.3zm3.5-.6c-.1-1.2-.7-1.7-1.6-1.7s-1.6.6-1.8 1.7z"/><path d="m256.8 1240.9h-.8v-8.8h.8z"/><path d="m259.5 1240.9h-.8v-8.8h.8z"/></g><path d="m261.8 1238.1c0 1.4 1 2.2 2.1 2.2.8 0 1.4-.2 1.9-.6v.8c-.5.4-1.2.5-1.9.5-1.6 0-2.9-1.1-2.9-3 0-1.7 1.2-3 2.7-3 1.4 0 2.4.9 2.4 2.5v.5h-4.3zm3.5-.6c-.1-1.2-.7-1.7-1.6-1.7s-1.6.6-1.8 1.7z"/><path d="m268.5 1239.9c0 1.1-.6 2.2-1.3 2.7h-.6c.6-.7 1-1.6 1-2.7z"/><path d="m272.3 1235.2h.9v-1.4h.8v1.4h1.6v.7h-1.6v3.5c0 .7.3 1 .8 1 .4 0 .7-.1 1.1-.3v.7c-.3.2-.7.3-1.2.3-.8 0-1.4-.4-1.4-1.6v-3.5h-.9v-.8z"/><path d="m277.4 1238.1c0 1.4 1 2.2 2.1 2.2.8 0 1.4-.2 1.9-.6v.8c-.5.4-1.2.5-1.9.5-1.6 0-2.9-1.1-2.9-3 0-1.7 1.2-3 2.7-3 1.4 0 2.4.9 2.4 2.5v.5h-4.3zm3.5-.6c-.1-1.2-.7-1.7-1.6-1.7s-1.6.6-1.8 1.7z"/><g enable-background="new"><path d="m282.9 1239.7c.5.4 1 .7 1.6.7.7 0 1.2-.3 1.2-.9 0-.7-.5-.9-1.4-1.2-1-.3-1.4-.8-1.4-1.7 0-1 .8-1.5 1.8-1.5.6 0 1.1.1 1.5.4v.8c-.4-.4-.9-.6-1.5-.6s-1 .3-1 .9c0 .5.3.8 1.2 1.1 1 .3 1.7.7 1.7 1.7 0 1.1-.9 1.6-1.9 1.6-.6 0-1.2-.2-1.6-.5v-.8z"/><path d="m287.2 1235.2h.9v-1.4h.8v1.4h1.6v.7h-1.6v3.5c0 .7.3 1 .8 1 .4 0 .7-.1 1.1-.3v.7c-.3.2-.7.3-1.2.3-.8 0-1.4-.4-1.4-1.6v-3.5h-.9v-.8z"/><path d="m295.6 1239.9c0 1.1-.6 2.2-1.3 2.7h-.6c.6-.7 1-1.6 1-2.7z"/></g><path d="m46.2 1256.8c-.6.1-1.2.2-1.8.2-2 0-3.3-1.1-3.3-3s1.4-3 3.1-3c.4 0 .9.1 1.2.3v-3.3h.8zm-.8-4.7c-.3-.2-.7-.3-1.2-.3-1.3 0-2.3.8-2.3 2.3 0 1.4 1 2.3 2.5 2.3.4 0 .7 0 1.1-.1v-4.2z"/><path d="m50.6 1251.1c1.7 0 2.8 1.2 2.8 3s-1.2 3-2.8 3-2.8-1.2-2.8-3 1.1-3 2.8-3zm0 .7c-1.2 0-2.1.9-2.1 2.3s.9 2.3 2.1 2.3 2.1-.9 2.1-2.3-1-2.3-2.1-2.3z"/><g enable-background="new"><path d="m59.1 1252.4c-.5-.3-1.1-.5-1.6-.5-1.2 0-2.2.8-2.2 2.3 0 1.4 1 2.2 2.2 2.2.6 0 1.1-.2 1.6-.5v.8c-.6.3-1.1.4-1.7.4-1.6 0-3-1.1-3-3s1.4-3 2.9-3c.6 0 1.1.1 1.6.4v.9z"/><path d="m65.1 1256.8c-.7.1-1.4.2-2 .2-1.6 0-2.6-.6-2.6-2v-3.8h.8v3.8c0 1.1.8 1.3 1.7 1.3.4 0 .8 0 1.2-.1v-5h.8v5.6z"/><path d="m74.3 1253.1c0-1.1-.7-1.3-1.3-1.3-.7 0-1.3.2-1.7.3.1.2.2.6.2.9v3.8h-.8v-3.8c0-1.1-.7-1.3-1.3-1.3s-1.1.1-1.5.3v4.8h-.8v-5.3c.7-.3 1.5-.5 2.3-.5.7 0 1.2.1 1.5.4.7-.3 1.4-.4 2.1-.4 1.4 0 2.1.6 2.1 2v3.8h-.8z"/><path d="m77.3 1254.1c0 1.4 1 2.2 2.1 2.2.8 0 1.4-.2 1.9-.6v.8c-.5.4-1.2.5-1.9.5-1.6 0-2.9-1.1-2.9-3 0-1.7 1.2-3 2.7-3 1.4 0 2.4.9 2.4 2.5v.5h-4.3zm3.5-.6c-.1-1.2-.7-1.7-1.6-1.7s-1.6.6-1.8 1.7z"/><path d="m83.1 1251.5c.8-.3 1.6-.4 2.4-.4 1.4 0 2.3.6 2.3 2v3.8h-.8v-3.7c0-1.2-.8-1.4-1.6-1.4-.6 0-1.1.1-1.5.2v4.9h-.8z"/><path d="m88.9 1251.2h.9v-1.4h.8v1.4h1.6v.7h-1.6v3.5c0 .7.3 1 .8 1 .4 0 .7-.1 1.1-.3v.7c-.3.2-.7.3-1.2.3-.8 0-1.4-.4-1.4-1.6v-3.5h-.9v-.8z"/><path d="m96.7 1252.9c0-.7-.5-1.1-1.2-1.1s-1.1.2-1.7.5v-.7c.5-.3 1.1-.4 1.8-.4 1.1 0 1.9.5 1.9 1.8v3.9c-.5.1-1.1.2-1.6.2-1.5 0-2.6-.5-2.6-1.7 0-1.1 1-1.7 2.8-1.7h.6zm0 1.4h-.6c-1.2 0-2 .3-2 1.1s.8 1 1.8 1c.2 0 .5 0 .8-.1z"/><path d="m98.6 1251.2h.9v-1.4h.8v1.4h1.6v.7h-1.6v3.5c0 .7.3 1 .8 1 .4 0 .7-.1 1.1-.3v.7c-.3.2-.7.3-1.2.3-.8 0-1.4-.4-1.4-1.6v-3.5h-.9v-.8z"/><path d="m103.3 1249.5c0-.3.3-.6.6-.6s.6.3.6.6-.3.6-.6.6c-.4 0-.6-.3-.6-.6zm.9 7.4h-.8v-5.7h.8z"/><path d="m108.6 1251.1c1.7 0 2.8 1.2 2.8 3s-1.2 3-2.8 3c-1.7 0-2.8-1.2-2.8-3s1.1-3 2.8-3zm0 .7c-1.2 0-2.1.9-2.1 2.3s.9 2.3 2.1 2.3 2.1-.9 2.1-2.3-.9-2.3-2.1-2.3z"/><path d="m113 1251.5c.8-.3 1.6-.4 2.4-.4 1.4 0 2.3.6 2.3 2v3.8h-.8v-3.7c0-1.2-.8-1.4-1.6-1.4-.6 0-1.1.1-1.5.2v4.9h-.8z"/><path d="m120.1 1255.7c.4 0 .7.3.7.6 0 .4-.3.7-.7.7s-.6-.3-.6-.7c0-.3.2-.6.6-.6z"/></g></g></svg>