<svg enable-background="new 0 0 952 606" viewBox="0 0 952 606" xmlns="http://www.w3.org/2000/svg"><path d="m120 420.8v112.8l97.7 56.4 97.7-56.4v-112.8l-97.7-56.5z" fill="#ff4f81"/><path d="m324 420.8v112.8l97.7 56.4 97.7-56.4v-112.8l-97.7-56.5z" fill="#ff4f81"/><path d="m18 246.8v112.8l97.7 56.4 97.7-56.4v-112.8l-97.7-56.5z" fill="#ee2961"/><g fill="#fff"><path d="m146.8 466c.9.7 1.6 1.1 2.7 1.1 1.3 0 2.4-.6 2.4-2 0-1.3-1-1.8-2.2-2.2-1.9-.7-2.9-1.3-2.9-3.2 0-1.8 1.5-2.8 3.1-2.8 1 0 1.9.3 2.6.8v1.2c-.9-.7-1.6-1-2.6-1-1.2 0-2 .7-2 1.8 0 1 .6 1.5 2.2 2.1 2 .7 3 1.4 3 3.3 0 2-1.5 2.9-3.5 2.9-1.2 0-2.1-.3-2.7-.8v-1.2z"/><path d="m158.9 459.9c2.3 0 3.9 1.7 3.9 4.1s-1.6 4.1-3.9 4.1-3.9-1.7-3.9-4.1 1.6-4.1 3.9-4.1zm0 .9c-1.7 0-2.8 1.3-2.8 3.2s1.2 3.2 2.8 3.2 2.8-1.3 2.8-3.2c.1-1.9-1.1-3.2-2.8-3.2z"/><g enable-background="new"><path d="m170.9 461.6c-.7-.5-1.5-.7-2.2-.7-1.6 0-3 1.1-3 3.1s1.4 3.1 3.1 3.1c.8 0 1.5-.3 2.3-.7v1.1c-.8.4-1.5.6-2.4.6-2.2 0-4.1-1.5-4.1-4.1s1.9-4.1 4.1-4.1c.9 0 1.5.2 2.3.6v1.1z"/><path d="m174.2 467.9h-1.1v-12.2h1.1z"/><path d="m177.4 464c0 2 1.4 3.1 2.9 3.1 1.1 0 1.9-.3 2.7-.9v1.1c-.7.5-1.7.8-2.7.8-2.3 0-4-1.5-4-4.1 0-2.4 1.6-4.1 3.7-4.1 2 0 3.3 1.2 3.3 3.4v.7zm4.9-.9c-.1-1.6-1-2.3-2.3-2.3-1.2 0-2.2.8-2.5 2.3z"/><path d="m195.4 467.8c-.8.2-1.7.3-2.6.3-2.7 0-4.6-1.5-4.6-4.1s2-4.1 4.3-4.1c.6 0 1.3.1 1.7.4v-4.6h1.1v12.1zm-1.1-6.6c-.4-.2-1-.4-1.7-.4-1.8 0-3.2 1.1-3.2 3.1s1.4 3.2 3.5 3.2c.5 0 1 0 1.5-.1v-5.8z"/><path d="m198.5 464c0 2 1.4 3.1 2.9 3.1 1.1 0 1.9-.3 2.7-.9v1.1c-.7.5-1.7.8-2.7.8-2.3 0-4-1.5-4-4.1 0-2.4 1.6-4.1 3.7-4.1 2 0 3.3 1.2 3.3 3.4v.7zm4.9-.9c-.1-1.6-1-2.3-2.3-2.3-1.2 0-2.2.8-2.5 2.3z"/></g><g enable-background="new"><path d="m153.1 477.6c-.7-.5-1.5-.7-2.2-.7-1.6 0-3 1.1-3 3.1s1.4 3.1 3.1 3.1c.8 0 1.5-.3 2.3-.7v1.1c-.8.4-1.5.6-2.4.6-2.2 0-4.1-1.5-4.1-4.1s1.9-4.1 4.1-4.1c.9 0 1.5.2 2.3.6v1.1z"/><path d="m158.6 475.9c2.3 0 3.9 1.7 3.9 4.1s-1.6 4.1-3.9 4.1-3.9-1.7-3.9-4.1 1.6-4.1 3.9-4.1zm0 .9c-1.7 0-2.8 1.3-2.8 3.2s1.2 3.2 2.8 3.2c1.7 0 2.8-1.3 2.8-3.2.1-1.9-1.1-3.2-2.8-3.2z"/><path d="m174.7 478.7c0-1.5-1-1.8-1.8-1.8-.9 0-1.8.2-2.3.5.1.3.2.8.2 1.3v5.3h-1.1v-5.3c0-1.5-1-1.8-1.9-1.8s-1.6.2-2.1.4v6.7h-1.1v-7.3c1-.4 2.1-.7 3.2-.7.9 0 1.6.2 2.1.6.9-.4 1.9-.6 2.9-.6 1.9 0 2.9.8 2.9 2.7v5.3h-1.1v-5.3z"/></g><g enable-background="new"><path d="m178.6 476.4c.7-.3 1.7-.5 2.7-.5 2.7 0 4.3 1.4 4.3 4.1 0 2.6-1.7 4.1-4.3 4.1-.6 0-1.3-.1-1.7-.3v3.4h-1.1v-10.8zm1.1 6.4c.5.2 1.1.3 1.7.3 1.9 0 3.2-1.2 3.2-3.2 0-1.9-1.2-3.1-3.2-3.1-.6 0-1.2.1-1.7.2z"/><path d="m188.4 480c0 2 1.4 3.1 2.9 3.1 1.1 0 1.9-.3 2.7-.9v1.1c-.7.5-1.7.8-2.7.8-2.3 0-4-1.5-4-4.1 0-2.4 1.6-4.1 3.7-4.1 2 0 3.3 1.2 3.3 3.4v.7zm4.8-.9c-.1-1.6-1-2.3-2.3-2.3-1.2 0-2.2.8-2.5 2.3zm-2.8-4.4 1.5-2.7h1.1l-1.5 2.7z"/></g><path d="m195.9 476.1h1.2v-1.9h1.1v1.9h2.2v.9h-2.2v4.8c0 1 .4 1.4 1.1 1.4.5 0 .9-.2 1.5-.4v1c-.5.2-1 .4-1.7.4-1.1 0-2-.6-2-2.2v-5h-1.2z"/><g enable-background="new"><path d="m203.9 480c0 2 1.4 3.1 2.9 3.1 1.1 0 1.9-.3 2.7-.9v1.1c-.7.5-1.7.8-2.7.8-2.3 0-4-1.5-4-4.1 0-2.4 1.6-4.1 3.7-4.1 2 0 3.3 1.2 3.3 3.4v.7zm4.9-.9c-.1-1.6-1-2.3-2.3-2.3-1.2 0-2.2.8-2.5 2.3z"/><path d="m211.9 476.5c1-.4 2.2-.6 3.3-.6 2 0 3.2.8 3.2 2.7v5.3h-1.1v-5.1c0-1.6-1.1-1.9-2.2-1.9-.8 0-1.6.1-2.1.3v6.7h-1.1z"/><path d="m226.7 477.6c-.7-.5-1.5-.7-2.2-.7-1.6 0-3 1.1-3 3.1s1.4 3.1 3.1 3.1c.8 0 1.5-.3 2.3-.7v1.1c-.8.4-1.5.6-2.4.6-2.2 0-4.1-1.5-4.1-4.1s1.9-4.1 4.1-4.1c.9 0 1.5.2 2.3.6v1.1z"/></g><path d="m229.8 480c0 2 1.4 3.1 2.9 3.1 1.1 0 1.9-.3 2.7-.9v1.1c-.7.5-1.7.8-2.7.8-2.3 0-4-1.5-4-4.1 0-2.4 1.6-4.1 3.7-4.1 2 0 3.3 1.2 3.3 3.4v.7zm4.9-.9c-.1-1.6-1-2.3-2.3-2.3-1.2 0-2.2.8-2.5 2.3z"/><path d="m237.6 482.2c.7.6 1.4.9 2.2.9 1 0 1.6-.4 1.6-1.3s-.7-1.2-1.9-1.6c-1.4-.5-2-1-2-2.3 0-1.4 1-2.1 2.5-2.1.8 0 1.5.2 2.1.6v1.2c-.6-.5-1.2-.8-2.1-.8s-1.4.5-1.4 1.2.4 1.1 1.6 1.5c1.4.4 2.3.9 2.3 2.4s-1.2 2.3-2.7 2.3c-.9 0-1.7-.3-2.2-.6z"/><path d="m148.1 500.7h-.9v-8.3c.4-.1 1-.1 1.5-.1 2.3 0 3.3 1.1 3.3 2.6 0 1.8-1.2 2.7-3.3 2.7-.2 0-.4 0-.5 0v3.1zm0-3.8h.4c1.7 0 2.5-.7 2.5-2 0-1.1-.6-1.9-2.4-1.9-.2 0-.4 0-.6 0v3.9z"/><path d="m153.7 497.7c0 1.5 1.1 2.4 2.3 2.4.9 0 1.5-.2 2.1-.7v.8c-.5.4-1.3.6-2.1.6-1.8 0-3.1-1.2-3.1-3.2 0-1.8 1.3-3.2 2.9-3.2 1.5 0 2.6.9 2.6 2.7v.6zm3.8-.7c-.1-1.3-.7-1.8-1.8-1.8-1 0-1.7.6-2 1.8zm-2.2-3.5 1.2-2.1h.8l-1.2 2.1z"/><g enable-background="new"><path d="m165.1 500.6c-.7.2-1.3.2-2 .2-2.1 0-3.5-1.1-3.5-3.2s1.5-3.2 3.4-3.2c.5 0 1 .1 1.3.3v-3.6h.8zm-.9-5.1c-.3-.2-.8-.3-1.3-.3-1.4 0-2.5.9-2.5 2.4 0 1.6 1.1 2.5 2.7 2.5.4 0 .8 0 1.1-.1z"/><path d="m170.3 496.4c0-.8-.5-1.2-1.3-1.2-.7 0-1.2.2-1.8.5v-.8c.5-.3 1.2-.5 1.9-.5 1.2 0 2 .5 2 1.9v4.2c-.6.2-1.2.2-1.7.2-1.7 0-2.8-.5-2.8-1.8 0-1.2 1.1-1.8 3-1.8h.7zm0 1.5h-.6c-1.3 0-2.2.3-2.2 1.1s.8 1.1 2 1.1c.3 0 .6 0 .9-.1v-2.1z"/></g><path d="m177.4 500.5c-.2.1-.8.3-1.3.3-2 0-3.4-1-3.4-3.1 0-2 1.4-3.2 3.5-3.2.6 0 1.5.2 2 .4v5.9c0 1.9-1.4 2.6-2.8 2.6-.7 0-1.4-.2-1.9-.4v-.8c.5.3 1.2.5 1.9.5 1 0 2-.5 2-2zm0-5.1c-.3-.1-.7-.2-1.1-.2-1.7 0-2.7.9-2.7 2.4s1 2.4 2.6 2.4c.5 0 .8-.1 1.3-.2v-4.4z"/><path d="m182.8 494.5c1.8 0 3.1 1.3 3.1 3.2s-1.2 3.2-3.1 3.2c-1.8 0-3.1-1.3-3.1-3.2s1.3-3.2 3.1-3.2zm0 .7c-1.3 0-2.2 1-2.2 2.5s.9 2.5 2.2 2.5 2.2-1 2.2-2.5c.1-1.5-.9-2.5-2.2-2.5z"/><g enable-background="new"><path d="m191.8 500.5c-.2.1-.8.3-1.3.3-2 0-3.4-1-3.4-3.1 0-2 1.4-3.2 3.5-3.2.6 0 1.5.2 2 .4v5.9c0 1.9-1.4 2.6-2.8 2.6-.7 0-1.4-.2-1.9-.4v-.8c.5.3 1.2.5 1.9.5 1 0 2-.5 2-2zm0-5.1c-.3-.1-.7-.2-1.1-.2-1.7 0-2.7.9-2.7 2.4s1 2.4 2.6 2.4c.5 0 .8-.1 1.3-.2v-4.4z"/><path d="m194.6 492.7c0-.3.3-.6.6-.6.4 0 .6.3.6.6s-.3.6-.6.6c-.4 0-.6-.3-.6-.6zm1 8h-.8v-6.1h.8z"/></g><path d="m198.1 497.7c0 1.5 1.1 2.4 2.3 2.4.9 0 1.5-.2 2.1-.7v.8c-.5.4-1.3.6-2.1.6-1.8 0-3.1-1.2-3.1-3.2 0-1.8 1.3-3.2 2.9-3.2 1.5 0 2.6.9 2.6 2.7v.6zm3.8-.7c-.1-1.3-.7-1.8-1.8-1.8-1 0-1.7.6-2 1.8z"/><g enable-background="new"><path d="m204 499.4c.5.5 1.1.7 1.7.7.8 0 1.3-.3 1.3-1s-.5-.9-1.5-1.2c-1.1-.4-1.5-.8-1.5-1.8 0-1.1.8-1.7 1.9-1.7.6 0 1.2.1 1.7.5v.9c-.5-.4-1-.7-1.7-.7s-1.1.4-1.1.9c0 .6.3.9 1.3 1.1 1.1.3 1.8.7 1.8 1.8 0 1.2-.9 1.8-2.1 1.8-.7 0-1.3-.2-1.7-.5v-.8z"/><path d="m212.2 494.9c.6-.2 1.3-.4 2.1-.4 2.1 0 3.4 1.1 3.4 3.2 0 2-1.3 3.2-3.3 3.2-.5 0-1-.1-1.3-.3v2.6h-.8v-8.3zm.8 5c.4.2.8.3 1.3.3 1.5 0 2.5-.9 2.5-2.5 0-1.5-.9-2.4-2.5-2.4-.5 0-1 .1-1.3.2z"/><path d="m222.5 496.4c0-.8-.5-1.2-1.3-1.2-.7 0-1.2.2-1.8.5v-.8c.5-.3 1.2-.5 1.9-.5 1.2 0 2 .5 2 1.9v4.2c-.6.2-1.2.2-1.7.2-1.7 0-2.8-.5-2.8-1.8 0-1.2 1.1-1.8 3-1.8h.7zm0 1.5h-.6c-1.3 0-2.2.3-2.2 1.1s.8 1.1 2 1.1c.3 0 .6 0 .9-.1v-2.1z"/><path d="m226.2 500.7h-.8v-5.5c.6-.4 1.4-.7 2.3-.7.3 0 .7 0 1 .1v.8c-.4-.1-.8-.2-1.1-.2-.6 0-1.1.1-1.4.3z"/><path d="m232.6 494.9c.6-.2 1.3-.4 2.1-.4 2.1 0 3.4 1.1 3.4 3.2 0 2-1.3 3.2-3.3 3.2-.5 0-1-.1-1.3-.3v2.6h-.8v-8.3zm.8 5c.4.2.8.3 1.3.3 1.5 0 2.5-.9 2.5-2.5 0-1.5-.9-2.4-2.5-2.4-.5 0-1 .1-1.3.2z"/></g><path d="m240.6 500.7h-.8v-5.5c.6-.4 1.4-.7 2.3-.7.3 0 .7 0 1 .1v.8c-.4-.1-.8-.2-1.1-.2-.6 0-1.1.1-1.4.3z"/><g enable-background="new"><path d="m246.7 494.5c1.8 0 3.1 1.3 3.1 3.2s-1.2 3.2-3.1 3.2c-1.8 0-3.1-1.3-3.1-3.2s1.3-3.2 3.1-3.2zm0 .7c-1.3 0-2.2 1-2.2 2.5s.9 2.5 2.2 2.5 2.2-1 2.2-2.5c.1-1.5-.9-2.5-2.2-2.5z"/><path d="m251.4 494.6h.8v6.9c0 1.2-.5 1.9-1.8 1.9-.3 0-.7-.1-.9-.2v-.8c.2.1.6.2.9.2.6 0 1-.3 1-1.2zm-.2-1.9c0-.3.3-.6.6-.6.4 0 .6.3.6.6s-.3.6-.6.6-.6-.3-.6-.6z"/></g><path d="m254.8 497.7c0 1.5 1.1 2.4 2.3 2.4.9 0 1.5-.2 2.1-.7v.8c-.5.4-1.3.6-2.1.6-1.8 0-3.1-1.2-3.1-3.2 0-1.8 1.3-3.2 2.9-3.2 1.5 0 2.6.9 2.6 2.7v.6zm3.8-.7c-.1-1.3-.7-1.8-1.8-1.8-1 0-1.7.6-2 1.8z"/><path d="m260.2 494.6h.9v-1.5h.8v1.5h1.7v.7h-1.6v3.7c0 .8.3 1.1.9 1.1.4 0 .7-.1 1.1-.3v.7c-.4.2-.8.3-1.3.3-.9 0-1.5-.5-1.5-1.7v-3.8h-.9v-.7z"/><path d="m355.2 432.9-2.3-7.5-1.1 7.5h-2.2l1.6-10.7h2.8l2.4 7.8 2.3-7.8h2.8l1.6 10.7h-2.3l-1.1-7.5-2.3 7.5z"/><path d="m368.4 424.7c2.3 0 4.2 1.9 4.2 4.2s-1.9 4.2-4.2 4.2-4.2-1.9-4.2-4.2c-.1-2.2 1.6-4.1 3.8-4.2zm0 1.9c-1.3-.2-2.5.7-2.7 2s.7 2.5 2 2.7 2.5-.7 2.7-2c0-.1 0-.2 0-.3.1-1.1-.7-2.2-1.8-2.3 0-.1-.1-.1-.2-.1z"/><path d="m381.7 432.7c-1.1.3-2.2.4-3.3.4-2.8 0-4.6-1.5-4.6-4.2-.1-2.2 1.6-4.1 3.8-4.2h.4c.5 0 1 .1 1.5.3v-4.3h2.2zm-2.1-5.8c-.4-.2-.9-.3-1.3-.3-1.1-.1-2.1.8-2.2 1.9v.3c-.1 1.2.8 2.3 2 2.4h.4c.4 0 .7 0 1-.1v-4.2z"/><path d="m391 432.7c-1.1.3-2.2.4-3.3.4-2.3 0-3.8-.7-3.8-3.1v-5.1h2.2v4.9c0 1 .5 1.5 1.6 1.5.4 0 .8 0 1.1-.1v-6.3h2.2z"/><path d="m395.5 432.9h-2.2v-12.3h2.2z"/><path d="m399.3 429.5c.2 1.1 1.3 1.8 2.4 1.7.9 0 1.9-.2 2.7-.7v1.8c-.9.5-1.9.8-2.9.7-2.1.2-4-1.4-4.2-3.5 0-.2 0-.4 0-.6 0-2.6 1.7-4.3 3.9-4.3 2.5 0 3.5 1.6 3.5 3.8v1zm3.3-1.3c0-1-.5-1.7-1.5-1.7-.9 0-1.7.8-1.7 1.7z"/><path d="m406.2 430.4c.7.5 1.6.9 2.5.9.7 0 1.1-.2 1.1-.7s-.3-.7-1.2-.9c-1.8-.3-2.6-1-2.6-2.5 0-1.8 1.3-2.6 3.1-2.6.8 0 1.6.2 2.4.6v1.9c-.7-.5-1.5-.8-2.3-.8-.7 0-1 .3-1 .7s.3.6 1 .8c2.1.4 2.8 1.2 2.8 2.6 0 1.7-1.3 2.5-3.2 2.5-.9 0-1.8-.2-2.6-.6z"/><path d="m421.9 432.9h-2.3v-8.7h-3.3v-2h8.8v2h-3.3v8.7z"/><path d="m427.1 429.5c.2 1.1 1.3 1.8 2.4 1.7.9 0 1.9-.2 2.7-.7v1.8c-.9.5-1.9.8-2.9.7-2.1.2-4-1.4-4.2-3.5 0-.2 0-.4 0-.5 0-2.6 1.7-4.3 3.9-4.3 2.5 0 3.5 1.6 3.5 3.8v1zm3.3-1.3c0-1-.5-1.7-1.5-1.7s-1.5.7-1.7 1.7z"/><path d="m440.3 427.3c-.6-.5-1.3-.8-2-.7-1.2-.1-2.2.8-2.3 2v.3c-.1 1.2.9 2.3 2.1 2.3h.3c.7 0 1.4-.3 2-.7v2c-.7.4-1.5.6-2.3.6-2.2.1-4.1-1.5-4.2-3.7 0-.1 0-.3 0-.4-.1-2.2 1.6-4.1 3.8-4.2h.5c.8 0 1.6.2 2.3.6z"/><path d="m442.1 420.7h2.2v4.3c.6-.2 1.3-.3 2-.3 1.8 0 3.1.8 3.1 3.2v5h-2.2v-4.9c.1-.7-.4-1.3-1.1-1.4-.1 0-.2 0-.3 0-.5 0-1 .1-1.5.2v6h-2.2z"/><path d="m451.6 425.4c1.2-.4 2.5-.7 3.8-.7 2.1 0 3.4.8 3.4 3.2v5h-2.2v-4.9c.1-.7-.4-1.3-1.1-1.4-.1 0-.2 0-.3 0-.5 0-1 .1-1.5.2v6h-2.2z"/><path d="m460.9 422.5c0-.7.5-1.3 1.3-1.3.7 0 1.3.6 1.3 1.3 0 .7-.6 1.3-1.3 1.3-.7-.1-1.3-.6-1.3-1.3zm2.4 10.4h-2.2v-8h2.2z"/><path d="m472.9 436.1h-2.2v-3.3c-.5.2-1 .2-1.5.2-2.2.2-4.1-1.4-4.3-3.6 0-.2 0-.4 0-.6 0-2.6 1.7-4.2 4.6-4.2 1.1 0 2.2.2 3.3.6zm-2.1-9.3c-.4-.1-.7-.2-1.1-.2-1.3 0-2.3 1-2.4 2.2s1 2.3 2.2 2.4c.4 0 .9-.1 1.3-.2z"/><path d="m482.1 432.7c-1.1.3-2.2.4-3.3.4-2.3 0-3.8-.7-3.8-3.1v-5.1h2.2v4.9c0 1 .5 1.5 1.6 1.5.4 0 .8 0 1.1-.1v-6.3h2.2z"/><path d="m486 429.5c.2 1.1 1.3 1.8 2.4 1.7.9 0 1.9-.2 2.7-.7v1.8c-.9.5-1.9.8-2.9.7-2.1.2-4-1.4-4.2-3.5 0-.2 0-.4 0-.6 0-2.6 1.7-4.3 3.9-4.3 2.5 0 3.5 1.6 3.5 3.8v1zm3.3-1.3c0-1-.5-1.7-1.5-1.7s-1.5.7-1.8 1.7z"/><path d="m492.8 430.4c.7.5 1.6.9 2.6.9.7 0 1.1-.2 1.1-.7s-.3-.7-1.2-.9c-1.8-.3-2.6-1-2.6-2.5 0-1.8 1.3-2.6 3.1-2.6.8 0 1.6.2 2.4.6v1.9c-.7-.5-1.5-.8-2.3-.8-.7 0-1 .3-1 .7s.3.6 1 .8c2.1.4 2.8 1.2 2.8 2.6 0 1.7-1.3 2.5-3.2 2.5-.9 0-1.8-.2-2.6-.6z"/><path d="m361.1 440.5v3.7h4.2v-3.7h1.1v8.8h-1.1v-4.1h-4.2v4.1h-1.1v-8.8z"/><path d="m370.1 441.5h-2.7v-1h6.5v1h-2.7v7.8h-1.1z"/><path d="m382.3 445.5c-.1-1.2-.1-2.7-.1-3.8-.3 1-.7 2.1-1.1 3.3l-1.5 4.3h-.9l-1.4-4.2c-.4-1.2-.8-2.4-1-3.4 0 1.1-.1 2.6-.2 3.9l-.2 3.8h-1.1l.6-8.8h1.5l1.5 4.2c.4 1.1.7 2 .9 3 .2-.9.5-1.8.9-3l1.6-4.2h1.4l.5 8.8h-1.1z"/><path d="m385.4 440.5h1.1v7.8h3.7v1h-4.9v-8.8z"/><path d="m396.1 441.8h-3.2l-.3 2.2c.2 0 .5-.1.7 0 .6 0 1.3.1 1.8.5.8.4 1.2 1.3 1.2 2.2 0 1.6-1.3 2.9-3 2.9-.1 0-.1 0-.2 0-.7 0-1.5-.2-2.1-.5l.3-.9c.6.3 1.2.5 1.8.5 1 .1 1.9-.7 2-1.8v-.1c0-1.1-.8-1.9-2.4-1.9-.4 0-.8 0-1.2.1l.5-4h4z"/><path d="m397.2 449.8 3.6-9.4h.9l-3.6 9.4z"/><path d="m408.8 449c-.7.3-1.5.4-2.3.4-2.3.1-4.2-1.6-4.3-3.8 0-.2 0-.4 0-.6-.1-2.4 1.7-4.5 4.1-4.6h.5c.7 0 1.4.1 2.1.4l-.3.9c-.6-.2-1.2-.4-1.8-.4-2.1 0-3.4 1.3-3.4 3.6-.2 1.7 1.1 3.3 2.8 3.5h.6c.6 0 1.3-.1 1.9-.4z"/><path d="m410 447.9c.6.4 1.3.6 2 .6 1.2 0 1.8-.6 1.8-1.5s-.5-1.3-1.7-1.8c-1.4-.5-2.3-1.2-2.3-2.5s1.1-2.4 2.8-2.4c.7 0 1.3.1 1.9.4l-.3.9c-.5-.3-1.1-.4-1.7-.4-1.2 0-1.7.7-1.7 1.3 0 .8.5 1.2 1.8 1.7 1.5.6 2.2 1.3 2.2 2.6s-1 2.5-3.1 2.5c-.8 0-1.5-.2-2.2-.6z"/><path d="m416.4 447.9c.6.4 1.3.6 2 .6 1.2 0 1.8-.6 1.8-1.5s-.5-1.3-1.6-1.8c-1.4-.5-2.3-1.2-2.3-2.5s1.1-2.4 2.8-2.4c.7 0 1.3.1 1.9.4l-.3.9c-.5-.3-1.1-.4-1.7-.4-1.2 0-1.6.7-1.6 1.3 0 .8.5 1.2 1.8 1.7 1.5.6 2.2 1.3 2.2 2.6s-1 2.5-3.1 2.5c-.8 0-1.5-.2-2.2-.6z"/><path d="m365.7 458.6c-1.4-1.1-3.4-.9-4.6.4-1.1 1.4-.9 3.4.4 4.6.6.5 1.3.7 2 .7.5 0 1.1-.1 1.6-.3v-2.6h.9v3c-.7.4-1.5.6-2.4.6-2.1.1-3.9-1.6-4-3.7 0-.1 0-.2 0-.3-.1-2.2 1.6-3.9 3.8-4h.2c.7 0 1.5.2 2.1.6z"/><path d="m368.5 464.9h-.8v-5.1c.6-.4 1.4-.6 2.1-.6.3 0 .6 0 1 .1v.7c-.3-.1-.7-.1-1-.1-.4 0-.9.1-1.3.3z"/><path d="m374.9 460.9c.1-.5-.3-1-.9-1.1-.1 0-.2 0-.3 0-.6 0-1.2.2-1.7.5v-.7c.5-.3 1.1-.4 1.8-.4 1.1 0 1.9.5 1.9 1.8v3.9c-.5.1-1.1.2-1.6.2-1.5 0-2.6-.5-2.6-1.7s1-1.7 2.8-1.7h.6zm0 1.4h-.6c-1.2 0-2 .3-2 1.1s.8 1 1.8 1c.3 0 .5 0 .8-.1z"/><path d="m377.5 459.5c.6-.2 1.3-.4 2-.4 2 0 3.1 1 3.1 3 .1 1.6-1.1 2.9-2.6 3-.2 0-.3 0-.5 0-.4 0-.8-.1-1.2-.2v2.5h-.8zm.8 4.6c.4.2.8.2 1.2.2 1.3 0 2.3-1 2.2-2.3 0-1.3-1-2.3-2.3-2.2-.4 0-.8 0-1.2.2v4.1z"/><path d="m384.1 456.1h.8v3.3c.5-.2 1.1-.3 1.7-.3 1.4 0 2.2.6 2.2 2v3.8h-.8v-3.7c0-1.2-.8-1.4-1.6-1.4-.5 0-1 .1-1.5.3v4.8h-.8z"/><path d="m390.5 457.5c0-.3.3-.6.7-.5.3 0 .5.2.5.5s-.2.6-.5.7c-.3 0-.6-.2-.7-.5 0-.1 0-.2 0-.2zm1 7.4h-.8v-5.7h.8z"/><path d="m393.1 463.7c.4.4 1 .7 1.6.7.7 0 1.2-.3 1.2-.9s-.5-.9-1.4-1.1-1.4-.8-1.4-1.7.8-1.5 1.8-1.5c.5 0 1.1.1 1.5.4v.8c-.4-.4-1-.6-1.5-.6-.6 0-1 .3-1 .9s.3.8 1.2 1.1 1.6.7 1.6 1.7-.9 1.6-1.9 1.6c-.6 0-1.1-.1-1.6-.5z"/><path d="m405.4 461.1c.1-.6-.4-1.2-1-1.3-.1 0-.2 0-.3 0-.6 0-1.1.1-1.7.3.1.3.2.6.2.9v3.8h-.8v-3.8c.1-.6-.4-1.2-1-1.3-.1 0-.2 0-.3 0-.5 0-1 .1-1.5.3v4.8h-.8v-5.3c.7-.3 1.5-.5 2.3-.5.5 0 1.1.1 1.5.4.7-.3 1.4-.4 2.1-.4 1.4 0 2.1.6 2.1 2v3.8h-.8z"/><path d="m408.4 462.1c-.1 1.2.8 2.1 2 2.2h.1c.7 0 1.4-.2 1.9-.6v.8c-.6.4-1.2.6-1.9.5-1.6-.2-2.8-1.7-2.6-3.3.2-1.3 1.1-2.4 2.4-2.6 1.2-.1 2.3.8 2.4 2.1v.4.5zm3.5-.6c.1-.8-.5-1.6-1.3-1.7-.1 0-.2 0-.3 0-.9 0-1.7.7-1.8 1.7z"/><path d="m360.8 478.4-.8 2.1h-.8l3-7.7h1l3 7.7h-.9l-.8-2.1zm1.8-5-1.6 4.3h3.2z"/><path d="m368.1 480.5h-.8v-8.8h.8z"/><path d="m374 480.3c-.4.2-.8.3-1.2.3-1.9 0-3.2-1-3.2-2.9s1.3-2.9 3.3-2.9c.6 0 1.3.1 1.9.4v5.5c0 1.3-1 2.4-2.3 2.4-.1 0-.2 0-.3 0-.6 0-1.2-.1-1.8-.4v-.8c.5.3 1.1.4 1.8.4.9.1 1.7-.6 1.8-1.5 0-.1 0-.3 0-.4zm0-4.7c-.3-.1-.7-.2-1.1-.2-1.6 0-2.5.8-2.5 2.2-.1 1.2.9 2.2 2 2.2h.3c.4 0 .8-.1 1.2-.2v-4z"/><path d="m379.1 474.7c1.7-.1 3.1 1.2 3.1 2.8s-1.2 3.1-2.8 3.1c-1.7.1-3.1-1.2-3.1-2.8v-.1c-.1-1.5 1-2.9 2.5-3zm0 .7c-1.3-.1-2.4.8-2.5 2-.1 1.3.8 2.4 2 2.5 1.3.1 2.4-.8 2.5-2 0-.1 0-.2 0-.2.1-1.1-.7-2.2-1.9-2.3z"/><path d="m384.2 480.5h-.8v-5.1c.9-.6 2-.8 3-.5v.8c-.3-.1-.7-.1-1-.1-.4 0-.9.1-1.3.3v4.6z"/><path d="m387.5 473.1c0-.3.3-.6.6-.6s.6.3.6.6-.3.6-.6.6-.6-.3-.6-.6zm1 7.4h-.8v-5.7h.8z"/><path d="m389.7 474.8h.9v-1.4h.8v1.4h1.6v.7h-1.6v3.5c0 .7.3 1 .8 1 .4 0 .7-.1 1-.3v.7c-.4.2-.8.3-1.2.3-.8 0-1.4-.4-1.4-1.6v-3.6h-.9z"/><path d="m394.5 471.7h.8v3.3c.5-.2 1.1-.3 1.7-.3 1.4 0 2.2.6 2.2 2v3.8h-.8v-3.7c0-1.2-.8-1.4-1.6-1.4-.5 0-1 .1-1.5.3v4.8h-.8z"/><path d="m408.3 476.7c.1-.6-.4-1.2-1-1.3-.1 0-.2 0-.3 0-.6 0-1.1.1-1.7.3.1.3.2.6.2.9v3.8h-.8v-3.8c.1-.6-.4-1.2-1-1.3-.1 0-.2 0-.3 0-.5 0-1 .1-1.5.3v4.8h-.8v-5.3c.7-.3 1.5-.5 2.3-.5.5 0 1.1.1 1.5.4.7-.3 1.4-.4 2.1-.4 1.4 0 2.1.6 2.1 2v3.8h-.8z"/><path d="m411.4 477.7c-.1 1.2.8 2.1 2 2.2h.1c.7 0 1.4-.2 1.9-.6v.8c-.6.4-1.2.6-1.9.5-1.6-.2-2.8-1.7-2.6-3.3.2-1.3 1.1-2.4 2.4-2.6 1.2-.1 2.3.8 2.4 2.1v.4.5zm3.5-.6c.1-.8-.5-1.6-1.3-1.7-.1 0-.2 0-.3 0-.9 0-1.7.7-1.8 1.7z"/><path d="m359.2 494.7c.4.5 1 .9 1.7.9.8 0 1.1-.4 1.1-1.4v-5.8h.8v5.9c.1 1-.6 1.8-1.5 1.9-.1 0-.3 0-.4 0-.6 0-1.3-.2-1.7-.7z"/><path d="m367.6 492.1c.1-.5-.3-1-.9-1.1-.1 0-.2 0-.3 0-.6 0-1.2.2-1.7.5v-.7c.5-.3 1.1-.4 1.8-.4 1.1 0 1.9.5 1.9 1.8v3.9c-.5.1-1.1.2-1.6.2-1.5 0-2.6-.5-2.6-1.7s1-1.7 2.8-1.7h.6zm0 1.4h-.6c-1.2 0-2 .3-2 1.1s.8 1 1.8 1c.3 0 .5 0 .8-.1z"/><path d="m371.6 496.1-2.2-5.7h.8l1.9 4.9 1.8-4.9h.8l-2.2 5.7z"/><path d="m378.7 492.1c.1-.5-.3-1-.9-1.1-.1 0-.2 0-.3 0-.6 0-1.2.2-1.7.5v-.7c.5-.3 1.1-.4 1.8-.4 1.1 0 1.9.5 1.9 1.8v3.9c-.5.1-1.1.2-1.6.2-1.5 0-2.6-.5-2.6-1.7s1-1.7 2.8-1.7h.6zm0 1.4h-.6c-1.2 0-2 .3-2 1.1s.8 1 1.8 1c.3 0 .5 0 .8-.1z"/><path d="m381 494.9c.4.4 1 .7 1.6.7.7 0 1.2-.3 1.2-.9s-.5-.9-1.4-1.1-1.4-.8-1.4-1.7.8-1.5 1.8-1.5c.5 0 1.1.1 1.5.4v.8c-.4-.4-1-.6-1.5-.6-.6 0-1 .3-1 .9s.3.8 1.2 1.1 1.6.7 1.6 1.7-.9 1.6-1.9 1.6c-.6 0-1.1-.1-1.6-.5z"/><path d="m390.1 491.6c-.5-.3-1-.5-1.6-.5-1.2 0-2.3 1-2.3 2.3s1 2.3 2.3 2.3c.6 0 1.1-.2 1.6-.5v.8c-.5.3-1.1.4-1.7.4-1.6-.3-2.8-1.8-2.5-3.4.2-1.3 1.2-2.3 2.5-2.5.6 0 1.1.1 1.6.4z"/><path d="m392.5 496.1h-.8v-5.1c.6-.4 1.4-.6 2.1-.6.3 0 .6 0 1 .1v.8c-.3-.1-.7-.1-1-.1-.4 0-.9.1-1.3.3z"/><path d="m395.8 488.7c0-.3.3-.6.6-.6s.6.3.6.6-.3.6-.6.6c-.3-.1-.6-.3-.6-.6zm1 7.4h-.8v-5.7h.8z"/><path d="m398.7 490.7c.6-.2 1.3-.4 2-.4 2 0 3.1 1 3.1 3 .1 1.6-1.1 2.9-2.6 3-.1 0-.3 0-.4 0-.4 0-.8-.1-1.2-.2v2.5h-.8zm.8 4.6c.4.2.8.2 1.2.2 1.3 0 2.3-1 2.2-2.3 0-1.3-1-2.3-2.3-2.2-.4 0-.8 0-1.2.2v4.1z"/><path d="m404.6 490.4h.9v-1.4h.8v1.4h1.6v.7h-1.6v3.5c0 .7.3 1 .8 1 .4 0 .7-.1 1-.3v.8c-.4.2-.8.3-1.2.3-.8 0-1.4-.4-1.4-1.6v-3.6h-.9z"/><path d="m410.8 495.1c0 1-.5 2-1.3 2.6h-.6c.7-.7 1-1.7 1-2.6z"/><path d="m414.5 494.7c.4.5 1 .9 1.7.9.8 0 1.1-.4 1.1-1.4v-5.8h.8v5.9c.1 1-.6 1.8-1.5 1.9-.1 0-.3 0-.4 0-.6 0-1.2-.2-1.7-.7z"/><path d="m423.5 496.2c-2.2-.1-3.9-2-3.8-4.2s2-3.9 4.2-3.8 3.9 2 3.8 4.2c-.1 1.8-1.4 3.4-3.2 3.7l1.7 1.7h-1.1zm.1-7.2c-1.8 0-3.3 1.4-3.4 3.2 0 1.8 1.4 3.3 3.2 3.4 1.8 0 3.3-1.4 3.4-3.2v-.1c.1-1.7-1.3-3.2-3-3.2 0-.1-.1-.1-.2-.1z"/><path d="m433.6 496c-.7.1-1.3.2-2 .2-1.6 0-2.6-.6-2.6-2v-3.8h.8v3.8c0 1.1.9 1.3 1.8 1.3.4 0 .8 0 1.3-.1v-5h.8z"/><path d="m435.9 493.3c-.1 1.2.8 2.1 2 2.2h.1c.7 0 1.4-.2 1.9-.6v.8c-.6.4-1.3.6-1.9.5-1.6-.2-2.8-1.7-2.6-3.3.2-1.3 1.1-2.4 2.4-2.6 1.2-.1 2.3.8 2.4 2.1v.4.5zm3.5-.6c-.1-1.2-.7-1.7-1.6-1.7s-1.7.7-1.8 1.7z"/><path d="m442.5 496.1h-.8v-5.1c.6-.4 1.4-.6 2.1-.6.3 0 .6 0 1 .1v.8c-.3-.1-.7-.1-1-.1-.4 0-.9.1-1.3.3z"/><path d="m448.1 495.6 1.9-5.2h.8l-3.1 8h-.8l.8-2-2.4-6h.9z"/><path d="m360.9 511.7h-.8v-7.7c.5-.1.9-.1 1.4-.1 2.1 0 3 1 3 2.5 0 1.6-1.2 2.5-3.1 2.5h-.5zm0-3.6h.4c1.6 0 2.4-.6 2.4-1.9 0-1-.6-1.8-2.3-1.8h-.5z"/><path d="m371.5 504h.8v7.7h-.8v-3.6h-4.8v3.6h-.8v-7.7h.8v3.4h4.8z"/><path d="m375.3 511.7h-.8v-7.7c.5-.1.9-.1 1.4-.1 2.1 0 3 1 3 2.5 0 1.6-1.1 2.5-3.1 2.5h-.5zm0-3.6h.4c1.6 0 2.4-.6 2.4-1.9 0-1-.6-1.8-2.2-1.8h-.5z"/><path d="m380.6 510.7c0 1-.5 2-1.3 2.6h-.6c.7-.7 1-1.7 1-2.6z"/><path d="m385.1 506h.8v6.4c0 1.1-.5 1.8-1.7 1.8-.3 0-.6-.1-.9-.2v-.7c.3.2.6.2.9.2.6 0 .9-.3.9-1.1zm-.2-1.8c0-.3.3-.6.7-.5.3 0 .5.2.5.5s-.2.6-.5.7c-.3 0-.6-.2-.7-.5 0-.1 0-.1 0-.2z"/><path d="m390.8 507.7c.1-.5-.3-1-.9-1.1-.1 0-.2 0-.3 0-.6 0-1.2.2-1.7.5v-.7c.5-.3 1.1-.4 1.8-.4 1.1 0 1.9.5 1.9 1.8v3.9c-.5.1-1.1.2-1.6.2-1.5 0-2.6-.5-2.6-1.7s1-1.7 2.8-1.7h.6zm0 1.4h-.6c-1.2 0-2 .3-2 1.1s.8 1 1.8 1c.3 0 .5 0 .8-.1z"/><path d="m394.8 511.7-2.2-5.7h.8l1.8 4.9 1.8-4.9h.8l-2.2 5.7z"/><path d="m401.8 507.7c.1-.5-.3-1-.9-1.1-.1 0-.2 0-.3 0-.6 0-1.2.2-1.7.5v-.7c.5-.3 1.1-.4 1.8-.4 1.1 0 1.9.5 1.9 1.8v3.9c-.5.1-1.1.2-1.6.2-1.5 0-2.6-.5-2.6-1.7s1-1.7 2.8-1.7h.6zm0 1.4h-.6c-1.2 0-2 .3-2 1.1s.8 1 1.8 1c.3 0 .5 0 .8-.1z"/><path d="m405.5 510.7c0 1-.5 2-1.3 2.6h-.6c.7-.7 1-1.7 1-2.6z"/><path d="m412.2 511.7-3-7.7h.9l2.6 6.9 2.6-6.9h.9l-3 7.7z"/><path d="m421.4 511.6c-.7.1-1.3.2-2 .2-1.6 0-2.6-.6-2.6-2v-3.8h.8v3.8c0 1.1.8 1.3 1.7 1.3.4 0 .8 0 1.3-.1v-5h.8z"/><path d="m423.7 508.9c-.1 1.2.8 2.1 2 2.2h.1c.7 0 1.4-.2 1.9-.6v.8c-.6.4-1.3.6-1.9.5-1.6-.2-2.8-1.7-2.6-3.3.2-1.3 1.1-2.4 2.4-2.6 1.2-.1 2.3.8 2.4 2.1v.4.5zm3.5-.6c-.1-1.2-.7-1.7-1.6-1.7s-1.7.7-1.8 1.7z"/><path d="m428.7 510.3c.4.5 1 .9 1.7.9.8 0 1.1-.4 1.1-1.4v-5.8h.8v5.9c.1 1-.6 1.8-1.5 1.9-.1 0-.3 0-.4 0-.6 0-1.2-.2-1.7-.7z"/><path d="m433.8 510.4c.5.5 1.3.8 2 .8.9 0 1.7-.4 1.7-1.4s-.7-1.3-1.6-1.6c-1.4-.5-2.1-1-2.1-2.3 0-1.1.9-2 2-2h.3c.7 0 1.3.2 1.9.6v.8c-.5-.5-1.2-.7-1.9-.8s-1.4.5-1.5 1.2v.1c0 .7.4 1.1 1.6 1.5 1.4.5 2.2 1 2.2 2.4s-1.1 2.1-2.5 2.1c-.7 0-1.4-.2-2-.6v-.8z"/><path d="m360.1 519.6c.5-.1 1-.1 1.6-.1 2 0 2.8.8 2.8 2.1 0 .9-.7 1.7-1.6 1.8 1-.1 1.9.7 1.9 1.7v.2c0 1.2-.9 2.2-3.1 2.2-.5 0-1.1-.1-1.6-.2zm.8 3.5h.7c1.3 0 2.1-.5 2.1-1.5s-.7-1.4-2-1.4c-.2 0-.5 0-.8 0zm0 3.6h.8c1.6 0 2.3-.6 2.3-1.5s-.9-1.5-2.3-1.5h-.8z"/><path d="m369.3 523.3c.1-.5-.3-1-.9-1.1-.1 0-.2 0-.3 0-.6 0-1.2.2-1.7.5v-.7c.5-.3 1.1-.4 1.8-.4 1.1 0 1.9.5 1.9 1.8v3.9c-.5.1-1.1.2-1.6.2-1.5 0-2.6-.5-2.6-1.7s1-1.7 2.8-1.7h.6zm0 1.4h-.6c-1.2 0-2 .3-2 1.1s.8 1 1.8 1c.3 0 .5 0 .8-.1z"/><path d="m371.6 526.1c.4.4 1 .7 1.6.7.7 0 1.2-.3 1.2-.9s-.5-.8-1.4-1.2-1.4-.8-1.4-1.7.8-1.5 1.8-1.5c.5 0 1.1.1 1.5.4v.8c-.4-.4-1-.6-1.5-.6-.6 0-1 .3-1 .9s.3.8 1.2 1.1 1.6.7 1.6 1.7-.9 1.6-1.9 1.6c-.6 0-1.1-.1-1.6-.5z"/><path d="m377 524.5c-.1 1.2.8 2.1 2 2.2h.1c.7 0 1.4-.2 1.9-.6v.8c-.6.4-1.3.6-1.9.5-1.6-.2-2.8-1.7-2.6-3.3.2-1.3 1.1-2.4 2.4-2.6 1.2-.1 2.3.8 2.4 2.1v.4.5zm3.5-.6c.1-.8-.5-1.6-1.3-1.7-.1 0-.2 0-.3 0-.9 0-1.7.7-1.8 1.7z"/><path d="m390 527.2c-.6.1-1.2.2-1.9.2-2 0-3.3-1.1-3.3-3-.1-1.6 1.2-2.9 2.8-3h.3c.4 0 .9.1 1.2.3v-3.3h.8v8.8zm-.8-4.7c-.4-.2-.8-.3-1.2-.3-1.2-.1-2.2.8-2.3 2v.3c0 1.2.9 2.3 2.1 2.3h.3c.4 0 .7 0 1.1-.1z"/><path d="m392.3 524.5c-.1 1.2.8 2.1 2 2.2h.1c.7 0 1.4-.2 1.9-.6v.8c-.6.4-1.3.6-1.9.5-1.6-.2-2.8-1.7-2.6-3.3.2-1.3 1.1-2.4 2.4-2.6 1.2-.1 2.3.8 2.4 2.1v.4.5zm3.5-.6c.1-.8-.5-1.6-1.3-1.7-.1 0-.2 0-.3 0-.9 0-1.7.7-1.8 1.7z"/><path d="m405.2 527.2c-.6.1-1.2.2-1.9.2-2 0-3.3-1.1-3.3-3-.1-1.6 1.2-2.9 2.8-3h.3c.4 0 .9.1 1.2.3v-3.3h.8zm-.7-4.7c-.4-.2-.8-.3-1.2-.3-1.2-.1-2.2.8-2.3 2v.3c0 1.2.9 2.3 2.1 2.3h.3c.4 0 .7 0 1.1-.1z"/><path d="m409.6 521.5c1.7-.1 3.1 1.2 3.1 2.8s-1.2 3.1-2.8 3.1-3.1-1.2-3.1-2.8v-.1c-.1-1.5 1-2.9 2.5-3zm0 .7c-1.3-.1-2.4.8-2.5 2-.1 1.3.8 2.4 2 2.5s2.4-.8 2.5-2c0-.1 0-.2 0-.2.1-1.1-.7-2.2-1.9-2.3 0 0 0 0-.1 0z"/><path d="m414 521.9c.8-.3 1.6-.4 2.4-.4 1.4 0 2.3.6 2.3 2v3.8h-.8v-3.7c0-1.2-.8-1.4-1.6-1.4-.5 0-1 .1-1.5.2v4.9h-.8z"/><path d="m420.5 521.9c.8-.3 1.6-.4 2.4-.4 1.4 0 2.3.6 2.3 2v3.8h-.8v-3.7c0-1.2-.8-1.4-1.6-1.4-.5 0-1 .1-1.5.2v4.9h-.8z"/><path d="m427.5 524.5c-.1 1.2.8 2.1 2 2.2h.1c.7 0 1.4-.2 1.9-.6v.8c-.6.4-1.3.6-1.9.5-1.6-.2-2.8-1.7-2.6-3.3.2-1.3 1.1-2.4 2.4-2.6 1.2-.1 2.3.8 2.4 2.1v.4.5zm3.5-.6c-.1-1.2-.7-1.7-1.6-1.7s-1.7.7-1.8 1.7zm-2-3.3 1.1-2h.8l-1.1 2z"/><path d="m433.7 524.5c-.1 1.2.8 2.1 2 2.2h.1c.7 0 1.4-.2 1.9-.6v.8c-.6.4-1.3.6-1.9.5-1.6-.2-2.8-1.7-2.6-3.3.2-1.3 1.1-2.4 2.4-2.6 1.2-.1 2.3.8 2.4 2v.5.5zm3.5-.6c-.1-1.2-.7-1.7-1.6-1.7s-1.7.7-1.8 1.7z"/><path d="m439.2 526.1c.4.4 1 .7 1.6.7.7 0 1.2-.3 1.2-.9s-.5-.8-1.4-1.2-1.4-.8-1.4-1.7.8-1.5 1.8-1.5c.5 0 1.1.1 1.5.4v.8c-.4-.4-1-.6-1.5-.6-.6 0-1 .3-1 .9s.3.8 1.2 1.1 1.6.7 1.6 1.7-.9 1.6-1.9 1.6c-.6 0-1.1-.1-1.6-.5z"/><path d="m360.9 542.9h-.8v-7.7c.5-.1 1-.1 1.5-.1 2.1 0 3 1 3 2.4 0 1.1-.7 2-1.7 2.3l2.6 3.2h-1l-2.4-3h-1.2zm0-3.6h.8c1.3 0 2-.6 2-1.8 0-1-.6-1.7-2.2-1.7h-.6z"/><path d="m366.8 540.1c-.1 1.2.8 2.1 2 2.2h.1c.7 0 1.4-.2 1.9-.6v.8c-.6.4-1.3.6-1.9.5-1.6-.2-2.8-1.7-2.6-3.3.2-1.3 1.1-2.4 2.4-2.6 1.2-.1 2.3.8 2.4 2.1v.4.5zm3.5-.6c.1-.8-.5-1.6-1.3-1.7-.1 0-.2 0-.3 0-.9 0-1.7.7-1.8 1.7zm-2-3.3 1.1-2h.8l-1.1 2z"/><path d="m372.3 541.7c.4.4 1 .7 1.6.7.7 0 1.2-.3 1.2-.9s-.5-.8-1.4-1.2-1.4-.8-1.4-1.7.8-1.5 1.8-1.5c.5 0 1.1.1 1.5.4v.8c-.4-.4-1-.6-1.5-.6-.6 0-1 .3-1 .9s.3.8 1.2 1.1 1.6.7 1.6 1.7-.9 1.6-2 1.6c-.6 0-1.1-.1-1.6-.5z"/><path d="m377.7 540.1c-.1 1.2.8 2.1 2 2.2h.1c.7 0 1.4-.2 1.9-.6v.8c-.6.4-1.2.6-1.9.5-1.6-.2-2.8-1.7-2.6-3.3.2-1.3 1.1-2.4 2.4-2.6 1.2-.1 2.3.8 2.4 2.1v.4.5zm3.5-.6c.1-.8-.5-1.6-1.3-1.7-.1 0-.2 0-.3 0-.9 0-1.7.7-1.8 1.7z"/><path d="m386.5 538.9c.1-.5-.3-1-.9-1.1-.1 0-.2 0-.3 0-.6 0-1.2.2-1.7.5v-.7c.5-.3 1.1-.4 1.8-.4 1.1 0 1.9.5 1.9 1.8v3.9c-.5.1-1.1.2-1.6.2-1.5 0-2.6-.5-2.6-1.7s1-1.7 2.8-1.7h.6zm0 1.4h-.6c-1.2 0-2 .3-2 1.1s.8 1 1.8 1c.3 0 .5 0 .8-.1z"/><path d="m393.5 542.8c-.7.1-1.3.2-2 .2-1.6 0-2.6-.6-2.6-2v-3.8h.8v3.8c0 1.1.8 1.3 1.7 1.3.4 0 .8 0 1.3-.1v-5h.8z"/><path d="m401.2 534.1h.8l-4.1 10.6h-.8z"/><path d="m406.4 540.8-.8 2.1h-.8l3-7.7h1l3 7.7h-.8l-.8-2.1zm1.9-5-1.6 4.3h3.2z"/><path d="m417.7 542.8c-.6.1-1.2.2-1.9.2-2 0-3.3-1.1-3.3-3-.1-1.6 1.2-2.9 2.8-3h.3c.4 0 .9.1 1.2.3v-3.3h.8zm-.8-4.7c-.4-.2-.8-.3-1.2-.3-1.2-.1-2.2.8-2.3 2v.3c0 1.2.9 2.3 2.1 2.3h.3c.4 0 .7 0 1.1-.1z"/><path d="m426.9 539.1c.1-.6-.4-1.2-1-1.3-.1 0-.2 0-.3 0-.6 0-1.1.1-1.7.3.1.3.2.6.2.9v3.8h-.8v-3.8c.1-.6-.4-1.2-1-1.3-.1 0-.2 0-.3 0-.5 0-1 .1-1.5.3v4.8h-.8v-5.3c.7-.3 1.5-.5 2.3-.5.5 0 1.1.1 1.5.4.7-.3 1.4-.4 2.1-.4 1.4 0 2.1.6 2.1 2v3.8h-.8z"/><path d="m429.4 535.5c0-.3.3-.6.6-.6s.6.3.6.6-.3.6-.6.6c-.4-.1-.6-.3-.6-.6zm1 7.4h-.8v-5.7h.8z"/><path d="m432.3 537.5c.8-.3 1.6-.4 2.4-.4 1.4 0 2.3.6 2.3 2v3.8h-.8v-3.7c0-1.2-.8-1.4-1.6-1.4-.5 0-1 .1-1.5.2v4.9h-.8z"/><g enable-background="new"><path d="m47.9 279.6h-3.7v-21.3c1.4-.2 3.5-.4 5.3-.4 5.6 0 8.7 2.6 8.7 7.3 0 5-3.7 7.3-8.7 7.3-.5 0-1.2 0-1.6-.1zm0-10.4c.3 0 .9.1 1.4.1 3.4 0 5.2-1.3 5.2-4.2 0-2.5-1.7-4-5-4-.4 0-1.1 0-1.5.1v8z"/><path d="m76.4 258.2h3.6v21.4h-3.7v-9.1h-11v9.1h-3.7v-21.4h3.7v9h11.1z"/><path d="m88.6 274.5-1.9 5h-3.9l8.3-21.4h4.5l8.4 21.4h-4l-1.9-5zm4.8-12.9-3.7 9.9h7.3z"/><path d="m105.8 274.6c1.7 1.3 3.4 2.2 5.7 2.2 2.1 0 4-.8 4-3 0-2-1.5-2.7-3.9-3.5-4.1-1.3-6-2.9-6-6.5 0-3.9 3.1-6 6.8-6 2.3 0 4 .6 5.5 1.6v3.7c-1.7-1.4-3.3-2.2-5.4-2.2s-3.3 1.1-3.3 2.8 1.2 2.4 3.9 3.3c4.2 1.3 6 3 6 6.7 0 4.3-3.4 6.2-7.5 6.2-2.3 0-4.3-.6-5.7-1.6v-3.7z"/><path d="m136.2 276.3v3.2h-13.2v-21.4h13v3.2h-9.4v5.8h8.7v3.2h-8.7v6z"/><path d="m145.4 259.2 7.8-1.3v21.7h-3.6v-17.7l-4.2.6z"/></g></g><path d="m533 72.8v112.8l97.7 56.4 97.7-56.4v-112.8l-97.7-56.5z" fill="#5ea6e0"/><path d="m737 71.8v112.8l97.7 56.4 97.7-56.4v-112.8l-97.7-56.5z" fill="#5ea6e0"/><path d="m428 246.8v112.8l97.7 56.4 97.7-56.4v-112.8l-97.7-56.5z" fill="#2f82c5"/><g enable-background="new" fill="#fff"><path d="m566.7 109.9v1h-6.2v-10.7h6.1v1h-5v3.8h4.6v1h-4.6v4h5.1zm-3.6-10.6 1.3-2.4h1.1l-1.3 2.4z"/><path d="m570 110.9h-1.1v-12.2h1.1z"/><path d="m576.8 105.4c0-1-.6-1.5-1.7-1.5-.9 0-1.6.3-2.3.6v-1c.7-.4 1.5-.6 2.4-.6 1.6 0 2.6.7 2.6 2.5v5.4c-.7.2-1.6.3-2.2.3-2.1 0-3.5-.7-3.5-2.3 0-1.5 1.4-2.4 3.8-2.4h.9zm0 1.9h-.8c-1.6 0-2.8.4-2.8 1.5s1.1 1.4 2.5 1.4c.3 0 .7 0 1.1-.1z"/></g><path d="m583.2 110.9h-1.1v-7.1c.8-.5 1.8-.8 2.9-.8.4 0 .9.1 1.3.2v1.1c-.5-.2-1-.2-1.4-.2-.8 0-1.4.2-1.8.4v6.4z" fill="#fff"/><g enable-background="new" fill="#fff"><path d="m593.8 110.6c-.3.2-1 .3-1.6.3-2.6 0-4.4-1.4-4.4-4 0-2.5 1.8-4.1 4.5-4.1.8 0 1.9.2 2.6.5v7.6c0 2.4-1.8 3.3-3.6 3.3-1 0-1.9-.2-2.4-.5v-1c.7.3 1.6.6 2.4.6 1.3 0 2.5-.6 2.5-2.6zm0-6.5c-.4-.1-.9-.2-1.5-.2-2.2 0-3.4 1.2-3.4 3.1s1.3 3.1 3.3 3.1c.6 0 1.1-.1 1.6-.3z"/><path d="m597.3 100.6c0-.5.4-.8.8-.8.5 0 .8.4.8.8s-.4.8-.8.8c-.5 0-.8-.4-.8-.8zm1.3 10.3h-1.1v-7.9h1.1z"/><path d="m600.9 109.2c.7.6 1.3.9 2.2.9 1 0 1.6-.4 1.6-1.3s-.7-1.2-1.9-1.6c-1.4-.5-2-1-2-2.3 0-1.4 1-2.1 2.5-2.1.8 0 1.5.2 2.1.6v1.2c-.6-.5-1.2-.8-2.1-.8s-1.4.5-1.4 1.2.4 1.1 1.6 1.5c1.4.4 2.3.9 2.3 2.4s-1.2 2.3-2.7 2.3c-.9 0-1.7-.3-2.2-.6z"/></g><path d="m609.2 109.2c.7.6 1.4.9 2.2.9 1 0 1.6-.4 1.6-1.3s-.7-1.2-1.9-1.6c-1.4-.5-2-1-2-2.3 0-1.4 1-2.1 2.5-2.1.8 0 1.5.2 2.1.6v1.2c-.6-.5-1.2-.8-2.1-.8s-1.4.5-1.4 1.2.4 1.1 1.6 1.5c1.4.4 2.3.9 2.3 2.4s-1.2 2.3-2.7 2.3c-.9 0-1.7-.3-2.2-.6z" fill="#fff"/><g enable-background="new" fill="#fff"><path d="m617.4 107c0 2 1.4 3.1 2.9 3.1 1.1 0 1.9-.3 2.7-.9v1.1c-.7.5-1.7.8-2.7.8-2.3 0-4-1.5-4-4.1 0-2.4 1.6-4.1 3.7-4.1 2 0 3.3 1.2 3.3 3.4v.7zm4.9-.9c-.1-1.6-1-2.3-2.3-2.3-1.2 0-2.2.8-2.5 2.3z"/><path d="m635.4 105.7c0-1.5-1-1.8-1.8-1.8-.9 0-1.8.2-2.3.5.1.3.2.8.2 1.3v5.3h-1.1v-5.3c0-1.5-1-1.8-1.9-1.8s-1.6.2-2.1.4v6.7h-1.1v-7.3c1-.4 2.1-.7 3.2-.7.9 0 1.6.2 2.1.6.9-.4 1.9-.6 2.9-.6 1.9 0 2.9.8 2.9 2.7v5.3h-1.1v-5.3z"/><path d="m639.6 107c0 2 1.4 3.1 2.9 3.1 1.1 0 1.9-.3 2.7-.9v1.1c-.7.5-1.7.8-2.7.8-2.3 0-4-1.5-4-4.1 0-2.4 1.6-4.1 3.7-4.1 2 0 3.3 1.2 3.3 3.4v.7zm4.8-.9c-.1-1.6-1-2.3-2.3-2.3-1.2 0-2.2.8-2.5 2.3z"/><path d="m647.6 103.5c1-.4 2.2-.6 3.3-.6 2 0 3.2.8 3.2 2.7v5.3h-1.1v-5.1c0-1.6-1.1-1.9-2.2-1.9-.8 0-1.6.1-2.1.3v6.7h-1.1z"/><path d="m655.6 103.1h1.2v-1.9h1.1v1.9h2.2v.9h-2.2v4.8c0 1 .4 1.4 1.1 1.4.5 0 .9-.2 1.5-.4v1c-.5.2-1 .4-1.7.4-1.1 0-2-.6-2-2.2v-5h-1.2z"/><path d="m667.2 109.5c0 1.5-.8 3.1-1.8 3.7h-.9c.9-.9 1.4-2.2 1.4-3.7z"/></g><g enable-background="new" fill="#fff"><path d="m564.4 121.4c0-1-.6-1.5-1.7-1.5-.9 0-1.6.3-2.3.6v-1c.7-.4 1.5-.6 2.4-.6 1.6 0 2.6.7 2.6 2.5v5.4c-.7.2-1.6.3-2.2.3-2.1 0-3.5-.7-3.5-2.3 0-1.5 1.4-2.4 3.8-2.4h.9zm0 1.9h-.8c-1.6 0-2.8.4-2.8 1.5s1.1 1.4 2.5 1.4c.3 0 .7 0 1.1-.1z"/><path d="m568.1 119.4c.7-.3 1.7-.5 2.7-.5 2.7 0 4.3 1.4 4.3 4.1 0 2.6-1.7 4.1-4.3 4.1-.6 0-1.3-.1-1.7-.3v3.4h-1.1v-10.8zm1.1 6.4c.5.2 1.1.3 1.7.3 1.9 0 3.2-1.2 3.2-3.2 0-1.9-1.2-3.1-3.2-3.1-.6 0-1.2.1-1.7.2z"/><path d="m577.3 119.4c.7-.3 1.7-.5 2.7-.5 2.7 0 4.3 1.4 4.3 4.1 0 2.6-1.7 4.1-4.3 4.1-.6 0-1.3-.1-1.7-.3v3.4h-1.1v-10.8zm1 6.4c.5.2 1.1.3 1.7.3 1.9 0 3.2-1.2 3.2-3.2 0-1.9-1.2-3.1-3.2-3.1-.6 0-1.2.1-1.7.2z"/></g><path d="m588.9 126.9h-1.1v-7.1c.8-.5 1.8-.8 2.9-.8.4 0 .9.1 1.3.2v1.1c-.5-.2-1-.2-1.4-.2-.8 0-1.4.2-1.8.4v6.4z" fill="#fff"/><g enable-background="new" fill="#fff"><path d="m597.4 118.9c2.3 0 3.9 1.7 3.9 4.1s-1.6 4.1-3.9 4.1-3.9-1.7-3.9-4.1 1.6-4.1 3.9-4.1zm0 .9c-1.7 0-2.8 1.3-2.8 3.2s1.2 3.2 2.8 3.2 2.8-1.3 2.8-3.2c.1-1.9-1.1-3.2-2.8-3.2z"/><path d="m604.8 126.9h-1.1v-6.9h-1.2v-.9h1.2v-2c0-1.6.8-2.6 2.4-2.6.6 0 1 .1 1.4.4v1c-.4-.3-.8-.5-1.4-.5-.8 0-1.3.4-1.3 1.7v1.9h2.2v.9h-2.2z"/><path d="m611.7 118.9c2.3 0 3.9 1.7 3.9 4.1s-1.6 4.1-3.9 4.1-3.9-1.7-3.9-4.1 1.5-4.1 3.9-4.1zm0 .9c-1.7 0-2.8 1.3-2.8 3.2s1.2 3.2 2.8 3.2c1.7 0 2.8-1.3 2.8-3.2s-1.2-3.2-2.8-3.2z"/><path d="m617.7 119.5c1-.4 2.2-.6 3.3-.6 2 0 3.2.8 3.2 2.7v5.3h-1.1v-5.1c0-1.6-1.1-1.9-2.2-1.9-.8 0-1.6.1-2.1.3v6.7h-1.1z"/><path d="m633.3 126.8c-.8.2-1.7.3-2.6.3-2.7 0-4.6-1.5-4.6-4.1s2-4.1 4.3-4.1c.6 0 1.3.1 1.7.4v-4.6h1.1v12.1zm-1.1-6.6c-.4-.2-1-.4-1.7-.4-1.8 0-3.2 1.1-3.2 3.1s1.4 3.2 3.5 3.2c.5 0 1 0 1.5-.1v-5.8z"/><path d="m635.8 116.6c0-.5.4-.8.8-.8s.8.4.8.8-.4.8-.8.8c-.5 0-.8-.4-.8-.8zm1.3 10.3h-1.1v-7.9h1.1z"/><path d="m639.3 125.2c.7.6 1.3.9 2.2.9 1 0 1.6-.4 1.6-1.3s-.7-1.2-1.9-1.6c-1.4-.5-2-1-2-2.3 0-1.4 1-2.1 2.5-2.1.8 0 1.5.2 2.1.6v1.2c-.6-.5-1.2-.8-2.1-.8s-1.4.5-1.4 1.2.4 1.1 1.6 1.5c1.4.4 2.3.9 2.3 2.4s-1.2 2.3-2.7 2.3c-.9 0-1.7-.3-2.2-.6z"/></g><path d="m649.3 125.2c.7.6 1.3.9 2.2.9 1 0 1.6-.4 1.6-1.3s-.7-1.2-1.9-1.6c-1.4-.5-2-1-2-2.3 0-1.4 1-2.1 2.5-2.1.8 0 1.5.2 2.1.6v1.2c-.6-.5-1.2-.8-2.1-.8s-1.4.5-1.4 1.2.4 1.1 1.6 1.5c1.4.4 2.3.9 2.3 2.4s-1.2 2.3-2.7 2.3c-.9 0-1.7-.3-2.2-.6z" fill="#fff"/><g enable-background="new" fill="#fff"><path d="m657.5 123c0 2 1.4 3.1 2.9 3.1 1.1 0 1.9-.3 2.7-.9v1.1c-.7.5-1.7.8-2.7.8-2.3 0-4-1.5-4-4.1 0-2.4 1.6-4.1 3.7-4.1 2 0 3.3 1.2 3.3 3.4v.7zm4.9-.9c-.1-1.6-1-2.3-2.3-2.3-1.2 0-2.2.8-2.5 2.3z"/><path d="m675.5 121.7c0-1.5-1-1.8-1.8-1.8-.9 0-1.8.2-2.3.5.1.3.2.8.2 1.3v5.3h-1.1v-5.3c0-1.5-1-1.8-1.9-1.8s-1.6.2-2.1.4v6.7h-1.1v-7.3c1-.4 2.1-.7 3.2-.7.9 0 1.6.2 2.1.6.9-.4 1.9-.6 2.9-.6 1.9 0 2.9.8 2.9 2.7v5.3h-1.1v-5.3z"/><path d="m679.7 123c0 2 1.4 3.1 2.9 3.1 1.1 0 1.9-.3 2.7-.9v1.1c-.7.5-1.7.8-2.7.8-2.3 0-4-1.5-4-4.1 0-2.4 1.6-4.1 3.7-4.1 2 0 3.3 1.2 3.3 3.4v.7zm4.9-.9c-.1-1.6-1-2.3-2.3-2.3-1.2 0-2.2.8-2.5 2.3z"/><path d="m687.7 119.5c1-.4 2.2-.6 3.3-.6 2 0 3.2.8 3.2 2.7v5.3h-1.1v-5.1c0-1.6-1.1-1.9-2.2-1.9-.8 0-1.6.1-2.1.3v6.7h-1.1z"/><path d="m695.7 119.1h1.2v-1.9h1.1v1.9h2.2v.9h-2.2v4.8c0 1 .4 1.4 1.1 1.4.5 0 .9-.2 1.5-.4v1c-.5.2-1 .4-1.7.4-1.1 0-2-.6-2-2.2v-5h-1.2z"/></g><path d="m566.9 142.8c-.8.2-1.7.3-2.6.3-2.7 0-4.6-1.5-4.6-4.1s2-4.1 4.3-4.1c.6 0 1.3.1 1.7.4v-4.6h1.1v12.1zm-1.1-6.6c-.4-.2-1-.4-1.7-.4-1.8 0-3.2 1.1-3.2 3.1s1.4 3.2 3.5 3.2c.5 0 1 0 1.5-.1v-5.8z" fill="#fff"/><path d="m570.5 139c0 2 1.4 3.1 2.9 3.1 1.1 0 1.9-.3 2.7-.9v1.1c-.7.5-1.7.8-2.7.8-2.3 0-4-1.5-4-4.1 0-2.4 1.6-4.1 3.7-4.1 2 0 3.3 1.2 3.3 3.4v.7zm4.8-.9c-.1-1.6-1-2.3-2.3-2.3-1.2 0-2.2.8-2.5 2.3z" fill="#fff"/><g enable-background="new" fill="#fff"><path d="m578.2 141.2c.7.6 1.4.9 2.2.9 1 0 1.6-.4 1.6-1.3s-.7-1.2-1.9-1.6c-1.4-.5-2-1-2-2.3 0-1.4 1-2.1 2.5-2.1.8 0 1.5.2 2.1.6v1.2c-.6-.5-1.2-.8-2.1-.8s-1.4.5-1.4 1.2.4 1.1 1.6 1.5c1.4.4 2.3.9 2.3 2.4s-1.2 2.3-2.7 2.3c-.9 0-1.7-.3-2.2-.6z"/><path d="m594.4 136.6c-.7-.5-1.5-.7-2.2-.7-1.6 0-3 1.1-3 3.1s1.4 3.1 3.1 3.1c.8 0 1.5-.3 2.3-.7v1.1c-.8.4-1.5.6-2.4.6-2.2 0-4.1-1.5-4.1-4.1s1.9-4.1 4.1-4.1c.9 0 1.5.2 2.3.6v1.1z"/><path d="m599.9 134.9c2.3 0 3.9 1.7 3.9 4.1s-1.6 4.1-3.9 4.1-3.9-1.7-3.9-4.1 1.6-4.1 3.9-4.1zm0 .9c-1.7 0-2.8 1.3-2.8 3.2s1.2 3.2 2.8 3.2c1.7 0 2.8-1.3 2.8-3.2.1-1.9-1.1-3.2-2.8-3.2z"/><path d="m616 137.7c0-1.5-1-1.8-1.8-1.8-.9 0-1.8.2-2.3.5.1.3.2.8.2 1.3v5.3h-1.1v-5.3c0-1.5-1-1.8-1.9-1.8s-1.6.2-2.1.4v6.7h-1v-7.3c1-.4 2.1-.7 3.2-.7.9 0 1.6.2 2.1.6.9-.4 1.9-.6 2.9-.6 1.9 0 2.9.8 2.9 2.7v5.3h-1.1z"/></g><g enable-background="new" fill="#fff"><path d="m620.6 135.4c.7-.3 1.7-.5 2.7-.5 2.7 0 4.3 1.4 4.3 4.1 0 2.6-1.7 4.1-4.3 4.1-.6 0-1.3-.1-1.7-.3v3.4h-1.1v-10.8zm1.1 6.4c.5.2 1.1.3 1.7.3 1.9 0 3.2-1.2 3.2-3.2 0-1.9-1.2-3.1-3.2-3.1-.6 0-1.2.1-1.7.2z"/><path d="m630.4 139c0 2 1.4 3.1 2.9 3.1 1.1 0 1.9-.3 2.7-.9v1.1c-.7.5-1.7.8-2.7.8-2.3 0-4-1.5-4-4.1 0-2.4 1.6-4.1 3.7-4.1 2 0 3.3 1.2 3.3 3.4v.7zm4.8-.9c-.1-1.6-1-2.3-2.3-2.3-1.2 0-2.2.8-2.5 2.3zm-2.8-4.4 1.5-2.7h1.1l-1.5 2.7z"/></g><path d="m638 135.1h1.2v-1.9h1.1v1.9h2.2v.9h-2.2v4.8c0 1 .4 1.4 1.1 1.4.5 0 .9-.2 1.5-.4v1c-.5.2-1 .4-1.7.4-1.1 0-2-.6-2-2.2v-5h-1.2z" fill="#fff"/><g enable-background="new" fill="#fff"><path d="m645.9 139c0 2 1.4 3.1 2.9 3.1 1.1 0 1.9-.3 2.7-.9v1.1c-.7.5-1.7.8-2.7.8-2.3 0-4-1.5-4-4.1 0-2.4 1.6-4.1 3.7-4.1 2 0 3.3 1.2 3.3 3.4v.7zm4.9-.9c-.1-1.6-1-2.3-2.3-2.3-1.2 0-2.2.8-2.5 2.3z"/><path d="m653.9 135.5c1-.4 2.2-.6 3.3-.6 2 0 3.2.8 3.2 2.7v5.3h-1.1v-5.1c0-1.6-1.1-1.9-2.2-1.9-.8 0-1.6.1-2.1.3v6.7h-1.1z"/><path d="m668.7 136.6c-.7-.5-1.5-.7-2.2-.7-1.6 0-3 1.1-3 3.1s1.4 3.1 3.1 3.1c.8 0 1.5-.3 2.3-.7v1.1c-.8.4-1.5.6-2.4.6-2.2 0-4.1-1.5-4.1-4.1s1.9-4.1 4.1-4.1c.9 0 1.5.2 2.3.6v1.1z"/></g><path d="m671.9 139c0 2 1.4 3.1 2.9 3.1 1.1 0 1.9-.3 2.7-.9v1.1c-.7.5-1.7.8-2.7.8-2.3 0-4-1.5-4-4.1 0-2.4 1.6-4.1 3.7-4.1 2 0 3.3 1.2 3.3 3.4v.7zm4.8-.9c-.1-1.6-1-2.3-2.3-2.3-1.2 0-2.2.8-2.5 2.3z" fill="#fff"/><path d="m679.6 141.2c.7.6 1.3.9 2.2.9 1 0 1.6-.4 1.6-1.3s-.7-1.2-1.9-1.6c-1.4-.5-2-1-2-2.3 0-1.4 1-2.1 2.5-2.1.8 0 1.5.2 2.1.6v1.2c-.6-.5-1.2-.8-2.1-.8s-1.4.5-1.4 1.2.4 1.1 1.6 1.5c1.4.4 2.3.9 2.3 2.4s-1.2 2.3-2.7 2.3c-.9 0-1.7-.3-2.2-.6z" fill="#fff"/><path d="m561.1 159.7h-.9v-8.3c.4-.1 1-.1 1.5-.1 2.3 0 3.3 1.1 3.3 2.6 0 1.8-1.2 2.7-3.3 2.7-.2 0-.4 0-.5 0v3.1zm0-3.8h.4c1.7 0 2.5-.7 2.5-2 0-1.1-.6-1.9-2.4-1.9-.2 0-.4 0-.6 0v3.9z" fill="#fff"/><path d="m566.7 156.7c0 1.5 1.1 2.4 2.3 2.4.9 0 1.5-.2 2.1-.7v.8c-.5.4-1.3.6-2.1.6-1.8 0-3.1-1.2-3.1-3.2 0-1.8 1.3-3.2 2.9-3.2 1.5 0 2.6.9 2.6 2.7v.6zm3.8-.7c-.1-1.3-.7-1.8-1.8-1.8-1 0-1.7.6-2 1.8zm-2.2-3.5 1.2-2.1h.8l-1.2 2.1z" fill="#fff"/><g enable-background="new" fill="#fff"><path d="m578.1 159.6c-.7.2-1.3.2-2 .2-2.1 0-3.5-1.1-3.5-3.2s1.5-3.2 3.4-3.2c.5 0 1 .1 1.3.3v-3.6h.8zm-.9-5.1c-.3-.2-.8-.3-1.3-.3-1.4 0-2.5.9-2.5 2.4 0 1.6 1.1 2.5 2.7 2.5.4 0 .8 0 1.1-.1z"/><path d="m583.3 155.4c0-.8-.5-1.2-1.3-1.2-.7 0-1.2.2-1.8.5v-.8c.5-.3 1.2-.5 1.9-.5 1.2 0 2 .5 2 1.9v4.2c-.6.2-1.2.2-1.7.2-1.7 0-2.8-.5-2.8-1.8 0-1.2 1.1-1.8 3-1.8h.7zm0 1.5h-.6c-1.3 0-2.2.3-2.2 1.1s.8 1.1 2 1.1c.3 0 .6 0 .9-.1v-2.1z"/></g><path d="m590.4 159.5c-.2.1-.8.3-1.3.3-2 0-3.4-1-3.4-3.1 0-2 1.4-3.2 3.5-3.2.6 0 1.5.2 2 .4v5.9c0 1.9-1.4 2.6-2.8 2.6-.7 0-1.4-.2-1.9-.4v-.8c.5.3 1.2.5 1.9.5 1 0 2-.5 2-2zm0-5.1c-.3-.1-.7-.2-1.1-.2-1.7 0-2.7.9-2.7 2.4s1 2.4 2.6 2.4c.5 0 .8-.1 1.3-.2v-4.4z" fill="#fff"/><path d="m595.8 153.5c1.8 0 3.1 1.3 3.1 3.2s-1.2 3.2-3.1 3.2c-1.8 0-3.1-1.3-3.1-3.2s1.3-3.2 3.1-3.2zm0 .7c-1.3 0-2.2 1-2.2 2.5s.9 2.5 2.2 2.5 2.2-1 2.2-2.5c.1-1.5-.9-2.5-2.2-2.5z" fill="#fff"/><g enable-background="new" fill="#fff"><path d="m604.8 159.5c-.2.1-.8.3-1.3.3-2 0-3.4-1-3.4-3.1 0-2 1.4-3.2 3.5-3.2.6 0 1.5.2 2 .4v5.9c0 1.9-1.4 2.6-2.8 2.6-.7 0-1.4-.2-1.9-.4v-.8c.5.3 1.2.5 1.9.5 1 0 2-.5 2-2zm0-5.1c-.3-.1-.7-.2-1.1-.2-1.7 0-2.7.9-2.7 2.4s1 2.4 2.6 2.4c.5 0 .8-.1 1.3-.2v-4.4z"/><path d="m607.6 151.7c0-.3.3-.6.6-.6.4 0 .6.3.6.6s-.3.6-.6.6c-.4 0-.6-.3-.6-.6zm1 8h-.8v-6.1h.8z"/></g><path d="m611.1 156.7c0 1.5 1.1 2.4 2.3 2.4.9 0 1.5-.2 2.1-.7v.8c-.5.4-1.3.6-2.1.6-1.8 0-3.1-1.2-3.1-3.2 0-1.8 1.3-3.2 2.9-3.2 1.5 0 2.6.9 2.6 2.7v.6zm3.8-.7c-.1-1.3-.7-1.8-1.8-1.8-1 0-1.7.6-2 1.8z" fill="#fff"/><g enable-background="new" fill="#fff"><path d="m617 158.4c.5.5 1 .7 1.7.7.8 0 1.3-.3 1.3-1s-.5-.9-1.5-1.2c-1.1-.4-1.5-.8-1.5-1.8 0-1.1.8-1.7 1.9-1.7.6 0 1.2.1 1.7.5v.9c-.5-.4-1-.7-1.7-.7s-1.1.4-1.1.9c0 .6.3.9 1.3 1.1 1.1.3 1.8.7 1.8 1.8 0 1.2-.9 1.8-2.1 1.8-.7 0-1.3-.2-1.7-.5v-.8z"/><path d="m625.2 153.9c.6-.2 1.3-.4 2.1-.4 2.1 0 3.4 1.1 3.4 3.2 0 2-1.3 3.2-3.3 3.2-.5 0-1-.1-1.3-.3v2.6h-.8v-8.3zm.8 5c.4.2.8.3 1.3.3 1.5 0 2.5-.9 2.5-2.5 0-1.5-.9-2.4-2.5-2.4-.5 0-1 .1-1.3.2z"/><path d="m635.5 155.4c0-.8-.5-1.2-1.3-1.2-.7 0-1.2.2-1.8.5v-.8c.5-.3 1.2-.5 1.9-.5 1.2 0 2 .5 2 1.9v4.2c-.6.2-1.2.2-1.7.2-1.7 0-2.8-.5-2.8-1.8 0-1.2 1.1-1.8 3-1.8h.7zm0 1.5h-.6c-1.3 0-2.2.3-2.2 1.1s.8 1.1 2 1.1c.3 0 .6 0 .9-.1v-2.1z"/><path d="m639.2 159.7h-.8v-5.5c.6-.4 1.4-.7 2.3-.7.3 0 .7 0 1 .1v.8c-.4-.1-.8-.2-1.1-.2-.6 0-1.1.1-1.4.3z"/><path d="m645.6 153.9c.6-.2 1.3-.4 2.1-.4 2.1 0 3.4 1.1 3.4 3.2 0 2-1.3 3.2-3.3 3.2-.5 0-1-.1-1.3-.3v2.6h-.8v-8.3zm.8 5c.4.2.8.3 1.3.3 1.5 0 2.5-.9 2.5-2.5 0-1.5-.9-2.4-2.5-2.4-.5 0-1 .1-1.3.2z"/></g><path d="m653.6 159.7h-.8v-5.5c.6-.4 1.4-.7 2.3-.7.3 0 .7 0 1 .1v.8c-.4-.1-.8-.2-1.1-.2-.6 0-1 .1-1.4.3z" fill="#fff"/><g enable-background="new" fill="#fff"><path d="m659.7 153.5c1.8 0 3.1 1.3 3.1 3.2s-1.2 3.2-3.1 3.2-3.1-1.3-3.1-3.2 1.3-3.2 3.1-3.2zm0 .7c-1.3 0-2.2 1-2.2 2.5s.9 2.5 2.2 2.5 2.2-1 2.2-2.5c.1-1.5-.9-2.5-2.2-2.5z"/><path d="m664.4 153.6h.8v6.9c0 1.2-.5 1.9-1.8 1.9-.3 0-.7-.1-.9-.2v-.8c.2.1.6.2.9.2.6 0 1-.3 1-1.2zm-.2-1.9c0-.3.3-.6.6-.6.4 0 .6.3.6.6s-.3.6-.6.6-.6-.3-.6-.6z"/></g><path d="m667.8 156.7c0 1.5 1.1 2.4 2.3 2.4.9 0 1.5-.2 2.1-.7v.8c-.5.4-1.3.6-2.1.6-1.8 0-3.1-1.2-3.1-3.2 0-1.8 1.3-3.2 2.9-3.2 1.5 0 2.6.9 2.6 2.7v.6zm3.8-.7c-.1-1.3-.7-1.8-1.8-1.8-1 0-1.7.6-2 1.8z" fill="#fff"/><path d="m673.2 153.6h.9v-1.5h.8v1.5h1.7v.7h-1.6v3.7c0 .8.3 1.1.9 1.1.4 0 .7-.1 1.1-.3v.7c-.4.2-.8.3-1.3.3-.9 0-1.5-.5-1.5-1.7v-3.8h-.9v-.7z" fill="#fff"/><path d="m764.6 83.9h-1.1v-10.7c.5-.1 1.3-.2 1.9-.2 3 0 4.2 1.4 4.2 3.4 0 2.3-1.6 3.5-4.3 3.5-.2 0-.5 0-.7 0zm0-4.9h.6c2.2 0 3.3-.8 3.3-2.6 0-1.4-.8-2.4-3.1-2.4-.2 0-.5 0-.7 0v5z" fill="#fff"/><path d="m773.5 83.9h-1.1v-7.1c.8-.5 1.8-.8 2.9-.8.4 0 .9.1 1.3.2v1.1c-.5-.2-1-.2-1.4-.2-.8 0-1.4.2-1.8.4v6.4z" fill="#fff"/><g enable-background="new" fill="#fff"><path d="m782.1 75.9c2.3 0 3.9 1.7 3.9 4.1s-1.6 4.1-3.9 4.1-3.9-1.7-3.9-4.1 1.5-4.1 3.9-4.1zm0 .9c-1.7 0-2.8 1.3-2.8 3.2s1.2 3.2 2.8 3.2 2.8-1.3 2.8-3.2-1.2-3.2-2.8-3.2z"/><path d="m788.1 76.1h1.1v8.8c0 1.5-.7 2.4-2.4 2.4-.4 0-.9-.1-1.2-.3v-1c.3.2.7.3 1.2.3.8 0 1.3-.4 1.3-1.6zm-.3-2.5c0-.5.4-.8.8-.8.5 0 .8.4.8.8s-.4.8-.8.8-.8-.4-.8-.8z"/></g><path d="m793.2 80c0 2 1.4 3.1 2.9 3.1 1.1 0 1.9-.3 2.7-.9v1.1c-.7.5-1.7.8-2.7.8-2.3 0-4-1.5-4-4.1 0-2.4 1.6-4.1 3.7-4.1 2 0 3.3 1.2 3.3 3.4v.7zm4.9-.9c-.1-1.6-1-2.3-2.3-2.3-1.2 0-2.2.8-2.5 2.3z" fill="#fff"/><g enable-background="new" fill="#fff"><path d="m800.4 76.1h1.2v-1.9h1.1v1.9h2.2v.9h-2.2v4.8c0 1 .4 1.4 1.1 1.4.5 0 .9-.2 1.5-.4v1c-.5.2-1 .4-1.7.4-1.1 0-2-.6-2-2.2v-5h-1.2z"/><path d="m806.7 82.2c.7.6 1.4.9 2.2.9 1 0 1.6-.4 1.6-1.3s-.7-1.2-1.9-1.6c-1.4-.5-2-1-2-2.3 0-1.4 1-2.1 2.5-2.1.8 0 1.5.2 2.1.6v1.2c-.6-.5-1.2-.8-2.1-.8s-1.4.5-1.4 1.2.4 1.1 1.6 1.5c1.4.4 2.3.9 2.3 2.4s-1.2 2.3-2.7 2.3c-.9 0-1.7-.3-2.2-.6z"/><path d="m821.3 78.4c0-1-.6-1.5-1.7-1.5-.9 0-1.6.3-2.3.6v-1c.7-.4 1.5-.6 2.4-.6 1.6 0 2.6.7 2.6 2.5v5.4c-.7.2-1.6.3-2.2.3-2.1 0-3.5-.7-3.5-2.3 0-1.5 1.4-2.4 3.8-2.4h.9zm0 1.9h-.8c-1.6 0-2.8.4-2.8 1.5s1.1 1.4 2.5 1.4c.3 0 .7 0 1.1-.1z"/><path d="m831 83.8c-1 .2-1.9.3-2.7.3-2.3 0-3.6-.8-3.6-2.7v-5.3h1.1v5.2c0 1.5 1.2 1.9 2.4 1.9.5 0 1.2 0 1.7-.1v-7h1.1z"/><path d="m842.9 77.6c-.7-.5-1.5-.7-2.2-.7-1.6 0-3 1.1-3 3.1s1.4 3.1 3.1 3.1c.8 0 1.5-.3 2.3-.7v1.1c-.8.4-1.5.6-2.4.6-2.2 0-4.1-1.5-4.1-4.1s1.9-4.1 4.1-4.1c.9 0 1.5.2 2.3.6v1.1z"/><path d="m845.1 71.7h1.1v4.6c.6-.2 1.5-.4 2.3-.4 1.9 0 3.1.8 3.1 2.7v5.3h-1.1v-5.1c0-1.6-1.1-1.9-2.2-1.9-.8 0-1.6.2-2.1.4v6.7h-1.1z"/><path d="m857.5 75.9c2.3 0 3.9 1.7 3.9 4.1s-1.6 4.1-3.9 4.1-3.9-1.7-3.9-4.1 1.6-4.1 3.9-4.1zm0 .9c-1.7 0-2.8 1.3-2.8 3.2s1.2 3.2 2.8 3.2 2.8-1.3 2.8-3.2c.1-1.9-1.1-3.2-2.8-3.2z"/><path d="m863.3 73.6c0-.5.4-.8.8-.8.5 0 .8.4.8.8s-.4.8-.8.8-.8-.4-.8-.8zm1.3 10.3h-1.1v-7.9h1.1z"/><path d="m870.3 79.9 2.9 4.1h-1.2l-2.3-3.3-2.3 3.3h-1.2l2.9-4-2.8-3.8h1.2l2.2 3 2.1-3h1.2z"/></g><g enable-background="new" fill="#fff"><path d="m773 94.7c.5-.1 1.3-.2 2.2-.2 1.1 0 1.9.3 2.5.7.5.4.8 1.1.8 1.8 0 .8-.2 1.4-.7 1.9-.6.6-1.6 1-2.7 1-.3 0-.7 0-.9-.1v3.5h-1.2zm1.1 4.2c.2.1.6.1.9.1 1.4 0 2.2-.7 2.2-1.9s-.8-1.7-2.1-1.7c-.5 0-.9 0-1.1.1v3.4z"/><path d="m781 94.5v3.7h4.2v-3.7h1.1v8.8h-1.1v-4.1h-4.2v4.1h-1.1v-8.8z"/><path d="m788.4 94.7c.5-.1 1.3-.2 2.2-.2 1.1 0 1.9.3 2.5.7.5.4.8 1.1.8 1.8 0 .8-.2 1.4-.7 1.9-.6.6-1.6 1-2.7 1-.3 0-.7 0-.9-.1v3.5h-1.1v-8.6zm1.1 4.2c.2.1.6.1.9.1 1.4 0 2.2-.7 2.2-1.9s-.8-1.7-2.1-1.7c-.5 0-.9 0-1.1.1v3.4z"/><path d="m805.5 98.8c0 3-1.8 4.6-4.1 4.6s-3.9-1.8-3.9-4.4c0-2.8 1.7-4.6 4.1-4.6s3.9 1.8 3.9 4.4zm-6.8.2c0 1.9 1 3.5 2.8 3.5s2.8-1.7 2.8-3.6c0-1.7-.9-3.6-2.8-3.6-1.8 0-2.8 1.8-2.8 3.7z"/><path d="m806.9 103.3c0-.4.1-1.1.1-1.6v-7.6h1.1v4c.4-.7 1.1-1.2 2.1-1.2 1.6 0 2.7 1.3 2.7 3.2 0 2.3-1.4 3.4-2.8 3.4-.9 0-1.6-.4-2.1-1.2l-.1 1zm1.2-2.5c0 .1 0 .3.1.4.2.8.9 1.3 1.7 1.3 1.2 0 1.9-1 1.9-2.4 0-1.3-.6-2.3-1.9-2.3-.8 0-1.5.5-1.7 1.4 0 .1-.1.3-.1.5z"/><path d="m812.8 105.1c.5 0 1-.2 1.2-.5.3-.4.4-.9.4-2.4v-5.2h1.1v5.7c0 1.2-.2 2-.8 2.6-.5.5-1.3.7-2 .7zm3-9.9c0 .4-.3.7-.7.7s-.7-.3-.7-.7.3-.7.7-.7.7.3.7.7z"/><path d="m818.2 100.4c0 1.5 1 2.2 2.2 2.2.8 0 1.3-.1 1.7-.3l.2.8c-.4.2-1.1.4-2.1.4-1.9 0-3.1-1.3-3.1-3.2s1.1-3.4 3-3.4c2.1 0 2.6 1.8 2.6 3v.5zm3.3-.8c0-.7-.3-1.9-1.6-1.9-1.2 0-1.7 1.1-1.8 1.9z"/><path d="m825.4 95.2v1.8h1.6v.9h-1.6v3.4c0 .8.2 1.2.9 1.2.3 0 .5 0 .7-.1l.1.9c-.2.1-.6.2-1 .2-.5 0-1-.2-1.2-.5-.3-.3-.4-.9-.4-1.6v-3.4h-1v-1h1v-1.5z"/><path d="m838.5 99.5c-.1-1.2-.1-2.7-.1-3.8-.3 1-.7 2.1-1.1 3.3l-1.5 4.3h-.9l-1.4-4.2c-.4-1.2-.8-2.4-1-3.4 0 1.1-.1 2.6-.2 3.9l-.2 3.8h-1.1l.6-8.8h1.4l1.5 4.2c.4 1.1.7 2 .9 3 .2-.9.5-1.8.9-3l1.6-4.2h1.4l.5 8.8h-1.1z"/><path d="m843.5 103.3-2.9-8.8h1.2l1.4 4.3c.4 1.2.7 2.2.9 3.3.2-1 .6-2.1 1-3.3l1.5-4.3h1.2l-3.1 8.8z"/><path d="m855 103c-.4.2-1.2.4-2.3.4-2.5 0-4.3-1.6-4.3-4.4 0-2.7 1.9-4.6 4.6-4.6 1.1 0 1.8.2 2.1.4l-.3.9c-.4-.2-1-.4-1.8-.4-2.1 0-3.4 1.3-3.4 3.6 0 2.1 1.2 3.5 3.4 3.5.7 0 1.4-.1 1.8-.4z"/></g><g enable-background="new" fill="#fff"><path d="m773 113.2h.8v6.4c0 1.1-.5 1.8-1.7 1.8-.3 0-.6-.1-.9-.2v-.7c.2.1.5.2.9.2.6 0 .9-.3.9-1.1zm-.2-1.7c0-.3.3-.6.6-.6s.6.3.6.6-.3.6-.6.6-.6-.3-.6-.6z"/><path d="m778.6 114.9c0-.7-.5-1.1-1.2-1.1s-1.1.2-1.7.5v-.7c.5-.3 1.1-.4 1.8-.4 1.1 0 1.9.5 1.9 1.8v3.9c-.5.1-1.1.2-1.6.2-1.5 0-2.6-.5-2.6-1.7 0-1.1 1-1.7 2.8-1.7h.6zm0 1.4h-.6c-1.2 0-2 .3-2 1.1s.8 1 1.8 1c.2 0 .5 0 .8-.1z"/><path d="m782.6 118.9-2.2-5.7h.8l1.8 4.9 1.8-4.9h.8l-2.2 5.7z"/><path d="m789.7 114.9c0-.7-.5-1.1-1.2-1.1s-1.1.2-1.7.5v-.7c.5-.3 1.1-.4 1.8-.4 1.1 0 1.9.5 1.9 1.8v3.9c-.5.1-1.1.2-1.6.2-1.5 0-2.6-.5-2.6-1.7 0-1.1 1-1.7 2.8-1.7h.6zm0 1.4h-.6c-1.2 0-2 .3-2 1.1s.8 1 1.8 1c.2 0 .5 0 .8-.1z"/></g><path d="m773.8 132.4-.8 2.1h-.8l3-7.7h1l3 7.7h-.9l-.8-2.1zm1.8-5-1.6 4.3h3.2z" fill="#fff"/><g enable-background="new" fill="#fff"><path d="m780.3 129.1c.8-.3 1.6-.4 2.4-.4 1.4 0 2.3.6 2.3 2v3.8h-.8v-3.7c0-1.2-.8-1.4-1.6-1.4-.6 0-1.1.1-1.5.2v4.9h-.8z"/><path d="m790.8 134.3c-.2.1-.7.2-1.2.2-1.9 0-3.2-1-3.2-2.9 0-1.8 1.3-2.9 3.3-2.9.6 0 1.4.2 1.8.4v5.5c0 1.7-1.3 2.4-2.6 2.4-.7 0-1.3-.2-1.8-.4v-.7c.5.2 1.1.4 1.8.4.9 0 1.8-.5 1.8-1.9v-.1zm0-4.7c-.3-.1-.7-.2-1.1-.2-1.6 0-2.5.8-2.5 2.2s.9 2.2 2.4 2.2c.5 0 .8-.1 1.2-.2z"/><path d="m798 134.4c-.7.1-1.4.2-2 .2-1.6 0-2.6-.6-2.6-2v-3.8h.8v3.8c0 1.1.8 1.3 1.7 1.3.4 0 .8 0 1.2-.1v-5h.8v5.6z"/><path d="m800.7 134.5h-.8v-8.8h.8z"/><path d="m805.6 130.5c0-.7-.5-1.1-1.2-1.1s-1.1.2-1.7.5v-.7c.5-.3 1.1-.4 1.8-.4 1.1 0 1.9.5 1.9 1.8v3.9c-.5.1-1.1.2-1.6.2-1.5 0-2.6-.5-2.6-1.7 0-1.1 1-1.7 2.8-1.7h.6zm0 1.4h-.6c-1.2 0-2 .3-2 1.1s.8 1 1.8 1c.2 0 .5 0 .8-.1z"/><path d="m809 134.5h-.8v-5.1c.6-.4 1.3-.6 2.1-.6.3 0 .6 0 .9.1v.8c-.3-.1-.7-.1-1-.1-.6 0-1 .1-1.3.3v4.6z"/><path d="m814.2 133.1c.5.6 1.1.9 1.7.9.8 0 1.1-.4 1.1-1.4v-5.8h.8v5.9c0 1.3-.7 2-1.9 2-.7 0-1.3-.3-1.7-.7z"/><path d="m819.3 133.2c.6.5 1.2.8 2 .8.9 0 1.7-.4 1.7-1.4 0-.9-.7-1.3-1.6-1.6-1.4-.5-2.1-1-2.1-2.3s1.1-2 2.2-2c.8 0 1.4.2 1.8.6v.8c-.6-.5-1.1-.8-1.8-.8-.9 0-1.5.5-1.5 1.3 0 .7.4 1.1 1.6 1.5 1.4.5 2.2 1 2.2 2.4s-1.1 2.1-2.5 2.1c-.8 0-1.5-.2-2-.6z"/></g><path d="m777.4 142.4 1.7 7 1.8-7h.8l-2.1 7.7h-1.1l-1.7-6.8-1.7 6.8h-1.1l-2.1-7.7h.8l1.8 7 1.7-7z" fill="#fff"/><g enable-background="new" fill="#fff"><path d="m783 147.3c0 1.4 1 2.2 2.1 2.2.8 0 1.4-.2 1.9-.6v.8c-.5.4-1.2.5-1.9.5-1.6 0-2.9-1.1-2.9-3 0-1.7 1.2-3 2.7-3 1.4 0 2.4.9 2.4 2.5v.5h-4.3zm3.5-.6c-.1-1.2-.7-1.7-1.6-1.7s-1.6.6-1.8 1.7z"/><path d="m788.8 141.3h.8v3.3c.2-.1.8-.3 1.4-.3 1.7 0 3 1 3 2.9 0 1.8-1.3 3-3.3 3-.6 0-1.3-.1-1.8-.3v-8.6zm.8 8.1c.3.1.7.1 1.1.1 1.5 0 2.5-.9 2.5-2.3 0-1.5-1-2.2-2.2-2.2-.6 0-1 .1-1.4.3z"/><path d="m805.1 146.3c0-1.1-.7-1.3-1.3-1.3-.7 0-1.3.2-1.7.3.1.2.2.6.2.9v3.8h-.8v-3.8c0-1.1-.7-1.3-1.3-1.3s-1.1.1-1.5.3v4.8h-.8v-5.3c.7-.3 1.5-.5 2.3-.5.7 0 1.2.1 1.5.4.7-.3 1.4-.4 2.1-.4 1.4 0 2.1.6 2.1 2v3.8h-.8z"/><path d="m810.2 144.3c1.7 0 2.8 1.2 2.8 3s-1.2 3-2.8 3-2.8-1.2-2.8-3 1.1-3 2.8-3zm0 .7c-1.2 0-2.1.9-2.1 2.3s.9 2.3 2.1 2.3 2.1-.9 2.1-2.3-.9-2.3-2.1-2.3z"/><path d="m814.6 141.3h.8v3.3c.2-.1.8-.3 1.4-.3 1.7 0 3 1 3 2.9 0 1.8-1.3 3-3.3 3-.6 0-1.3-.1-1.8-.3v-8.6zm.8 8.1c.3.1.7.1 1.1.1 1.5 0 2.5-.9 2.5-2.3 0-1.5-1-2.2-2.2-2.2-.6 0-1 .1-1.4.3z"/><path d="m821 142.7c0-.3.3-.6.6-.6s.6.3.6.6-.3.6-.6.6-.6-.3-.6-.6zm1 7.4h-.8v-5.7h.8z"/><path d="m824.7 150.1h-.8v-8.8h.8z"/><path d="m827 147.3c0 1.4 1 2.2 2.1 2.2.8 0 1.4-.2 1.9-.6v.8c-.5.4-1.2.5-1.9.5-1.6 0-2.9-1.1-2.9-3 0-1.7 1.2-3 2.7-3 1.4 0 2.4.9 2.4 2.5v.5h-4.3zm3.5-.6c-.1-1.2-.7-1.7-1.6-1.7s-1.6.6-1.8 1.7z"/></g><g enable-background="new" fill="#fff"><path d="m772.5 164.4c.6.5 1.2.8 2 .8.9 0 1.7-.4 1.7-1.4 0-.9-.7-1.3-1.6-1.6-1.4-.5-2.1-1-2.1-2.3s1.1-2 2.2-2c.8 0 1.4.2 1.8.6v.8c-.6-.5-1.1-.8-1.8-.8-.9 0-1.5.5-1.5 1.3 0 .7.4 1.1 1.6 1.5 1.4.5 2.2 1 2.2 2.4s-1.1 2.1-2.5 2.1c-.8 0-1.5-.2-2-.6z"/><path d="m780.4 165.2 1.9-5.2h.8l-3.1 8h-.8l.8-2-2.4-6h.9z"/><path d="m791.3 161.9c0-1.1-.7-1.3-1.3-1.3-.7 0-1.3.2-1.7.3.1.2.2.6.2.9v3.8h-.8v-3.8c0-1.1-.7-1.3-1.3-1.3s-1.1.1-1.5.3v4.8h-.8v-5.3c.7-.3 1.5-.5 2.3-.5.7 0 1.2.1 1.5.4.7-.3 1.4-.4 2.1-.4 1.4 0 2.1.6 2.1 2v3.8h-.8z"/><path d="m794.9 165.7h-.8v-5h-.9v-.7h.9v-1.4c0-1.2.6-1.9 1.7-1.9.4 0 .7.1 1 .3v.7c-.3-.2-.6-.3-1-.3-.6 0-1 .3-1 1.2v1.4h1.6v.7h-1.6v5z"/><path d="m799.9 159.9c1.7 0 2.8 1.2 2.8 3s-1.2 3-2.8 3c-1.7 0-2.8-1.2-2.8-3s1.1-3 2.8-3zm0 .7c-1.2 0-2.1.9-2.1 2.3s.9 2.3 2.1 2.3 2.1-.9 2.1-2.3-.9-2.3-2.1-2.3z"/><path d="m804.3 160.3c.8-.3 1.6-.4 2.4-.4 1.4 0 2.3.6 2.3 2v3.8h-.8v-3.7c0-1.2-.8-1.4-1.6-1.4-.6 0-1.1.1-1.5.2v4.9h-.8z"/><path d="m812.7 165.2 1.9-5.2h.8l-3.1 8h-.8l.8-2-2.4-6h.9z"/></g><g enable-background="new" fill="#fff"><path d="m772.2 179.9c.5.6 1.1.9 1.7.9.8 0 1.1-.4 1.1-1.4v-5.8h.8v5.9c0 1.3-.7 2-1.9 2-.7 0-1.3-.3-1.7-.7z"/><path d="m780.6 177.3c0-.7-.5-1.1-1.2-1.1s-1.1.2-1.7.5v-.7c.5-.3 1.1-.4 1.8-.4 1.1 0 1.9.5 1.9 1.8v3.9c-.5.1-1.1.2-1.6.2-1.5 0-2.6-.5-2.6-1.7 0-1.1 1-1.7 2.8-1.7h.6zm0 1.4h-.6c-1.2 0-2 .3-2 1.1s.8 1 1.8 1c.2 0 .5 0 .8-.1z"/><path d="m784.6 181.3-2.2-5.7h.8l1.8 4.9 1.8-4.9h.8l-2.2 5.7z"/><path d="m791.7 177.3c0-.7-.5-1.1-1.2-1.1s-1.1.2-1.7.5v-.7c.5-.3 1.1-.4 1.8-.4 1.1 0 1.9.5 1.9 1.8v3.9c-.5.1-1.1.2-1.6.2-1.5 0-2.6-.5-2.6-1.7 0-1.1 1-1.7 2.8-1.7h.6zm0 1.4h-.6c-1.2 0-2 .3-2 1.1s.8 1 1.8 1c.2 0 .5 0 .8-.1z"/><path d="m793.9 180c.6.5 1.2.8 2 .8.9 0 1.7-.4 1.7-1.4 0-.9-.7-1.3-1.6-1.6-1.4-.5-2.1-1-2.1-2.3s1.1-2 2.2-2c.8 0 1.4.2 1.8.6v.8c-.6-.5-1.1-.8-1.8-.8-.9 0-1.5.5-1.5 1.3 0 .7.4 1.1 1.6 1.5 1.4.5 2.2 1 2.2 2.4s-1.1 2.1-2.5 2.1c-.8 0-1.5-.2-2-.6z"/><path d="m804 176.8c-.5-.3-1.1-.5-1.6-.5-1.2 0-2.2.8-2.2 2.3 0 1.4 1 2.2 2.2 2.2.6 0 1.1-.2 1.6-.5v.8c-.6.3-1.1.4-1.7.4-1.6 0-3-1.1-3-3s1.4-3 2.9-3c.6 0 1.1.1 1.6.4v.9z"/><path d="m806.4 181.3h-.8v-5.1c.6-.4 1.3-.6 2.1-.6.3 0 .6 0 .9.1v.8c-.3-.1-.7-.1-1-.1-.6 0-1 .1-1.3.3v4.6z"/><path d="m809.7 173.9c0-.3.3-.6.6-.6s.6.3.6.6-.3.6-.6.6-.6-.3-.6-.6zm1 7.4h-.8v-5.7h.8z"/><path d="m812.6 175.9c.5-.2 1.2-.4 2-.4 2 0 3.1 1 3.1 3 0 1.8-1.2 3-3.1 3-.5 0-.9-.1-1.2-.2v2.4h-.8zm.8 4.6c.4.2.8.2 1.2.2 1.4 0 2.3-.8 2.3-2.3 0-1.4-.8-2.2-2.3-2.2-.4 0-.9.1-1.2.2z"/><path d="m818.5 175.6h.9v-1.4h.8v1.4h1.6v.7h-1.6v3.5c0 .7.3 1 .8 1 .4 0 .7-.1 1.1-.3v.7c-.3.2-.7.3-1.2.3-.8 0-1.4-.4-1.4-1.6v-3.5h-.9v-.8z"/></g><g enable-background="new" fill="#fff"><path d="m460.9 274.6h-3.7v-21.3c1.4-.2 3.5-.4 5.3-.4 5.6 0 8.7 2.6 8.7 7.3 0 5-3.7 7.3-8.7 7.3-.5 0-1.2 0-1.6-.1zm0-10.4c.3 0 .9.1 1.4.1 3.4 0 5.2-1.3 5.2-4.2 0-2.5-1.7-4-5-4-.4 0-1.1 0-1.5.1v8z"/><path d="m489.4 253.2h3.7v21.4h-3.7v-9.1h-11.1v9.1h-3.7v-21.4h3.7v9h11.1z"/><path d="m501.6 269.5-1.9 5h-3.9l8.3-21.4h4.5l8.4 21.4h-4l-1.9-5zm4.8-12.9-3.7 9.9h7.3z"/><path d="m518.8 269.6c1.7 1.3 3.4 2.2 5.7 2.2 2.1 0 4-.8 4-3 0-2-1.5-2.7-3.9-3.5-4.1-1.3-6-2.9-6-6.5 0-3.9 3.1-6 6.8-6 2.3 0 4 .6 5.5 1.6v3.7c-1.7-1.4-3.3-2.2-5.4-2.2s-3.3 1.1-3.3 2.8 1.2 2.4 3.9 3.3c4.2 1.3 6 3 6 6.7 0 4.3-3.4 6.2-7.5 6.2-2.3 0-4.3-.6-5.7-1.6v-3.7z"/><path d="m549.2 271.3v3.2h-13.2v-21.4h13v3.2h-9.4v5.8h8.7v3.2h-8.7v6z"/><path d="m572.3 271.3v3.2h-14.1v-2.7c5.1-4.4 9.8-8.4 9.8-12.3 0-2.3-1.4-3.3-3.5-3.3-2.3 0-4.3 1.3-5.7 2.6v-3.6c1.5-1.4 3.7-2.4 6.4-2.4 3.7 0 6.6 2.1 6.6 6.3 0 4.4-4.2 8.8-8.9 12.2z"/></g><path d="m457.4 299-1.1 3h-1.2l4.1-10.7h1.4l4.2 10.7h-1.2l-1.1-3zm2.6-6.9-2.2 5.9h4.5z" fill="#fff"/><path d="m467.7 291.2h1.1v9.7h4.6v1h-5.7z" fill="#fff"/><g enable-background="new" fill="#fff"><path d="m478 301.9h-1.1v-9.7h-3.5v-1h8.2v1h-3.6z"/><path d="m489.4 300.9v1h-6.2v-10.7h6.1v1h-5v3.8h4.6v1h-4.6v4h5.1z"/><path d="m493 301.9h-1.1v-10.7c.5-.1 1.4-.2 2-.2 2.9 0 4.2 1.3 4.2 3.3 0 1.6-.9 2.8-2.3 3.2l3.5 4.4h-1.4l-3.3-4.1h-1.6zm0-5h1.1c1.8 0 2.8-.8 2.8-2.5 0-1.4-.8-2.4-3-2.4-.2 0-.6 0-.9 0z"/><path d="m508.3 300.3v-9.1h1.1v10.7h-1.1l-6.4-9.1v9.1h-1.1v-10.7h1.2z"/><path d="m513.4 299-1.1 3h-1.2l4.1-10.7h1.4l4.2 10.7h-1.2l-1.1-3zm2.5-6.9-2.2 5.9h4.5z"/><path d="m530 300.3v-9.1h1.1v10.7h-1.1l-6.4-9.1v9.1h-1.1v-10.7h1.2z"/><path d="m541.9 293.1c-.8-.7-1.8-1.1-3-1.1-2.4 0-4.4 1.8-4.4 4.5s2 4.5 4.4 4.5c1.1 0 2.3-.3 3-1.1v1.3c-.8.5-1.9.8-3 .8-3.2 0-5.5-2.3-5.5-5.5 0-3.3 2.4-5.5 5.5-5.5 1.1 0 2.1.3 3 .8z"/><path d="m550.4 300.9v1h-6.2v-10.7h6.1v1h-5v3.8h4.6v1h-4.6v4h5.1z"/></g><path d="m457.9 318c-1.2-1.1-2.1-2.8-2.1-4.9s.9-3.8 2.1-4.9h.8c-1.2 1.2-2.3 2.7-2.3 4.9s1 3.7 2.3 4.9z" fill="#fff"/><path d="m464.7 310.5c-.5-.5-1.2-.7-2-.7-1.6 0-2.9 1.2-2.9 3s1.3 3 2.9 3c.8 0 1.5-.2 2-.7v.9c-.6.3-1.3.5-2 .5-2.2 0-3.7-1.5-3.7-3.7s1.6-3.7 3.7-3.7c.7 0 1.4.2 2 .5z" fill="#fff"/><g enable-background="new" fill="#fff"><path d="m468.5 311c1.6 0 2.6 1.1 2.6 2.7s-1.1 2.7-2.6 2.7-2.6-1.1-2.6-2.7 1-2.7 2.6-2.7zm0 .6c-1.1 0-1.9.8-1.9 2.1s.8 2.1 1.9 2.1 1.9-.8 1.9-2.1-.8-2.1-1.9-2.1z"/><path d="m472.5 311.4c.7-.3 1.5-.4 2.2-.4 1.3 0 2.1.5 2.1 1.8v3.5h-.7v-3.4c0-1.1-.8-1.3-1.5-1.3-.6 0-1 .1-1.4.2v4.5h-.7z"/><path d="m477.9 311.1h.8v-1.3h.7v1.3h1.5v.6h-1.5v3.2c0 .7.3.9.8.9.3 0 .6-.1 1-.3v.6c-.3.2-.7.3-1.1.3-.8 0-1.3-.4-1.3-1.5v-3.3h-.8v-.5z"/></g><path d="m483.1 316.3h-.7v-4.7c.6-.3 1.2-.6 1.9-.6.3 0 .6 0 .9.1v.7c-.3-.1-.7-.1-.9-.1-.5 0-.9.1-1.2.3z" fill="#fff"/><g enable-background="new" fill="#fff"><path d="m488.9 312.7c0-.7-.4-1-1.1-1-.6 0-1.1.2-1.5.4v-.7c.4-.2 1-.4 1.6-.4 1.1 0 1.7.5 1.7 1.6v3.6c-.5.1-1 .2-1.5.2-1.4 0-2.4-.4-2.4-1.5 0-1 .9-1.6 2.5-1.6h.6v-.6zm0 1.2h-.5c-1.1 0-1.9.3-1.9 1s.7.9 1.7.9c.2 0 .5 0 .7-.1z"/><path d="m490.6 311.1h.8v-1.3h.7v1.3h1.5v.6h-1.5v3.2c0 .7.3.9.8.9.3 0 .6-.1 1-.3v.6c-.3.2-.7.3-1.1.3-.8 0-1.3-.4-1.3-1.5v-3.3h-.8v-.5z"/><path d="m497.4 311.3c.5-.2 1.2-.3 1.8-.3 1.8 0 2.9.9 2.9 2.7 0 1.7-1.1 2.7-2.8 2.7-.4 0-.9-.1-1.2-.2v2.3h-.7zm.8 4.3c.3.1.7.2 1.2.2 1.3 0 2.1-.8 2.1-2.1s-.8-2.1-2.2-2.1c-.4 0-.8 0-1.1.1z"/></g><path d="m504.3 316.3h-.7v-4.7c.6-.3 1.2-.6 1.9-.6.3 0 .6 0 .9.1v.7c-.3-.1-.7-.1-.9-.1-.5 0-.9.1-1.2.3z" fill="#fff"/><g enable-background="new" fill="#fff"><path d="m509.6 311c1.6 0 2.6 1.1 2.6 2.7s-1.1 2.7-2.6 2.7c-1.6 0-2.6-1.1-2.6-2.7s1-2.7 2.6-2.7zm0 .6c-1.1 0-1.9.8-1.9 2.1s.8 2.1 1.9 2.1 1.9-.8 1.9-2.1-.8-2.1-1.9-2.1z"/><path d="m514.5 316.3h-.7v-4.6h-.8v-.6h.8v-1.3c0-1.1.6-1.7 1.6-1.7.4 0 .7.1.9.3v.7c-.3-.2-.5-.3-.9-.3-.6 0-.9.3-.9 1.1v1.3h1.4v.6h-1.4z"/></g><path d="m517.2 313.7c0 1.3.9 2.1 1.9 2.1.7 0 1.3-.2 1.8-.6v.7c-.5.3-1.1.5-1.8.5-1.5 0-2.7-1-2.7-2.7 0-1.6 1.1-2.7 2.5-2.7 1.3 0 2.2.8 2.2 2.3v.5h-3.9zm3.2-.6c0-1.1-.6-1.5-1.5-1.5-.8 0-1.5.6-1.7 1.5z" fill="#fff"/><g enable-background="new" fill="#fff"><path d="m522.2 315.2c.4.4.9.6 1.5.6.7 0 1.1-.3 1.1-.8 0-.6-.5-.8-1.3-1.1-.9-.3-1.3-.7-1.3-1.5 0-.9.7-1.4 1.6-1.4.5 0 1 .1 1.4.4v.8c-.4-.3-.8-.6-1.4-.6s-.9.3-.9.8.3.7 1.1 1c.9.3 1.5.6 1.5 1.6s-.8 1.5-1.8 1.5c-.6 0-1.2-.2-1.5-.4z"/><path d="m526.6 315.2c.4.4.9.6 1.5.6.7 0 1.1-.3 1.1-.8 0-.6-.5-.8-1.3-1.1-.9-.3-1.3-.7-1.3-1.5 0-.9.7-1.4 1.6-1.4.5 0 1 .1 1.4.4v.8c-.4-.3-.8-.6-1.4-.6s-.9.3-.9.8.3.7 1.1 1c.9.3 1.5.6 1.5 1.6s-.8 1.5-1.8 1.5c-.6 0-1.2-.2-1.5-.4z"/><path d="m531.2 309.4c0-.3.3-.5.5-.5.3 0 .5.2.5.5s-.2.5-.5.5c-.3.1-.5-.2-.5-.5zm.9 6.9h-.7v-5.2h.7z"/><path d="m536.1 311c1.6 0 2.6 1.1 2.6 2.7s-1.1 2.7-2.6 2.7c-1.6 0-2.6-1.1-2.6-2.7s1-2.7 2.6-2.7zm0 .6c-1.1 0-1.9.8-1.9 2.1s.8 2.1 1.9 2.1 1.9-.8 1.9-2.1-.8-2.1-1.9-2.1z"/><path d="m540.1 311.4c.7-.3 1.5-.4 2.2-.4 1.3 0 2.1.5 2.1 1.8v3.5h-.7v-3.4c0-1.1-.8-1.3-1.5-1.3-.6 0-1 .1-1.4.2v4.5h-.7z"/><path d="m548.9 312.7c0-.7-.4-1-1.1-1-.6 0-1.1.2-1.5.4v-.7c.4-.2 1-.4 1.6-.4 1.1 0 1.7.5 1.7 1.6v3.6c-.5.1-1 .2-1.5.2-1.4 0-2.4-.4-2.4-1.5 0-1 .9-1.6 2.5-1.6h.6v-.6zm0 1.2h-.5c-1.1 0-1.9.3-1.9 1s.7.9 1.7.9c.2 0 .5 0 .7-.1z"/><path d="m552.1 316.3h-.7v-8.2h.7z"/><path d="m553.7 309.4c0-.3.3-.5.5-.5.3 0 .5.2.5.5s-.2.5-.5.5c-.3.1-.5-.2-.5-.5zm.9 6.9h-.7v-5.2h.7z"/></g><path d="m556.1 315.2c.4.4.9.6 1.5.6.7 0 1.1-.3 1.1-.8 0-.6-.5-.8-1.3-1.1-.9-.3-1.3-.7-1.3-1.5 0-.9.7-1.4 1.6-1.4.5 0 1 .1 1.4.4v.8c-.4-.3-.8-.6-1.4-.6s-.9.3-.9.8.3.7 1.1 1c.9.3 1.5.6 1.5 1.6s-.8 1.5-1.8 1.5c-.6 0-1.2-.2-1.5-.4z" fill="#fff"/><g enable-background="new" fill="#fff"><path d="m563.5 312.7c0-.7-.4-1-1.1-1-.6 0-1.1.2-1.5.4v-.7c.4-.2 1-.4 1.6-.4 1.1 0 1.7.5 1.7 1.6v3.6c-.5.1-1 .2-1.5.2-1.4 0-2.4-.4-2.4-1.5 0-1 .9-1.6 2.5-1.6h.6v-.6zm0 1.2h-.5c-1.1 0-1.9.3-1.9 1s.7.9 1.7.9c.2 0 .5 0 .7-.1z"/><path d="m565.3 311.1h.8v-1.3h.7v1.3h1.5v.6h-1.5v3.2c0 .7.3.9.8.9.3 0 .6-.1 1-.3v.6c-.3.2-.7.3-1.1.3-.8 0-1.3-.4-1.3-1.5v-3.3h-.8v-.5z"/><path d="m569.6 309.4c0-.3.3-.5.5-.5.3 0 .5.2.5.5s-.2.5-.5.5c-.3.1-.5-.2-.5-.5zm.9 6.9h-.7v-5.2h.7z"/><path d="m574.5 311c1.6 0 2.6 1.1 2.6 2.7s-1.1 2.7-2.6 2.7c-1.6 0-2.6-1.1-2.6-2.7s1.1-2.7 2.6-2.7zm0 .6c-1.1 0-1.9.8-1.9 2.1s.8 2.1 1.9 2.1 1.9-.8 1.9-2.1-.8-2.1-1.9-2.1z"/><path d="m578.6 311.4c.7-.3 1.5-.4 2.2-.4 1.3 0 2.1.5 2.1 1.8v3.5h-.7v-3.4c0-1.1-.8-1.3-1.5-1.3-.6 0-1 .1-1.4.2v4.5h-.7z"/><path d="m584.6 308.2c1.2 1.1 2.1 2.8 2.1 4.9s-.9 3.8-2.1 4.9h-.8c1.2-1.2 2.3-2.7 2.3-4.9s-1-3.7-2.3-4.9z"/></g><g enable-background="new" fill="#fff"><path d="m455.3 327.6 3.3-.6v10.9h-1.1v-9.6l-2.2.3z"/><path d="m467.4 336.9v1h-6.8v-.8c2.8-2.3 5.4-4.6 5.4-7 0-1.4-.8-2-2-2-1.4 0-2.3.7-3 1.4v-1.2c.6-.7 1.7-1.2 3-1.2 1.7 0 3.1.9 3.1 3 0 2.4-2.6 5-5.1 6.9h5.4z"/><path d="m486.2 332.7c0-1.5-1-1.8-1.8-1.8-.9 0-1.8.2-2.3.5.1.3.2.8.2 1.3v5.3h-1.1v-5.3c0-1.5-1-1.8-1.9-1.8s-1.6.2-2.1.4v6.7h-1.1v-7.3c1-.4 2.1-.7 3.2-.7.9 0 1.6.2 2.1.6.9-.4 1.9-.6 2.9-.6 1.9 0 2.9.8 2.9 2.7v5.3h-1.1v-5.3z"/><path d="m493.3 329.9c2.3 0 3.9 1.7 3.9 4.1s-1.6 4.1-3.9 4.1-3.9-1.7-3.9-4.1 1.5-4.1 3.9-4.1zm0 .9c-1.7 0-2.8 1.3-2.8 3.2s1.2 3.2 2.8 3.2c1.7 0 2.8-1.3 2.8-3.2s-1.2-3.2-2.8-3.2z"/><path d="m499 327.6c0-.5.4-.8.8-.8.5 0 .8.4.8.8s-.4.8-.8.8-.8-.4-.8-.8zm1.4 10.3h-1.1v-7.9h1.1z"/><path d="m502.6 336.2c.7.6 1.4.9 2.2.9 1 0 1.6-.4 1.6-1.3s-.7-1.2-1.9-1.6c-1.4-.5-2-1-2-2.3 0-1.4 1-2.1 2.5-2.1.8 0 1.5.2 2.1.6v1.2c-.6-.5-1.2-.8-2.1-.8s-1.4.5-1.4 1.2.4 1.1 1.6 1.5c1.4.4 2.3.9 2.3 2.4s-1.2 2.3-2.7 2.3c-.9 0-1.7-.3-2.2-.6z"/></g><g enable-background="new" fill="#fff"><path d="m457.1 352.9c2.4.3 4.4 1.2 4.4 3.6 0 1.6-1.2 3.2-3.7 3.2-.9 0-1.8-.3-2.4-.7v-1c.8.5 1.6.8 2.4.8 1.7 0 2.6-.9 2.6-2.2 0-1.9-1.8-2.5-4.3-2.8l.3-4.9h4.8v1h-3.9z"/><path d="m469.8 358.5v1h-6.8v-.8c2.8-2.3 5.4-4.6 5.4-7 0-1.4-.8-2-2-2-1.4 0-2.3.7-3 1.4v-1.2c.6-.7 1.7-1.2 3-1.2 1.7 0 3.1.9 3.1 3 0 2.4-2.6 5-5.1 6.9h5.4z"/></g><g enable-background="new" fill="#fff"><path d="m472.6 352.9c2.4.3 4.4 1.2 4.4 3.6 0 1.6-1.2 3.2-3.7 3.2-.9 0-1.8-.3-2.4-.7v-1c.8.5 1.6.8 2.4.8 1.7 0 2.6-.9 2.6-2.2 0-1.9-1.8-2.5-4.3-2.8l.3-4.9h4.8v1h-3.9z"/><path d="m479.1 347.3h1.1v4.6c.6-.2 1.5-.4 2.3-.4 1.9 0 3.1.8 3.1 2.7v5.3h-1.1v-5.1c0-1.6-1.1-1.9-2.2-1.9-.8 0-1.6.2-2.1.4v6.7h-1.1z"/><path d="m492.1 355.6c0 2 1.4 3.1 2.9 3.1 1.1 0 1.9-.3 2.7-.9v1.1c-.7.5-1.7.8-2.7.8-2.3 0-4-1.5-4-4.1 0-2.4 1.6-4.1 3.7-4.1 2 0 3.3 1.2 3.3 3.4v.7zm4.8-.9c-.1-1.6-1-2.3-2.3-2.3-1.2 0-2.2.8-2.5 2.3z"/><path d="m500.1 352.1c1-.4 2.2-.6 3.3-.6 2 0 3.2.8 3.2 2.7v5.3h-1.1v-5.1c0-1.6-1.1-1.9-2.2-1.9-.8 0-1.6.1-2.1.3v6.7h-1.1z"/><path d="m512.6 352c.7-.3 1.7-.5 2.7-.5 2.7 0 4.3 1.4 4.3 4.1 0 2.6-1.7 4.1-4.3 4.1-.6 0-1.3-.1-1.7-.3v3.4h-1.1v-10.8zm1.1 6.4c.5.2 1.1.3 1.7.3 1.9 0 3.2-1.2 3.2-3.2 0-1.9-1.2-3.1-3.2-3.1-.6 0-1.2.1-1.7.2z"/></g><path d="m522.8 359.5h-1.1v-7.1c.8-.5 1.8-.8 2.9-.8.4 0 .9.1 1.3.2v1.1c-.5-.2-1-.2-1.4-.2-.8 0-1.4.2-1.8.4v6.4z" fill="#fff"/><path d="m527.9 355.6c0 2 1.4 3.1 2.9 3.1 1.1 0 1.9-.3 2.7-.9v1.1c-.7.5-1.7.8-2.7.8-2.3 0-4-1.5-4-4.1 0-2.4 1.6-4.1 3.7-4.1 2 0 3.3 1.2 3.3 3.4v.7zm4.9-.9c-.1-1.6-1-2.3-2.3-2.3-1.2 0-2.2.8-2.5 2.3zm-2.8-4.4 1.5-2.7h1.1l-1.5 2.7z" fill="#fff"/><path d="m535.6 357.8c.7.6 1.3.9 2.2.9 1 0 1.6-.4 1.6-1.3s-.7-1.2-1.9-1.6c-1.4-.5-2-1-2-2.3 0-1.4 1-2.1 2.5-2.1.8 0 1.5.2 2.1.6v1.2c-.6-.5-1.2-.8-2.1-.8s-1.4.5-1.4 1.2.4 1.1 1.6 1.5c1.4.4 2.3.9 2.3 2.4s-1.2 2.3-2.7 2.3c-.9 0-1.7-.3-2.2-.6z" fill="#fff"/><g enable-background="new" fill="#fff"><path d="m543 355.6c0 2 1.4 3.1 2.9 3.1 1.1 0 1.9-.3 2.7-.9v1.1c-.7.5-1.7.8-2.7.8-2.3 0-4-1.5-4-4.1 0-2.4 1.6-4.1 3.7-4.1 2 0 3.3 1.2 3.3 3.4v.7zm4.9-.9c-.1-1.6-1-2.3-2.3-2.3-1.2 0-2.2.8-2.5 2.3z"/><path d="m551 352.1c1-.4 2.2-.6 3.3-.6 2 0 3.2.8 3.2 2.7v5.3h-1.1v-5.1c0-1.6-1.1-1.9-2.2-1.9-.8 0-1.6.1-2.1.3v6.7h-1.1z"/><path d="m559 351.7h1.2v-1.9h1.1v1.9h2.2v.9h-2.2v4.8c0 1 .4 1.4 1.1 1.4.5 0 .9-.2 1.5-.4v1c-.5.2-1 .4-1.7.4-1.1 0-2-.6-2-2.2v-4.9h-1.2z"/><path d="m565.5 349.2c0-.5.4-.8.8-.8.5 0 .8.4.8.8s-.4.8-.8.8-.8-.4-.8-.8zm1.4 10.3h-1.1v-7.9h1.1z"/><path d="m570 355.6c0 2 1.4 3.1 2.9 3.1 1.1 0 1.9-.3 2.7-.9v1.1c-.7.5-1.7.8-2.7.8-2.3 0-4-1.5-4-4.1 0-2.4 1.6-4.1 3.7-4.1 2 0 3.3 1.2 3.3 3.4v.7zm4.9-.9c-.1-1.6-1-2.3-2.3-2.3-1.2 0-2.2.8-2.5 2.3z"/><path d="m579.1 359.5h-1.1v-12.2h1.1z"/></g><g enable-background="new" fill="#fff"><path d="m44.6 305.9h-1.1v-10.7c.5-.1 1.3-.2 1.9-.2 3 0 4.2 1.4 4.2 3.4 0 2.3-1.6 3.5-4.3 3.5-.2 0-.5 0-.7 0zm0-4.9h.6c2.2 0 3.3-.8 3.3-2.6 0-1.4-.8-2.4-3.1-2.4-.2 0-.5 0-.7 0v5z"/><path d="m52.7 305.9h-1.1v-10.7c.5-.1 1.4-.2 2-.2 2.9 0 4.2 1.3 4.2 3.3 0 1.6-.9 2.8-2.3 3.2l3.5 4.4h-1.4l-3.3-4.1h-1.6zm0-5h1.1c1.8 0 2.8-.8 2.8-2.5 0-1.4-.8-2.4-3-2.4-.2 0-.6 0-.9 0z"/></g><path d="m68.5 304.9v1h-6.2v-10.7h6.1v1h-5v3.8h4.6v1h-4.6v4h5.1zm-3.5-10.6 1.3-2.4h1.1l-1.3 2.4z" fill="#fff"/><g enable-background="new" fill="#fff"><path d="m70.7 304c.9.7 1.6 1.1 2.7 1.1 1.3 0 2.4-.6 2.4-2 0-1.3-1-1.8-2.2-2.2-1.9-.7-2.9-1.3-2.9-3.2 0-1.8 1.5-2.8 3.1-2.8 1 0 1.9.3 2.6.8v1.2c-.9-.7-1.6-1-2.6-1-1.2 0-2 .7-2 1.8 0 1 .6 1.5 2.2 2.1 2 .7 3 1.4 3 3.3 0 2-1.5 2.9-3.5 2.9-1.2 0-2.1-.3-2.7-.8v-1.2z"/><path d="m85.4 304.9v1h-6.2v-10.7h6.1v1h-5v3.8h4.7v1h-4.6v4h5z"/><path d="m95.3 304.3v-9.1h1.1v10.7h-1.1l-6.4-9.1v9.1h-1.1v-10.7h1.2z"/><path d="m102.8 305.9h-1.1v-9.7h-3.5v-1h8.2v1h-3.5v9.7z"/><path d="m109.3 305.9h-1.1v-10.7h1.1z"/><path d="m118.5 304.9v1h-6.2v-10.7h6.1v1h-5v3.8h4.6v1h-4.6v4h5.1z"/><path d="m120.9 295.2h1.1v9.7h4.6v1h-5.7z"/></g><g enable-background="new" fill="#fff"><path d="m47.6 316.8-2.4 3.6-.9 1.3c.6-.7 1.3-1 2.2-1 1.8 0 3.4 1.2 3.4 3.5 0 1.9-1.3 3.5-3.7 3.5-2.3 0-3.6-1.6-3.6-3.5 0-1.3.5-2.4 1.3-3.6l2.4-3.8zm-1.3 10c1.5 0 2.5-1 2.5-2.6 0-1.5-1.1-2.6-2.5-2.6s-2.5 1-2.5 2.6c.1 1.6 1.2 2.6 2.5 2.6z"/><path d="m68.8 322.3c0-1.5-1-1.8-1.8-1.8-.9 0-1.8.2-2.3.5.1.3.2.8.2 1.3v5.3h-1.1v-5.3c0-1.5-1-1.8-1.9-1.8s-1.6.2-2.1.4v6.7h-1.1v-7.3c1-.4 2.1-.7 3.2-.7.9 0 1.6.2 2.1.6.9-.4 1.9-.6 2.9-.6 1.9 0 2.9.8 2.9 2.7v5.3h-1.1v-5.3z"/><path d="m75.8 319.5c2.3 0 3.9 1.7 3.9 4.1s-1.6 4.1-3.9 4.1-3.9-1.7-3.9-4.1 1.6-4.1 3.9-4.1zm0 .9c-1.7 0-2.8 1.3-2.8 3.2s1.2 3.2 2.8 3.2c1.7 0 2.8-1.3 2.8-3.2.1-1.9-1.1-3.2-2.8-3.2z"/><path d="m81.6 317.2c0-.5.4-.8.8-.8.5 0 .8.4.8.8s-.4.8-.8.8-.8-.4-.8-.8zm1.4 10.3h-1.1v-7.9h1.1z"/><path d="m85.2 325.8c.7.6 1.4.9 2.2.9 1 0 1.6-.4 1.6-1.3s-.7-1.2-1.9-1.6c-1.4-.5-2-1-2-2.3 0-1.4 1-2.1 2.5-2.1.8 0 1.5.2 2.1.6v1.2c-.6-.5-1.2-.8-2.1-.8s-1.4.5-1.4 1.2.4 1.1 1.6 1.5c1.4.4 2.3.9 2.3 2.4s-1.2 2.3-2.7 2.3c-.9 0-1.7-.3-2.2-.6z"/></g><g enable-background="new" fill="#fff"><path d="m42.7 346.2c0-1.5 1.2-2.6 2.3-2.8-.9-.3-1.7-1.1-1.7-2.4 0-1.8 1.4-2.8 3-2.8s3 1 3 2.8c0 1.3-.8 2.1-1.7 2.4 1.1.2 2.3 1.2 2.3 2.8 0 2-1.6 3.1-3.6 3.1s-3.6-1.1-3.6-3.1zm6 0c0-1.4-1.1-2.3-2.4-2.3s-2.4.9-2.4 2.3c0 1.5 1.1 2.2 2.4 2.2s2.4-.7 2.4-2.2zm-.5-5.2c0-1.2-.9-1.9-1.9-1.9s-1.9.7-1.9 1.9.9 1.9 1.9 1.9 1.9-.7 1.9-1.9z"/><path d="m55.4 338.2c2.4 0 4 2.3 4 5.5s-1.5 5.5-4 5.5-4-2.3-4-5.5 1.6-5.5 4-5.5zm0 10.1c1.7 0 2.9-1.9 2.9-4.6s-1.1-4.6-2.9-4.6-2.9 1.9-2.9 4.6 1.2 4.6 2.9 4.6z"/><path d="m65.2 338.2c2.4 0 4 2.3 4 5.5s-1.5 5.5-4 5.5-4-2.3-4-5.5 1.6-5.5 4-5.5zm0 10.1c1.7 0 2.9-1.9 2.9-4.6s-1.1-4.6-2.9-4.6-2.9 1.9-2.9 4.6 1.2 4.6 2.9 4.6z"/><path d="m71.4 336.9h1.1v4.6c.6-.2 1.5-.4 2.3-.4 1.9 0 3.1.8 3.1 2.7v5.3h-1.1v-5.1c0-1.6-1.1-1.9-2.2-1.9-.8 0-1.6.2-2.1.4v6.7h-1.1z"/></g><path d="m581.3 446.1c-.8-.7-1.8-1.1-3-1.1-2.4 0-4.4 1.8-4.4 4.5s2 4.5 4.4 4.5c1.1 0 2.3-.3 3-1.1v1.3c-.8.5-1.9.8-3 .8-3.2 0-5.5-2.3-5.5-5.5 0-3.3 2.4-5.5 5.5-5.5 1.1 0 2.1.3 3 .8z" fill="#050505"/><g enable-background="new" fill="#050505"><path d="m586.8 446.9c2.3 0 3.9 1.7 3.9 4.1s-1.6 4.1-3.9 4.1-3.9-1.7-3.9-4.1 1.5-4.1 3.9-4.1zm0 .9c-1.7 0-2.8 1.3-2.8 3.2s1.2 3.2 2.8 3.2 2.8-1.3 2.8-3.2-1.2-3.2-2.8-3.2z"/><path d="m602.8 449.7c0-1.5-1-1.8-1.8-1.8-.9 0-1.8.2-2.3.5.1.3.2.8.2 1.3v5.3h-1.1v-5.3c0-1.5-1-1.8-1.9-1.8s-1.6.2-2.1.4v6.7h-1.1v-7.3c1-.4 2.1-.7 3.2-.7.9 0 1.6.2 2.1.6.9-.4 1.9-.6 2.9-.6 1.9 0 2.9.8 2.9 2.7v5.3h-1.1v-5.3z"/></g><g enable-background="new" fill="#050505"><path d="m606.9 447.4c.7-.3 1.7-.5 2.7-.5 2.7 0 4.3 1.4 4.3 4.1 0 2.6-1.7 4.1-4.3 4.1-.6 0-1.3-.1-1.7-.3v3.4h-1.1v-10.8zm1 6.4c.5.2 1.1.3 1.7.3 1.9 0 3.2-1.2 3.2-3.2 0-1.9-1.2-3.1-3.2-3.1-.6 0-1.2.1-1.7.2z"/><path d="m616.6 451c0 2 1.4 3.1 2.9 3.1 1.1 0 1.9-.3 2.7-.9v1.1c-.7.5-1.7.8-2.7.8-2.3 0-4-1.5-4-4.1 0-2.4 1.6-4.1 3.7-4.1 2 0 3.3 1.2 3.3 3.4v.7zm4.9-.9c-.1-1.6-1-2.3-2.3-2.3-1.2 0-2.2.8-2.5 2.3zm-2.8-4.4 1.5-2.7h1.1l-1.5 2.7z"/></g><path d="m624.2 447.1h1.2v-1.9h1.1v1.9h2.2v.9h-2.2v4.8c0 1 .4 1.4 1.1 1.4.5 0 .9-.2 1.5-.4v1c-.5.2-1 .4-1.7.4-1.1 0-2-.6-2-2.2v-5h-1.2z" fill="#050505"/><g enable-background="new" fill="#050505"><path d="m632.2 451c0 2 1.4 3.1 2.9 3.1 1.1 0 1.9-.3 2.7-.9v1.1c-.7.5-1.7.8-2.7.8-2.3 0-4-1.5-4-4.1 0-2.4 1.6-4.1 3.7-4.1 2 0 3.3 1.2 3.3 3.4v.7zm4.8-.9c-.1-1.6-1-2.3-2.3-2.3-1.2 0-2.2.8-2.5 2.3z"/><path d="m640.2 447.5c1-.4 2.2-.6 3.3-.6 2 0 3.2.8 3.2 2.7v5.3h-1.1v-5.1c0-1.6-1.1-1.9-2.2-1.9-.8 0-1.6.1-2.1.3v6.7h-1.1z"/><path d="m655 448.6c-.7-.5-1.5-.7-2.2-.7-1.6 0-3 1.1-3 3.1s1.4 3.1 3.1 3.1c.8 0 1.5-.3 2.3-.7v1.1c-.8.4-1.5.6-2.4.6-2.2 0-4.1-1.5-4.1-4.1s1.9-4.1 4.1-4.1c.9 0 1.5.2 2.3.6v1.1z"/></g><path d="m658.1 451c0 2 1.4 3.1 2.9 3.1 1.1 0 1.9-.3 2.7-.9v1.1c-.7.5-1.7.8-2.7.8-2.3 0-4-1.5-4-4.1 0-2.4 1.6-4.1 3.7-4.1 2 0 3.3 1.2 3.3 3.4v.7zm4.9-.9c-.1-1.6-1-2.3-2.3-2.3-1.2 0-2.2.8-2.5 2.3z" fill="#050505"/><g enable-background="new" fill="#050505"><path d="m665.8 453.2c.7.6 1.3.9 2.2.9 1 0 1.6-.4 1.6-1.3s-.7-1.2-1.9-1.6c-1.4-.5-2-1-2-2.3 0-1.4 1-2.1 2.5-2.1.8 0 1.5.2 2.1.6v1.2c-.6-.5-1.2-.8-2.1-.8s-1.4.5-1.4 1.2.4 1.1 1.6 1.5c1.4.4 2.3.9 2.3 2.4s-1.2 2.3-2.7 2.3c-.9 0-1.7-.3-2.2-.6z"/><path d="m675.2 447.1h1.2v-1.9h1.1v1.9h2.2v.9h-2.2v4.8c0 1 .4 1.4 1.1 1.4.5 0 .9-.2 1.5-.4v1c-.5.2-1 .4-1.7.4-1.1 0-2-.6-2-2.2v-5h-1.2z"/></g><path d="m684.5 454.9h-1.1v-7.1c.8-.5 1.8-.8 2.9-.8.4 0 .9.1 1.3.2v1.1c-.5-.2-1-.2-1.4-.2-.8 0-1.4.2-1.8.4v6.4z" fill="#050505"/><g enable-background="new" fill="#050505"><path d="m693.8 449.4c0-1-.6-1.5-1.7-1.5-.9 0-1.6.3-2.3.6v-1c.7-.4 1.5-.6 2.4-.6 1.6 0 2.6.7 2.6 2.5v5.4c-.7.2-1.6.3-2.2.3-2.1 0-3.5-.7-3.5-2.3 0-1.5 1.4-2.4 3.8-2.4h.9zm0 1.9h-.8c-1.6 0-2.8.4-2.8 1.5s1.1 1.4 2.5 1.4c.3 0 .7 0 1.1-.1z"/><path d="m697.4 447.5c1-.4 2.2-.6 3.3-.6 2 0 3.2.8 3.2 2.7v5.3h-1.1v-5.1c0-1.6-1.1-1.9-2.2-1.9-.8 0-1.6.1-2.1.3v6.7h-1.1z"/></g><g enable-background="new" fill="#050505"><path d="m707 453.2c.7.6 1.3.9 2.2.9 1 0 1.6-.4 1.6-1.3s-.7-1.2-1.9-1.6c-1.4-.5-2-1-2-2.3 0-1.4 1-2.1 2.5-2.1.8 0 1.5.2 2.1.6v1.2c-.6-.5-1.2-.8-2.1-.8s-1.4.5-1.4 1.2.4 1.1 1.6 1.5c1.4.4 2.3.9 2.3 2.4s-1.2 2.3-2.7 2.3c-.9 0-1.7-.3-2.2-.6z"/><path d="m715.7 454.9-3.1-7.9h1.1l2.6 6.8 2.6-6.8h1.1l-3.1 7.9z"/></g><path d="m723.9 451c0 2 1.4 3.1 2.9 3.1 1.1 0 1.9-.3 2.7-.9v1.1c-.7.5-1.7.8-2.7.8-2.3 0-4-1.5-4-4.1 0-2.4 1.6-4.1 3.7-4.1 2 0 3.3 1.2 3.3 3.4v.7zm4.8-.9c-.1-1.6-1-2.3-2.3-2.3-1.2 0-2.2.8-2.5 2.3z" fill="#050505"/><g enable-background="new" fill="#050505"><path d="m733.1 454.9h-1.1v-7.1c.8-.5 1.8-.8 2.9-.8.4 0 .9.1 1.3.2v1.1c-.5-.2-1-.2-1.4-.2-.8 0-1.3.2-1.8.4v6.4z"/><path d="m737.6 453.2c.7.6 1.4.9 2.2.9 1 0 1.6-.4 1.6-1.3s-.7-1.2-1.9-1.6c-1.4-.5-2-1-2-2.3 0-1.4 1-2.1 2.5-2.1.8 0 1.5.2 2.1.6v1.2c-.6-.5-1.2-.8-2.1-.8s-1.4.5-1.4 1.2.4 1.1 1.6 1.5c1.4.4 2.3.9 2.3 2.4s-1.2 2.3-2.7 2.3c-.9 0-1.7-.3-2.2-.6z"/></g><g enable-background="new" fill="#050505"><path d="m749.8 449.4c0-1-.6-1.5-1.7-1.5-.9 0-1.6.3-2.3.6v-1c.7-.4 1.5-.6 2.4-.6 1.6 0 2.6.7 2.6 2.5v5.4c-.7.2-1.6.3-2.2.3-2.1 0-3.5-.7-3.5-2.3 0-1.5 1.4-2.4 3.8-2.4h.9zm0 1.9h-.8c-1.6 0-2.8.4-2.8 1.5s1.1 1.4 2.5 1.4c.3 0 .7 0 1.1-.1z"/><path d="m754.5 454.9h-1.1v-12.2h1.1z"/></g><path d="m759 451c0 2 1.4 3.1 2.9 3.1 1.1 0 1.9-.3 2.7-.9v1.1c-.7.5-1.7.8-2.7.8-2.3 0-4-1.5-4-4.1 0-2.4 1.6-4.1 3.7-4.1 2 0 3.3 1.2 3.3 3.4v.7zm4.8-.9c-.1-1.6-1-2.3-2.3-2.3-1.2 0-2.2.8-2.5 2.3z" fill="#050505"/><path d="m766.7 453.2c.7.6 1.3.9 2.2.9 1 0 1.6-.4 1.6-1.3s-.7-1.2-1.9-1.6c-1.4-.5-2-1-2-2.3 0-1.4 1-2.1 2.5-2.1.8 0 1.5.2 2.1.6v1.2c-.6-.5-1.2-.8-2.1-.8s-1.4.5-1.4 1.2.4 1.1 1.6 1.5c1.4.4 2.3.9 2.3 2.4s-1.2 2.3-2.7 2.3c-.9 0-1.7-.3-2.2-.6z" fill="#050505"/><g enable-background="new" fill="#050505"><path d="m576.6 463.1c2.2 0 4 1.6 4 4s-1.8 4-4 4-4-1.6-4-4 1.8-4 4-4zm0 .7c-1.7 0-3.2 1.3-3.2 3.3s1.4 3.3 3.2 3.3 3.2-1.3 3.2-3.3-1.5-3.3-3.2-3.3z"/><path d="m586.5 470.8c-.7.1-1.4.2-2 .2-1.6 0-2.6-.6-2.6-2v-3.8h.8v3.8c0 1.1.8 1.3 1.7 1.3.4 0 .8 0 1.2-.1v-5h.8v5.6z"/><path d="m587.7 465.2h.9v-1.4h.8v1.4h1.6v.7h-1.6v3.5c0 .7.3 1 .8 1 .4 0 .7-.1 1.1-.3v.7c-.3.2-.7.3-1.2.3-.8 0-1.4-.4-1.4-1.6v-3.5h-.9v-.8z"/><path d="m592.4 463.5c0-.3.3-.6.6-.6s.6.3.6.6-.3.6-.6.6-.6-.3-.6-.6zm1 7.4h-.8v-5.7h.8z"/><path d="m596.1 470.9h-.8v-8.8h.8z"/><path d="m597.7 469.7c.5.4 1 .7 1.6.7.7 0 1.2-.3 1.2-.9 0-.7-.5-.9-1.4-1.2-1-.3-1.4-.8-1.4-1.7 0-1 .8-1.5 1.8-1.5.6 0 1.1.1 1.5.4v.8c-.4-.4-.9-.6-1.5-.6s-1 .3-1 .9c0 .5.3.8 1.2 1.1 1 .3 1.7.7 1.7 1.7 0 1.1-.9 1.6-1.9 1.6-.6 0-1.2-.2-1.6-.5v-.8z"/><path d="m610 470.8c-.6.1-1.2.2-1.8.2-2 0-3.3-1.1-3.3-3s1.4-3 3.1-3c.4 0 .9.1 1.2.3v-3.3h.8zm-.8-4.7c-.3-.2-.7-.3-1.2-.3-1.3 0-2.3.8-2.3 2.3 0 1.4 1 2.3 2.5 2.3.4 0 .7 0 1.1-.1v-4.2z"/><path d="m612.3 468.1c0 1.4 1 2.2 2.1 2.2.8 0 1.4-.2 1.9-.6v.8c-.5.4-1.2.5-1.9.5-1.6 0-2.9-1.1-2.9-3 0-1.7 1.2-3 2.7-3 1.4 0 2.4.9 2.4 2.5v.5h-4.3zm3.5-.6c-.1-1.2-.7-1.7-1.6-1.7s-1.6.6-1.8 1.7z"/><path d="m619.8 465.2h.9v-1.4h.8v1.4h1.6v.7h-1.6v3.5c0 .7.3 1 .8 1 .4 0 .7-.1 1.1-.3v.7c-.3.2-.7.3-1.2.3-.8 0-1.4-.4-1.4-1.6v-3.5h-.9v-.8z"/></g><path d="m625.4 470.9h-.8v-5.1c.6-.4 1.3-.6 2.1-.6.3 0 .6 0 .9.1v.8c-.3-.1-.7-.1-1-.1-.6 0-1 .1-1.3.3v4.6z" fill="#050505"/><g enable-background="new" fill="#050505"><path d="m631.8 466.9c0-.7-.5-1.1-1.2-1.1s-1.1.2-1.7.5v-.7c.5-.3 1.1-.4 1.8-.4 1.1 0 1.9.5 1.9 1.8v3.9c-.5.1-1.1.2-1.6.2-1.5 0-2.6-.5-2.6-1.7 0-1.1 1-1.7 2.8-1.7h.6zm0 1.4h-.6c-1.2 0-2 .3-2 1.1s.8 1 1.8 1c.2 0 .5 0 .8-.1z"/><path d="m635.7 470.9-2.2-5.7h.8l1.8 4.9 1.8-4.9h.8l-2.2 5.7z"/><path d="m642.8 466.9c0-.7-.5-1.1-1.2-1.1s-1.1.2-1.7.5v-.7c.5-.3 1.1-.4 1.8-.4 1.1 0 1.9.5 1.9 1.8v3.9c-.5.1-1.1.2-1.6.2-1.5 0-2.6-.5-2.6-1.7 0-1.1 1-1.7 2.8-1.7h.6zm0 1.4h-.6c-1.2 0-2 .3-2 1.1s.8 1 1.8 1c.2 0 .5 0 .8-.1z"/><path d="m645.2 463.5c0-.3.3-.6.6-.6s.6.3.6.6-.3.6-.6.6-.6-.3-.6-.6zm1 7.4h-.8v-5.7h.8z"/><path d="m648.9 470.9h-.8v-8.8h.8z"/><path d="m657.5 466.4c-.5-.3-1.1-.5-1.6-.5-1.2 0-2.2.8-2.2 2.3 0 1.4 1 2.2 2.2 2.2.6 0 1.1-.2 1.6-.5v.8c-.6.3-1.1.4-1.7.4-1.6 0-3-1.1-3-3s1.4-3 2.9-3c.6 0 1.1.1 1.6.4v.9z"/><path d="m661.5 465.1c1.7 0 2.8 1.2 2.8 3s-1.2 3-2.8 3c-1.7 0-2.8-1.2-2.8-3s1.1-3 2.8-3zm0 .7c-1.2 0-2.1.9-2.1 2.3s.9 2.3 2.1 2.3 2.1-.9 2.1-2.3-.9-2.3-2.1-2.3z"/><path d="m666.6 470.9h-.8v-8.8h.8z"/><path d="m669.4 470.9h-.8v-8.8h.8z"/><path d="m674.2 466.9c0-.7-.5-1.1-1.2-1.1s-1.1.2-1.7.5v-.7c.5-.3 1.1-.4 1.8-.4 1.1 0 1.9.5 1.9 1.8v3.9c-.5.1-1.1.2-1.6.2-1.5 0-2.6-.5-2.6-1.7 0-1.1 1-1.7 2.8-1.7h.6zm0 1.4h-.6c-1.2 0-2 .3-2 1.1s.8 1 1.8 1c.2 0 .5 0 .8-.1z"/></g><path d="m676.9 462.1h.8v3.3c.2-.1.8-.3 1.4-.3 1.7 0 3 1 3 2.9 0 1.8-1.3 3-3.3 3-.6 0-1.3-.1-1.8-.3v-8.6zm.8 8.1c.3.1.7.1 1.1.1 1.5 0 2.5-.9 2.5-2.3 0-1.5-1-2.2-2.2-2.2-.6 0-1 .1-1.4.3z" fill="#050505"/><path d="m686 465.1c1.7 0 2.8 1.2 2.8 3s-1.2 3-2.8 3c-1.7 0-2.8-1.2-2.8-3s1.1-3 2.8-3zm0 .7c-1.2 0-2.1.9-2.1 2.3s.9 2.3 2.1 2.3 2.1-.9 2.1-2.3-.9-2.3-2.1-2.3z" fill="#050505"/><path d="m691.1 470.9h-.8v-5.1c.6-.4 1.3-.6 2.1-.6.3 0 .6 0 .9.1v.8c-.3-.1-.7-.1-1-.1-.6 0-1 .1-1.3.3v4.6z" fill="#050505"/><g enable-background="new" fill="#050505"><path d="m697.5 466.9c0-.7-.5-1.1-1.2-1.1s-1.1.2-1.7.5v-.7c.5-.3 1.1-.4 1.8-.4 1.1 0 1.9.5 1.9 1.8v3.9c-.5.1-1.1.2-1.6.2-1.5 0-2.6-.5-2.6-1.7 0-1.1 1-1.7 2.8-1.7h.6zm0 1.4h-.6c-1.2 0-2 .3-2 1.1s.8 1 1.8 1c.2 0 .5 0 .8-.1z"/><path d="m699.3 465.2h.9v-1.4h.8v1.4h1.6v.7h-1.6v3.5c0 .7.3 1 .8 1 .4 0 .7-.1 1.1-.3v.7c-.3.2-.7.3-1.2.3-.8 0-1.4-.4-1.4-1.6v-3.5h-.9v-.8z"/><path d="m704 463.5c0-.3.3-.6.6-.6s.6.3.6.6-.3.6-.6.6-.6-.3-.6-.6zm1 7.4h-.8v-5.7h.8z"/><path d="m707.9 470.9h-.8v-5h-.9v-.7h.9v-1.4c0-1.2.6-1.9 1.7-1.9.4 0 .7.1 1 .3v.7c-.3-.2-.6-.3-1-.3-.6 0-1 .3-1 1.2v1.4h1.6v.7h-1.6v5z"/></g><path d="m715 472.7c-1.3-1.2-2.3-3-2.3-5.3s1-4.1 2.3-5.3h.9c-1.4 1.3-2.4 2.9-2.4 5.3s1.1 4 2.4 5.3z" fill="#050505"/><path d="m722.5 464.6c-.6-.5-1.3-.8-2.1-.8-1.7 0-3.2 1.3-3.2 3.3s1.4 3.3 3.2 3.3c.7 0 1.1-.1 1.6-.3v-2.6h.8v3c-.6.4-1.4.6-2.4.6-2.3 0-4-1.6-4-4s1.8-4 4-4c.8 0 1.5.2 2.1.6z" fill="#050505"/><g enable-background="new" fill="#050505"><path d="m724.3 463.5c0-.3.3-.6.6-.6s.6.3.6.6-.3.6-.6.6-.6-.3-.6-.6zm1 7.4h-.8v-5.7h.8z"/><path d="m726.5 465.2h.9v-1.4h.8v1.4h1.6v.7h-1.6v3.5c0 .7.3 1 .8 1 .4 0 .7-.1 1.1-.3v.7c-.3.2-.7.3-1.2.3-.8 0-1.4-.4-1.4-1.6v-3.5h-.9v-.8z"/><path d="m731.4 462.1c1.3 1.2 2.3 3 2.3 5.3s-1 4.1-2.3 5.3h-.9c1.4-1.3 2.4-2.9 2.4-5.3s-1.1-4-2.4-5.3z"/><path d="m736.5 469.9c0 1.1-.6 2.2-1.3 2.7h-.6c.6-.7 1-1.6 1-2.7z"/></g><path d="m741.8 470.9h-.8v-5.1c.6-.4 1.3-.6 2.1-.6.3 0 .6 0 .9.1v.8c-.3-.1-.7-.1-1-.1-.6 0-1 .1-1.3.3v4.6z" fill="#050505"/><path d="m745.5 468.1c0 1.4 1 2.2 2.1 2.2.8 0 1.4-.2 1.9-.6v.8c-.5.4-1.2.5-1.9.5-1.6 0-2.9-1.1-2.9-3 0-1.7 1.2-3 2.7-3 1.4 0 2.4.9 2.4 2.5v.5h-4.3zm3.5-.6c-.1-1.2-.7-1.7-1.6-1.7s-1.6.6-1.8 1.7zm-2-3.3 1.1-2h.8l-1.1 2z" fill="#050505"/><g enable-background="new" fill="#050505"><path d="m756 470.8c-.6.1-1.2.2-1.8.2-2 0-3.3-1.1-3.3-3s1.4-3 3.1-3c.4 0 .9.1 1.2.3v-3.3h.8zm-.8-4.7c-.3-.2-.7-.3-1.2-.3-1.3 0-2.3.8-2.3 2.3 0 1.4 1 2.3 2.5 2.3.4 0 .7 0 1.1-.1v-4.2z"/><path d="m757.8 463.5c0-.3.3-.6.6-.6s.6.3.6.6-.3.6-.6.6c-.4 0-.6-.3-.6-.6zm1 7.4h-.8v-5.7h.8z"/></g><path d="m764.6 470.7c-.2.1-.7.2-1.2.2-1.9 0-3.2-1-3.2-2.9 0-1.8 1.3-2.9 3.3-2.9.6 0 1.4.2 1.8.4v5.5c0 1.7-1.3 2.4-2.6 2.4-.7 0-1.3-.2-1.8-.4v-.7c.5.2 1.1.4 1.8.4.9 0 1.8-.5 1.8-1.9v-.1zm0-4.7c-.3-.1-.7-.2-1.1-.2-1.6 0-2.5.8-2.5 2.2s.9 2.2 2.4 2.2c.5 0 .8-.1 1.2-.2z" fill="#050505"/><g enable-background="new" fill="#050505"><path d="m767.6 468.1c0 1.4 1 2.2 2.1 2.2.8 0 1.4-.2 1.9-.6v.8c-.5.4-1.2.5-1.9.5-1.6 0-2.9-1.1-2.9-3 0-1.7 1.2-3 2.7-3 1.4 0 2.4.9 2.4 2.5v.5h-4.3zm3.5-.6c-.1-1.2-.7-1.7-1.6-1.7s-1.6.6-1.8 1.7z"/><path d="m774.2 470.9h-.8v-5.1c.6-.4 1.3-.6 2.1-.6.3 0 .6 0 .9.1v.8c-.3-.1-.7-.1-1-.1-.6 0-1 .1-1.3.3v4.6z"/><path d="m784.9 470.8c-.6.1-1.2.2-1.8.2-2 0-3.3-1.1-3.3-3s1.4-3 3.1-3c.4 0 .9.1 1.2.3v-3.3h.8zm-.8-4.7c-.3-.2-.7-.3-1.2-.3-1.3 0-2.3.8-2.3 2.3 0 1.4 1 2.3 2.5 2.3.4 0 .7 0 1.1-.1v-4.2z"/></g><path d="m787.2 468.1c0 1.4 1 2.2 2.1 2.2.8 0 1.4-.2 1.9-.6v.8c-.5.4-1.2.5-1.9.5-1.6 0-2.9-1.1-2.9-3 0-1.7 1.2-3 2.7-3 1.4 0 2.4.9 2.4 2.5v.5h-4.3zm3.5-.6c-.1-1.2-.7-1.7-1.6-1.7s-1.6.6-1.8 1.7z" fill="#050505"/><path d="m792.7 469.7c.5.4 1 .7 1.6.7.7 0 1.2-.3 1.2-.9 0-.7-.5-.9-1.4-1.2-1-.3-1.4-.8-1.4-1.7 0-1 .8-1.5 1.8-1.5.6 0 1.1.1 1.5.4v.8c-.4-.4-.9-.6-1.5-.6s-1 .3-1 .9c0 .5.3.8 1.2 1.1 1 .3 1.7.7 1.7 1.7 0 1.1-.9 1.6-1.9 1.6-.6 0-1.2-.2-1.6-.5v-.8z" fill="#050505"/><path d="m800.6 468.1c0 1.4 1 2.2 2.1 2.2.8 0 1.4-.2 1.9-.6v.8c-.5.4-1.2.5-1.9.5-1.6 0-2.9-1.1-2.9-3 0-1.7 1.2-3 2.7-3 1.4 0 2.4.9 2.4 2.5v.5h-4.3zm3.5-.6c-.1-1.2-.7-1.7-1.6-1.7s-1.6.6-1.8 1.7zm-2-3.3 1.1-2h.8l-1.1 2z" fill="#050505"/><g enable-background="new" fill="#050505"><path d="m810.6 466.4c-.5-.3-1.1-.5-1.6-.5-1.2 0-2.2.8-2.2 2.3 0 1.4 1 2.2 2.2 2.2.6 0 1.1-.2 1.6-.5v.8c-.6.3-1.1.4-1.7.4-1.6 0-3-1.1-3-3s1.4-3 2.9-3c.6 0 1.1.1 1.6.4v.9z"/><path d="m812.9 470.9h-.8v-5.1c.6-.4 1.3-.6 2.1-.6.3 0 .6 0 .9.1v.8c-.3-.1-.7-.1-1-.1-.6 0-1 .1-1.3.3v4.6z"/><path d="m816.3 463.5c0-.3.3-.6.6-.6s.6.3.6.6-.3.6-.6.6c-.4 0-.6-.3-.6-.6zm.9 7.4h-.8v-5.7h.8z"/><path d="m818.4 465.2h.9v-1.4h.8v1.4h1.6v.7h-1.6v3.5c0 .7.3 1 .8 1 .4 0 .7-.1 1.1-.3v.7c-.3.2-.7.3-1.2.3-.8 0-1.4-.4-1.4-1.6v-3.5h-.9v-.8z"/><path d="m823 469.7c.5.4 1 .7 1.6.7.7 0 1.2-.3 1.2-.9 0-.7-.5-.9-1.4-1.2-1-.3-1.4-.8-1.4-1.7 0-1 .8-1.5 1.8-1.5.6 0 1.1.1 1.5.4v.8c-.4-.4-.9-.6-1.5-.6s-1 .3-1 .9c0 .5.3.8 1.2 1.1 1 .3 1.7.7 1.7 1.7 0 1.1-.9 1.6-1.9 1.6-.6 0-1.2-.2-1.6-.5v-.8z"/></g><path d="m573 481.5c.5-.2 1.2-.4 2-.4 2 0 3.1 1 3.1 3 0 1.8-1.2 3-3.1 3-.5 0-.9-.1-1.2-.2v2.4h-.8zm.8 4.6c.4.2.8.2 1.2.2 1.4 0 2.3-.8 2.3-2.3 0-1.4-.8-2.2-2.3-2.2-.4 0-.9.1-1.2.2z" fill="#050505"/><path d="m580.4 486.9h-.8v-5.1c.6-.4 1.3-.6 2.1-.6.3 0 .6 0 .9.1v.8c-.3-.1-.7-.1-1-.1-.6 0-1 .1-1.3.3v4.6z" fill="#050505"/><g enable-background="new" fill="#050505"><path d="m586.1 481.1c1.7 0 2.8 1.2 2.8 3s-1.2 3-2.8 3-2.8-1.2-2.8-3 1.1-3 2.8-3zm0 .7c-1.2 0-2.1.9-2.1 2.3s.9 2.3 2.1 2.3 2.1-.9 2.1-2.3-.9-2.3-2.1-2.3z"/><path d="m591.4 486.9h-.8v-5h-.9v-.7h.9v-1.4c0-1.2.6-1.9 1.7-1.9.4 0 .7.1 1 .3v.7c-.3-.2-.6-.3-1-.3-.6 0-1 .3-1 1.2v1.4h1.6v.7h-1.6v5z"/></g><path d="m594.3 484.1c0 1.4 1 2.2 2.1 2.2.8 0 1.4-.2 1.9-.6v.8c-.5.4-1.2.5-1.9.5-1.6 0-2.9-1.1-2.9-3 0-1.7 1.2-3 2.7-3 1.4 0 2.4.9 2.4 2.5v.5h-4.3zm3.5-.6c-.1-1.2-.7-1.7-1.6-1.7s-1.6.6-1.8 1.7z" fill="#050505"/><g enable-background="new" fill="#050505"><path d="m599.8 485.7c.5.4 1 .7 1.6.7.7 0 1.2-.3 1.2-.9 0-.7-.5-.9-1.4-1.2-1-.3-1.4-.8-1.4-1.7 0-1 .8-1.5 1.8-1.5.6 0 1.1.1 1.5.4v.8c-.4-.4-.9-.6-1.5-.6s-1 .3-1 .9c0 .5.3.8 1.2 1.1 1 .3 1.7.7 1.7 1.7 0 1.1-.9 1.6-1.9 1.6-.6 0-1.2-.2-1.6-.5v-.8z"/><path d="m604.6 485.7c.5.4 1 .7 1.6.7.7 0 1.2-.3 1.2-.9 0-.7-.5-.9-1.4-1.2-1-.3-1.4-.8-1.4-1.7 0-1 .8-1.5 1.8-1.5.6 0 1.1.1 1.5.4v.8c-.4-.4-.9-.6-1.5-.6s-1 .3-1 .9c0 .5.3.8 1.2 1.1 1 .3 1.7.7 1.7 1.7 0 1.1-.9 1.6-1.9 1.6-.6 0-1.2-.2-1.6-.5v-.8z"/><path d="m609.5 479.5c0-.3.3-.6.6-.6s.6.3.6.6-.3.6-.6.6-.6-.3-.6-.6zm1 7.4h-.8v-5.7h.8z"/><path d="m614.8 481.1c1.7 0 2.8 1.2 2.8 3s-1.2 3-2.8 3-2.8-1.2-2.8-3 1.2-3 2.8-3zm0 .7c-1.2 0-2.1.9-2.1 2.3s.9 2.3 2.1 2.3 2.1-.9 2.1-2.3-.9-2.3-2.1-2.3z"/><path d="m619.2 481.5c.8-.3 1.6-.4 2.4-.4 1.4 0 2.3.6 2.3 2v3.8h-.8v-3.7c0-1.2-.8-1.4-1.6-1.4-.6 0-1.1.1-1.5.2v4.9h-.8z"/><path d="m625.8 481.5c.8-.3 1.6-.4 2.4-.4 1.4 0 2.3.6 2.3 2v3.8h-.8v-3.7c0-1.2-.8-1.4-1.6-1.4-.6 0-1.1.1-1.5.2v4.9h-.8z"/><path d="m632.7 484.1c0 1.4 1 2.2 2.1 2.2.8 0 1.4-.2 1.9-.6v.8c-.5.4-1.2.5-1.9.5-1.6 0-2.9-1.1-2.9-3 0-1.7 1.2-3 2.7-3 1.4 0 2.4.9 2.4 2.5v.5h-4.3zm3.5-.6c-.1-1.2-.7-1.7-1.6-1.7s-1.6.6-1.8 1.7z"/><path d="m639.3 486.9h-.8v-8.8h.8z"/><path d="m640.9 485.7c.5.4 1 .7 1.6.7.7 0 1.2-.3 1.2-.9 0-.7-.5-.9-1.4-1.2-1-.3-1.4-.8-1.4-1.7 0-1 .8-1.5 1.8-1.5.6 0 1.1.1 1.5.4v.8c-.4-.4-.9-.6-1.5-.6s-1 .3-1 .9c0 .5.3.8 1.2 1.1 1 .3 1.7.7 1.7 1.7 0 1.1-.9 1.6-1.9 1.6-.6 0-1.2-.2-1.6-.5v-.8z"/><path d="m647 485.9c0 1.1-.6 2.2-1.3 2.7h-.6c.6-.7 1-1.6 1-2.7z"/><path d="m655.7 482.4c-.5-.3-1.1-.5-1.6-.5-1.2 0-2.2.8-2.2 2.3 0 1.4 1 2.2 2.2 2.2.6 0 1.1-.2 1.6-.5v.8c-.6.3-1.1.4-1.7.4-1.6 0-3-1.1-3-3s1.4-3 2.9-3c.6 0 1.1.1 1.6.4v.9z"/><path d="m659.7 481.1c1.7 0 2.8 1.2 2.8 3s-1.2 3-2.8 3-2.8-1.2-2.8-3 1.1-3 2.8-3zm0 .7c-1.2 0-2.1.9-2.1 2.3s.9 2.3 2.1 2.3 2.1-.9 2.1-2.3-.9-2.3-2.1-2.3z"/><path d="m671.3 483.1c0-1.1-.7-1.3-1.3-1.3-.7 0-1.3.2-1.7.3.1.2.2.6.2.9v3.8h-.8v-3.8c0-1.1-.7-1.3-1.3-1.3s-1.1.1-1.5.3v4.8h-.8v-5.3c.7-.3 1.5-.5 2.3-.5.7 0 1.2.1 1.5.4.7-.3 1.4-.4 2.1-.4 1.4 0 2.1.6 2.1 2v3.8h-.8z"/><path d="m681.1 483.1c0-1.1-.7-1.3-1.3-1.3-.7 0-1.3.2-1.7.3.1.2.2.6.2.9v3.8h-.8v-3.8c0-1.1-.7-1.3-1.3-1.3s-1.1.1-1.5.3v4.8h-.8v-5.3c.7-.3 1.5-.5 2.3-.5.7 0 1.2.1 1.5.4.7-.3 1.4-.4 2.1-.4 1.4 0 2.1.6 2.1 2v3.8h-.8z"/><path d="m688.2 486.8c-.7.1-1.4.2-2 .2-1.6 0-2.6-.6-2.6-2v-3.8h.8v3.8c0 1.1.8 1.3 1.7 1.3.4 0 .8 0 1.2-.1v-5h.8v5.6z"/><path d="m690.2 481.5c.8-.3 1.6-.4 2.4-.4 1.4 0 2.3.6 2.3 2v3.8h-.8v-3.7c0-1.2-.8-1.4-1.6-1.4-.6 0-1.1.1-1.5.2v4.9h-.8z"/><path d="m696.6 479.5c0-.3.3-.6.6-.6s.6.3.6.6-.3.6-.6.6c-.4 0-.6-.3-.6-.6zm.9 7.4h-.8v-5.7h.8z"/><path d="m704.2 489.3h-.8v-2.5c-.2.1-.7.2-1.2.2-1.9 0-3.2-1-3.2-3 0-1.8 1.3-3 3.3-3 .6 0 1.4.2 1.8.4v7.9zm-.8-7.3c-.3-.1-.7-.2-1.1-.2-1.6 0-2.5.9-2.5 2.2 0 1.4.9 2.3 2.4 2.3.5 0 .8-.1 1.2-.2z"/><path d="m710.6 486.8c-.7.1-1.4.2-2 .2-1.6 0-2.6-.6-2.6-2v-3.8h.8v3.8c0 1.1.8 1.3 1.7 1.3.4 0 .8 0 1.2-.1v-5h.8v5.6z"/><path d="m712.9 484.1c0 1.4 1 2.2 2.1 2.2.8 0 1.4-.2 1.9-.6v.8c-.5.4-1.2.5-1.9.5-1.6 0-2.9-1.1-2.9-3 0-1.7 1.2-3 2.7-3 1.4 0 2.4.9 2.4 2.5v.5h-4.3zm3.5-.6c-.1-1.2-.7-1.7-1.6-1.7s-1.6.6-1.8 1.7z"/><path d="m719.4 486.9h-.8v-5.1c.6-.4 1.3-.6 2.1-.6.3 0 .6 0 .9.1v.8c-.3-.1-.7-.1-1-.1-.6 0-1 .1-1.3.3v4.6z"/><path d="m728.3 482.9c0-.7-.5-1.1-1.2-1.1s-1.1.2-1.7.5v-.7c.5-.3 1.1-.4 1.8-.4 1.1 0 1.9.5 1.9 1.8v3.9c-.5.1-1.1.2-1.6.2-1.5 0-2.6-.5-2.6-1.7 0-1.1 1-1.7 2.8-1.7h.6zm0 1.4h-.6c-1.2 0-2 .3-2 1.1s.8 1 1.8 1c.2 0 .5 0 .8-.1z"/><path d="m732.3 486.9-2.2-5.7h.8l1.8 4.9 1.8-4.9h.8l-2.2 5.7z"/></g><path d="m736.8 484.1c0 1.4 1 2.2 2.1 2.2.8 0 1.4-.2 1.9-.6v.8c-.5.4-1.2.5-1.9.5-1.6 0-2.9-1.1-2.9-3 0-1.7 1.2-3 2.7-3 1.4 0 2.4.9 2.4 2.5v.5h-4.3zm3.5-.6c-.1-1.2-.7-1.7-1.6-1.7s-1.6.6-1.8 1.7z" fill="#050505"/><path d="m746.7 482.4c-.5-.3-1.1-.5-1.6-.5-1.2 0-2.2.8-2.2 2.3 0 1.4 1 2.2 2.2 2.2.6 0 1.1-.2 1.6-.5v.8c-.6.3-1.1.4-1.7.4-1.6 0-3-1.1-3-3s1.4-3 2.9-3c.6 0 1.1.1 1.6.4v.9z" fill="#050505"/><path d="m750.5 485.7c.5.4 1 .7 1.6.7.7 0 1.2-.3 1.2-.9 0-.7-.5-.9-1.4-1.2-1-.3-1.4-.8-1.4-1.7 0-1 .8-1.5 1.8-1.5.6 0 1.1.1 1.5.4v.8c-.4-.4-.9-.6-1.5-.6s-1 .3-1 .9c0 .5.3.8 1.2 1.1 1 .3 1.7.7 1.7 1.7 0 1.1-.9 1.6-1.9 1.6-.6 0-1.2-.2-1.6-.5v-.8z" fill="#050505"/><g enable-background="new" fill="#050505"><path d="m757.9 481.1c1.7 0 2.8 1.2 2.8 3s-1.2 3-2.8 3c-1.7 0-2.8-1.2-2.8-3s1.1-3 2.8-3zm0 .7c-1.2 0-2.1.9-2.1 2.3s.9 2.3 2.1 2.3 2.1-.9 2.1-2.3-.9-2.3-2.1-2.3z"/><path d="m762.3 481.5c.8-.3 1.6-.4 2.4-.4 1.4 0 2.3.6 2.3 2v3.8h-.8v-3.7c0-1.2-.8-1.4-1.6-1.4-.6 0-1.1.1-1.5.2v4.9h-.8z"/></g><path d="m771.7 484.1c0 1.4 1 2.2 2.1 2.2.8 0 1.4-.2 1.9-.6v.8c-.5.4-1.2.5-1.9.5-1.6 0-2.9-1.1-2.9-3 0-1.7 1.2-3 2.7-3 1.4 0 2.4.9 2.4 2.5v.5h-4.3zm3.5-.6c-.1-1.2-.7-1.7-1.6-1.7s-1.6.6-1.8 1.7zm-2-3.3 1.1-2h.8l-1.1 2z" fill="#050505"/><g enable-background="new" fill="#050505"><path d="m782.2 489.3h-.8v-2.5c-.2.1-.7.2-1.2.2-1.9 0-3.2-1-3.2-3 0-1.8 1.3-3 3.3-3 .6 0 1.4.2 1.8.4v7.9zm-.8-7.3c-.3-.1-.7-.2-1.1-.2-1.6 0-2.5.9-2.5 2.2 0 1.4.9 2.3 2.4 2.3.5 0 .8-.1 1.2-.2z"/><path d="m788.6 486.8c-.7.1-1.4.2-2 .2-1.6 0-2.6-.6-2.6-2v-3.8h.8v3.8c0 1.1.8 1.3 1.7 1.3.4 0 .8 0 1.2-.1v-5h.8v5.6z"/><path d="m790.3 479.5c0-.3.3-.6.6-.6s.6.3.6.6-.3.6-.6.6-.6-.3-.6-.6zm1 7.4h-.8v-5.7h.8z"/></g><path d="m793.3 481.5c.5-.2 1.2-.4 2-.4 2 0 3.1 1 3.1 3 0 1.8-1.2 3-3.1 3-.5 0-.9-.1-1.2-.2v2.4h-.8zm.7 4.6c.4.2.8.2 1.2.2 1.4 0 2.3-.8 2.3-2.3 0-1.4-.8-2.2-2.3-2.2-.4 0-.9.1-1.2.2z" fill="#050505"/><path d="m800.3 484.1c0 1.4 1 2.2 2.1 2.2.8 0 1.4-.2 1.9-.6v.8c-.5.4-1.2.5-1.9.5-1.6 0-2.9-1.1-2.9-3 0-1.7 1.2-3 2.7-3 1.4 0 2.4.9 2.4 2.5v.5h-4.3zm3.5-.6c-.1-1.2-.7-1.7-1.6-1.7s-1.6.6-1.8 1.7z" fill="#050505"/><path d="m807.1 485.9c0 1.1-.6 2.2-1.3 2.7h-.6c.6-.7 1-1.6 1-2.7z" fill="#050505"/><g enable-background="new" fill="#050505"><path d="m575.9 498.9c0-.7-.5-1.1-1.2-1.1s-1.1.2-1.7.5v-.7c.5-.3 1.1-.4 1.8-.4 1.1 0 1.9.5 1.9 1.8v3.9c-.5.1-1.1.2-1.6.2-1.5 0-2.6-.5-2.6-1.7 0-1.1 1-1.7 2.8-1.7h.6zm0 1.4h-.6c-1.2 0-2 .3-2 1.1s.8 1 1.8 1c.2 0 .5 0 .8-.1z"/><path d="m578.6 497.5c.8-.3 1.6-.4 2.4-.4 1.4 0 2.3.6 2.3 2v3.8h-.8v-3.7c0-1.2-.8-1.4-1.6-1.4-.6 0-1.1.1-1.5.2v4.9h-.8z"/><path d="m589 502.7c-.2.1-.7.2-1.2.2-1.9 0-3.2-1-3.2-2.9 0-1.8 1.3-2.9 3.3-2.9.6 0 1.4.2 1.8.4v5.5c0 1.7-1.3 2.4-2.6 2.4-.7 0-1.3-.2-1.8-.4v-.7c.5.2 1.1.4 1.8.4.9 0 1.8-.5 1.8-1.9v-.1zm0-4.7c-.3-.1-.7-.2-1.1-.2-1.6 0-2.5.8-2.5 2.2s.9 2.2 2.4 2.2c.5 0 .8-.1 1.2-.2z"/><path d="m592.5 502.9h-.8v-8.8h.8z"/><path d="m597.4 498.9c0-.7-.5-1.1-1.2-1.1s-1.1.2-1.7.5v-.7c.5-.3 1.1-.4 1.8-.4 1.1 0 1.9.5 1.9 1.8v3.9c-.5.1-1.1.2-1.6.2-1.5 0-2.6-.5-2.6-1.7 0-1.1 1-1.7 2.8-1.7h.6zm0 1.4h-.6c-1.2 0-2 .3-2 1.1s.8 1 1.8 1c.2 0 .5 0 .8-.1z"/><path d="m599.9 495.5c0-.3.3-.6.6-.6s.6.3.6.6-.3.6-.6.6c-.4 0-.6-.3-.6-.6zm.9 7.4h-.8v-5.7h.8z"/><path d="m602.4 501.7c.5.4 1 .7 1.6.7.7 0 1.2-.3 1.2-.9 0-.7-.5-.9-1.4-1.2-1-.3-1.4-.8-1.4-1.7 0-1 .8-1.5 1.8-1.5.6 0 1.1.1 1.5.4v.8c-.4-.4-.9-.6-1.5-.6s-1 .3-1 .9c0 .5.3.8 1.2 1.1 1 .3 1.7.7 1.7 1.7 0 1.1-.9 1.6-1.9 1.6-.6 0-1.2-.2-1.6-.5v-.8z"/></g><path d="m609.2 497.2h.9v-1.4h.8v1.4h1.6v.7h-1.6v3.5c0 .7.3 1 .8 1 .4 0 .7-.1 1.1-.3v.7c-.3.2-.7.3-1.2.3-.8 0-1.4-.4-1.4-1.6v-3.5h-.9v-.8z" fill="#050505"/><path d="m614.3 500.1c0 1.4 1 2.2 2.1 2.2.8 0 1.4-.2 1.9-.6v.8c-.5.4-1.2.5-1.9.5-1.6 0-2.9-1.1-2.9-3 0-1.7 1.2-3 2.7-3 1.4 0 2.4.9 2.4 2.5v.5h-4.3zm3.5-.6c-.1-1.2-.7-1.7-1.6-1.7s-1.6.6-1.8 1.7z" fill="#050505"/><g enable-background="new" fill="#050505"><path d="m624.3 498.4c-.5-.3-1.1-.5-1.6-.5-1.2 0-2.2.8-2.2 2.3 0 1.4 1 2.2 2.2 2.2.6 0 1.1-.2 1.6-.5v.8c-.6.3-1.1.4-1.7.4-1.6 0-3-1.1-3-3s1.4-3 2.9-3c.6 0 1.1.1 1.6.4v.9z"/><path d="m625.9 494.1h.8v3.3c.4-.2 1.1-.3 1.7-.3 1.4 0 2.2.6 2.2 2v3.8h-.8v-3.7c0-1.2-.8-1.4-1.6-1.4-.6 0-1.1.1-1.5.3v4.8h-.8z"/><path d="m632.5 497.5c.8-.3 1.6-.4 2.4-.4 1.4 0 2.3.6 2.3 2v3.8h-.8v-3.7c0-1.2-.8-1.4-1.6-1.4-.6 0-1.1.1-1.5.2v4.9h-.8z"/><path d="m638.8 495.5c0-.3.3-.6.6-.6s.6.3.6.6-.3.6-.6.6-.6-.3-.6-.6zm1 7.4h-.8v-5.7h.8z"/><path d="m646.5 505.3h-.8v-2.5c-.2.1-.7.2-1.2.2-1.9 0-3.2-1-3.2-3 0-1.8 1.3-3 3.3-3 .6 0 1.4.2 1.8.4v7.9zm-.8-7.3c-.3-.1-.7-.2-1.1-.2-1.6 0-2.5.9-2.5 2.2 0 1.4.9 2.3 2.4 2.3.5 0 .8-.1 1.2-.2z"/><path d="m652.8 502.8c-.7.1-1.4.2-2 .2-1.6 0-2.6-.6-2.6-2v-3.8h.8v3.8c0 1.1.8 1.3 1.7 1.3.4 0 .8 0 1.2-.1v-5h.8v5.6z"/></g><path d="m655.1 500.1c0 1.4 1 2.2 2.1 2.2.8 0 1.4-.2 1.9-.6v.8c-.5.4-1.2.5-1.9.5-1.6 0-2.9-1.1-2.9-3 0-1.7 1.2-3 2.7-3 1.4 0 2.4.9 2.4 2.5v.5h-4.3zm3.6-.6c-.1-1.2-.7-1.7-1.6-1.7s-1.6.6-1.8 1.7z" fill="#050505"/><g enable-background="new" fill="#050505"><path d="m661.9 501.9c0 1.1-.6 2.2-1.3 2.7h-.6c.6-.7 1-1.6 1-2.7z"/><path d="m673.7 499.1c0-1.1-.7-1.3-1.3-1.3-.7 0-1.3.2-1.7.3.1.2.2.6.2.9v3.8h-.8v-3.8c0-1.1-.7-1.3-1.3-1.3s-1.1.1-1.5.3v4.8h-.8v-5.3c.7-.3 1.5-.5 2.3-.5.7 0 1.2.1 1.5.4.7-.3 1.4-.4 2.1-.4 1.4 0 2.1.6 2.1 2v3.8h-.8z"/></g><path d="m676.7 500.1c0 1.4 1 2.2 2.1 2.2.8 0 1.4-.2 1.9-.6v.8c-.5.4-1.2.5-1.9.5-1.6 0-2.9-1.1-2.9-3 0-1.7 1.2-3 2.7-3 1.4 0 2.4.9 2.4 2.5v.5h-4.3zm3.5-.6c-.1-1.2-.7-1.7-1.6-1.7s-1.6.6-1.8 1.7zm-2-3.3 1.1-2h.8l-1.1 2z" fill="#050505"/><g enable-background="new" fill="#050505"><path d="m681.7 497.2h.9v-1.4h.8v1.4h1.6v.7h-1.6v3.5c0 .7.3 1 .8 1 .4 0 .7-.1 1.1-.3v.7c-.3.2-.7.3-1.2.3-.8 0-1.4-.4-1.4-1.6v-3.5h-.9v-.8z"/><path d="m686.6 494.1h.8v3.3c.4-.2 1.1-.3 1.7-.3 1.4 0 2.2.6 2.2 2v3.8h-.8v-3.7c0-1.2-.8-1.4-1.6-1.4-.6 0-1.1.1-1.5.3v4.8h-.8z"/></g><path d="m695.6 497.1c1.7 0 2.8 1.2 2.8 3s-1.2 3-2.8 3c-1.7 0-2.8-1.2-2.8-3s1.1-3 2.8-3zm0 .7c-1.2 0-2.1.9-2.1 2.3s.9 2.3 2.1 2.3 2.1-.9 2.1-2.3-.9-2.3-2.1-2.3z" fill="#050505"/><path d="m704.8 502.8c-.6.1-1.2.2-1.8.2-2 0-3.3-1.1-3.3-3s1.4-3 3.1-3c.4 0 .9.1 1.2.3v-3.3h.8zm-.8-4.7c-.3-.2-.7-.3-1.2-.3-1.3 0-2.3.8-2.3 2.3 0 1.4 1 2.3 2.5 2.3.4 0 .7 0 1.1-.1v-4.2z" fill="#050505"/><path d="m707.1 500.1c0 1.4 1 2.2 2.1 2.2.8 0 1.4-.2 1.9-.6v.8c-.5.4-1.2.5-1.9.5-1.6 0-2.9-1.1-2.9-3 0-1.7 1.2-3 2.7-3 1.4 0 2.4.9 2.4 2.5v.5h-4.3zm3.5-.6c-.1-1.2-.7-1.7-1.6-1.7s-1.6.6-1.8 1.7z" fill="#050505"/><g enable-background="new" fill="#050505"><path d="m712.6 501.7c.5.4 1 .7 1.6.7.7 0 1.2-.3 1.2-.9 0-.7-.5-.9-1.4-1.2-1-.3-1.4-.8-1.4-1.7 0-1 .8-1.5 1.8-1.5.6 0 1.1.1 1.5.4v.8c-.4-.4-.9-.6-1.5-.6s-1 .3-1 .9c0 .5.3.8 1.2 1.1 1 .3 1.7.7 1.7 1.7 0 1.1-.9 1.6-1.9 1.6-.6 0-1.2-.2-1.6-.5v-.8z"/><path d="m723.1 498.9c0-.7-.5-1.1-1.2-1.1s-1.1.2-1.7.5v-.7c.5-.3 1.1-.4 1.8-.4 1.1 0 1.9.5 1.9 1.8v3.9c-.5.1-1.1.2-1.6.2-1.5 0-2.6-.5-2.6-1.7 0-1.1 1-1.7 2.8-1.7h.6zm0 1.4h-.6c-1.2 0-2 .3-2 1.1s.8 1 1.8 1c.2 0 .5 0 .8-.1z"/><path d="m729.6 502.7c-.2.1-.7.2-1.2.2-1.9 0-3.2-1-3.2-2.9 0-1.8 1.3-2.9 3.3-2.9.6 0 1.4.2 1.8.4v5.5c0 1.7-1.3 2.4-2.6 2.4-.7 0-1.3-.2-1.8-.4v-.7c.5.2 1.1.4 1.8.4.9 0 1.8-.5 1.8-1.9v-.1zm0-4.7c-.3-.1-.7-.2-1.1-.2-1.6 0-2.5.8-2.5 2.2s.9 2.2 2.4 2.2c.5 0 .8-.1 1.2-.2z"/><path d="m732.1 495.5c0-.3.3-.6.6-.6s.6.3.6.6-.3.6-.6.6-.6-.3-.6-.6zm1 7.4h-.8v-5.7h.8z"/><path d="m735.8 502.9h-.8v-8.8h.8z"/></g><path d="m738.1 500.1c0 1.4 1 2.2 2.1 2.2.8 0 1.4-.2 1.9-.6v.8c-.5.4-1.2.5-1.9.5-1.6 0-2.9-1.1-2.9-3 0-1.7 1.2-3 2.7-3 1.4 0 2.4.9 2.4 2.5v.5h-4.3zm3.6-.6c-.1-1.2-.7-1.7-1.6-1.7s-1.6.6-1.8 1.7z" fill="#050505"/><g enable-background="new" fill="#050505"><path d="m743.7 501.7c.5.4 1 .7 1.6.7.7 0 1.2-.3 1.2-.9 0-.7-.5-.9-1.4-1.2-1-.3-1.4-.8-1.4-1.7 0-1 .8-1.5 1.8-1.5.6 0 1.1.1 1.5.4v.8c-.4-.4-.9-.6-1.5-.6s-1 .3-1 .9c0 .5.3.8 1.2 1.1 1 .3 1.7.7 1.7 1.7 0 1.1-.9 1.6-1.9 1.6-.6 0-1.2-.2-1.6-.5v-.8z"/><path d="m749.8 501.9c0 1.1-.6 2.2-1.3 2.7h-.6c.6-.7 1-1.6 1-2.7z"/><path d="m759 505.3h-.8v-2.5c-.2.1-.7.2-1.2.2-1.9 0-3.2-1-3.2-3 0-1.8 1.3-3 3.3-3 .6 0 1.4.2 1.8.4v7.9zm-.7-7.3c-.3-.1-.7-.2-1.1-.2-1.6 0-2.5.9-2.5 2.2 0 1.4.9 2.3 2.4 2.3.5 0 .8-.1 1.2-.2z"/><path d="m765.4 502.8c-.7.1-1.4.2-2 .2-1.6 0-2.6-.6-2.6-2v-3.8h.8v3.8c0 1.1.8 1.3 1.7 1.3.4 0 .8 0 1.2-.1v-5h.8v5.6z"/><path d="m770.3 498.9c0-.7-.5-1.1-1.2-1.1s-1.1.2-1.7.5v-.7c.5-.3 1.1-.4 1.8-.4 1.1 0 1.9.5 1.9 1.8v3.9c-.5.1-1.1.2-1.6.2-1.5 0-2.6-.5-2.6-1.7 0-1.1 1-1.7 2.8-1.7h.6zm0 1.4h-.6c-1.2 0-2 .3-2 1.1s.8 1 1.8 1c.2 0 .5 0 .8-.1z"/><path d="m773.7 502.9h-.8v-8.8h.8z"/><path d="m775.5 495.5c0-.3.3-.6.6-.6s.6.3.6.6-.3.6-.6.6c-.4 0-.6-.3-.6-.6zm.9 7.4h-.8v-5.7h.8z"/></g><path d="m777.6 497.2h.9v-1.4h.8v1.4h1.6v.7h-1.6v3.5c0 .7.3 1 .8 1 .4 0 .7-.1 1.1-.3v.7c-.3.2-.7.3-1.2.3-.8 0-1.4-.4-1.4-1.6v-3.5h-.9v-.8z" fill="#050505"/><g enable-background="new" fill="#050505"><path d="m782.7 500.1c0 1.4 1 2.2 2.1 2.2.8 0 1.4-.2 1.9-.6v.8c-.5.4-1.2.5-1.9.5-1.6 0-2.9-1.1-2.9-3 0-1.7 1.2-3 2.7-3 1.4 0 2.4.9 2.4 2.5v.5h-4.3zm3.5-.6c-.1-1.2-.7-1.7-1.6-1.7s-1.6.6-1.8 1.7zm-2-3.3 1.1-2h.8l-1.1 2z"/><path d="m791.8 502.9h-.8v-8.8h.8z"/></g><path d="m796.1 497.1c1.7 0 2.8 1.2 2.8 3s-1.2 3-2.8 3-2.8-1.2-2.8-3 1.1-3 2.8-3zm0 .7c-1.2 0-2.1.9-2.1 2.3s.9 2.3 2.1 2.3 2.1-.9 2.1-2.3-.9-2.3-2.1-2.3z" fill="#050505"/><g enable-background="new" fill="#050505"><path d="m804.5 502.7c-.2.1-.7.2-1.2.2-1.9 0-3.2-1-3.2-2.9 0-1.8 1.3-2.9 3.3-2.9.6 0 1.4.2 1.8.4v5.5c0 1.7-1.3 2.4-2.6 2.4-.7 0-1.3-.2-1.8-.4v-.7c.5.2 1.1.4 1.8.4.9 0 1.8-.5 1.8-1.9v-.1zm0-4.7c-.3-.1-.7-.2-1.1-.2-1.6 0-2.5.8-2.5 2.2s.9 2.2 2.4 2.2c.5 0 .8-.1 1.2-.2z"/><path d="m807 495.5c0-.3.3-.6.6-.6s.6.3.6.6-.3.6-.6.6-.6-.3-.6-.6zm1 7.4h-.8v-5.7h.8z"/><path d="m814 498.4c-.5-.3-1.1-.5-1.6-.5-1.2 0-2.2.8-2.2 2.3 0 1.4 1 2.2 2.2 2.2.6 0 1.1-.2 1.6-.5v.8c-.6.3-1.1.4-1.7.4-1.6 0-3-1.1-3-3s1.4-3 2.9-3c.6 0 1.1.1 1.6.4v.9z"/><path d="m815.4 495.5c0-.3.3-.6.6-.6s.6.3.6.6-.3.6-.6.6-.6-.3-.6-.6zm1 7.4h-.8v-5.7h.8z"/><path d="m818.7 500.1c0 1.4 1 2.2 2.1 2.2.8 0 1.4-.2 1.9-.6v.8c-.5.4-1.2.5-1.9.5-1.6 0-2.9-1.1-2.9-3 0-1.7 1.2-3 2.7-3 1.4 0 2.4.9 2.4 2.5v.5h-4.3zm3.5-.6c-.1-1.2-.7-1.7-1.6-1.7s-1.6.6-1.8 1.7z"/><path d="m825.3 502.9h-.8v-8.8h.8z"/><path d="m828 502.9h-.8v-8.8h.8z"/></g><path d="m830.3 500.1c0 1.4 1 2.2 2.1 2.2.8 0 1.4-.2 1.9-.6v.8c-.5.4-1.2.5-1.9.5-1.6 0-2.9-1.1-2.9-3 0-1.7 1.2-3 2.7-3 1.4 0 2.4.9 2.4 2.5v.5h-4.3zm3.5-.6c-.1-1.2-.7-1.7-1.6-1.7s-1.6.6-1.8 1.7z" fill="#050505"/><path d="m837.1 501.9c0 1.1-.6 2.2-1.3 2.7h-.6c.6-.7 1-1.6 1-2.7z" fill="#050505"/><path d="m572.2 513.2h.9v-1.4h.8v1.4h1.6v.7h-1.6v3.5c0 .7.3 1 .8 1 .4 0 .7-.1 1.1-.3v.7c-.3.2-.7.3-1.2.3-.8 0-1.4-.4-1.4-1.6v-3.5h-.9v-.8z" fill="#050505"/><path d="m577.3 516.1c0 1.4 1 2.2 2.1 2.2.8 0 1.4-.2 1.9-.6v.8c-.5.4-1.2.5-1.9.5-1.6 0-2.9-1.1-2.9-3 0-1.7 1.2-3 2.7-3 1.4 0 2.4.9 2.4 2.5v.5h-4.3zm3.5-.6c-.1-1.2-.7-1.7-1.6-1.7s-1.6.6-1.8 1.7z" fill="#050505"/><g enable-background="new" fill="#050505"><path d="m582.8 517.7c.5.4 1 .7 1.6.7.7 0 1.2-.3 1.2-.9 0-.7-.5-.9-1.4-1.2-1-.3-1.4-.8-1.4-1.7 0-1 .8-1.5 1.8-1.5.6 0 1.1.1 1.5.4v.8c-.4-.4-.9-.6-1.5-.6s-1 .3-1 .9c0 .5.3.8 1.2 1.1 1 .3 1.7.7 1.7 1.7 0 1.1-.9 1.6-1.9 1.6-.6 0-1.2-.2-1.6-.5v-.8z"/><path d="m587.1 513.2h.9v-1.4h.8v1.4h1.6v.7h-1.6v3.5c0 .7.3 1 .8 1 .4 0 .7-.1 1.1-.3v.7c-.3.2-.7.3-1.2.3-.8 0-1.4-.4-1.4-1.6v-3.5h-.9v-.8z"/><path d="m595.5 517.9c0 1.1-.6 2.2-1.3 2.7h-.6c.6-.7 1-1.6 1-2.7z"/><path d="m604.8 518.8c-.6.1-1.2.2-1.8.2-2 0-3.3-1.1-3.3-3s1.4-3 3.1-3c.4 0 .9.1 1.2.3v-3.3h.8zm-.8-4.7c-.3-.2-.7-.3-1.2-.3-1.3 0-2.3.8-2.3 2.3 0 1.4 1 2.3 2.5 2.3.4 0 .7 0 1.1-.1v-4.2z"/></g><path d="m609.1 513.1c1.7 0 2.8 1.2 2.8 3s-1.2 3-2.8 3c-1.7 0-2.8-1.2-2.8-3s1.2-3 2.8-3zm0 .7c-1.2 0-2.1.9-2.1 2.3s.9 2.3 2.1 2.3 2.1-.9 2.1-2.3-.9-2.3-2.1-2.3z" fill="#050505"/><g enable-background="new" fill="#050505"><path d="m617.7 514.4c-.5-.3-1.1-.5-1.6-.5-1.2 0-2.2.8-2.2 2.3 0 1.4 1 2.2 2.2 2.2.6 0 1.1-.2 1.6-.5v.8c-.6.3-1.1.4-1.7.4-1.6 0-3-1.1-3-3s1.4-3 2.9-3c.6 0 1.1.1 1.6.4v.9z"/><path d="m623.7 518.8c-.7.1-1.4.2-2 .2-1.6 0-2.6-.6-2.6-2v-3.8h.8v3.8c0 1.1.8 1.3 1.7 1.3.4 0 .8 0 1.2-.1v-5h.8v5.6z"/><path d="m632.9 515.1c0-1.1-.7-1.3-1.3-1.3-.7 0-1.3.2-1.7.3.1.2.2.6.2.9v3.8h-.8v-3.8c0-1.1-.7-1.3-1.3-1.3s-1.1.1-1.5.3v4.8h-.8v-5.3c.7-.3 1.5-.5 2.3-.5.7 0 1.2.1 1.5.4.7-.3 1.4-.4 2.1-.4 1.4 0 2.1.6 2.1 2v3.8h-.8z"/><path d="m635.9 516.1c0 1.4 1 2.2 2.1 2.2.8 0 1.4-.2 1.9-.6v.8c-.5.4-1.2.5-1.9.5-1.6 0-2.9-1.1-2.9-3 0-1.7 1.2-3 2.7-3 1.4 0 2.4.9 2.4 2.5v.5h-4.3zm3.5-.6c-.1-1.2-.7-1.7-1.6-1.7s-1.6.6-1.8 1.7z"/><path d="m641.7 513.5c.8-.3 1.6-.4 2.4-.4 1.4 0 2.3.6 2.3 2v3.8h-.8v-3.7c0-1.2-.8-1.4-1.6-1.4-.6 0-1.1.1-1.5.2v4.9h-.8z"/><path d="m647.5 513.2h.9v-1.4h.8v1.4h1.6v.7h-1.6v3.5c0 .7.3 1 .8 1 .4 0 .7-.1 1.1-.3v.7c-.3.2-.7.3-1.2.3-.8 0-1.4-.4-1.4-1.6v-3.5h-.9v-.8z"/><path d="m655.3 514.9c0-.7-.5-1.1-1.2-1.1s-1.1.2-1.7.5v-.7c.5-.3 1.1-.4 1.8-.4 1.1 0 1.9.5 1.9 1.8v3.9c-.5.1-1.1.2-1.6.2-1.5 0-2.6-.5-2.6-1.7 0-1.1 1-1.7 2.8-1.7h.6zm0 1.4h-.6c-1.2 0-2 .3-2 1.1s.8 1 1.8 1c.2 0 .5 0 .8-.1z"/><path d="m657.1 513.2h.9v-1.4h.8v1.4h1.6v.7h-1.6v3.5c0 .7.3 1 .8 1 .4 0 .7-.1 1.1-.3v.7c-.3.2-.7.3-1.2.3-.8 0-1.4-.4-1.4-1.6v-3.5h-.9v-.8z"/><path d="m661.8 511.5c0-.3.3-.6.6-.6s.6.3.6.6-.3.6-.6.6-.6-.3-.6-.6zm1 7.4h-.8v-5.7h.8z"/><path d="m667.2 513.1c1.7 0 2.8 1.2 2.8 3s-1.2 3-2.8 3c-1.7 0-2.8-1.2-2.8-3s1.1-3 2.8-3zm0 .7c-1.2 0-2.1.9-2.1 2.3s.9 2.3 2.1 2.3 2.1-.9 2.1-2.3-.9-2.3-2.1-2.3z"/><path d="m671.6 513.5c.8-.3 1.6-.4 2.4-.4 1.4 0 2.3.6 2.3 2v3.8h-.8v-3.7c0-1.2-.8-1.4-1.6-1.4-.6 0-1.1.1-1.5.2v4.9h-.8z"/><path d="m678.7 517.7c.4 0 .7.3.7.6 0 .4-.3.7-.7.7s-.6-.3-.6-.7c0-.3.2-.6.6-.6z"/></g></svg>