<svg enable-background="new 0 0 120 120" viewBox="0 0 120 120" xmlns="http://www.w3.org/2000/svg"><path d="m0 0h120v120h-120z" fill="#1880b6"/><g transform="translate(5 31)"><path d="m27 28h28v28h-28z" fill="#daecf2" stroke="#324249" stroke-linecap="round" stroke-linejoin="round" stroke-width="2"/><path d="m49 37.5c-.6.3-1.2.4-1.9.5.7-.4 1.2-1 1.4-1.8-.6.4-1.3.6-2.1.8-.6-.6-1.5-1-2.4-1-1.8 0-3.3 1.5-3.3 3.3 0 .3 0 .5.1.7-2.7-.1-5.1-1.4-6.8-3.4-.3.5-.4 1-.4 1.6 0 1.1.6 2.1 1.5 2.7-.5 0-1-.2-1.5-.4 0 1.6 1.1 2.9 2.6 3.2-.3.1-.6.1-.9.1-.2 0-.4 0-.6-.1.4 1.3 1.6 2.3 3.1 2.3-1.1.9-2.5 1.4-4.1 1.4-.3 0-.5 0-.8 0 1.5.9 3.2 1.5 5 1.5 6 0 9.3-5 9.3-9.3 0-.1 0-.3 0-.4.8-.4 1.4-1 1.8-1.7z" fill="#324249"/></g><g transform="translate(33 25)"><path d="m27 28h28v28h-28z" fill="#ff6673" stroke="#324249" stroke-linecap="round" stroke-linejoin="round" stroke-width="2"/><path d="m36 36v12l10-6z" fill="#324249"/></g><g transform="translate(11 5)"><path d="m27 28h28v28h-28z" fill="#daecf2" stroke="#324249" stroke-linecap="round" stroke-linejoin="round" stroke-width="2"/><path d="m42 50v-7h3l.5-3h-3.5v-1.5c0-1 .5-1.5 1.5-1.5h1.5v-3c-.5 0-1.6 0-2.5 0-2.5 0-3.5 1.5-3.5 4v2h-3v3h3v7z" fill="#324249"/></g></svg>