<svg enable-background="new 0 0 120 120" viewBox="0 0 120 120" xmlns="http://www.w3.org/2000/svg"><path d="m0 0h120v120h-120z" fill="#1880b6"/><g stroke="#324249" stroke-linecap="round" stroke-linejoin="round" stroke-width="2"><path d="m61.3 54.4 27.5 13.7c1 .5 1.4 1.7.9 2.7-.2.3-.4.6-.8.8l-27.4 16.3c-.9.6-2.1.6-3.1 0l-27.4-16.2c-1-.6-1.3-1.8-.7-2.7.2-.3.5-.6.8-.8l27.5-13.7c.9-.5 1.9-.5 2.7-.1z" fill="#daecf2"/><path d="m61.3 32.5 27.4 13.7c1 .5 1.4 1.7.9 2.7-.2.3-.4.6-.8.8l-27.3 16.2c-.9.6-2.1.6-3.1 0l-27.3-16.2c-.9-.6-1.3-1.8-.7-2.7.2-.3.5-.6.8-.8l27.4-13.7c.9-.5 1.9-.5 2.7 0zm-.3 25.3 16-9.6m-22 6.6 16-9.6m13 20.6-14 .5-2 17.5 20.8-12.1c1-.6 1.3-1.8.7-2.7-.2-.3-.5-.6-.8-.8z" fill="#ff6673"/><ellipse cx="57.2" cy="74.5" fill="#ff6673" rx="5" ry="4" transform="matrix(.9063 -.4226 .4226 .9063 -26.1355 31.1506)"/></g></svg>