<svg viewBox="0 0 120 120" xmlns="http://www.w3.org/2000/svg"><path d="m0 0h120v120h-120z" fill="#1880b6"/><g stroke="#324249" stroke-linecap="round" stroke-linejoin="round" stroke-width="2" transform="translate(5 5)"><path d="m31 28h48c1.7 0 3 1.3 3 3v48c0 1.7-1.3 3-3 3h-48c-1.7 0-3-1.3-3-3v-48c0-1.7 1.3-3 3-3z" fill="#daecf2"/><g fill="#ff6673"><path d="m67.7 51.8 14.3 16.2v7l-17.4-20.2-10.6 10.2v17h-8v-16h-18v-5h18v-33h8v31l28-27v6z"/><path d="m46 50-18-3m42-3.5-6-15.5m3 54 5-18"/></g></g></svg>