<svg enable-background="new 0 0 120 120" viewBox="0 0 120 120" xmlns="http://www.w3.org/2000/svg"><path d="m0 0h120v120h-120z" fill="#1880b6"/><g stroke="#324249" stroke-linecap="round" stroke-linejoin="round" stroke-width="2" transform="translate(1 1)"><path d="m28 59h8m1.1-21.9 5.7 5.7m16.2-14.8v8m21.9 1.1-5.7 5.7m14.8 16.2h-8m-1.1 21.9-5.7-5.7m-16.2 14.8v-8m-21.9-1.1 5.7-5.7" fill="#ff6673"/><path d="m59 70.9-6.5 3.8-1.9-7.3-7.3-1.9 3.8-6.5-3.8-6.5 7.3-1.9 1.9-7.3 6.5 3.8 6.5-3.8 1.9 7.3 7.3 1.9-3.8 6.5 3.8 6.5-7.3 1.9-1.9 7.3z" fill="#daecf2"/></g></svg>