<svg enable-background="new 0 0 120 120" viewBox="0 0 120 120" xmlns="http://www.w3.org/2000/svg"><path d="m0 0h120v120h-120z" fill="#1880b6"/><g stroke="#324249" stroke-linecap="round" stroke-linejoin="round" stroke-width="2" transform="translate(5 3)"><path d="m31 27h42c2.2 0 4 1.8 4 4v26c0 2.2-1.8 4-4 4h-8v8l-12-8h-22c-2.2 0-4-1.8-4-4v-26c0-2.2 1.8-4 4-4z" fill="#daecf2"/><path d="m65 87c1.3-4 4.3-6 9-6s7.7 2 9 6z" fill="#ff6673"/><circle cx="74" cy="72" fill="#ff6673" r="5"/><path d="m37 37h18m-18 7h10m4 0h16m-30 7h26" fill="#daecf2"/></g></svg>